M48
; DRILL file {KiCad 9.0.7} date 2026-05-11T11:54:19+0800
; FORMAT={-:-/ absolute / metric / decimal}
; #@! TF.CreationDate,2026-05-11T11:54:19+08:00
; #@! TF.GenerationSoftware,Kicad,Pcbnew,9.0.7
; #@! TF.FileFunction,Plated,1,2,PTH
FMAT,2
METRIC
; #@! TA.AperFunction,Plated,PTH,ViaDrill
T1C0.300
; #@! TA.AperFunction,Plated,PTH,ComponentDrill
T2C0.800
%
G90
G05
T1
X91.0Y-55.5
X91.5Y-56.1
X91.5Y-56.75
X91.75Y-49.25
X91.75Y-50.0
X92.1Y-53.2
X93.712Y-53.256
X93.75Y-47.0
X93.75Y-51.0
X94.0Y-55.25
X94.375Y-49.125
X94.5Y-47.0
X94.5Y-50.25
X95.8Y-60.887
X95.9Y-67.775
X96.25Y-58.25
X96.4Y-53.4
X97.0Y-49.0
X98.0Y-43.5
X98.2Y-50.337
X98.44Y-73.65
X99.575Y-54.25
X99.83Y-48.93
X100.465Y-63.175
X100.5Y-42.25
X101.0Y-58.0
X101.1Y-60.0
X101.2Y-48.8
X101.2Y-49.5
X101.5Y-46.0
X101.6Y-41.9
X101.675Y-72.5
X101.75Y-43.75
X101.75Y-47.1
X101.8Y-74.0
X103.0Y-71.1
X103.54Y-58.19
X103.64Y-61.57
X103.948Y-67.85
X104.0Y-43.75
X104.0Y-74.0
X104.025Y-42.6
X105.287Y-72.5
X106.3Y-46.1
X106.4Y-58.5
X106.4Y-63.2
X106.499Y-47.1
X106.499Y-49.5
X106.5Y-53.0
X106.5Y-54.5
X107.0Y-57.6
X107.214Y-53.064
X107.25Y-48.25
X107.4Y-55.5
X107.65Y-41.4
X108.0Y-58.0
X108.5Y-71.1
X108.75Y-48.25
X108.8Y-49.4
X109.935Y-67.85
X110.275Y-44.6
X110.275Y-50.6
X111.6Y-68.0
X111.775Y-49.4
X111.775Y-50.6
X112.6Y-60.8
X113.275Y-43.4
X113.5Y-52.3
X113.789Y-54.5
X114.75Y-45.75
X114.75Y-47.0
X114.775Y-44.6
X115.0Y-52.5
X115.0Y-66.0
X115.5Y-69.0
X115.961Y-54.961
X116.2Y-52.2
X116.25Y-56.25
X116.275Y-48.2
X116.49Y-44.69
X116.66Y-46.5
X117.0Y-52.201
X117.0Y-53.5
X117.0Y-69.5
X117.5Y-57.0
X118.5Y-59.0
X118.575Y-52.347
X118.75Y-51.25
X119.0Y-54.5
X119.25Y-45.5
X119.253Y-58.195
X119.3Y-49.2
X119.3Y-50.5
X119.53Y-40.65
X119.684Y-41.882
X119.75Y-53.5
X119.775Y-42.5
X120.4Y-62.762
X120.85Y-52.0
X120.852Y-48.475
X120.938Y-46.7
X120.969Y-45.374
X121.0Y-51.0
X121.5Y-59.45
X121.73Y-44.873
X122.158Y-58.342
X122.25Y-48.2
X122.457Y-49.415
X122.7Y-51.058
X122.708Y-52.0
X122.708Y-54.75
X122.77Y-43.72
X122.949Y-50.449
X123.613Y-55.035
X123.871Y-48.706
X124.0Y-43.15
X124.21Y-51.72
X124.28Y-53.395
X124.637Y-47.75
X125.188Y-49.875
X125.5Y-46.5
X125.9Y-70.35
X126.0Y-53.775
X126.362Y-47.75
X126.5Y-42.0
X126.775Y-50.205
X126.857Y-54.676
X126.893Y-45.783
X126.999Y-49.452
X127.25Y-50.67
X127.67Y-61.0
X127.75Y-42.75
X128.5Y-42.0
X128.5Y-45.0
X129.0Y-49.5
X129.05Y-52.75
X129.499Y-42.998
X130.162Y-51.5
X130.262Y-47.8
X131.275Y-41.85
X131.275Y-49.25
X131.325Y-53.8
X131.325Y-54.45
X131.552Y-48.625
X131.66Y-51.2
X131.75Y-50.525
T2
X93.15Y-42.7
X93.15Y-44.7
M30
