%TF.GenerationSoftware,KiCad,Pcbnew,9.0.7*%
%TF.CreationDate,2026-05-11T11:53:41+08:00*%
%TF.ProjectId,OpenGUT,4f70656e-4755-4542-9e6b-696361645f70,rev?*%
%TF.SameCoordinates,Original*%
%TF.FileFunction,Legend,Top*%
%TF.FilePolarity,Positive*%
%FSLAX46Y46*%
G04 Gerber Fmt 4.6, Leading zero omitted, Abs format (unit mm)*
G04 Created by KiCad (PCBNEW 9.0.7) date 2026-05-11 11:53:41*
%MOMM*%
%LPD*%
G01*
G04 APERTURE LIST*
%ADD10C,0.300000*%
%ADD11C,0.150000*%
%ADD12C,0.120000*%
%ADD13C,0.127000*%
%ADD14C,0.200000*%
%ADD15C,0.000000*%
G04 APERTURE END LIST*
D10*
G36*
X121541847Y-36579678D02*
G01*
X121574090Y-36611920D01*
X121614035Y-36691810D01*
X121614035Y-37020989D01*
X121574090Y-37100878D01*
X121541846Y-37133122D01*
X121461958Y-37173066D01*
X121266111Y-37173066D01*
X121247368Y-37163694D01*
X121247368Y-36549104D01*
X121266111Y-36539733D01*
X121461958Y-36539733D01*
X121541847Y-36579678D01*
G37*
G36*
X120208514Y-36113011D02*
G01*
X120295257Y-36199754D01*
X120347368Y-36408197D01*
X120347368Y-36837935D01*
X120295256Y-37046378D01*
X120208513Y-37133121D01*
X120128625Y-37173066D01*
X119932778Y-37173066D01*
X119852888Y-37133122D01*
X119766145Y-37046378D01*
X119714034Y-36837934D01*
X119714034Y-36408197D01*
X119766145Y-36199753D01*
X119852888Y-36113011D01*
X119932778Y-36073066D01*
X120128624Y-36073066D01*
X120208514Y-36113011D01*
G37*
G36*
X122785564Y-36568203D02*
G01*
X122802649Y-36602372D01*
X122447368Y-36673429D01*
X122447368Y-36625143D01*
X122475838Y-36568203D01*
X122532778Y-36539733D01*
X122728625Y-36539733D01*
X122785564Y-36568203D01*
G37*
G36*
X128600043Y-38092407D02*
G01*
X119258478Y-38092407D01*
X119258478Y-36389733D01*
X119414034Y-36389733D01*
X119414034Y-36856400D01*
X119414536Y-36861503D01*
X119414211Y-36863691D01*
X119415830Y-36874642D01*
X119416916Y-36885664D01*
X119417762Y-36887708D01*
X119418513Y-36892781D01*
X119485180Y-37159446D01*
X119495073Y-37187138D01*
X119501713Y-37196099D01*
X119505980Y-37206401D01*
X119524635Y-37229132D01*
X119657968Y-37362466D01*
X119669471Y-37371906D01*
X119672067Y-37374900D01*
X119676576Y-37377738D01*
X119680698Y-37381121D01*
X119684360Y-37382638D01*
X119696953Y-37390564D01*
X119830286Y-37457230D01*
X119857750Y-37467740D01*
X119863125Y-37468121D01*
X119868104Y-37470184D01*
X119897368Y-37473066D01*
X120164034Y-37473066D01*
X120193298Y-37470184D01*
X120198276Y-37468121D01*
X120203652Y-37467740D01*
X120231115Y-37457230D01*
X120364449Y-37390565D01*
X120377043Y-37382637D01*
X120380704Y-37381121D01*
X120384824Y-37377739D01*
X120389335Y-37374900D01*
X120391930Y-37371906D01*
X120403434Y-37362466D01*
X120536767Y-37229132D01*
X120555422Y-37206401D01*
X120559688Y-37196099D01*
X120566329Y-37187138D01*
X120576222Y-37159447D01*
X120642889Y-36892781D01*
X120643639Y-36887708D01*
X120644486Y-36885664D01*
X120645571Y-36874644D01*
X120647191Y-36863692D01*
X120646865Y-36861503D01*
X120647368Y-36856400D01*
X120647368Y-36389733D01*
X120947368Y-36389733D01*
X120947368Y-37789733D01*
X120950250Y-37818997D01*
X120972648Y-37873069D01*
X121014032Y-37914453D01*
X121068104Y-37936851D01*
X121126632Y-37936851D01*
X121180704Y-37914453D01*
X121222088Y-37873069D01*
X121244486Y-37818997D01*
X121247368Y-37789733D01*
X121247368Y-37473066D01*
X121497368Y-37473066D01*
X121526632Y-37470184D01*
X121531610Y-37468121D01*
X121536986Y-37467740D01*
X121564450Y-37457230D01*
X121697783Y-37390564D01*
X121710376Y-37382636D01*
X121714036Y-37381121D01*
X121718155Y-37377739D01*
X121722669Y-37374899D01*
X121725265Y-37371904D01*
X121736767Y-37362466D01*
X121803434Y-37295799D01*
X121812874Y-37284296D01*
X121815867Y-37281701D01*
X121818705Y-37277191D01*
X121822089Y-37273069D01*
X121823605Y-37269406D01*
X121831532Y-37256815D01*
X121898199Y-37123482D01*
X121908708Y-37096019D01*
X121909089Y-37090644D01*
X121911153Y-37085664D01*
X121914035Y-37056400D01*
X121914035Y-36656400D01*
X121911153Y-36627136D01*
X121909091Y-36622158D01*
X121908709Y-36616781D01*
X121898358Y-36589733D01*
X122147368Y-36589733D01*
X122147368Y-37123066D01*
X122150250Y-37152330D01*
X122152311Y-37157307D01*
X122152694Y-37162685D01*
X122163204Y-37190148D01*
X122229871Y-37323482D01*
X122232951Y-37328376D01*
X122233721Y-37330684D01*
X122236213Y-37333557D01*
X122245536Y-37348368D01*
X122259748Y-37360694D01*
X122272068Y-37374899D01*
X122286871Y-37384217D01*
X122289751Y-37386715D01*
X122292062Y-37387485D01*
X122296953Y-37390564D01*
X122430287Y-37457230D01*
X122457750Y-37467740D01*
X122463125Y-37468121D01*
X122468104Y-37470184D01*
X122497368Y-37473066D01*
X122764035Y-37473066D01*
X122793299Y-37470184D01*
X122798277Y-37468121D01*
X122803653Y-37467740D01*
X122831117Y-37457230D01*
X122964450Y-37390564D01*
X122989336Y-37374899D01*
X123027683Y-37330684D01*
X123046190Y-37275162D01*
X123042042Y-37216782D01*
X123015868Y-37164432D01*
X122971653Y-37126086D01*
X122916130Y-37107578D01*
X122857750Y-37111726D01*
X122830287Y-37122236D01*
X122728625Y-37173066D01*
X122532778Y-37173066D01*
X122475838Y-37144596D01*
X122447368Y-37087656D01*
X122447368Y-36979370D01*
X122993298Y-36870184D01*
X122993299Y-36870184D01*
X122993299Y-36870183D01*
X122993453Y-36870153D01*
X123021583Y-36861588D01*
X123033794Y-36853409D01*
X123047371Y-36847786D01*
X123057872Y-36837284D01*
X123070213Y-36829020D01*
X123078365Y-36816792D01*
X123088755Y-36806402D01*
X123094437Y-36792682D01*
X123102677Y-36780324D01*
X123105528Y-36765907D01*
X123111153Y-36752330D01*
X123114035Y-36723066D01*
X123114035Y-36589733D01*
X123111153Y-36560469D01*
X123109089Y-36555488D01*
X123108708Y-36550114D01*
X123098199Y-36522651D01*
X123031740Y-36389733D01*
X123414035Y-36389733D01*
X123414035Y-37323066D01*
X123416917Y-37352330D01*
X123439315Y-37406402D01*
X123480699Y-37447786D01*
X123534771Y-37470184D01*
X123593299Y-37470184D01*
X123647371Y-37447786D01*
X123688755Y-37406402D01*
X123711153Y-37352330D01*
X123714035Y-37323066D01*
X123714035Y-36585198D01*
X123719555Y-36579678D01*
X123799445Y-36539733D01*
X123928625Y-36539733D01*
X123985564Y-36568203D01*
X124014035Y-36625143D01*
X124014035Y-37323066D01*
X124016917Y-37352330D01*
X124039315Y-37406402D01*
X124080699Y-37447786D01*
X124134771Y-37470184D01*
X124193299Y-37470184D01*
X124247371Y-37447786D01*
X124288755Y-37406402D01*
X124311153Y-37352330D01*
X124314035Y-37323066D01*
X124314035Y-36589733D01*
X124311153Y-36560469D01*
X124309089Y-36555488D01*
X124308708Y-36550114D01*
X124298358Y-36523066D01*
X124614035Y-36523066D01*
X124614035Y-36723066D01*
X124614537Y-36728169D01*
X124614212Y-36730357D01*
X124615831Y-36741307D01*
X124616917Y-36752330D01*
X124617764Y-36754374D01*
X124618514Y-36759446D01*
X124685181Y-37026113D01*
X124685952Y-37028271D01*
X124686029Y-37029352D01*
X124690684Y-37041518D01*
X124695074Y-37053805D01*
X124695719Y-37054676D01*
X124696538Y-37056815D01*
X124763205Y-37190148D01*
X124771132Y-37202741D01*
X124772648Y-37206401D01*
X124776029Y-37210520D01*
X124778870Y-37215034D01*
X124781864Y-37217630D01*
X124791303Y-37229132D01*
X124924636Y-37362466D01*
X124947366Y-37381121D01*
X124952345Y-37383183D01*
X124956417Y-37386715D01*
X124983268Y-37398703D01*
X125183268Y-37465369D01*
X125197777Y-37468667D01*
X125201438Y-37470184D01*
X125206746Y-37470706D01*
X125211942Y-37471888D01*
X125215890Y-37471607D01*
X125230702Y-37473066D01*
X125364035Y-37473066D01*
X125378840Y-37471607D01*
X125382795Y-37471889D01*
X125387996Y-37470706D01*
X125393299Y-37470184D01*
X125396956Y-37468668D01*
X125411469Y-37465369D01*
X125611468Y-37398703D01*
X125638319Y-37386715D01*
X125642390Y-37383183D01*
X125647370Y-37381121D01*
X125670101Y-37362466D01*
X125736768Y-37295799D01*
X125755423Y-37273069D01*
X125774448Y-37227137D01*
X125777820Y-37218997D01*
X125780702Y-37189733D01*
X125780702Y-36723066D01*
X125777820Y-36693802D01*
X125755422Y-36639730D01*
X125714038Y-36598346D01*
X125659966Y-36575948D01*
X125630702Y-36573066D01*
X125364035Y-36573066D01*
X125334771Y-36575948D01*
X125280699Y-36598346D01*
X125239315Y-36639730D01*
X125216917Y-36693802D01*
X125216917Y-36752330D01*
X125239315Y-36806402D01*
X125280699Y-36847786D01*
X125334771Y-36870184D01*
X125364035Y-36873066D01*
X125480702Y-36873066D01*
X125480702Y-37126063D01*
X125339692Y-37173066D01*
X125255044Y-37173066D01*
X125111728Y-37125294D01*
X125020646Y-37034212D01*
X124972229Y-36937377D01*
X124914035Y-36704601D01*
X124914035Y-36541531D01*
X124972229Y-36308755D01*
X125020647Y-36211920D01*
X125111730Y-36120837D01*
X125255043Y-36073066D01*
X125395292Y-36073066D01*
X125496953Y-36123897D01*
X125524416Y-36134406D01*
X125582796Y-36138555D01*
X125638319Y-36120048D01*
X125682534Y-36081701D01*
X125708708Y-36029352D01*
X125712857Y-35970972D01*
X125696889Y-35923066D01*
X126080702Y-35923066D01*
X126080702Y-37056400D01*
X126083584Y-37085664D01*
X126085647Y-37090644D01*
X126086029Y-37096019D01*
X126096538Y-37123482D01*
X126163205Y-37256815D01*
X126171130Y-37269405D01*
X126172647Y-37273067D01*
X126176029Y-37277188D01*
X126178870Y-37281701D01*
X126181863Y-37284297D01*
X126191302Y-37295798D01*
X126257968Y-37362465D01*
X126269471Y-37371906D01*
X126272068Y-37374900D01*
X126276577Y-37377738D01*
X126280699Y-37381121D01*
X126284362Y-37382638D01*
X126296954Y-37390564D01*
X126430287Y-37457230D01*
X126457751Y-37467740D01*
X126463126Y-37468121D01*
X126468105Y-37470184D01*
X126497369Y-37473066D01*
X126764035Y-37473066D01*
X126793299Y-37470184D01*
X126798277Y-37468121D01*
X126803653Y-37467740D01*
X126831116Y-37457230D01*
X126964450Y-37390565D01*
X126977048Y-37382634D01*
X126980705Y-37381120D01*
X126984821Y-37377742D01*
X126989336Y-37374900D01*
X126991933Y-37371904D01*
X127003436Y-37362465D01*
X127070102Y-37295798D01*
X127079540Y-37284297D01*
X127082534Y-37281701D01*
X127085374Y-37277188D01*
X127088757Y-37273067D01*
X127090273Y-37269405D01*
X127098199Y-37256815D01*
X127164866Y-37123482D01*
X127175375Y-37096019D01*
X127175756Y-37090644D01*
X127177820Y-37085664D01*
X127180702Y-37056400D01*
X127180702Y-35923066D01*
X127177820Y-35893802D01*
X127350251Y-35893802D01*
X127350251Y-35952330D01*
X127372649Y-36006402D01*
X127414033Y-36047786D01*
X127468105Y-36070184D01*
X127497369Y-36073066D01*
X127747369Y-36073066D01*
X127747369Y-37323066D01*
X127750251Y-37352330D01*
X127772649Y-37406402D01*
X127814033Y-37447786D01*
X127868105Y-37470184D01*
X127926633Y-37470184D01*
X127980705Y-37447786D01*
X128022089Y-37406402D01*
X128044487Y-37352330D01*
X128047369Y-37323066D01*
X128047369Y-36073066D01*
X128297369Y-36073066D01*
X128326633Y-36070184D01*
X128380705Y-36047786D01*
X128422089Y-36006402D01*
X128444487Y-35952330D01*
X128444487Y-35893802D01*
X128422089Y-35839730D01*
X128380705Y-35798346D01*
X128326633Y-35775948D01*
X128297369Y-35773066D01*
X127497369Y-35773066D01*
X127468105Y-35775948D01*
X127414033Y-35798346D01*
X127372649Y-35839730D01*
X127350251Y-35893802D01*
X127177820Y-35893802D01*
X127155422Y-35839730D01*
X127114038Y-35798346D01*
X127059966Y-35775948D01*
X127001438Y-35775948D01*
X126947366Y-35798346D01*
X126905982Y-35839730D01*
X126883584Y-35893802D01*
X126880702Y-35923066D01*
X126880702Y-37020989D01*
X126840756Y-37100879D01*
X126808514Y-37133122D01*
X126728626Y-37173066D01*
X126532779Y-37173066D01*
X126452889Y-37133122D01*
X126420647Y-37100879D01*
X126380702Y-37020989D01*
X126380702Y-35923066D01*
X126377820Y-35893802D01*
X126355422Y-35839730D01*
X126314038Y-35798346D01*
X126259966Y-35775948D01*
X126201438Y-35775948D01*
X126147366Y-35798346D01*
X126105982Y-35839730D01*
X126083584Y-35893802D01*
X126080702Y-35923066D01*
X125696889Y-35923066D01*
X125694350Y-35915449D01*
X125656003Y-35871234D01*
X125631117Y-35855569D01*
X125497784Y-35788902D01*
X125470321Y-35778393D01*
X125464946Y-35778011D01*
X125459966Y-35775948D01*
X125430702Y-35773066D01*
X125230702Y-35773066D01*
X125215896Y-35774524D01*
X125211942Y-35774243D01*
X125206740Y-35775425D01*
X125201438Y-35775948D01*
X125197780Y-35777463D01*
X125183268Y-35780763D01*
X124983268Y-35847431D01*
X124956417Y-35859419D01*
X124952347Y-35862948D01*
X124947366Y-35865012D01*
X124924636Y-35883667D01*
X124791303Y-36017000D01*
X124781864Y-36028501D01*
X124778870Y-36031098D01*
X124776029Y-36035611D01*
X124772648Y-36039731D01*
X124771132Y-36043390D01*
X124763205Y-36055984D01*
X124696538Y-36189318D01*
X124695719Y-36191456D01*
X124695074Y-36192328D01*
X124690692Y-36204592D01*
X124686028Y-36216781D01*
X124685951Y-36217864D01*
X124685181Y-36220020D01*
X124618514Y-36486685D01*
X124617763Y-36491757D01*
X124616917Y-36493802D01*
X124615831Y-36504823D01*
X124614212Y-36515775D01*
X124614537Y-36517962D01*
X124614035Y-36523066D01*
X124298358Y-36523066D01*
X124298199Y-36522651D01*
X124231532Y-36389318D01*
X124228453Y-36384427D01*
X124227683Y-36382116D01*
X124225186Y-36379237D01*
X124215867Y-36364432D01*
X124201658Y-36352109D01*
X124189336Y-36337901D01*
X124174530Y-36328581D01*
X124171652Y-36326085D01*
X124169340Y-36325314D01*
X124164450Y-36322236D01*
X124031117Y-36255569D01*
X124003654Y-36245060D01*
X123998279Y-36244678D01*
X123993299Y-36242615D01*
X123964035Y-36239733D01*
X123764035Y-36239733D01*
X123734771Y-36242615D01*
X123729790Y-36244678D01*
X123724416Y-36245060D01*
X123696953Y-36255569D01*
X123657602Y-36275244D01*
X123647371Y-36265013D01*
X123593299Y-36242615D01*
X123534771Y-36242615D01*
X123480699Y-36265013D01*
X123439315Y-36306397D01*
X123416917Y-36360469D01*
X123414035Y-36389733D01*
X123031740Y-36389733D01*
X123031532Y-36389318D01*
X123028453Y-36384427D01*
X123027683Y-36382116D01*
X123025186Y-36379237D01*
X123015867Y-36364432D01*
X123001658Y-36352109D01*
X122989336Y-36337901D01*
X122974530Y-36328581D01*
X122971652Y-36326085D01*
X122969340Y-36325314D01*
X122964450Y-36322236D01*
X122831117Y-36255569D01*
X122803654Y-36245060D01*
X122798279Y-36244678D01*
X122793299Y-36242615D01*
X122764035Y-36239733D01*
X122497368Y-36239733D01*
X122468104Y-36242615D01*
X122463123Y-36244678D01*
X122457749Y-36245060D01*
X122430286Y-36255569D01*
X122296953Y-36322236D01*
X122292062Y-36325314D01*
X122289751Y-36326085D01*
X122286872Y-36328581D01*
X122272067Y-36337901D01*
X122259744Y-36352109D01*
X122245536Y-36364432D01*
X122236216Y-36379237D01*
X122233720Y-36382116D01*
X122232949Y-36384427D01*
X122229871Y-36389318D01*
X122163204Y-36522651D01*
X122152695Y-36550114D01*
X122152313Y-36555488D01*
X122150250Y-36560469D01*
X122147368Y-36589733D01*
X121898358Y-36589733D01*
X121898199Y-36589318D01*
X121831532Y-36455984D01*
X121823606Y-36443392D01*
X121822089Y-36439730D01*
X121818705Y-36435607D01*
X121815867Y-36431098D01*
X121812874Y-36428502D01*
X121803433Y-36416999D01*
X121736766Y-36350333D01*
X121725265Y-36340894D01*
X121722669Y-36337901D01*
X121718156Y-36335060D01*
X121714035Y-36331678D01*
X121710373Y-36330161D01*
X121697783Y-36322236D01*
X121564450Y-36255569D01*
X121536987Y-36245060D01*
X121531612Y-36244678D01*
X121526632Y-36242615D01*
X121497368Y-36239733D01*
X121230701Y-36239733D01*
X121201437Y-36242615D01*
X121196456Y-36244678D01*
X121191082Y-36245060D01*
X121163619Y-36255569D01*
X121161029Y-36256863D01*
X121126632Y-36242615D01*
X121068104Y-36242615D01*
X121014032Y-36265013D01*
X120972648Y-36306397D01*
X120950250Y-36360469D01*
X120947368Y-36389733D01*
X120647368Y-36389733D01*
X120646865Y-36384629D01*
X120647191Y-36382442D01*
X120645571Y-36371490D01*
X120644486Y-36360469D01*
X120643639Y-36358424D01*
X120642889Y-36353352D01*
X120576222Y-36086686D01*
X120566329Y-36058994D01*
X120559689Y-36050033D01*
X120555422Y-36039730D01*
X120536767Y-36017000D01*
X120403434Y-35883667D01*
X120391932Y-35874228D01*
X120389336Y-35871234D01*
X120384822Y-35868393D01*
X120380703Y-35865012D01*
X120377043Y-35863496D01*
X120364450Y-35855569D01*
X120231116Y-35788902D01*
X120203653Y-35778392D01*
X120198275Y-35778009D01*
X120193298Y-35775948D01*
X120164034Y-35773066D01*
X119897368Y-35773066D01*
X119868104Y-35775948D01*
X119863126Y-35778009D01*
X119857749Y-35778392D01*
X119830286Y-35788902D01*
X119696952Y-35855569D01*
X119684360Y-35863495D01*
X119680698Y-35865012D01*
X119676575Y-35868395D01*
X119672066Y-35871234D01*
X119669470Y-35874226D01*
X119657968Y-35883667D01*
X119524635Y-36017000D01*
X119505980Y-36039731D01*
X119501712Y-36050032D01*
X119495073Y-36058994D01*
X119485180Y-36086686D01*
X119418513Y-36353353D01*
X119417763Y-36358424D01*
X119416916Y-36360469D01*
X119415830Y-36371491D01*
X119414211Y-36382442D01*
X119414536Y-36384629D01*
X119414034Y-36389733D01*
X119258478Y-36389733D01*
X119258478Y-35617510D01*
X128600043Y-35617510D01*
X128600043Y-38092407D01*
G37*
D11*
X93933333Y-64654819D02*
X93600000Y-64178628D01*
X93361905Y-64654819D02*
X93361905Y-63654819D01*
X93361905Y-63654819D02*
X93742857Y-63654819D01*
X93742857Y-63654819D02*
X93838095Y-63702438D01*
X93838095Y-63702438D02*
X93885714Y-63750057D01*
X93885714Y-63750057D02*
X93933333Y-63845295D01*
X93933333Y-63845295D02*
X93933333Y-63988152D01*
X93933333Y-63988152D02*
X93885714Y-64083390D01*
X93885714Y-64083390D02*
X93838095Y-64131009D01*
X93838095Y-64131009D02*
X93742857Y-64178628D01*
X93742857Y-64178628D02*
X93361905Y-64178628D01*
X94838095Y-63654819D02*
X94361905Y-63654819D01*
X94361905Y-63654819D02*
X94314286Y-64131009D01*
X94314286Y-64131009D02*
X94361905Y-64083390D01*
X94361905Y-64083390D02*
X94457143Y-64035771D01*
X94457143Y-64035771D02*
X94695238Y-64035771D01*
X94695238Y-64035771D02*
X94790476Y-64083390D01*
X94790476Y-64083390D02*
X94838095Y-64131009D01*
X94838095Y-64131009D02*
X94885714Y-64226247D01*
X94885714Y-64226247D02*
X94885714Y-64464342D01*
X94885714Y-64464342D02*
X94838095Y-64559580D01*
X94838095Y-64559580D02*
X94790476Y-64607200D01*
X94790476Y-64607200D02*
X94695238Y-64654819D01*
X94695238Y-64654819D02*
X94457143Y-64654819D01*
X94457143Y-64654819D02*
X94361905Y-64607200D01*
X94361905Y-64607200D02*
X94314286Y-64559580D01*
X93061905Y-74579819D02*
X93061905Y-73579819D01*
X93061905Y-73579819D02*
X93300000Y-73579819D01*
X93300000Y-73579819D02*
X93442857Y-73627438D01*
X93442857Y-73627438D02*
X93538095Y-73722676D01*
X93538095Y-73722676D02*
X93585714Y-73817914D01*
X93585714Y-73817914D02*
X93633333Y-74008390D01*
X93633333Y-74008390D02*
X93633333Y-74151247D01*
X93633333Y-74151247D02*
X93585714Y-74341723D01*
X93585714Y-74341723D02*
X93538095Y-74436961D01*
X93538095Y-74436961D02*
X93442857Y-74532200D01*
X93442857Y-74532200D02*
X93300000Y-74579819D01*
X93300000Y-74579819D02*
X93061905Y-74579819D01*
X93966667Y-73579819D02*
X94585714Y-73579819D01*
X94585714Y-73579819D02*
X94252381Y-73960771D01*
X94252381Y-73960771D02*
X94395238Y-73960771D01*
X94395238Y-73960771D02*
X94490476Y-74008390D01*
X94490476Y-74008390D02*
X94538095Y-74056009D01*
X94538095Y-74056009D02*
X94585714Y-74151247D01*
X94585714Y-74151247D02*
X94585714Y-74389342D01*
X94585714Y-74389342D02*
X94538095Y-74484580D01*
X94538095Y-74484580D02*
X94490476Y-74532200D01*
X94490476Y-74532200D02*
X94395238Y-74579819D01*
X94395238Y-74579819D02*
X94109524Y-74579819D01*
X94109524Y-74579819D02*
X94014286Y-74532200D01*
X94014286Y-74532200D02*
X93966667Y-74484580D01*
X122109726Y-74778333D02*
X122109726Y-73992142D01*
X122109726Y-73992142D02*
X122593535Y-74415476D01*
X122593535Y-74415476D02*
X122593535Y-74234047D01*
X122593535Y-74234047D02*
X122654011Y-74113095D01*
X122654011Y-74113095D02*
X122714488Y-74052619D01*
X122714488Y-74052619D02*
X122835440Y-73992142D01*
X122835440Y-73992142D02*
X123137821Y-73992142D01*
X123137821Y-73992142D02*
X123258773Y-74052619D01*
X123258773Y-74052619D02*
X123319250Y-74113095D01*
X123319250Y-74113095D02*
X123379726Y-74234047D01*
X123379726Y-74234047D02*
X123379726Y-74596904D01*
X123379726Y-74596904D02*
X123319250Y-74717857D01*
X123319250Y-74717857D02*
X123258773Y-74778333D01*
X123258773Y-73447857D02*
X123319250Y-73387380D01*
X123319250Y-73387380D02*
X123379726Y-73447857D01*
X123379726Y-73447857D02*
X123319250Y-73508333D01*
X123319250Y-73508333D02*
X123258773Y-73447857D01*
X123258773Y-73447857D02*
X123379726Y-73447857D01*
X122109726Y-72238333D02*
X122109726Y-72843095D01*
X122109726Y-72843095D02*
X122714488Y-72903571D01*
X122714488Y-72903571D02*
X122654011Y-72843095D01*
X122654011Y-72843095D02*
X122593535Y-72722142D01*
X122593535Y-72722142D02*
X122593535Y-72419761D01*
X122593535Y-72419761D02*
X122654011Y-72298809D01*
X122654011Y-72298809D02*
X122714488Y-72238333D01*
X122714488Y-72238333D02*
X122835440Y-72177856D01*
X122835440Y-72177856D02*
X123137821Y-72177856D01*
X123137821Y-72177856D02*
X123258773Y-72238333D01*
X123258773Y-72238333D02*
X123319250Y-72298809D01*
X123319250Y-72298809D02*
X123379726Y-72419761D01*
X123379726Y-72419761D02*
X123379726Y-72722142D01*
X123379726Y-72722142D02*
X123319250Y-72843095D01*
X123319250Y-72843095D02*
X123258773Y-72903571D01*
X123379726Y-71633571D02*
X122533059Y-71633571D01*
X122654011Y-71633571D02*
X122593535Y-71573094D01*
X122593535Y-71573094D02*
X122533059Y-71452142D01*
X122533059Y-71452142D02*
X122533059Y-71270713D01*
X122533059Y-71270713D02*
X122593535Y-71149761D01*
X122593535Y-71149761D02*
X122714488Y-71089285D01*
X122714488Y-71089285D02*
X123379726Y-71089285D01*
X122714488Y-71089285D02*
X122593535Y-71028809D01*
X122593535Y-71028809D02*
X122533059Y-70907856D01*
X122533059Y-70907856D02*
X122533059Y-70726428D01*
X122533059Y-70726428D02*
X122593535Y-70605475D01*
X122593535Y-70605475D02*
X122714488Y-70544999D01*
X122714488Y-70544999D02*
X123379726Y-70544999D01*
X123379726Y-69940238D02*
X122533059Y-69940238D01*
X122654011Y-69940238D02*
X122593535Y-69879761D01*
X122593535Y-69879761D02*
X122533059Y-69758809D01*
X122533059Y-69758809D02*
X122533059Y-69577380D01*
X122533059Y-69577380D02*
X122593535Y-69456428D01*
X122593535Y-69456428D02*
X122714488Y-69395952D01*
X122714488Y-69395952D02*
X123379726Y-69395952D01*
X122714488Y-69395952D02*
X122593535Y-69335476D01*
X122593535Y-69335476D02*
X122533059Y-69214523D01*
X122533059Y-69214523D02*
X122533059Y-69033095D01*
X122533059Y-69033095D02*
X122593535Y-68912142D01*
X122593535Y-68912142D02*
X122714488Y-68851666D01*
X122714488Y-68851666D02*
X123379726Y-68851666D01*
X123016869Y-67339762D02*
X123016869Y-66735000D01*
X123379726Y-67460714D02*
X122109726Y-67037381D01*
X122109726Y-67037381D02*
X123379726Y-66614047D01*
X122533059Y-65646429D02*
X123379726Y-65646429D01*
X122533059Y-66190715D02*
X123198297Y-66190715D01*
X123198297Y-66190715D02*
X123319250Y-66130238D01*
X123319250Y-66130238D02*
X123379726Y-66009286D01*
X123379726Y-66009286D02*
X123379726Y-65827857D01*
X123379726Y-65827857D02*
X123319250Y-65706905D01*
X123319250Y-65706905D02*
X123258773Y-65646429D01*
X123379726Y-64497381D02*
X122109726Y-64497381D01*
X123319250Y-64497381D02*
X123379726Y-64618333D01*
X123379726Y-64618333D02*
X123379726Y-64860238D01*
X123379726Y-64860238D02*
X123319250Y-64981190D01*
X123319250Y-64981190D02*
X123258773Y-65041667D01*
X123258773Y-65041667D02*
X123137821Y-65102143D01*
X123137821Y-65102143D02*
X122774964Y-65102143D01*
X122774964Y-65102143D02*
X122654011Y-65041667D01*
X122654011Y-65041667D02*
X122593535Y-64981190D01*
X122593535Y-64981190D02*
X122533059Y-64860238D01*
X122533059Y-64860238D02*
X122533059Y-64618333D01*
X122533059Y-64618333D02*
X122593535Y-64497381D01*
X123379726Y-63892619D02*
X122533059Y-63892619D01*
X122109726Y-63892619D02*
X122170202Y-63953095D01*
X122170202Y-63953095D02*
X122230678Y-63892619D01*
X122230678Y-63892619D02*
X122170202Y-63832142D01*
X122170202Y-63832142D02*
X122109726Y-63892619D01*
X122109726Y-63892619D02*
X122230678Y-63892619D01*
X123379726Y-63106428D02*
X123319250Y-63227380D01*
X123319250Y-63227380D02*
X123258773Y-63287857D01*
X123258773Y-63287857D02*
X123137821Y-63348333D01*
X123137821Y-63348333D02*
X122774964Y-63348333D01*
X122774964Y-63348333D02*
X122654011Y-63287857D01*
X122654011Y-63287857D02*
X122593535Y-63227380D01*
X122593535Y-63227380D02*
X122533059Y-63106428D01*
X122533059Y-63106428D02*
X122533059Y-62924999D01*
X122533059Y-62924999D02*
X122593535Y-62804047D01*
X122593535Y-62804047D02*
X122654011Y-62743571D01*
X122654011Y-62743571D02*
X122774964Y-62683095D01*
X122774964Y-62683095D02*
X123137821Y-62683095D01*
X123137821Y-62683095D02*
X123258773Y-62743571D01*
X123258773Y-62743571D02*
X123319250Y-62804047D01*
X123319250Y-62804047D02*
X123379726Y-62924999D01*
X123379726Y-62924999D02*
X123379726Y-63106428D01*
X122109726Y-60808332D02*
X123016869Y-60808332D01*
X123016869Y-60808332D02*
X123198297Y-60868809D01*
X123198297Y-60868809D02*
X123319250Y-60989761D01*
X123319250Y-60989761D02*
X123379726Y-61171190D01*
X123379726Y-61171190D02*
X123379726Y-61292142D01*
X123379726Y-59659285D02*
X122714488Y-59659285D01*
X122714488Y-59659285D02*
X122593535Y-59719761D01*
X122593535Y-59719761D02*
X122533059Y-59840713D01*
X122533059Y-59840713D02*
X122533059Y-60082618D01*
X122533059Y-60082618D02*
X122593535Y-60203571D01*
X123319250Y-59659285D02*
X123379726Y-59780237D01*
X123379726Y-59780237D02*
X123379726Y-60082618D01*
X123379726Y-60082618D02*
X123319250Y-60203571D01*
X123319250Y-60203571D02*
X123198297Y-60264047D01*
X123198297Y-60264047D02*
X123077345Y-60264047D01*
X123077345Y-60264047D02*
X122956392Y-60203571D01*
X122956392Y-60203571D02*
X122895916Y-60082618D01*
X122895916Y-60082618D02*
X122895916Y-59780237D01*
X122895916Y-59780237D02*
X122835440Y-59659285D01*
X123319250Y-58510237D02*
X123379726Y-58631189D01*
X123379726Y-58631189D02*
X123379726Y-58873094D01*
X123379726Y-58873094D02*
X123319250Y-58994046D01*
X123319250Y-58994046D02*
X123258773Y-59054523D01*
X123258773Y-59054523D02*
X123137821Y-59114999D01*
X123137821Y-59114999D02*
X122774964Y-59114999D01*
X122774964Y-59114999D02*
X122654011Y-59054523D01*
X122654011Y-59054523D02*
X122593535Y-58994046D01*
X122593535Y-58994046D02*
X122533059Y-58873094D01*
X122533059Y-58873094D02*
X122533059Y-58631189D01*
X122533059Y-58631189D02*
X122593535Y-58510237D01*
X123379726Y-57965952D02*
X122109726Y-57965952D01*
X122895916Y-57844999D02*
X123379726Y-57482142D01*
X122533059Y-57482142D02*
X123016869Y-57965952D01*
X91261905Y-74579819D02*
X91261905Y-73579819D01*
X91261905Y-73579819D02*
X91500000Y-73579819D01*
X91500000Y-73579819D02*
X91642857Y-73627438D01*
X91642857Y-73627438D02*
X91738095Y-73722676D01*
X91738095Y-73722676D02*
X91785714Y-73817914D01*
X91785714Y-73817914D02*
X91833333Y-74008390D01*
X91833333Y-74008390D02*
X91833333Y-74151247D01*
X91833333Y-74151247D02*
X91785714Y-74341723D01*
X91785714Y-74341723D02*
X91738095Y-74436961D01*
X91738095Y-74436961D02*
X91642857Y-74532200D01*
X91642857Y-74532200D02*
X91500000Y-74579819D01*
X91500000Y-74579819D02*
X91261905Y-74579819D01*
X92214286Y-73675057D02*
X92261905Y-73627438D01*
X92261905Y-73627438D02*
X92357143Y-73579819D01*
X92357143Y-73579819D02*
X92595238Y-73579819D01*
X92595238Y-73579819D02*
X92690476Y-73627438D01*
X92690476Y-73627438D02*
X92738095Y-73675057D01*
X92738095Y-73675057D02*
X92785714Y-73770295D01*
X92785714Y-73770295D02*
X92785714Y-73865533D01*
X92785714Y-73865533D02*
X92738095Y-74008390D01*
X92738095Y-74008390D02*
X92166667Y-74579819D01*
X92166667Y-74579819D02*
X92785714Y-74579819D01*
X121183333Y-51249580D02*
X121135714Y-51297200D01*
X121135714Y-51297200D02*
X120992857Y-51344819D01*
X120992857Y-51344819D02*
X120897619Y-51344819D01*
X120897619Y-51344819D02*
X120754762Y-51297200D01*
X120754762Y-51297200D02*
X120659524Y-51201961D01*
X120659524Y-51201961D02*
X120611905Y-51106723D01*
X120611905Y-51106723D02*
X120564286Y-50916247D01*
X120564286Y-50916247D02*
X120564286Y-50773390D01*
X120564286Y-50773390D02*
X120611905Y-50582914D01*
X120611905Y-50582914D02*
X120659524Y-50487676D01*
X120659524Y-50487676D02*
X120754762Y-50392438D01*
X120754762Y-50392438D02*
X120897619Y-50344819D01*
X120897619Y-50344819D02*
X120992857Y-50344819D01*
X120992857Y-50344819D02*
X121135714Y-50392438D01*
X121135714Y-50392438D02*
X121183333Y-50440057D01*
X122135714Y-51344819D02*
X121564286Y-51344819D01*
X121850000Y-51344819D02*
X121850000Y-50344819D01*
X121850000Y-50344819D02*
X121754762Y-50487676D01*
X121754762Y-50487676D02*
X121659524Y-50582914D01*
X121659524Y-50582914D02*
X121564286Y-50630533D01*
X101457142Y-61754819D02*
X101123809Y-61278628D01*
X100885714Y-61754819D02*
X100885714Y-60754819D01*
X100885714Y-60754819D02*
X101266666Y-60754819D01*
X101266666Y-60754819D02*
X101361904Y-60802438D01*
X101361904Y-60802438D02*
X101409523Y-60850057D01*
X101409523Y-60850057D02*
X101457142Y-60945295D01*
X101457142Y-60945295D02*
X101457142Y-61088152D01*
X101457142Y-61088152D02*
X101409523Y-61183390D01*
X101409523Y-61183390D02*
X101361904Y-61231009D01*
X101361904Y-61231009D02*
X101266666Y-61278628D01*
X101266666Y-61278628D02*
X100885714Y-61278628D01*
X102409523Y-61754819D02*
X101838095Y-61754819D01*
X102123809Y-61754819D02*
X102123809Y-60754819D01*
X102123809Y-60754819D02*
X102028571Y-60897676D01*
X102028571Y-60897676D02*
X101933333Y-60992914D01*
X101933333Y-60992914D02*
X101838095Y-61040533D01*
X103361904Y-61754819D02*
X102790476Y-61754819D01*
X103076190Y-61754819D02*
X103076190Y-60754819D01*
X103076190Y-60754819D02*
X102980952Y-60897676D01*
X102980952Y-60897676D02*
X102885714Y-60992914D01*
X102885714Y-60992914D02*
X102790476Y-61040533D01*
X94861905Y-74579819D02*
X94861905Y-73579819D01*
X94861905Y-73579819D02*
X95100000Y-73579819D01*
X95100000Y-73579819D02*
X95242857Y-73627438D01*
X95242857Y-73627438D02*
X95338095Y-73722676D01*
X95338095Y-73722676D02*
X95385714Y-73817914D01*
X95385714Y-73817914D02*
X95433333Y-74008390D01*
X95433333Y-74008390D02*
X95433333Y-74151247D01*
X95433333Y-74151247D02*
X95385714Y-74341723D01*
X95385714Y-74341723D02*
X95338095Y-74436961D01*
X95338095Y-74436961D02*
X95242857Y-74532200D01*
X95242857Y-74532200D02*
X95100000Y-74579819D01*
X95100000Y-74579819D02*
X94861905Y-74579819D01*
X96290476Y-73913152D02*
X96290476Y-74579819D01*
X96052381Y-73532200D02*
X95814286Y-74246485D01*
X95814286Y-74246485D02*
X96433333Y-74246485D01*
X89561905Y-74579819D02*
X89561905Y-73579819D01*
X89561905Y-73579819D02*
X89800000Y-73579819D01*
X89800000Y-73579819D02*
X89942857Y-73627438D01*
X89942857Y-73627438D02*
X90038095Y-73722676D01*
X90038095Y-73722676D02*
X90085714Y-73817914D01*
X90085714Y-73817914D02*
X90133333Y-74008390D01*
X90133333Y-74008390D02*
X90133333Y-74151247D01*
X90133333Y-74151247D02*
X90085714Y-74341723D01*
X90085714Y-74341723D02*
X90038095Y-74436961D01*
X90038095Y-74436961D02*
X89942857Y-74532200D01*
X89942857Y-74532200D02*
X89800000Y-74579819D01*
X89800000Y-74579819D02*
X89561905Y-74579819D01*
X91085714Y-74579819D02*
X90514286Y-74579819D01*
X90800000Y-74579819D02*
X90800000Y-73579819D01*
X90800000Y-73579819D02*
X90704762Y-73722676D01*
X90704762Y-73722676D02*
X90609524Y-73817914D01*
X90609524Y-73817914D02*
X90514286Y-73865533D01*
X90433333Y-64654819D02*
X90100000Y-64178628D01*
X89861905Y-64654819D02*
X89861905Y-63654819D01*
X89861905Y-63654819D02*
X90242857Y-63654819D01*
X90242857Y-63654819D02*
X90338095Y-63702438D01*
X90338095Y-63702438D02*
X90385714Y-63750057D01*
X90385714Y-63750057D02*
X90433333Y-63845295D01*
X90433333Y-63845295D02*
X90433333Y-63988152D01*
X90433333Y-63988152D02*
X90385714Y-64083390D01*
X90385714Y-64083390D02*
X90338095Y-64131009D01*
X90338095Y-64131009D02*
X90242857Y-64178628D01*
X90242857Y-64178628D02*
X89861905Y-64178628D01*
X91385714Y-64654819D02*
X90814286Y-64654819D01*
X91100000Y-64654819D02*
X91100000Y-63654819D01*
X91100000Y-63654819D02*
X91004762Y-63797676D01*
X91004762Y-63797676D02*
X90909524Y-63892914D01*
X90909524Y-63892914D02*
X90814286Y-63940533D01*
X125747618Y-39754819D02*
X125414285Y-39278628D01*
X125176190Y-39754819D02*
X125176190Y-38754819D01*
X125176190Y-38754819D02*
X125557142Y-38754819D01*
X125557142Y-38754819D02*
X125652380Y-38802438D01*
X125652380Y-38802438D02*
X125699999Y-38850057D01*
X125699999Y-38850057D02*
X125747618Y-38945295D01*
X125747618Y-38945295D02*
X125747618Y-39088152D01*
X125747618Y-39088152D02*
X125699999Y-39183390D01*
X125699999Y-39183390D02*
X125652380Y-39231009D01*
X125652380Y-39231009D02*
X125557142Y-39278628D01*
X125557142Y-39278628D02*
X125176190Y-39278628D01*
X126176190Y-39231009D02*
X126509523Y-39231009D01*
X126652380Y-39754819D02*
X126176190Y-39754819D01*
X126176190Y-39754819D02*
X126176190Y-38754819D01*
X126176190Y-38754819D02*
X126652380Y-38754819D01*
X127033333Y-39707200D02*
X127176190Y-39754819D01*
X127176190Y-39754819D02*
X127414285Y-39754819D01*
X127414285Y-39754819D02*
X127509523Y-39707200D01*
X127509523Y-39707200D02*
X127557142Y-39659580D01*
X127557142Y-39659580D02*
X127604761Y-39564342D01*
X127604761Y-39564342D02*
X127604761Y-39469104D01*
X127604761Y-39469104D02*
X127557142Y-39373866D01*
X127557142Y-39373866D02*
X127509523Y-39326247D01*
X127509523Y-39326247D02*
X127414285Y-39278628D01*
X127414285Y-39278628D02*
X127223809Y-39231009D01*
X127223809Y-39231009D02*
X127128571Y-39183390D01*
X127128571Y-39183390D02*
X127080952Y-39135771D01*
X127080952Y-39135771D02*
X127033333Y-39040533D01*
X127033333Y-39040533D02*
X127033333Y-38945295D01*
X127033333Y-38945295D02*
X127080952Y-38850057D01*
X127080952Y-38850057D02*
X127128571Y-38802438D01*
X127128571Y-38802438D02*
X127223809Y-38754819D01*
X127223809Y-38754819D02*
X127461904Y-38754819D01*
X127461904Y-38754819D02*
X127604761Y-38802438D01*
X128033333Y-39231009D02*
X128366666Y-39231009D01*
X128509523Y-39754819D02*
X128033333Y-39754819D01*
X128033333Y-39754819D02*
X128033333Y-38754819D01*
X128033333Y-38754819D02*
X128509523Y-38754819D01*
X128795238Y-38754819D02*
X129366666Y-38754819D01*
X129080952Y-39754819D02*
X129080952Y-38754819D01*
X124552381Y-63954819D02*
X124552381Y-62954819D01*
X124552381Y-62954819D02*
X124790476Y-62954819D01*
X124790476Y-62954819D02*
X124933333Y-63002438D01*
X124933333Y-63002438D02*
X125028571Y-63097676D01*
X125028571Y-63097676D02*
X125076190Y-63192914D01*
X125076190Y-63192914D02*
X125123809Y-63383390D01*
X125123809Y-63383390D02*
X125123809Y-63526247D01*
X125123809Y-63526247D02*
X125076190Y-63716723D01*
X125076190Y-63716723D02*
X125028571Y-63811961D01*
X125028571Y-63811961D02*
X124933333Y-63907200D01*
X124933333Y-63907200D02*
X124790476Y-63954819D01*
X124790476Y-63954819D02*
X124552381Y-63954819D01*
X125552381Y-63431009D02*
X125885714Y-63431009D01*
X126028571Y-63954819D02*
X125552381Y-63954819D01*
X125552381Y-63954819D02*
X125552381Y-62954819D01*
X125552381Y-62954819D02*
X126028571Y-62954819D01*
X126790476Y-63431009D02*
X126933333Y-63478628D01*
X126933333Y-63478628D02*
X126980952Y-63526247D01*
X126980952Y-63526247D02*
X127028571Y-63621485D01*
X127028571Y-63621485D02*
X127028571Y-63764342D01*
X127028571Y-63764342D02*
X126980952Y-63859580D01*
X126980952Y-63859580D02*
X126933333Y-63907200D01*
X126933333Y-63907200D02*
X126838095Y-63954819D01*
X126838095Y-63954819D02*
X126457143Y-63954819D01*
X126457143Y-63954819D02*
X126457143Y-62954819D01*
X126457143Y-62954819D02*
X126790476Y-62954819D01*
X126790476Y-62954819D02*
X126885714Y-63002438D01*
X126885714Y-63002438D02*
X126933333Y-63050057D01*
X126933333Y-63050057D02*
X126980952Y-63145295D01*
X126980952Y-63145295D02*
X126980952Y-63240533D01*
X126980952Y-63240533D02*
X126933333Y-63335771D01*
X126933333Y-63335771D02*
X126885714Y-63383390D01*
X126885714Y-63383390D02*
X126790476Y-63431009D01*
X126790476Y-63431009D02*
X126457143Y-63431009D01*
X127457143Y-62954819D02*
X127457143Y-63764342D01*
X127457143Y-63764342D02*
X127504762Y-63859580D01*
X127504762Y-63859580D02*
X127552381Y-63907200D01*
X127552381Y-63907200D02*
X127647619Y-63954819D01*
X127647619Y-63954819D02*
X127838095Y-63954819D01*
X127838095Y-63954819D02*
X127933333Y-63907200D01*
X127933333Y-63907200D02*
X127980952Y-63859580D01*
X127980952Y-63859580D02*
X128028571Y-63764342D01*
X128028571Y-63764342D02*
X128028571Y-62954819D01*
X129028571Y-63002438D02*
X128933333Y-62954819D01*
X128933333Y-62954819D02*
X128790476Y-62954819D01*
X128790476Y-62954819D02*
X128647619Y-63002438D01*
X128647619Y-63002438D02*
X128552381Y-63097676D01*
X128552381Y-63097676D02*
X128504762Y-63192914D01*
X128504762Y-63192914D02*
X128457143Y-63383390D01*
X128457143Y-63383390D02*
X128457143Y-63526247D01*
X128457143Y-63526247D02*
X128504762Y-63716723D01*
X128504762Y-63716723D02*
X128552381Y-63811961D01*
X128552381Y-63811961D02*
X128647619Y-63907200D01*
X128647619Y-63907200D02*
X128790476Y-63954819D01*
X128790476Y-63954819D02*
X128885714Y-63954819D01*
X128885714Y-63954819D02*
X129028571Y-63907200D01*
X129028571Y-63907200D02*
X129076190Y-63859580D01*
X129076190Y-63859580D02*
X129076190Y-63526247D01*
X129076190Y-63526247D02*
X128885714Y-63526247D01*
X130457143Y-62954819D02*
X130647619Y-62954819D01*
X130647619Y-62954819D02*
X130742857Y-63002438D01*
X130742857Y-63002438D02*
X130838095Y-63097676D01*
X130838095Y-63097676D02*
X130885714Y-63288152D01*
X130885714Y-63288152D02*
X130885714Y-63621485D01*
X130885714Y-63621485D02*
X130838095Y-63811961D01*
X130838095Y-63811961D02*
X130742857Y-63907200D01*
X130742857Y-63907200D02*
X130647619Y-63954819D01*
X130647619Y-63954819D02*
X130457143Y-63954819D01*
X130457143Y-63954819D02*
X130361905Y-63907200D01*
X130361905Y-63907200D02*
X130266667Y-63811961D01*
X130266667Y-63811961D02*
X130219048Y-63621485D01*
X130219048Y-63621485D02*
X130219048Y-63288152D01*
X130219048Y-63288152D02*
X130266667Y-63097676D01*
X130266667Y-63097676D02*
X130361905Y-63002438D01*
X130361905Y-63002438D02*
X130457143Y-62954819D01*
X131314286Y-62954819D02*
X131314286Y-63764342D01*
X131314286Y-63764342D02*
X131361905Y-63859580D01*
X131361905Y-63859580D02*
X131409524Y-63907200D01*
X131409524Y-63907200D02*
X131504762Y-63954819D01*
X131504762Y-63954819D02*
X131695238Y-63954819D01*
X131695238Y-63954819D02*
X131790476Y-63907200D01*
X131790476Y-63907200D02*
X131838095Y-63859580D01*
X131838095Y-63859580D02*
X131885714Y-63764342D01*
X131885714Y-63764342D02*
X131885714Y-62954819D01*
X132219048Y-62954819D02*
X132790476Y-62954819D01*
X132504762Y-63954819D02*
X132504762Y-62954819D01*
X121057142Y-53759580D02*
X121009523Y-53807200D01*
X121009523Y-53807200D02*
X120866666Y-53854819D01*
X120866666Y-53854819D02*
X120771428Y-53854819D01*
X120771428Y-53854819D02*
X120628571Y-53807200D01*
X120628571Y-53807200D02*
X120533333Y-53711961D01*
X120533333Y-53711961D02*
X120485714Y-53616723D01*
X120485714Y-53616723D02*
X120438095Y-53426247D01*
X120438095Y-53426247D02*
X120438095Y-53283390D01*
X120438095Y-53283390D02*
X120485714Y-53092914D01*
X120485714Y-53092914D02*
X120533333Y-52997676D01*
X120533333Y-52997676D02*
X120628571Y-52902438D01*
X120628571Y-52902438D02*
X120771428Y-52854819D01*
X120771428Y-52854819D02*
X120866666Y-52854819D01*
X120866666Y-52854819D02*
X121009523Y-52902438D01*
X121009523Y-52902438D02*
X121057142Y-52950057D01*
X122009523Y-53854819D02*
X121438095Y-53854819D01*
X121723809Y-53854819D02*
X121723809Y-52854819D01*
X121723809Y-52854819D02*
X121628571Y-52997676D01*
X121628571Y-52997676D02*
X121533333Y-53092914D01*
X121533333Y-53092914D02*
X121438095Y-53140533D01*
X122342857Y-52854819D02*
X122961904Y-52854819D01*
X122961904Y-52854819D02*
X122628571Y-53235771D01*
X122628571Y-53235771D02*
X122771428Y-53235771D01*
X122771428Y-53235771D02*
X122866666Y-53283390D01*
X122866666Y-53283390D02*
X122914285Y-53331009D01*
X122914285Y-53331009D02*
X122961904Y-53426247D01*
X122961904Y-53426247D02*
X122961904Y-53664342D01*
X122961904Y-53664342D02*
X122914285Y-53759580D01*
X122914285Y-53759580D02*
X122866666Y-53807200D01*
X122866666Y-53807200D02*
X122771428Y-53854819D01*
X122771428Y-53854819D02*
X122485714Y-53854819D01*
X122485714Y-53854819D02*
X122390476Y-53807200D01*
X122390476Y-53807200D02*
X122342857Y-53759580D01*
X92133333Y-64654819D02*
X91800000Y-64178628D01*
X91561905Y-64654819D02*
X91561905Y-63654819D01*
X91561905Y-63654819D02*
X91942857Y-63654819D01*
X91942857Y-63654819D02*
X92038095Y-63702438D01*
X92038095Y-63702438D02*
X92085714Y-63750057D01*
X92085714Y-63750057D02*
X92133333Y-63845295D01*
X92133333Y-63845295D02*
X92133333Y-63988152D01*
X92133333Y-63988152D02*
X92085714Y-64083390D01*
X92085714Y-64083390D02*
X92038095Y-64131009D01*
X92038095Y-64131009D02*
X91942857Y-64178628D01*
X91942857Y-64178628D02*
X91561905Y-64178628D01*
X92466667Y-63654819D02*
X93085714Y-63654819D01*
X93085714Y-63654819D02*
X92752381Y-64035771D01*
X92752381Y-64035771D02*
X92895238Y-64035771D01*
X92895238Y-64035771D02*
X92990476Y-64083390D01*
X92990476Y-64083390D02*
X93038095Y-64131009D01*
X93038095Y-64131009D02*
X93085714Y-64226247D01*
X93085714Y-64226247D02*
X93085714Y-64464342D01*
X93085714Y-64464342D02*
X93038095Y-64559580D01*
X93038095Y-64559580D02*
X92990476Y-64607200D01*
X92990476Y-64607200D02*
X92895238Y-64654819D01*
X92895238Y-64654819D02*
X92609524Y-64654819D01*
X92609524Y-64654819D02*
X92514286Y-64607200D01*
X92514286Y-64607200D02*
X92466667Y-64559580D01*
X95738095Y-69754819D02*
X95738095Y-68754819D01*
X95738095Y-68754819D02*
X96119047Y-68754819D01*
X96119047Y-68754819D02*
X96214285Y-68802438D01*
X96214285Y-68802438D02*
X96261904Y-68850057D01*
X96261904Y-68850057D02*
X96309523Y-68945295D01*
X96309523Y-68945295D02*
X96309523Y-69088152D01*
X96309523Y-69088152D02*
X96261904Y-69183390D01*
X96261904Y-69183390D02*
X96214285Y-69231009D01*
X96214285Y-69231009D02*
X96119047Y-69278628D01*
X96119047Y-69278628D02*
X95738095Y-69278628D01*
X102928571Y-54681009D02*
X103071428Y-54728628D01*
X103071428Y-54728628D02*
X103119047Y-54776247D01*
X103119047Y-54776247D02*
X103166666Y-54871485D01*
X103166666Y-54871485D02*
X103166666Y-55014342D01*
X103166666Y-55014342D02*
X103119047Y-55109580D01*
X103119047Y-55109580D02*
X103071428Y-55157200D01*
X103071428Y-55157200D02*
X102976190Y-55204819D01*
X102976190Y-55204819D02*
X102595238Y-55204819D01*
X102595238Y-55204819D02*
X102595238Y-54204819D01*
X102595238Y-54204819D02*
X102928571Y-54204819D01*
X102928571Y-54204819D02*
X103023809Y-54252438D01*
X103023809Y-54252438D02*
X103071428Y-54300057D01*
X103071428Y-54300057D02*
X103119047Y-54395295D01*
X103119047Y-54395295D02*
X103119047Y-54490533D01*
X103119047Y-54490533D02*
X103071428Y-54585771D01*
X103071428Y-54585771D02*
X103023809Y-54633390D01*
X103023809Y-54633390D02*
X102928571Y-54681009D01*
X102928571Y-54681009D02*
X102595238Y-54681009D01*
X103785714Y-54204819D02*
X103976190Y-54204819D01*
X103976190Y-54204819D02*
X104071428Y-54252438D01*
X104071428Y-54252438D02*
X104166666Y-54347676D01*
X104166666Y-54347676D02*
X104214285Y-54538152D01*
X104214285Y-54538152D02*
X104214285Y-54871485D01*
X104214285Y-54871485D02*
X104166666Y-55061961D01*
X104166666Y-55061961D02*
X104071428Y-55157200D01*
X104071428Y-55157200D02*
X103976190Y-55204819D01*
X103976190Y-55204819D02*
X103785714Y-55204819D01*
X103785714Y-55204819D02*
X103690476Y-55157200D01*
X103690476Y-55157200D02*
X103595238Y-55061961D01*
X103595238Y-55061961D02*
X103547619Y-54871485D01*
X103547619Y-54871485D02*
X103547619Y-54538152D01*
X103547619Y-54538152D02*
X103595238Y-54347676D01*
X103595238Y-54347676D02*
X103690476Y-54252438D01*
X103690476Y-54252438D02*
X103785714Y-54204819D01*
X104642857Y-55204819D02*
X104642857Y-54204819D01*
X104642857Y-54204819D02*
X104880952Y-54204819D01*
X104880952Y-54204819D02*
X105023809Y-54252438D01*
X105023809Y-54252438D02*
X105119047Y-54347676D01*
X105119047Y-54347676D02*
X105166666Y-54442914D01*
X105166666Y-54442914D02*
X105214285Y-54633390D01*
X105214285Y-54633390D02*
X105214285Y-54776247D01*
X105214285Y-54776247D02*
X105166666Y-54966723D01*
X105166666Y-54966723D02*
X105119047Y-55061961D01*
X105119047Y-55061961D02*
X105023809Y-55157200D01*
X105023809Y-55157200D02*
X104880952Y-55204819D01*
X104880952Y-55204819D02*
X104642857Y-55204819D01*
X105833333Y-54728628D02*
X105833333Y-55204819D01*
X105500000Y-54204819D02*
X105833333Y-54728628D01*
X105833333Y-54728628D02*
X106166666Y-54204819D01*
X107261905Y-55204819D02*
X107261905Y-54204819D01*
X107261905Y-54204819D02*
X107595238Y-54919104D01*
X107595238Y-54919104D02*
X107928571Y-54204819D01*
X107928571Y-54204819D02*
X107928571Y-55204819D01*
X108404762Y-55204819D02*
X108404762Y-54204819D01*
X109452380Y-55109580D02*
X109404761Y-55157200D01*
X109404761Y-55157200D02*
X109261904Y-55204819D01*
X109261904Y-55204819D02*
X109166666Y-55204819D01*
X109166666Y-55204819D02*
X109023809Y-55157200D01*
X109023809Y-55157200D02*
X108928571Y-55061961D01*
X108928571Y-55061961D02*
X108880952Y-54966723D01*
X108880952Y-54966723D02*
X108833333Y-54776247D01*
X108833333Y-54776247D02*
X108833333Y-54633390D01*
X108833333Y-54633390D02*
X108880952Y-54442914D01*
X108880952Y-54442914D02*
X108928571Y-54347676D01*
X108928571Y-54347676D02*
X109023809Y-54252438D01*
X109023809Y-54252438D02*
X109166666Y-54204819D01*
X109166666Y-54204819D02*
X109261904Y-54204819D01*
X109261904Y-54204819D02*
X109404761Y-54252438D01*
X109404761Y-54252438D02*
X109452380Y-54300057D01*
X104950243Y-62055944D02*
X104950243Y-61053511D01*
X104950243Y-61053511D02*
X105284387Y-61769535D01*
X105284387Y-61769535D02*
X105618532Y-61053511D01*
X105618532Y-61053511D02*
X105618532Y-62055944D01*
X106095881Y-62055944D02*
X106095881Y-61387656D01*
X106095881Y-61053511D02*
X106048146Y-61101246D01*
X106048146Y-61101246D02*
X106095881Y-61148981D01*
X106095881Y-61148981D02*
X106143616Y-61101246D01*
X106143616Y-61101246D02*
X106095881Y-61053511D01*
X106095881Y-61053511D02*
X106095881Y-61148981D01*
X107002844Y-62008210D02*
X106907374Y-62055944D01*
X106907374Y-62055944D02*
X106716435Y-62055944D01*
X106716435Y-62055944D02*
X106620965Y-62008210D01*
X106620965Y-62008210D02*
X106573230Y-61960475D01*
X106573230Y-61960475D02*
X106525495Y-61865005D01*
X106525495Y-61865005D02*
X106525495Y-61578595D01*
X106525495Y-61578595D02*
X106573230Y-61483126D01*
X106573230Y-61483126D02*
X106620965Y-61435391D01*
X106620965Y-61435391D02*
X106716435Y-61387656D01*
X106716435Y-61387656D02*
X106907374Y-61387656D01*
X106907374Y-61387656D02*
X107002844Y-61435391D01*
X107432458Y-62055944D02*
X107432458Y-61387656D01*
X107432458Y-61578595D02*
X107480193Y-61483126D01*
X107480193Y-61483126D02*
X107527928Y-61435391D01*
X107527928Y-61435391D02*
X107623398Y-61387656D01*
X107623398Y-61387656D02*
X107718867Y-61387656D01*
X108196217Y-62055944D02*
X108100747Y-62008210D01*
X108100747Y-62008210D02*
X108053012Y-61960475D01*
X108053012Y-61960475D02*
X108005277Y-61865005D01*
X108005277Y-61865005D02*
X108005277Y-61578595D01*
X108005277Y-61578595D02*
X108053012Y-61483126D01*
X108053012Y-61483126D02*
X108100747Y-61435391D01*
X108100747Y-61435391D02*
X108196217Y-61387656D01*
X108196217Y-61387656D02*
X108339421Y-61387656D01*
X108339421Y-61387656D02*
X108434891Y-61435391D01*
X108434891Y-61435391D02*
X108482626Y-61483126D01*
X108482626Y-61483126D02*
X108530361Y-61578595D01*
X108530361Y-61578595D02*
X108530361Y-61865005D01*
X108530361Y-61865005D02*
X108482626Y-61960475D01*
X108482626Y-61960475D02*
X108434891Y-62008210D01*
X108434891Y-62008210D02*
X108339421Y-62055944D01*
X108339421Y-62055944D02*
X108196217Y-62055944D01*
X108912240Y-62008210D02*
X109055445Y-62055944D01*
X109055445Y-62055944D02*
X109294119Y-62055944D01*
X109294119Y-62055944D02*
X109389589Y-62008210D01*
X109389589Y-62008210D02*
X109437324Y-61960475D01*
X109437324Y-61960475D02*
X109485059Y-61865005D01*
X109485059Y-61865005D02*
X109485059Y-61769535D01*
X109485059Y-61769535D02*
X109437324Y-61674065D01*
X109437324Y-61674065D02*
X109389589Y-61626330D01*
X109389589Y-61626330D02*
X109294119Y-61578595D01*
X109294119Y-61578595D02*
X109103180Y-61530860D01*
X109103180Y-61530860D02*
X109007710Y-61483126D01*
X109007710Y-61483126D02*
X108959975Y-61435391D01*
X108959975Y-61435391D02*
X108912240Y-61339921D01*
X108912240Y-61339921D02*
X108912240Y-61244451D01*
X108912240Y-61244451D02*
X108959975Y-61148981D01*
X108959975Y-61148981D02*
X109007710Y-61101246D01*
X109007710Y-61101246D02*
X109103180Y-61053511D01*
X109103180Y-61053511D02*
X109341854Y-61053511D01*
X109341854Y-61053511D02*
X109485059Y-61101246D01*
X109914673Y-62055944D02*
X109914673Y-61053511D01*
X109914673Y-61053511D02*
X110153348Y-61053511D01*
X110153348Y-61053511D02*
X110296552Y-61101246D01*
X110296552Y-61101246D02*
X110392022Y-61196716D01*
X110392022Y-61196716D02*
X110439757Y-61292186D01*
X110439757Y-61292186D02*
X110487492Y-61483126D01*
X110487492Y-61483126D02*
X110487492Y-61626330D01*
X110487492Y-61626330D02*
X110439757Y-61817270D01*
X110439757Y-61817270D02*
X110392022Y-61912740D01*
X110392022Y-61912740D02*
X110296552Y-62008210D01*
X110296552Y-62008210D02*
X110153348Y-62055944D01*
X110153348Y-62055944D02*
X109914673Y-62055944D01*
X120994642Y-56539580D02*
X120947023Y-56587200D01*
X120947023Y-56587200D02*
X120804166Y-56634819D01*
X120804166Y-56634819D02*
X120708928Y-56634819D01*
X120708928Y-56634819D02*
X120566071Y-56587200D01*
X120566071Y-56587200D02*
X120470833Y-56491961D01*
X120470833Y-56491961D02*
X120423214Y-56396723D01*
X120423214Y-56396723D02*
X120375595Y-56206247D01*
X120375595Y-56206247D02*
X120375595Y-56063390D01*
X120375595Y-56063390D02*
X120423214Y-55872914D01*
X120423214Y-55872914D02*
X120470833Y-55777676D01*
X120470833Y-55777676D02*
X120566071Y-55682438D01*
X120566071Y-55682438D02*
X120708928Y-55634819D01*
X120708928Y-55634819D02*
X120804166Y-55634819D01*
X120804166Y-55634819D02*
X120947023Y-55682438D01*
X120947023Y-55682438D02*
X120994642Y-55730057D01*
X121947023Y-56634819D02*
X121375595Y-56634819D01*
X121661309Y-56634819D02*
X121661309Y-55634819D01*
X121661309Y-55634819D02*
X121566071Y-55777676D01*
X121566071Y-55777676D02*
X121470833Y-55872914D01*
X121470833Y-55872914D02*
X121375595Y-55920533D01*
X122566071Y-55634819D02*
X122661309Y-55634819D01*
X122661309Y-55634819D02*
X122756547Y-55682438D01*
X122756547Y-55682438D02*
X122804166Y-55730057D01*
X122804166Y-55730057D02*
X122851785Y-55825295D01*
X122851785Y-55825295D02*
X122899404Y-56015771D01*
X122899404Y-56015771D02*
X122899404Y-56253866D01*
X122899404Y-56253866D02*
X122851785Y-56444342D01*
X122851785Y-56444342D02*
X122804166Y-56539580D01*
X122804166Y-56539580D02*
X122756547Y-56587200D01*
X122756547Y-56587200D02*
X122661309Y-56634819D01*
X122661309Y-56634819D02*
X122566071Y-56634819D01*
X122566071Y-56634819D02*
X122470833Y-56587200D01*
X122470833Y-56587200D02*
X122423214Y-56539580D01*
X122423214Y-56539580D02*
X122375595Y-56444342D01*
X122375595Y-56444342D02*
X122327976Y-56253866D01*
X122327976Y-56253866D02*
X122327976Y-56015771D01*
X122327976Y-56015771D02*
X122375595Y-55825295D01*
X122375595Y-55825295D02*
X122423214Y-55730057D01*
X122423214Y-55730057D02*
X122470833Y-55682438D01*
X122470833Y-55682438D02*
X122566071Y-55634819D01*
X127566666Y-49154819D02*
X127566666Y-49869104D01*
X127566666Y-49869104D02*
X127519047Y-50011961D01*
X127519047Y-50011961D02*
X127423809Y-50107200D01*
X127423809Y-50107200D02*
X127280952Y-50154819D01*
X127280952Y-50154819D02*
X127185714Y-50154819D01*
X127947619Y-49154819D02*
X128566666Y-49154819D01*
X128566666Y-49154819D02*
X128233333Y-49535771D01*
X128233333Y-49535771D02*
X128376190Y-49535771D01*
X128376190Y-49535771D02*
X128471428Y-49583390D01*
X128471428Y-49583390D02*
X128519047Y-49631009D01*
X128519047Y-49631009D02*
X128566666Y-49726247D01*
X128566666Y-49726247D02*
X128566666Y-49964342D01*
X128566666Y-49964342D02*
X128519047Y-50059580D01*
X128519047Y-50059580D02*
X128471428Y-50107200D01*
X128471428Y-50107200D02*
X128376190Y-50154819D01*
X128376190Y-50154819D02*
X128090476Y-50154819D01*
X128090476Y-50154819D02*
X127995238Y-50107200D01*
X127995238Y-50107200D02*
X127947619Y-50059580D01*
X110957142Y-58559580D02*
X110909523Y-58607200D01*
X110909523Y-58607200D02*
X110766666Y-58654819D01*
X110766666Y-58654819D02*
X110671428Y-58654819D01*
X110671428Y-58654819D02*
X110528571Y-58607200D01*
X110528571Y-58607200D02*
X110433333Y-58511961D01*
X110433333Y-58511961D02*
X110385714Y-58416723D01*
X110385714Y-58416723D02*
X110338095Y-58226247D01*
X110338095Y-58226247D02*
X110338095Y-58083390D01*
X110338095Y-58083390D02*
X110385714Y-57892914D01*
X110385714Y-57892914D02*
X110433333Y-57797676D01*
X110433333Y-57797676D02*
X110528571Y-57702438D01*
X110528571Y-57702438D02*
X110671428Y-57654819D01*
X110671428Y-57654819D02*
X110766666Y-57654819D01*
X110766666Y-57654819D02*
X110909523Y-57702438D01*
X110909523Y-57702438D02*
X110957142Y-57750057D01*
X111909523Y-58654819D02*
X111338095Y-58654819D01*
X111623809Y-58654819D02*
X111623809Y-57654819D01*
X111623809Y-57654819D02*
X111528571Y-57797676D01*
X111528571Y-57797676D02*
X111433333Y-57892914D01*
X111433333Y-57892914D02*
X111338095Y-57940533D01*
X112766666Y-57988152D02*
X112766666Y-58654819D01*
X112528571Y-57607200D02*
X112290476Y-58321485D01*
X112290476Y-58321485D02*
X112909523Y-58321485D01*
X125359074Y-67504349D02*
X125549716Y-67504349D01*
X125549716Y-67504349D02*
X125645038Y-67552010D01*
X125645038Y-67552010D02*
X125740359Y-67647331D01*
X125740359Y-67647331D02*
X125788020Y-67837974D01*
X125788020Y-67837974D02*
X125788020Y-68171599D01*
X125788020Y-68171599D02*
X125740359Y-68362241D01*
X125740359Y-68362241D02*
X125645038Y-68457563D01*
X125645038Y-68457563D02*
X125549716Y-68505223D01*
X125549716Y-68505223D02*
X125359074Y-68505223D01*
X125359074Y-68505223D02*
X125263752Y-68457563D01*
X125263752Y-68457563D02*
X125168431Y-68362241D01*
X125168431Y-68362241D02*
X125120770Y-68171599D01*
X125120770Y-68171599D02*
X125120770Y-67837974D01*
X125120770Y-67837974D02*
X125168431Y-67647331D01*
X125168431Y-67647331D02*
X125263752Y-67552010D01*
X125263752Y-67552010D02*
X125359074Y-67504349D01*
X126550591Y-67980956D02*
X126216966Y-67980956D01*
X126216966Y-68505223D02*
X126216966Y-67504349D01*
X126216966Y-67504349D02*
X126693573Y-67504349D01*
X127408483Y-67980956D02*
X127074858Y-67980956D01*
X127074858Y-68505223D02*
X127074858Y-67504349D01*
X127074858Y-67504349D02*
X127551465Y-67504349D01*
X128933624Y-68838848D02*
X128933624Y-67409028D01*
X130601748Y-67504349D02*
X130792390Y-67504349D01*
X130792390Y-67504349D02*
X130887712Y-67552010D01*
X130887712Y-67552010D02*
X130983033Y-67647331D01*
X130983033Y-67647331D02*
X131030694Y-67837974D01*
X131030694Y-67837974D02*
X131030694Y-68171599D01*
X131030694Y-68171599D02*
X130983033Y-68362241D01*
X130983033Y-68362241D02*
X130887712Y-68457563D01*
X130887712Y-68457563D02*
X130792390Y-68505223D01*
X130792390Y-68505223D02*
X130601748Y-68505223D01*
X130601748Y-68505223D02*
X130506426Y-68457563D01*
X130506426Y-68457563D02*
X130411105Y-68362241D01*
X130411105Y-68362241D02*
X130363444Y-68171599D01*
X130363444Y-68171599D02*
X130363444Y-67837974D01*
X130363444Y-67837974D02*
X130411105Y-67647331D01*
X130411105Y-67647331D02*
X130506426Y-67552010D01*
X130506426Y-67552010D02*
X130601748Y-67504349D01*
X131459640Y-68505223D02*
X131459640Y-67504349D01*
X131459640Y-67504349D02*
X132031568Y-68505223D01*
X132031568Y-68505223D02*
X132031568Y-67504349D01*
X90254819Y-58709523D02*
X89254819Y-58709523D01*
X89254819Y-58709523D02*
X89969104Y-58376190D01*
X89969104Y-58376190D02*
X89254819Y-58042857D01*
X89254819Y-58042857D02*
X90254819Y-58042857D01*
X89254819Y-57376190D02*
X89254819Y-57185714D01*
X89254819Y-57185714D02*
X89302438Y-57090476D01*
X89302438Y-57090476D02*
X89397676Y-56995238D01*
X89397676Y-56995238D02*
X89588152Y-56947619D01*
X89588152Y-56947619D02*
X89921485Y-56947619D01*
X89921485Y-56947619D02*
X90111961Y-56995238D01*
X90111961Y-56995238D02*
X90207200Y-57090476D01*
X90207200Y-57090476D02*
X90254819Y-57185714D01*
X90254819Y-57185714D02*
X90254819Y-57376190D01*
X90254819Y-57376190D02*
X90207200Y-57471428D01*
X90207200Y-57471428D02*
X90111961Y-57566666D01*
X90111961Y-57566666D02*
X89921485Y-57614285D01*
X89921485Y-57614285D02*
X89588152Y-57614285D01*
X89588152Y-57614285D02*
X89397676Y-57566666D01*
X89397676Y-57566666D02*
X89302438Y-57471428D01*
X89302438Y-57471428D02*
X89254819Y-57376190D01*
X90254819Y-56519047D02*
X89254819Y-56519047D01*
X89254819Y-56519047D02*
X89254819Y-56280952D01*
X89254819Y-56280952D02*
X89302438Y-56138095D01*
X89302438Y-56138095D02*
X89397676Y-56042857D01*
X89397676Y-56042857D02*
X89492914Y-55995238D01*
X89492914Y-55995238D02*
X89683390Y-55947619D01*
X89683390Y-55947619D02*
X89826247Y-55947619D01*
X89826247Y-55947619D02*
X90016723Y-55995238D01*
X90016723Y-55995238D02*
X90111961Y-56042857D01*
X90111961Y-56042857D02*
X90207200Y-56138095D01*
X90207200Y-56138095D02*
X90254819Y-56280952D01*
X90254819Y-56280952D02*
X90254819Y-56519047D01*
X89731009Y-55519047D02*
X89731009Y-55185714D01*
X90254819Y-55042857D02*
X90254819Y-55519047D01*
X90254819Y-55519047D02*
X89254819Y-55519047D01*
X89254819Y-55519047D02*
X89254819Y-55042857D01*
X90307200Y-53380952D02*
X90354819Y-53238095D01*
X90354819Y-53238095D02*
X90354819Y-53000000D01*
X90354819Y-53000000D02*
X90307200Y-52904762D01*
X90307200Y-52904762D02*
X90259580Y-52857143D01*
X90259580Y-52857143D02*
X90164342Y-52809524D01*
X90164342Y-52809524D02*
X90069104Y-52809524D01*
X90069104Y-52809524D02*
X89973866Y-52857143D01*
X89973866Y-52857143D02*
X89926247Y-52904762D01*
X89926247Y-52904762D02*
X89878628Y-53000000D01*
X89878628Y-53000000D02*
X89831009Y-53190476D01*
X89831009Y-53190476D02*
X89783390Y-53285714D01*
X89783390Y-53285714D02*
X89735771Y-53333333D01*
X89735771Y-53333333D02*
X89640533Y-53380952D01*
X89640533Y-53380952D02*
X89545295Y-53380952D01*
X89545295Y-53380952D02*
X89450057Y-53333333D01*
X89450057Y-53333333D02*
X89402438Y-53285714D01*
X89402438Y-53285714D02*
X89354819Y-53190476D01*
X89354819Y-53190476D02*
X89354819Y-52952381D01*
X89354819Y-52952381D02*
X89402438Y-52809524D01*
X89354819Y-52523809D02*
X89354819Y-51952381D01*
X90354819Y-52238095D02*
X89354819Y-52238095D01*
X90069104Y-51666666D02*
X90069104Y-51190476D01*
X90354819Y-51761904D02*
X89354819Y-51428571D01*
X89354819Y-51428571D02*
X90354819Y-51095238D01*
X90354819Y-50190476D02*
X89878628Y-50523809D01*
X90354819Y-50761904D02*
X89354819Y-50761904D01*
X89354819Y-50761904D02*
X89354819Y-50380952D01*
X89354819Y-50380952D02*
X89402438Y-50285714D01*
X89402438Y-50285714D02*
X89450057Y-50238095D01*
X89450057Y-50238095D02*
X89545295Y-50190476D01*
X89545295Y-50190476D02*
X89688152Y-50190476D01*
X89688152Y-50190476D02*
X89783390Y-50238095D01*
X89783390Y-50238095D02*
X89831009Y-50285714D01*
X89831009Y-50285714D02*
X89878628Y-50380952D01*
X89878628Y-50380952D02*
X89878628Y-50761904D01*
X89354819Y-49904761D02*
X89354819Y-49333333D01*
X90354819Y-49619047D02*
X89354819Y-49619047D01*
X89307200Y-48285714D02*
X90592914Y-49142856D01*
X90307200Y-47999999D02*
X90354819Y-47857142D01*
X90354819Y-47857142D02*
X90354819Y-47619047D01*
X90354819Y-47619047D02*
X90307200Y-47523809D01*
X90307200Y-47523809D02*
X90259580Y-47476190D01*
X90259580Y-47476190D02*
X90164342Y-47428571D01*
X90164342Y-47428571D02*
X90069104Y-47428571D01*
X90069104Y-47428571D02*
X89973866Y-47476190D01*
X89973866Y-47476190D02*
X89926247Y-47523809D01*
X89926247Y-47523809D02*
X89878628Y-47619047D01*
X89878628Y-47619047D02*
X89831009Y-47809523D01*
X89831009Y-47809523D02*
X89783390Y-47904761D01*
X89783390Y-47904761D02*
X89735771Y-47952380D01*
X89735771Y-47952380D02*
X89640533Y-47999999D01*
X89640533Y-47999999D02*
X89545295Y-47999999D01*
X89545295Y-47999999D02*
X89450057Y-47952380D01*
X89450057Y-47952380D02*
X89402438Y-47904761D01*
X89402438Y-47904761D02*
X89354819Y-47809523D01*
X89354819Y-47809523D02*
X89354819Y-47571428D01*
X89354819Y-47571428D02*
X89402438Y-47428571D01*
X89354819Y-47142856D02*
X89354819Y-46571428D01*
X90354819Y-46857142D02*
X89354819Y-46857142D01*
X89354819Y-46047618D02*
X89354819Y-45857142D01*
X89354819Y-45857142D02*
X89402438Y-45761904D01*
X89402438Y-45761904D02*
X89497676Y-45666666D01*
X89497676Y-45666666D02*
X89688152Y-45619047D01*
X89688152Y-45619047D02*
X90021485Y-45619047D01*
X90021485Y-45619047D02*
X90211961Y-45666666D01*
X90211961Y-45666666D02*
X90307200Y-45761904D01*
X90307200Y-45761904D02*
X90354819Y-45857142D01*
X90354819Y-45857142D02*
X90354819Y-46047618D01*
X90354819Y-46047618D02*
X90307200Y-46142856D01*
X90307200Y-46142856D02*
X90211961Y-46238094D01*
X90211961Y-46238094D02*
X90021485Y-46285713D01*
X90021485Y-46285713D02*
X89688152Y-46285713D01*
X89688152Y-46285713D02*
X89497676Y-46238094D01*
X89497676Y-46238094D02*
X89402438Y-46142856D01*
X89402438Y-46142856D02*
X89354819Y-46047618D01*
X90354819Y-45190475D02*
X89354819Y-45190475D01*
X89354819Y-45190475D02*
X89354819Y-44809523D01*
X89354819Y-44809523D02*
X89402438Y-44714285D01*
X89402438Y-44714285D02*
X89450057Y-44666666D01*
X89450057Y-44666666D02*
X89545295Y-44619047D01*
X89545295Y-44619047D02*
X89688152Y-44619047D01*
X89688152Y-44619047D02*
X89783390Y-44666666D01*
X89783390Y-44666666D02*
X89831009Y-44714285D01*
X89831009Y-44714285D02*
X89878628Y-44809523D01*
X89878628Y-44809523D02*
X89878628Y-45190475D01*
X95733333Y-64654819D02*
X95400000Y-64178628D01*
X95161905Y-64654819D02*
X95161905Y-63654819D01*
X95161905Y-63654819D02*
X95542857Y-63654819D01*
X95542857Y-63654819D02*
X95638095Y-63702438D01*
X95638095Y-63702438D02*
X95685714Y-63750057D01*
X95685714Y-63750057D02*
X95733333Y-63845295D01*
X95733333Y-63845295D02*
X95733333Y-63988152D01*
X95733333Y-63988152D02*
X95685714Y-64083390D01*
X95685714Y-64083390D02*
X95638095Y-64131009D01*
X95638095Y-64131009D02*
X95542857Y-64178628D01*
X95542857Y-64178628D02*
X95161905Y-64178628D01*
X96590476Y-63654819D02*
X96400000Y-63654819D01*
X96400000Y-63654819D02*
X96304762Y-63702438D01*
X96304762Y-63702438D02*
X96257143Y-63750057D01*
X96257143Y-63750057D02*
X96161905Y-63892914D01*
X96161905Y-63892914D02*
X96114286Y-64083390D01*
X96114286Y-64083390D02*
X96114286Y-64464342D01*
X96114286Y-64464342D02*
X96161905Y-64559580D01*
X96161905Y-64559580D02*
X96209524Y-64607200D01*
X96209524Y-64607200D02*
X96304762Y-64654819D01*
X96304762Y-64654819D02*
X96495238Y-64654819D01*
X96495238Y-64654819D02*
X96590476Y-64607200D01*
X96590476Y-64607200D02*
X96638095Y-64559580D01*
X96638095Y-64559580D02*
X96685714Y-64464342D01*
X96685714Y-64464342D02*
X96685714Y-64226247D01*
X96685714Y-64226247D02*
X96638095Y-64131009D01*
X96638095Y-64131009D02*
X96590476Y-64083390D01*
X96590476Y-64083390D02*
X96495238Y-64035771D01*
X96495238Y-64035771D02*
X96304762Y-64035771D01*
X96304762Y-64035771D02*
X96209524Y-64083390D01*
X96209524Y-64083390D02*
X96161905Y-64131009D01*
X96161905Y-64131009D02*
X96114286Y-64226247D01*
D12*
%TO.C,R5*%
X93477500Y-61545276D02*
X93477500Y-62054724D01*
X94522500Y-61545276D02*
X94522500Y-62054724D01*
%TO.C,D3*%
X93065000Y-70825000D02*
X93065000Y-73285000D01*
X93065000Y-73285000D02*
X94535000Y-73285000D01*
X94535000Y-73285000D02*
X94535000Y-70825000D01*
D13*
%TO.C,J1*%
X113700000Y-60062500D02*
X119700000Y-60062500D01*
X113700000Y-68862500D02*
X113700000Y-60062500D01*
X113700000Y-74562500D02*
X113700000Y-71462500D01*
X114200000Y-74562500D02*
X113700000Y-74562500D01*
X114200000Y-74562500D02*
X114200000Y-77062500D01*
X114200000Y-77062500D02*
X119200000Y-77062500D01*
X119200000Y-74562500D02*
X114200000Y-74562500D01*
X119200000Y-77062500D02*
X119200000Y-74562500D01*
X119700000Y-61162500D02*
X119700000Y-60062500D01*
X119700000Y-70862500D02*
X119700000Y-64362500D01*
X119700000Y-74562500D02*
X119200000Y-74562500D01*
X119700000Y-74562500D02*
X119700000Y-73462500D01*
D14*
X120100000Y-75362500D02*
G75*
G02*
X119900000Y-75362500I-100000J0D01*
G01*
X119900000Y-75362500D02*
G75*
G02*
X120100000Y-75362500I100000J0D01*
G01*
D12*
%TO.C,D2*%
X91265000Y-70825000D02*
X91265000Y-73285000D01*
X91265000Y-73285000D02*
X92735000Y-73285000D01*
X92735000Y-73285000D02*
X92735000Y-70825000D01*
%TO.C,C1*%
X121491233Y-48990000D02*
X121783767Y-48990000D01*
X121491233Y-50010000D02*
X121783767Y-50010000D01*
%TO.C,R11*%
X99154724Y-60777500D02*
X98645276Y-60777500D01*
X99154724Y-61822500D02*
X98645276Y-61822500D01*
%TO.C,D4*%
X94865000Y-70825000D02*
X94865000Y-73285000D01*
X94865000Y-73285000D02*
X96335000Y-73285000D01*
X96335000Y-73285000D02*
X96335000Y-70825000D01*
%TO.C,D1*%
X89565000Y-70825000D02*
X89565000Y-73285000D01*
X89565000Y-73285000D02*
X91035000Y-73285000D01*
X91035000Y-73285000D02*
X91035000Y-70825000D01*
%TO.C,R1*%
X90177500Y-61557776D02*
X90177500Y-62067224D01*
X91222500Y-61557776D02*
X91222500Y-62067224D01*
D15*
%TO.C,G\u002A\u002A\u002A*%
G36*
X98781684Y-35865761D02*
G01*
X98811033Y-35900386D01*
X98798980Y-35921856D01*
X98745028Y-35930755D01*
X98726148Y-35931085D01*
X98669678Y-35927381D01*
X98649016Y-35914016D01*
X98650949Y-35898823D01*
X98685110Y-35862470D01*
X98736934Y-35850229D01*
X98781684Y-35865761D01*
G37*
G36*
X98325836Y-36791046D02*
G01*
X98328235Y-36810530D01*
X98312468Y-36858215D01*
X98274762Y-36891715D01*
X98229511Y-36904061D01*
X98191109Y-36888281D01*
X98184795Y-36879999D01*
X98181156Y-36844648D01*
X98218514Y-36813169D01*
X98261991Y-36795049D01*
X98307905Y-36782429D01*
X98325836Y-36791046D01*
G37*
G36*
X97092438Y-37606345D02*
G01*
X97092440Y-37606882D01*
X97076425Y-37654001D01*
X97038201Y-37686612D01*
X96992505Y-37697902D01*
X96954072Y-37681059D01*
X96948402Y-37673472D01*
X96948157Y-37638000D01*
X96980606Y-37603641D01*
X97035373Y-37581151D01*
X97037945Y-37580638D01*
X97080119Y-37580635D01*
X97092438Y-37606345D01*
G37*
G36*
X97642830Y-35892026D02*
G01*
X97657998Y-35923467D01*
X97659912Y-35989067D01*
X97635581Y-36036336D01*
X97594311Y-36057800D01*
X97545407Y-36045986D01*
X97525440Y-36029916D01*
X97494325Y-35986993D01*
X97496530Y-35942305D01*
X97512504Y-35907567D01*
X97552000Y-35870009D01*
X97600958Y-35865432D01*
X97642830Y-35892026D01*
G37*
G36*
X100416394Y-35880627D02*
G01*
X100442013Y-35930026D01*
X100446741Y-35983646D01*
X100431867Y-36041963D01*
X100395635Y-36076673D01*
X100350630Y-36083969D01*
X100309438Y-36060040D01*
X100292267Y-36030390D01*
X100281855Y-35962015D01*
X100299726Y-35904252D01*
X100340260Y-35869618D01*
X100366597Y-35864882D01*
X100416394Y-35880627D01*
G37*
G36*
X97540253Y-37478616D02*
G01*
X97559879Y-37508930D01*
X97572460Y-37571448D01*
X97557564Y-37625580D01*
X97523453Y-37662623D01*
X97478391Y-37673877D01*
X97430640Y-37650638D01*
X97427870Y-37647957D01*
X97407479Y-37606692D01*
X97401389Y-37564100D01*
X97415831Y-37501198D01*
X97451474Y-37463308D01*
X97496790Y-37454444D01*
X97540253Y-37478616D01*
G37*
G36*
X99962769Y-35860294D02*
G01*
X99983318Y-35886950D01*
X99994361Y-35914995D01*
X99981200Y-35927688D01*
X99934960Y-35931015D01*
X99917891Y-35931085D01*
X99862301Y-35929002D01*
X99831218Y-35923794D01*
X99828843Y-35921627D01*
X99845508Y-35894423D01*
X99882539Y-35863474D01*
X99920492Y-35844087D01*
X99928948Y-35842814D01*
X99962769Y-35860294D01*
G37*
G36*
X96654692Y-35794450D02*
G01*
X96672497Y-35856933D01*
X96683077Y-35903500D01*
X96690703Y-35952230D01*
X96677269Y-35971658D01*
X96632732Y-35975218D01*
X96629468Y-35975221D01*
X96584980Y-35970751D01*
X96569758Y-35959871D01*
X96570309Y-35958670D01*
X96581737Y-35928924D01*
X96598969Y-35872828D01*
X96607366Y-35842814D01*
X96624642Y-35789408D01*
X96639579Y-35772614D01*
X96654692Y-35794450D01*
G37*
G36*
X102101824Y-36879999D02*
G01*
X102101824Y-38248201D01*
X97599999Y-38248201D01*
X93098175Y-38248201D01*
X93099100Y-37801851D01*
X94209133Y-37801851D01*
X94228525Y-37806232D01*
X94239095Y-37806474D01*
X94302634Y-37802055D01*
X94384583Y-37790403D01*
X94426671Y-37782459D01*
X94488604Y-37762710D01*
X96408340Y-37762710D01*
X96606949Y-37762710D01*
X96700968Y-37762270D01*
X96759344Y-37759380D01*
X96790571Y-37751679D01*
X96803142Y-37736807D01*
X96805550Y-37712407D01*
X96805559Y-37707540D01*
X96802756Y-37676965D01*
X96787436Y-37660457D01*
X96778375Y-37658854D01*
X96828406Y-37658854D01*
X96850251Y-37714454D01*
X96862305Y-37728032D01*
X96911628Y-37753530D01*
X96977718Y-37761846D01*
X97039163Y-37752117D01*
X97065959Y-37736228D01*
X97087826Y-37720875D01*
X97092440Y-37736228D01*
X97111296Y-37756123D01*
X97147610Y-37762710D01*
X97291050Y-37762710D01*
X97346220Y-37762710D01*
X97387699Y-37755601D01*
X97401389Y-37741951D01*
X97417896Y-37735993D01*
X97457723Y-37750422D01*
X97458890Y-37751024D01*
X97532758Y-37767632D01*
X97603591Y-37747754D01*
X97656362Y-37696370D01*
X97663161Y-37683336D01*
X97686237Y-37591771D01*
X97678866Y-37499133D01*
X97644667Y-37426348D01*
X97581864Y-37371029D01*
X97513358Y-37359102D01*
X97457974Y-37377651D01*
X97401389Y-37407008D01*
X97401389Y-37309012D01*
X97399031Y-37248245D01*
X97387491Y-37219650D01*
X97360077Y-37211336D01*
X97346220Y-37211016D01*
X97291050Y-37211016D01*
X97291050Y-37486863D01*
X97291050Y-37762710D01*
X97147610Y-37762710D01*
X97176611Y-37760387D01*
X97193114Y-37746959D01*
X97200637Y-37712731D01*
X97202697Y-37648012D01*
X97202779Y-37610680D01*
X97196186Y-37498799D01*
X97192625Y-37486863D01*
X97173786Y-37423715D01*
X97131645Y-37379719D01*
X97065831Y-37361099D01*
X97029763Y-37359471D01*
X96956908Y-37370251D01*
X96894619Y-37397834D01*
X96856042Y-37435086D01*
X96849695Y-37457181D01*
X96867559Y-37471840D01*
X96907574Y-37475222D01*
X96949379Y-37467901D01*
X96971068Y-37453761D01*
X97005066Y-37433394D01*
X97049064Y-37437818D01*
X97078082Y-37464088D01*
X97083190Y-37490431D01*
X97067277Y-37507739D01*
X97021399Y-37522236D01*
X96982102Y-37530859D01*
X96898115Y-37560828D01*
X96845622Y-37605569D01*
X96828406Y-37658854D01*
X96778375Y-37658854D01*
X96749237Y-37653699D01*
X96677794Y-37652372D01*
X96673153Y-37652371D01*
X96540746Y-37652371D01*
X96540746Y-37431693D01*
X96540746Y-37211016D01*
X96474543Y-37211016D01*
X96408340Y-37211016D01*
X96408340Y-37486863D01*
X96408340Y-37762710D01*
X94488604Y-37762710D01*
X94624463Y-37719388D01*
X94806975Y-37618712D01*
X94967562Y-37486863D01*
X94968807Y-37485841D01*
X95104561Y-37326184D01*
X95208837Y-37145154D01*
X95269353Y-36968270D01*
X96408340Y-36968270D01*
X96474543Y-36968270D01*
X96512390Y-36966232D01*
X96532090Y-36952876D01*
X96539566Y-36917337D01*
X96540746Y-36848753D01*
X96540746Y-36846897D01*
X96540746Y-36725525D01*
X96640051Y-36725525D01*
X96739356Y-36725525D01*
X96739356Y-36846897D01*
X96740468Y-36916284D01*
X96747753Y-36952400D01*
X96767138Y-36966107D01*
X96804547Y-36968270D01*
X96805559Y-36968270D01*
X96871763Y-36968270D01*
X96871763Y-36726975D01*
X96960034Y-36726975D01*
X96963176Y-36811527D01*
X96971412Y-36882958D01*
X96982878Y-36925585D01*
X97022349Y-36957459D01*
X97085151Y-36968552D01*
X97154847Y-36957228D01*
X97182162Y-36945426D01*
X97217294Y-36933853D01*
X97224847Y-36945426D01*
X97243727Y-36962597D01*
X97280016Y-36968270D01*
X97306133Y-36966689D01*
X97322348Y-36956282D01*
X97331022Y-36928558D01*
X97334514Y-36875022D01*
X97335183Y-36787182D01*
X97335186Y-36769660D01*
X97401389Y-36769660D01*
X97401828Y-36863679D01*
X97404719Y-36922055D01*
X97412420Y-36953282D01*
X97427291Y-36965852D01*
X97451691Y-36968260D01*
X97456559Y-36968270D01*
X97488333Y-36965056D01*
X97504771Y-36948162D01*
X97510890Y-36906712D01*
X97511728Y-36848702D01*
X97515290Y-36752900D01*
X97527557Y-36693998D01*
X97550897Y-36665219D01*
X97577931Y-36659321D01*
X97611422Y-36669512D01*
X97632012Y-36704601D01*
X97642073Y-36771367D01*
X97644135Y-36848702D01*
X97645618Y-36917567D01*
X97653413Y-36953193D01*
X97672538Y-36966454D01*
X97699304Y-36968270D01*
X97730119Y-36965388D01*
X97746618Y-36949763D01*
X97753252Y-36910929D01*
X97754473Y-36838566D01*
X97762877Y-36740558D01*
X97787630Y-36681229D01*
X97828046Y-36661766D01*
X97853497Y-36667194D01*
X97872912Y-36687230D01*
X97883453Y-36734050D01*
X97886863Y-36815845D01*
X97886880Y-36824137D01*
X97887836Y-36901474D01*
X97893244Y-36944628D01*
X97906911Y-36963547D01*
X97932645Y-36968179D01*
X97942049Y-36968270D01*
X97970394Y-36966131D01*
X97986864Y-36953437D01*
X97994678Y-36920773D01*
X97996841Y-36864414D01*
X98064201Y-36864414D01*
X98086046Y-36920014D01*
X98098100Y-36933592D01*
X98147423Y-36959091D01*
X98213513Y-36967406D01*
X98274958Y-36957678D01*
X98301754Y-36941789D01*
X98323621Y-36926436D01*
X98328235Y-36941789D01*
X98347091Y-36961683D01*
X98383405Y-36968270D01*
X98412406Y-36965948D01*
X98428909Y-36952519D01*
X98436432Y-36918292D01*
X98438492Y-36853573D01*
X98438574Y-36816241D01*
X98435829Y-36769660D01*
X98526845Y-36769660D01*
X98527309Y-36863684D01*
X98530241Y-36922065D01*
X98537957Y-36953294D01*
X98552769Y-36965862D01*
X98576991Y-36968262D01*
X98580962Y-36968270D01*
X98610875Y-36965060D01*
X98627895Y-36948626D01*
X98636588Y-36908763D01*
X98641520Y-36835263D01*
X98641648Y-36832641D01*
X98655807Y-36735120D01*
X98682695Y-36676623D01*
X98715971Y-36656369D01*
X98749298Y-36673576D01*
X98776336Y-36727465D01*
X98790746Y-36817255D01*
X98791658Y-36851115D01*
X98793214Y-36919108D01*
X98801327Y-36953967D01*
X98821169Y-36966673D01*
X98846828Y-36968270D01*
X98876012Y-36965895D01*
X98892522Y-36952256D01*
X98899960Y-36917582D01*
X98901932Y-36852104D01*
X98901997Y-36818706D01*
X98891820Y-36699266D01*
X98862208Y-36615772D01*
X98814539Y-36569782D01*
X98750192Y-36562856D01*
X98693769Y-36583212D01*
X98653949Y-36597825D01*
X98637186Y-36591968D01*
X98637184Y-36591809D01*
X98618291Y-36576202D01*
X98582015Y-36571050D01*
X98555898Y-36572632D01*
X98539683Y-36583038D01*
X98531009Y-36610763D01*
X98527517Y-36664299D01*
X98526848Y-36752139D01*
X98526845Y-36769660D01*
X98435829Y-36769660D01*
X98431981Y-36704359D01*
X98409581Y-36629276D01*
X98367440Y-36585279D01*
X98301626Y-36566659D01*
X98265558Y-36565032D01*
X98192703Y-36575811D01*
X98130414Y-36603394D01*
X98091837Y-36640646D01*
X98085490Y-36662742D01*
X98103353Y-36677400D01*
X98143369Y-36680782D01*
X98185174Y-36673462D01*
X98206863Y-36659321D01*
X98240861Y-36638954D01*
X98284859Y-36643379D01*
X98313877Y-36669649D01*
X98318985Y-36695991D01*
X98303072Y-36713300D01*
X98257194Y-36727796D01*
X98217896Y-36736419D01*
X98133910Y-36766389D01*
X98081417Y-36811130D01*
X98064201Y-36864414D01*
X97996841Y-36864414D01*
X97997059Y-36858722D01*
X97997219Y-36806980D01*
X97993312Y-36713749D01*
X97982657Y-36643520D01*
X97969634Y-36610598D01*
X97912304Y-36566904D01*
X97846064Y-36565120D01*
X97791042Y-36594333D01*
X97752416Y-36618682D01*
X97732961Y-36619131D01*
X97732406Y-36616241D01*
X97714056Y-36591650D01*
X97674257Y-36569918D01*
X97614744Y-36560246D01*
X97563919Y-36582007D01*
X97527036Y-36599531D01*
X97511728Y-36593627D01*
X97492846Y-36576657D01*
X97456559Y-36571050D01*
X97430442Y-36572632D01*
X97414227Y-36583038D01*
X97405553Y-36610763D01*
X97402061Y-36664299D01*
X97401392Y-36752139D01*
X97401389Y-36769660D01*
X97335186Y-36769660D01*
X97335186Y-36571050D01*
X97269991Y-36571050D01*
X97235410Y-36572704D01*
X97215411Y-36584195D01*
X97205278Y-36615318D01*
X97200295Y-36675865D01*
X97198271Y-36720008D01*
X97193816Y-36798968D01*
X97186465Y-36843578D01*
X97172168Y-36863608D01*
X97146881Y-36868827D01*
X97136576Y-36868965D01*
X97107214Y-36866278D01*
X97090053Y-36851704D01*
X97081048Y-36815473D01*
X97076151Y-36747815D01*
X97074881Y-36720008D01*
X97070394Y-36641020D01*
X97062992Y-36596393D01*
X97048698Y-36576365D01*
X97023535Y-36571174D01*
X97014195Y-36571050D01*
X96985995Y-36573416D01*
X96969802Y-36586891D01*
X96962291Y-36621044D01*
X96960139Y-36685442D01*
X96960034Y-36726975D01*
X96871763Y-36726975D01*
X96871763Y-36692423D01*
X96871763Y-36416576D01*
X96805559Y-36416576D01*
X96764850Y-36419455D01*
X96745569Y-36436076D01*
X96739730Y-36478417D01*
X96739356Y-36515881D01*
X96739356Y-36615186D01*
X96640051Y-36615186D01*
X96540746Y-36615186D01*
X96540746Y-36515881D01*
X96538827Y-36454817D01*
X96527746Y-36425895D01*
X96499519Y-36417137D01*
X96474543Y-36416576D01*
X96408340Y-36416576D01*
X96408340Y-36692423D01*
X96408340Y-36968270D01*
X95269353Y-36968270D01*
X95276234Y-36948158D01*
X95281022Y-36926431D01*
X95294590Y-36849725D01*
X95297133Y-36807391D01*
X95289640Y-36801994D01*
X95273103Y-36836101D01*
X95260391Y-36873004D01*
X95205254Y-37003570D01*
X95123660Y-37142519D01*
X95025580Y-37273316D01*
X95004383Y-37297576D01*
X94906716Y-37390556D01*
X94779251Y-37489026D01*
X94634186Y-37584897D01*
X94483717Y-37670080D01*
X94346735Y-37733790D01*
X94264451Y-37768187D01*
X94219846Y-37790022D01*
X94209133Y-37801851D01*
X93099100Y-37801851D01*
X93099226Y-37740985D01*
X93838113Y-37740985D01*
X93858006Y-37752516D01*
X93915328Y-37759325D01*
X93929243Y-37760150D01*
X93970605Y-37754617D01*
X94041466Y-37737652D01*
X94129645Y-37712336D01*
X94175210Y-37697907D01*
X94392893Y-37615990D01*
X94596898Y-37518339D01*
X94779771Y-37409433D01*
X94934057Y-37293746D01*
X95052302Y-37175755D01*
X95059636Y-37166780D01*
X95142895Y-37045358D01*
X95211535Y-36910551D01*
X95261724Y-36773200D01*
X95279190Y-36692423D01*
X95289629Y-36644146D01*
X95291419Y-36534228D01*
X95288867Y-36518308D01*
X95281323Y-36491518D01*
X95271877Y-36492217D01*
X95257742Y-36525098D01*
X95236131Y-36594853D01*
X95229169Y-36618827D01*
X95166735Y-36792522D01*
X95082810Y-36944664D01*
X94968367Y-37090778D01*
X94931344Y-37130914D01*
X94741292Y-37300633D01*
X94512527Y-37449930D01*
X94244835Y-37578930D01*
X94016463Y-37663067D01*
X93915994Y-37697759D01*
X93856993Y-37723232D01*
X93838113Y-37740985D01*
X93099226Y-37740985D01*
X93099518Y-37600337D01*
X93568623Y-37600337D01*
X93589623Y-37618286D01*
X93640100Y-37631253D01*
X93728457Y-37625087D01*
X93852948Y-37600093D01*
X94011828Y-37556575D01*
X94100951Y-37528825D01*
X94352070Y-37435086D01*
X94577288Y-37324709D01*
X94771143Y-37200852D01*
X94928174Y-37066672D01*
X94961547Y-37031317D01*
X95048207Y-36917880D01*
X95127229Y-36783385D01*
X95190847Y-36643298D01*
X95231292Y-36513085D01*
X95237049Y-36482779D01*
X95247332Y-36392440D01*
X95244732Y-36341559D01*
X95231409Y-36331220D01*
X95209524Y-36362506D01*
X95181235Y-36436499D01*
X95176278Y-36452310D01*
X95087153Y-36669320D01*
X94959089Y-36867340D01*
X94793528Y-37045193D01*
X94591915Y-37201700D01*
X94355691Y-37335682D01*
X94086299Y-37445962D01*
X93885189Y-37506736D01*
X93788234Y-37532027D01*
X93700226Y-37554502D01*
X93634946Y-37570662D01*
X93616794Y-37574909D01*
X93573605Y-37587042D01*
X93568623Y-37600337D01*
X93099518Y-37600337D01*
X93099627Y-37547549D01*
X93099935Y-37429396D01*
X93389559Y-37429396D01*
X93391007Y-37450911D01*
X93399767Y-37461117D01*
X93428567Y-37472979D01*
X93483331Y-37473497D01*
X93568714Y-37462176D01*
X93689373Y-37438521D01*
X93760897Y-37422706D01*
X94061873Y-37340379D01*
X94331241Y-37237707D01*
X94567342Y-37115934D01*
X94768520Y-36976303D01*
X94933117Y-36820057D01*
X95059474Y-36648439D01*
X95145935Y-36462694D01*
X95174195Y-36362653D01*
X95186346Y-36288673D01*
X95188757Y-36227421D01*
X95184642Y-36203309D01*
X95172601Y-36190880D01*
X95156933Y-36211988D01*
X95135067Y-36270785D01*
X95126861Y-36296563D01*
X95047855Y-36480656D01*
X94929499Y-36658816D01*
X94776562Y-36826398D01*
X94593810Y-36978759D01*
X94386011Y-37111257D01*
X94195131Y-37204001D01*
X94054385Y-37257355D01*
X93893332Y-37308818D01*
X93728603Y-37353713D01*
X93576832Y-37387361D01*
X93496435Y-37400536D01*
X93423193Y-37413550D01*
X93389559Y-37429396D01*
X93099935Y-37429396D01*
X93100130Y-37354451D01*
X93100578Y-37265009D01*
X93258936Y-37265009D01*
X93263586Y-37277063D01*
X93289944Y-37293341D01*
X93344337Y-37297741D01*
X93430784Y-37290013D01*
X93553305Y-37269907D01*
X93635368Y-37253919D01*
X93932073Y-37180341D01*
X94202850Y-37085784D01*
X94445067Y-36972011D01*
X94656089Y-36840783D01*
X94833282Y-36693865D01*
X94974013Y-36533018D01*
X95075648Y-36360005D01*
X95112291Y-36265449D01*
X95135660Y-36177422D01*
X95135885Y-36173831D01*
X96370384Y-36173831D01*
X96434043Y-36173831D01*
X96488138Y-36161838D01*
X96518453Y-36119252D01*
X96518678Y-36118661D01*
X96538266Y-36083824D01*
X96571461Y-36067665D01*
X96632841Y-36063506D01*
X96639084Y-36063492D01*
X96701982Y-36066529D01*
X96734501Y-36080054D01*
X96750231Y-36110683D01*
X96752362Y-36118661D01*
X96773895Y-36160255D01*
X96818876Y-36173594D01*
X96830019Y-36173831D01*
X96875601Y-36168860D01*
X96894164Y-36157280D01*
X96887218Y-36131275D01*
X96868023Y-36072336D01*
X96839450Y-35988992D01*
X96819487Y-35932536D01*
X96960034Y-35932536D01*
X96963176Y-36017087D01*
X96971412Y-36088518D01*
X96982878Y-36131146D01*
X97022349Y-36163019D01*
X97085151Y-36174112D01*
X97154847Y-36162789D01*
X97182162Y-36150986D01*
X97217294Y-36139414D01*
X97224847Y-36150986D01*
X97243727Y-36168157D01*
X97280016Y-36173831D01*
X97306133Y-36172249D01*
X97322348Y-36161843D01*
X97331022Y-36134118D01*
X97334514Y-36080582D01*
X97335183Y-35992742D01*
X97335184Y-35985766D01*
X97384716Y-35985766D01*
X97408994Y-36055548D01*
X97454623Y-36110702D01*
X97515926Y-36142444D01*
X97587224Y-36141985D01*
X97613594Y-36132544D01*
X97652925Y-36117961D01*
X97664570Y-36129849D01*
X97662252Y-36157039D01*
X97654450Y-36185066D01*
X97633915Y-36199188D01*
X97589531Y-36203069D01*
X97528279Y-36201214D01*
X97447345Y-36201897D01*
X97408444Y-36213691D01*
X97410695Y-36237398D01*
X97450435Y-36271884D01*
X97528393Y-36302942D01*
X97616075Y-36303061D01*
X97695352Y-36273564D01*
X97722375Y-36252071D01*
X97747765Y-36223186D01*
X97763705Y-36191135D01*
X97772365Y-36145303D01*
X97775917Y-36075075D01*
X97776541Y-35987258D01*
X97776494Y-35975221D01*
X97864812Y-35975221D01*
X97865251Y-36069239D01*
X97868142Y-36127615D01*
X97875843Y-36158842D01*
X97890715Y-36171413D01*
X97915115Y-36173821D01*
X97919982Y-36173831D01*
X97951757Y-36170616D01*
X97968194Y-36153722D01*
X97974313Y-36112272D01*
X97975151Y-36054263D01*
X97978713Y-35958460D01*
X97990980Y-35899559D01*
X98014320Y-35870780D01*
X98041354Y-35864882D01*
X98074845Y-35875072D01*
X98095435Y-35910161D01*
X98105496Y-35976928D01*
X98107558Y-36054263D01*
X98109041Y-36123128D01*
X98116836Y-36158753D01*
X98135961Y-36172014D01*
X98162727Y-36173831D01*
X98193809Y-36170843D01*
X98210339Y-36154829D01*
X98216943Y-36115213D01*
X98218234Y-36046941D01*
X98223163Y-35950981D01*
X98238846Y-35893224D01*
X98267560Y-35868558D01*
X98297778Y-35868456D01*
X98320635Y-35879502D01*
X98334481Y-35908340D01*
X98342316Y-35964750D01*
X98345794Y-36025101D01*
X98350287Y-36104015D01*
X98357706Y-36148575D01*
X98372036Y-36168551D01*
X98397264Y-36173710D01*
X98406481Y-36173831D01*
X98434312Y-36171570D01*
X98450484Y-36158514D01*
X98458156Y-36125252D01*
X98460489Y-36062373D01*
X98460642Y-36012540D01*
X98458509Y-35961636D01*
X98529943Y-35961636D01*
X98540749Y-36049229D01*
X98589947Y-36120774D01*
X98674840Y-36169924D01*
X98692353Y-36175516D01*
X98759569Y-36178299D01*
X98832727Y-36158394D01*
X98889568Y-36122556D01*
X98897657Y-36113225D01*
X98913252Y-36084102D01*
X98894538Y-36071339D01*
X98871164Y-36067648D01*
X98810795Y-36071007D01*
X98774094Y-36083149D01*
X98726528Y-36092277D01*
X98684731Y-36072225D01*
X98645874Y-36038176D01*
X98644983Y-36015284D01*
X98683847Y-36002149D01*
X98764259Y-35997371D01*
X98780625Y-35997288D01*
X98857863Y-35996163D01*
X98900899Y-35990468D01*
X98919649Y-35976730D01*
X98919911Y-35975221D01*
X98990268Y-35975221D01*
X98990732Y-36069245D01*
X98993664Y-36127625D01*
X99001380Y-36158854D01*
X99016192Y-36171422D01*
X99040415Y-36173823D01*
X99044385Y-36173831D01*
X99074298Y-36170621D01*
X99091318Y-36154187D01*
X99100011Y-36114323D01*
X99104944Y-36040824D01*
X99105071Y-36038201D01*
X99119230Y-35940681D01*
X99146118Y-35882184D01*
X99179394Y-35861929D01*
X99212721Y-35879137D01*
X99239759Y-35933026D01*
X99254169Y-36022816D01*
X99255082Y-36056676D01*
X99256637Y-36124668D01*
X99264750Y-36159528D01*
X99284592Y-36172234D01*
X99310251Y-36173831D01*
X99339435Y-36171455D01*
X99355945Y-36157816D01*
X99363383Y-36123143D01*
X99365355Y-36057664D01*
X99365420Y-36024266D01*
X99355243Y-35904827D01*
X99325631Y-35821332D01*
X99313587Y-35809712D01*
X99409556Y-35809712D01*
X99420106Y-35839099D01*
X99429053Y-35842814D01*
X99440218Y-35862950D01*
X99450590Y-35915678D01*
X99457780Y-35987765D01*
X99467791Y-36079589D01*
X99487449Y-36135643D01*
X99522667Y-36164135D01*
X99579360Y-36173273D01*
X99591615Y-36173493D01*
X99637490Y-36165433D01*
X99652141Y-36135465D01*
X99652301Y-36129695D01*
X99638503Y-36093751D01*
X99619200Y-36085559D01*
X99599237Y-36074663D01*
X99588960Y-36036427D01*
X99586098Y-35964187D01*
X99586202Y-35961636D01*
X99721603Y-35961636D01*
X99732409Y-36049229D01*
X99781606Y-36120774D01*
X99866499Y-36169924D01*
X99884013Y-36175516D01*
X99951229Y-36178299D01*
X100024386Y-36158394D01*
X100081227Y-36122556D01*
X100089316Y-36113225D01*
X100104911Y-36084102D01*
X100086197Y-36071339D01*
X100062823Y-36067648D01*
X100002455Y-36071007D01*
X99965753Y-36083149D01*
X99918187Y-36092277D01*
X99876391Y-36072225D01*
X99837534Y-36038176D01*
X99836642Y-36015284D01*
X99875507Y-36002149D01*
X99955919Y-35997371D01*
X99972284Y-35997288D01*
X100049523Y-35996163D01*
X100092558Y-35990468D01*
X100111309Y-35976730D01*
X100111571Y-35975221D01*
X100159860Y-35975221D01*
X100175555Y-36064608D01*
X100217236Y-36131820D01*
X100276802Y-36171531D01*
X100346148Y-36178417D01*
X100417171Y-36147151D01*
X100419156Y-36145635D01*
X100443179Y-36137236D01*
X100446741Y-36149061D01*
X100465608Y-36167674D01*
X100501910Y-36173831D01*
X100557080Y-36173831D01*
X100557080Y-35897983D01*
X100557080Y-35622136D01*
X100501910Y-35622136D01*
X100467930Y-35626224D01*
X100451789Y-35646355D01*
X100446964Y-35694327D01*
X100446741Y-35721950D01*
X100446741Y-35821764D01*
X100394550Y-35787567D01*
X100329091Y-35766825D01*
X100264609Y-35782964D01*
X100209411Y-35829339D01*
X100171805Y-35899310D01*
X100159860Y-35975221D01*
X100111571Y-35975221D01*
X100115693Y-35951473D01*
X100115724Y-35947029D01*
X100097122Y-35872079D01*
X100048531Y-35816385D01*
X99980780Y-35782409D01*
X99904694Y-35772611D01*
X99831101Y-35789451D01*
X99770827Y-35835389D01*
X99751884Y-35864345D01*
X99721603Y-35961636D01*
X99586202Y-35961636D01*
X99589070Y-35890992D01*
X99599498Y-35853308D01*
X99619200Y-35842814D01*
X99648456Y-35825149D01*
X99652301Y-35809712D01*
X99634637Y-35780456D01*
X99619200Y-35776611D01*
X99593178Y-35757319D01*
X99586098Y-35708942D01*
X99581561Y-35662091D01*
X99559690Y-35646708D01*
X99525412Y-35648255D01*
X99478146Y-35664061D01*
X99459130Y-35705805D01*
X99457743Y-35715924D01*
X99446191Y-35760007D01*
X99430158Y-35776611D01*
X99411873Y-35794507D01*
X99409556Y-35809712D01*
X99313587Y-35809712D01*
X99277962Y-35775343D01*
X99213615Y-35768416D01*
X99157192Y-35788772D01*
X99117372Y-35803385D01*
X99100609Y-35797528D01*
X99100607Y-35797370D01*
X99081714Y-35781762D01*
X99045438Y-35776611D01*
X99019322Y-35778192D01*
X99003106Y-35788599D01*
X98994432Y-35816323D01*
X98990940Y-35869859D01*
X98990271Y-35957699D01*
X98990268Y-35975221D01*
X98919911Y-35975221D01*
X98924033Y-35951473D01*
X98924065Y-35947029D01*
X98905462Y-35872079D01*
X98856872Y-35816385D01*
X98789120Y-35782409D01*
X98713034Y-35772611D01*
X98639441Y-35789451D01*
X98579167Y-35835389D01*
X98560224Y-35864345D01*
X98529943Y-35961636D01*
X98458509Y-35961636D01*
X98456735Y-35919310D01*
X98446080Y-35849080D01*
X98433057Y-35816158D01*
X98375531Y-35772514D01*
X98309177Y-35770501D01*
X98256751Y-35798096D01*
X98215410Y-35825273D01*
X98194169Y-35822177D01*
X98188948Y-35812578D01*
X98155227Y-35779307D01*
X98098526Y-35770170D01*
X98034240Y-35787499D01*
X98031736Y-35788772D01*
X97991916Y-35803385D01*
X97975153Y-35797528D01*
X97975151Y-35797370D01*
X97956258Y-35781762D01*
X97919982Y-35776611D01*
X97893865Y-35778192D01*
X97877650Y-35788599D01*
X97868976Y-35816323D01*
X97865484Y-35869859D01*
X97864815Y-35957699D01*
X97864812Y-35975221D01*
X97776494Y-35975221D01*
X97776163Y-35889859D01*
X97773587Y-35828348D01*
X97766655Y-35794478D01*
X97753205Y-35780001D01*
X97731078Y-35776670D01*
X97721372Y-35776611D01*
X97679893Y-35783720D01*
X97666202Y-35797370D01*
X97649723Y-35803429D01*
X97610051Y-35788997D01*
X97609617Y-35788772D01*
X97535406Y-35769192D01*
X97468641Y-35792548D01*
X97422924Y-35837469D01*
X97387467Y-35910144D01*
X97384716Y-35985766D01*
X97335184Y-35985766D01*
X97335186Y-35975221D01*
X97335186Y-35776611D01*
X97269991Y-35776611D01*
X97235410Y-35778265D01*
X97215411Y-35789756D01*
X97205278Y-35820878D01*
X97200295Y-35881426D01*
X97198271Y-35925568D01*
X97193816Y-36004529D01*
X97186465Y-36049138D01*
X97172168Y-36069168D01*
X97146881Y-36074387D01*
X97136576Y-36074526D01*
X97107214Y-36071839D01*
X97090053Y-36057265D01*
X97081048Y-36021034D01*
X97076151Y-35953375D01*
X97074881Y-35925568D01*
X97070394Y-35846580D01*
X97062992Y-35801953D01*
X97048698Y-35781925D01*
X97023535Y-35776735D01*
X97014195Y-35776611D01*
X96985995Y-35778976D01*
X96969802Y-35792451D01*
X96962291Y-35826604D01*
X96960139Y-35891002D01*
X96960034Y-35932536D01*
X96819487Y-35932536D01*
X96804366Y-35889775D01*
X96801373Y-35881433D01*
X96762388Y-35773911D01*
X96733945Y-35701173D01*
X96711784Y-35656423D01*
X96691646Y-35632864D01*
X96669274Y-35623701D01*
X96640406Y-35622137D01*
X96638877Y-35622136D01*
X96610390Y-35623415D01*
X96588189Y-35631639D01*
X96568243Y-35653390D01*
X96546523Y-35695248D01*
X96518998Y-35763794D01*
X96481637Y-35865609D01*
X96469945Y-35897983D01*
X96370384Y-36173831D01*
X95135885Y-36173831D01*
X95138802Y-36127263D01*
X95124063Y-36116179D01*
X95093788Y-36145375D01*
X95050322Y-36216057D01*
X95043051Y-36229844D01*
X94966967Y-36351555D01*
X94862950Y-36482930D01*
X94741651Y-36612211D01*
X94613723Y-36727637D01*
X94542806Y-36782092D01*
X94357102Y-36897532D01*
X94140336Y-37003717D01*
X93905383Y-37095551D01*
X93665121Y-37167939D01*
X93456175Y-37212058D01*
X93358955Y-37228596D01*
X93298380Y-37241346D01*
X93267392Y-37252689D01*
X93258936Y-37265009D01*
X93100578Y-37265009D01*
X93100894Y-37201836D01*
X93102132Y-37086053D01*
X93104059Y-37003449D01*
X93106890Y-36950373D01*
X93110838Y-36923174D01*
X93116118Y-36918198D01*
X93122944Y-36931794D01*
X93131531Y-36960310D01*
X93133639Y-36968077D01*
X93154876Y-37038087D01*
X93175252Y-37090650D01*
X93186162Y-37109221D01*
X93219272Y-37116490D01*
X93288572Y-37113190D01*
X93387655Y-37100286D01*
X93510110Y-37078747D01*
X93649527Y-37049539D01*
X93769098Y-37021268D01*
X94051430Y-36936132D01*
X94310012Y-36827761D01*
X94539597Y-36698883D01*
X94734941Y-36552227D01*
X94812650Y-36478732D01*
X94880491Y-36402274D01*
X94947490Y-36314865D01*
X95007338Y-36226196D01*
X95053724Y-36145954D01*
X95080340Y-36083827D01*
X95084274Y-36061650D01*
X95067290Y-36024597D01*
X95021950Y-35970614D01*
X94956667Y-35907179D01*
X94879856Y-35841770D01*
X94799931Y-35781866D01*
X94725307Y-35734946D01*
X94704655Y-35724250D01*
X94491680Y-35643381D01*
X94278130Y-35605217D01*
X94067782Y-35609154D01*
X93864414Y-35654585D01*
X93671805Y-35740904D01*
X93493733Y-35867505D01*
X93427580Y-35929128D01*
X93295259Y-36083912D01*
X93199521Y-36249974D01*
X93133295Y-36438644D01*
X93123180Y-36474852D01*
X93115413Y-36494957D01*
X93109665Y-36495016D01*
X93105607Y-36471091D01*
X93102910Y-36419240D01*
X93101243Y-36335524D01*
X93100278Y-36216001D01*
X93099685Y-36056731D01*
X93099627Y-36035907D01*
X93098175Y-35511798D01*
X97599999Y-35511798D01*
X102101824Y-35511798D01*
X102101824Y-36879999D01*
G37*
D14*
%TO.C,S3*%
X124100000Y-42900000D02*
X124100000Y-45300000D01*
X124200000Y-40900000D02*
X130400000Y-40900000D01*
X130400000Y-47300000D02*
X124200000Y-47300000D01*
X130500000Y-45300000D02*
X130500000Y-42900000D01*
X124700000Y-41500000D02*
G75*
G02*
X124500000Y-41500000I-100000J0D01*
G01*
X124500000Y-41500000D02*
G75*
G02*
X124700000Y-41500000I100000J0D01*
G01*
%TO.C,J4*%
X125685000Y-60682500D02*
X125685000Y-57253500D01*
X132195000Y-60682500D02*
X132195000Y-57253500D01*
X125240000Y-62368000D02*
G75*
G02*
X125040000Y-62368000I-100000J0D01*
G01*
X125040000Y-62368000D02*
G75*
G02*
X125240000Y-62368000I100000J0D01*
G01*
D12*
%TO.C,C13*%
X121491233Y-51490000D02*
X121783767Y-51490000D01*
X121491233Y-52510000D02*
X121783767Y-52510000D01*
D13*
%TO.C,U1*%
X103025000Y-30600000D02*
X118025000Y-30600000D01*
X103025000Y-41830000D02*
X103025000Y-30600000D01*
X104025000Y-41830000D02*
X103025000Y-41830000D01*
X104025000Y-41930000D02*
X104025000Y-41830000D01*
X104025000Y-50990000D02*
X104025000Y-51400000D01*
X104025000Y-51400000D02*
X118025000Y-51400000D01*
X118025000Y-30600000D02*
X118025000Y-41930000D01*
X118025000Y-51400000D02*
X118025000Y-50990000D01*
D14*
X102625000Y-42600000D02*
G75*
G02*
X102425000Y-42600000I-100000J0D01*
G01*
X102425000Y-42600000D02*
G75*
G02*
X102625000Y-42600000I100000J0D01*
G01*
D12*
%TO.C,R3*%
X91777500Y-61545276D02*
X91777500Y-62054724D01*
X92822500Y-61545276D02*
X92822500Y-62054724D01*
%TO.C,D5*%
X95165000Y-66100000D02*
X95165000Y-68560000D01*
X95165000Y-68560000D02*
X96635000Y-68560000D01*
X96635000Y-68560000D02*
X96635000Y-66100000D01*
%TO.C,MK1*%
X110097500Y-52044000D02*
X112977500Y-52044000D01*
X110097500Y-55764000D02*
X110097500Y-52044000D01*
X112677500Y-55764000D02*
X110097500Y-55764000D01*
X112977500Y-52044000D02*
X112977500Y-55464000D01*
X112977500Y-56044000D02*
X112977500Y-55764000D01*
X113257500Y-55764000D01*
X112977500Y-56044000D01*
G36*
X112977500Y-56044000D02*
G01*
X112977500Y-55764000D01*
X113257500Y-55764000D01*
X112977500Y-56044000D01*
G37*
D13*
%TO.C,J2*%
X98220000Y-62850000D02*
X98220000Y-72356000D01*
X99192000Y-62850000D02*
X98220000Y-62850000D01*
X105134000Y-62850000D02*
X101782000Y-62850000D01*
X107751000Y-62850000D02*
X110170000Y-62850000D01*
X110170000Y-62850000D02*
X110170000Y-63339000D01*
X110170000Y-65000000D02*
X110170000Y-67000000D01*
X110170000Y-68700000D02*
X110170000Y-72850000D01*
D14*
X110795000Y-72850000D02*
G75*
G02*
X110595000Y-72850000I-100000J0D01*
G01*
X110595000Y-72850000D02*
G75*
G02*
X110795000Y-72850000I100000J0D01*
G01*
D12*
%TO.C,C10*%
X121783767Y-54240000D02*
X121491233Y-54240000D01*
X121783767Y-55260000D02*
X121491233Y-55260000D01*
%TO.C,J3*%
X126152500Y-48140000D02*
X130772500Y-48140000D01*
X130772500Y-54910000D02*
X126152500Y-54910000D01*
X124602500Y-48595000D02*
X124272500Y-48835000D01*
X124272500Y-48355000D01*
X124602500Y-48595000D01*
G36*
X124602500Y-48595000D02*
G01*
X124272500Y-48835000D01*
X124272500Y-48355000D01*
X124602500Y-48595000D01*
G37*
%TO.C,C14*%
X111453733Y-56290000D02*
X111746267Y-56290000D01*
X111453733Y-57310000D02*
X111746267Y-57310000D01*
D13*
%TO.C,SW1*%
X123900000Y-71300000D02*
X123900000Y-74900000D01*
X123900000Y-74900000D02*
X132900000Y-74900000D01*
X132900000Y-71300000D02*
X132900000Y-74900000D01*
D14*
%TO.C,S2*%
X92400000Y-55300000D02*
X92400000Y-57700000D01*
X92500000Y-53300000D02*
X98700000Y-53300000D01*
X98700000Y-59700000D02*
X92500000Y-59700000D01*
X98800000Y-57700000D02*
X98800000Y-55300000D01*
X93000000Y-53900000D02*
G75*
G02*
X92800000Y-53900000I-100000J0D01*
G01*
X92800000Y-53900000D02*
G75*
G02*
X93000000Y-53900000I100000J0D01*
G01*
%TO.C,S1*%
X92500000Y-48200000D02*
X92500000Y-50600000D01*
X92600000Y-46200000D02*
X98800000Y-46200000D01*
X98800000Y-52600000D02*
X92600000Y-52600000D01*
X98900000Y-50600000D02*
X98900000Y-48200000D01*
X93100000Y-46800000D02*
G75*
G02*
X92900000Y-46800000I-100000J0D01*
G01*
X92900000Y-46800000D02*
G75*
G02*
X93100000Y-46800000I100000J0D01*
G01*
D12*
%TO.C,R6*%
X95277500Y-61545276D02*
X95277500Y-62054724D01*
X96322500Y-61545276D02*
X96322500Y-62054724D01*
%TD*%
M02*
