%TF.GenerationSoftware,KiCad,Pcbnew,9.0.7*%
%TF.CreationDate,2026-05-11T11:53:40+08:00*%
%TF.ProjectId,OpenGUT,4f70656e-4755-4542-9e6b-696361645f70,rev?*%
%TF.SameCoordinates,Original*%
%TF.FileFunction,Copper,L1,Top*%
%TF.FilePolarity,Positive*%
%FSLAX46Y46*%
G04 Gerber Fmt 4.6, Leading zero omitted, Abs format (unit mm)*
G04 Created by KiCad (PCBNEW 9.0.7) date 2026-05-11 11:53:40*
%MOMM*%
%LPD*%
G01*
G04 APERTURE LIST*
G04 Aperture macros list*
%AMRoundRect*
0 Rectangle with rounded corners*
0 $1 Rounding radius*
0 $2 $3 $4 $5 $6 $7 $8 $9 X,Y pos of 4 corners*
0 Add a 4 corners polygon primitive as box body*
4,1,4,$2,$3,$4,$5,$6,$7,$8,$9,$2,$3,0*
0 Add four circle primitives for the rounded corners*
1,1,$1+$1,$2,$3*
1,1,$1+$1,$4,$5*
1,1,$1+$1,$6,$7*
1,1,$1+$1,$8,$9*
0 Add four rect primitives between the rounded corners*
20,1,$1+$1,$2,$3,$4,$5,0*
20,1,$1+$1,$4,$5,$6,$7,0*
20,1,$1+$1,$6,$7,$8,$9,0*
20,1,$1+$1,$8,$9,$2,$3,0*%
%AMFreePoly0*
4,1,64,0.235856,1.440014,0.383010,1.379061,0.515445,1.290571,0.628071,1.177945,0.716561,1.045510,0.777514,0.898356,0.808588,0.742139,0.808588,0.582861,0.777514,0.426644,0.716561,0.279490,0.628071,0.147055,0.515445,0.034429,0.383010,-0.054061,0.235856,-0.115014,0.079639,-0.146088,0.031751,-0.146088,0.029264,-0.147118,-0.029264,-0.147118,-0.031751,-0.146088,-0.079639,-0.146088,
-0.235856,-0.115014,-0.383010,-0.054061,-0.515445,0.034429,-0.628071,0.147055,-0.716561,0.279490,-0.777514,0.426644,-0.808588,0.582861,-0.808588,0.729972,-0.512500,0.729972,-0.512500,0.595028,-0.477574,0.464683,-0.410102,0.347818,-0.314682,0.252398,-0.197817,0.184926,-0.067472,0.150000,0.067472,0.150000,0.197817,0.184926,0.314682,0.252398,0.410102,0.347818,0.477574,0.464683,
0.512500,0.595028,0.512500,0.729972,0.477574,0.860317,0.410102,0.977182,0.314682,1.072602,0.197817,1.140074,0.067472,1.175000,-0.067472,1.175000,-0.197817,1.140074,-0.314682,1.072602,-0.410102,0.977182,-0.477574,0.860317,-0.512500,0.729972,-0.808588,0.729972,-0.808588,0.742139,-0.777514,0.898356,-0.716561,1.045510,-0.628071,1.177945,-0.515445,1.290571,-0.383010,1.379061,
-0.235856,1.440014,-0.079639,1.471088,0.079639,1.471088,0.235856,1.440014,0.235856,1.440014,$1*%
G04 Aperture macros list end*
%TA.AperFunction,SMDPad,CuDef*%
%ADD10RoundRect,0.237500X-0.237500X0.250000X-0.237500X-0.250000X0.237500X-0.250000X0.237500X0.250000X0*%
%TD*%
%TA.AperFunction,SMDPad,CuDef*%
%ADD11RoundRect,0.237500X0.237500X-0.287500X0.237500X0.287500X-0.237500X0.287500X-0.237500X-0.287500X0*%
%TD*%
%TA.AperFunction,SMDPad,CuDef*%
%ADD12R,2.800000X2.200000*%
%TD*%
%TA.AperFunction,SMDPad,CuDef*%
%ADD13R,2.800000X2.800000*%
%TD*%
%TA.AperFunction,SMDPad,CuDef*%
%ADD14R,2.800000X2.600000*%
%TD*%
%TA.AperFunction,SMDPad,CuDef*%
%ADD15RoundRect,0.237500X-0.300000X-0.237500X0.300000X-0.237500X0.300000X0.237500X-0.300000X0.237500X0*%
%TD*%
%TA.AperFunction,SMDPad,CuDef*%
%ADD16RoundRect,0.237500X0.250000X0.237500X-0.250000X0.237500X-0.250000X-0.237500X0.250000X-0.237500X0*%
%TD*%
%TA.AperFunction,SMDPad,CuDef*%
%ADD17R,1.550000X1.300000*%
%TD*%
%TA.AperFunction,SMDPad,CuDef*%
%ADD18R,0.736600X2.794000*%
%TD*%
%TA.AperFunction,SMDPad,CuDef*%
%ADD19R,1.500000X0.700000*%
%TD*%
%TA.AperFunction,SMDPad,CuDef*%
%ADD20C,0.600000*%
%TD*%
%TA.AperFunction,SMDPad,CuDef*%
%ADD21R,1.500000X1.500000*%
%TD*%
%TA.AperFunction,SMDPad,CuDef*%
%ADD22R,0.600000X0.600000*%
%TD*%
%TA.AperFunction,SMDPad,CuDef*%
%ADD23R,0.725000X0.522000*%
%TD*%
%TA.AperFunction,SMDPad,CuDef*%
%ADD24FreePoly0,180.000000*%
%TD*%
%TA.AperFunction,SMDPad,CuDef*%
%ADD25R,0.850000X1.100000*%
%TD*%
%TA.AperFunction,SMDPad,CuDef*%
%ADD26R,0.750000X1.100000*%
%TD*%
%TA.AperFunction,SMDPad,CuDef*%
%ADD27R,1.200000X1.000000*%
%TD*%
%TA.AperFunction,SMDPad,CuDef*%
%ADD28R,1.550000X1.350000*%
%TD*%
%TA.AperFunction,SMDPad,CuDef*%
%ADD29R,1.170000X1.800000*%
%TD*%
%TA.AperFunction,SMDPad,CuDef*%
%ADD30R,1.900000X1.350000*%
%TD*%
%TA.AperFunction,SMDPad,CuDef*%
%ADD31RoundRect,0.237500X0.300000X0.237500X-0.300000X0.237500X-0.300000X-0.237500X0.300000X-0.237500X0*%
%TD*%
%TA.AperFunction,SMDPad,CuDef*%
%ADD32RoundRect,0.100000X-0.637500X-0.100000X0.637500X-0.100000X0.637500X0.100000X-0.637500X0.100000X0*%
%TD*%
%TA.AperFunction,SMDPad,CuDef*%
%ADD33R,1.200000X2.500000*%
%TD*%
%TA.AperFunction,ComponentPad*%
%ADD34R,1.308000X1.308000*%
%TD*%
%TA.AperFunction,ComponentPad*%
%ADD35C,1.308000*%
%TD*%
%TA.AperFunction,ViaPad*%
%ADD36C,0.450000*%
%TD*%
%TA.AperFunction,ViaPad*%
%ADD37C,0.600000*%
%TD*%
%TA.AperFunction,ViaPad*%
%ADD38C,0.400000*%
%TD*%
%TA.AperFunction,Conductor*%
%ADD39C,0.400000*%
%TD*%
%TA.AperFunction,Conductor*%
%ADD40C,0.250000*%
%TD*%
%TA.AperFunction,Conductor*%
%ADD41C,0.200000*%
%TD*%
G04 APERTURE END LIST*
D10*
%TO.P,R5,1*%
%TO.N,+3.3V*%
X94000000Y-60887500D03*
%TO.P,R5,2*%
%TO.N,Net-(D3-A)*%
X94000000Y-62712500D03*
%TD*%
D11*
%TO.P,D3,1,K*%
%TO.N,/LED 3*%
X93800000Y-72500000D03*
%TO.P,D3,2,A*%
%TO.N,Net-(D3-A)*%
X93800000Y-70750000D03*
%TD*%
D12*
%TO.P,J1,1*%
%TO.N,GND*%
X120400000Y-72162500D03*
D13*
%TO.P,J1,2*%
%TO.N,/RIGHT CHANNEL*%
X120400000Y-62762500D03*
D12*
%TO.P,J1,3*%
%TO.N,/LEFT CHANNEL*%
X113000000Y-70162500D03*
D14*
%TO.P,J1,4*%
%TO.N,unconnected-(J1-Pad4)*%
X115950000Y-58762500D03*
%TD*%
D11*
%TO.P,D2,1,K*%
%TO.N,/LED 2*%
X92000000Y-72500000D03*
%TO.P,D2,2,A*%
%TO.N,Net-(D2-A)*%
X92000000Y-70750000D03*
%TD*%
D15*
%TO.P,C1,1*%
%TO.N,VDD*%
X120775000Y-49500000D03*
%TO.P,C1,2*%
%TO.N,GND*%
X122500000Y-49500000D03*
%TD*%
D16*
%TO.P,R11,1*%
%TO.N,VDD*%
X99812500Y-61300000D03*
%TO.P,R11,2*%
%TO.N,Net-(D5-A)*%
X97987500Y-61300000D03*
%TD*%
D11*
%TO.P,D4,1,K*%
%TO.N,/LED 4*%
X95600000Y-72500000D03*
%TO.P,D4,2,A*%
%TO.N,Net-(D4-A)*%
X95600000Y-70750000D03*
%TD*%
%TO.P,D1,1,K*%
%TO.N,/LED 1*%
X90300000Y-72500000D03*
%TO.P,D1,2,A*%
%TO.N,Net-(D1-A)*%
X90300000Y-70750000D03*
%TD*%
D10*
%TO.P,R1,1*%
%TO.N,+3.3V*%
X90700000Y-60900000D03*
%TO.P,R1,2*%
%TO.N,Net-(D1-A)*%
X90700000Y-62725000D03*
%TD*%
D17*
%TO.P,S3,1*%
%TO.N,unconnected-(S3-Pad1)*%
X123325000Y-41850000D03*
%TO.P,S3,2*%
%TO.N,/RESET*%
X123325000Y-46350000D03*
%TO.P,S3,3*%
%TO.N,GND*%
X131275000Y-41850000D03*
%TO.P,S3,4*%
%TO.N,unconnected-(S3-Pad4)*%
X131275000Y-46350000D03*
%TD*%
D18*
%TO.P,J4,01,01*%
%TO.N,VDD*%
X126400000Y-61000000D03*
%TO.P,J4,02,02*%
%TO.N,/SWDIO*%
X126400000Y-56936000D03*
%TO.P,J4,03,03*%
%TO.N,GND*%
X127670000Y-61000000D03*
%TO.P,J4,04,04*%
%TO.N,/SWCLK*%
X127670000Y-56936000D03*
%TO.P,J4,05,05*%
%TO.N,GND*%
X128940000Y-61000000D03*
%TO.P,J4,06,06*%
%TO.N,/SW0*%
X128940000Y-56936000D03*
%TO.P,J4,07,07*%
%TO.N,unconnected-(J4-Pad07)*%
X130210000Y-61000000D03*
%TO.P,J4,08,08*%
%TO.N,unconnected-(J4-Pad08)*%
X130210000Y-56936000D03*
%TO.P,J4,09,09*%
%TO.N,GND*%
X131480000Y-61000000D03*
%TO.P,J4,10,10*%
%TO.N,/RESET*%
X131480000Y-56936000D03*
%TD*%
D15*
%TO.P,C13,1*%
%TO.N,GNDA*%
X120775000Y-52000000D03*
%TO.P,C13,2*%
%TO.N,+3.3V*%
X122500000Y-52000000D03*
%TD*%
D19*
%TO.P,U1,1,P0.26/SDA*%
%TO.N,/SDA*%
X104025000Y-42600000D03*
%TO.P,U1,2,P0.27/SCL*%
%TO.N,/SCL*%
X104025000Y-43700000D03*
%TO.P,U1,3,P0.00/XL1*%
%TO.N,unconnected-(U1-P0.00{slash}XL1-Pad3)*%
X104025000Y-44800000D03*
%TO.P,U1,4,P0.01/XL2*%
%TO.N,unconnected-(U1-P0.01{slash}XL2-Pad4)*%
X104025000Y-45900000D03*
%TO.P,U1,5,P0.02/AIN0*%
%TO.N,unconnected-(U1-P0.02{slash}AIN0-Pad5)*%
X104025000Y-47000000D03*
%TO.P,U1,6,P0.03/AIN1*%
%TO.N,unconnected-(U1-P0.03{slash}AIN1-Pad6)*%
X104025000Y-48100000D03*
%TO.P,U1,7,P0.09/NFC1*%
%TO.N,unconnected-(U1-P0.09{slash}NFC1-Pad7)*%
X104025000Y-49200000D03*
%TO.P,U1,8,P0.10/NFC2*%
%TO.N,unconnected-(U1-P0.10{slash}NFC2-Pad8)*%
X104025000Y-50300000D03*
%TO.P,U1,9,VDD*%
%TO.N,VDD*%
X118025000Y-50300000D03*
%TO.P,U1,10,GND*%
%TO.N,GND*%
X118025000Y-49200000D03*
%TO.P,U1,11,P0.11*%
%TO.N,unconnected-(U1-P0.11-Pad11)*%
X118025000Y-48100000D03*
%TO.P,U1,12,P1.00*%
%TO.N,/SW0*%
X118025000Y-47000000D03*
%TO.P,U1,13,P0.13*%
%TO.N,unconnected-(U1-P0.13-Pad13)*%
X118025000Y-45900000D03*
%TO.P,U1,14,P0.18/RESET*%
%TO.N,/RESET*%
X118025000Y-44800000D03*
%TO.P,U1,15,SWDCLK*%
%TO.N,/SWCLK*%
X118025000Y-43700000D03*
%TO.P,U1,16,SWDIO*%
%TO.N,/SWDIO*%
X118025000Y-42600000D03*
D20*
%TO.P,U1,A0,GND*%
%TO.N,GND*%
X108775000Y-43400000D03*
%TO.P,U1,A1,P0.28/AIN4*%
%TO.N,unconnected-(U1-P0.28{slash}AIN4-PadA1)*%
X108775000Y-44600000D03*
%TO.P,U1,A2,P0.29/AIN5*%
%TO.N,unconnected-(U1-P0.29{slash}AIN5-PadA2)*%
X108775000Y-45800000D03*
%TO.P,U1,A3,P0.04/AIN2*%
%TO.N,unconnected-(U1-P0.04{slash}AIN2-PadA3)*%
X108775000Y-47000000D03*
%TO.P,U1,A4,P0.05/AIN3*%
%TO.N,/INT*%
X108775000Y-48200000D03*
%TO.P,U1,A5,P0.07*%
%TO.N,/SCK*%
X108775000Y-49400000D03*
%TO.P,U1,A6,P1.08*%
%TO.N,/PDM CLOCK*%
X108775000Y-50600000D03*
%TO.P,U1,B0,GND*%
%TO.N,GND*%
X110275000Y-43400000D03*
%TO.P,U1,B1,P0.25*%
%TO.N,VDD*%
X110275000Y-44600000D03*
%TO.P,U1,B2,P0.30/AIN6*%
%TO.N,unconnected-(U1-P0.30{slash}AIN6-PadB2)*%
X110275000Y-45800000D03*
%TO.P,U1,B3,P0.31/AIN7*%
%TO.N,unconnected-(U1-P0.31{slash}AIN7-PadB3)*%
X110275000Y-47000000D03*
%TO.P,U1,B4,P0.06*%
%TO.N,unconnected-(U1-P0.06-PadB4)*%
X110275000Y-48200000D03*
%TO.P,U1,B5,P0.08*%
%TO.N,unconnected-(U1-P0.08-PadB5)*%
X110275000Y-49400000D03*
%TO.P,U1,B6,P1.03*%
%TO.N,/PDM DATA*%
X110275000Y-50600000D03*
%TO.P,U1,C0,GND*%
%TO.N,GND*%
X111775000Y-43400000D03*
%TO.P,U1,C1,P0.24*%
%TO.N,unconnected-(U1-P0.24-PadC1)*%
X111775000Y-44600000D03*
%TO.P,U1,C2,P0.22*%
%TO.N,unconnected-(U1-P0.22-PadC2)*%
X111775000Y-45800000D03*
%TO.P,U1,C3,P0.17*%
%TO.N,unconnected-(U1-P0.17-PadC3)*%
X111775000Y-47000000D03*
%TO.P,U1,C4,P0.15*%
%TO.N,unconnected-(U1-P0.15-PadC4)*%
X111775000Y-48200000D03*
%TO.P,U1,C5,P1.02*%
%TO.N,/SWITCH 1*%
X111775000Y-49400000D03*
%TO.P,U1,C6,P1.04*%
%TO.N,/CS*%
X111775000Y-50600000D03*
%TO.P,U1,D0,GND*%
%TO.N,GND*%
X113275000Y-43400000D03*
%TO.P,U1,D1,P0.23*%
%TO.N,unconnected-(U1-P0.23-PadD1)*%
X113275000Y-44600000D03*
%TO.P,U1,D2,P0.19*%
%TO.N,unconnected-(U1-P0.19-PadD2)*%
X113275000Y-45800000D03*
%TO.P,U1,D3,P0.16*%
%TO.N,unconnected-(U1-P0.16-PadD3)*%
X113275000Y-47000000D03*
%TO.P,U1,D4,P0.14*%
%TO.N,unconnected-(U1-P0.14-PadD4)*%
X113275000Y-48200000D03*
%TO.P,U1,D5,P1.01*%
%TO.N,unconnected-(U1-P1.01-PadD5)*%
X113275000Y-49400000D03*
%TO.P,U1,D6,P1.05*%
%TO.N,/MISO*%
X113275000Y-50600000D03*
%TO.P,U1,E0,P1.07*%
%TO.N,/SW DETECT*%
X114775000Y-43400000D03*
%TO.P,U1,E1,P0.20*%
%TO.N,/I2S LRCLK*%
X114775000Y-44600000D03*
%TO.P,U1,E2,P0.21*%
%TO.N,/I2S SDOUT*%
X114775000Y-45800000D03*
%TO.P,U1,E3,P1.09*%
%TO.N,/I2S MCLK*%
X114775000Y-47000000D03*
%TO.P,U1,E4,D+*%
%TO.N,unconnected-(U1-D+-PadE4)*%
X114775000Y-48200000D03*
%TO.P,U1,E5,D-*%
%TO.N,unconnected-(U1-D--PadE5)*%
X114775000Y-49400000D03*
%TO.P,U1,E6,P0.12*%
%TO.N,/I2S BCLK*%
X114775000Y-50600000D03*
D21*
%TO.P,U1,F0,GND0*%
%TO.N,GND*%
X107650000Y-41400000D03*
%TO.P,U1,F1,GND1*%
X109900000Y-41400000D03*
%TO.P,U1,F2,GND2*%
X112150000Y-41400000D03*
%TO.P,U1,F3,GND3*%
X114400000Y-41400000D03*
D20*
%TO.P,U1,F4,VDDH*%
%TO.N,/VDDH*%
X116275000Y-48200000D03*
%TO.P,U1,F5,DCCH*%
%TO.N,unconnected-(U1-DCCH-PadF5)*%
X116275000Y-49400000D03*
D22*
%TO.P,U1,F6,VBUS*%
%TO.N,unconnected-(U1-VBUS-PadF6)*%
X116275000Y-50600000D03*
D20*
%TO.P,U1,Z0,P1.11*%
%TO.N,/LED 4*%
X107275000Y-43400000D03*
%TO.P,U1,Z1,P1.12*%
%TO.N,/LED 3*%
X107275000Y-44600000D03*
%TO.P,U1,Z2,P1.13*%
%TO.N,/LED 2*%
X107275000Y-45800000D03*
%TO.P,U1,Z3,P1.14*%
%TO.N,/LED 1*%
X107275000Y-47000000D03*
%TO.P,U1,Z4,P1.15*%
%TO.N,/IMU RESETN*%
X107275000Y-48200000D03*
%TO.P,U1,Z5,P1.10*%
%TO.N,/SWITCH 2*%
X107275000Y-49400000D03*
%TO.P,U1,Z6,P1.06*%
%TO.N,/MOSI*%
X107275000Y-50600000D03*
%TD*%
D10*
%TO.P,R3,1*%
%TO.N,+3.3V*%
X92300000Y-60887500D03*
%TO.P,R3,2*%
%TO.N,Net-(D2-A)*%
X92300000Y-62712500D03*
%TD*%
D11*
%TO.P,D5,1,K*%
%TO.N,GND*%
X95900000Y-67775000D03*
%TO.P,D5,2,A*%
%TO.N,Net-(D5-A)*%
X95900000Y-66025000D03*
%TD*%
D23*
%TO.P,MK1,1,DATA*%
%TO.N,/PDM DATA*%
X112375000Y-55208000D03*
%TO.P,MK1,2,SEL*%
%TO.N,+3.3V*%
X112375000Y-54386000D03*
D24*
%TO.P,MK1,3,GND*%
%TO.N,GND*%
X111537500Y-52471500D03*
D23*
%TO.P,MK1,4,CLOCK*%
%TO.N,/PDM CLOCK*%
X110700000Y-54386000D03*
%TO.P,MK1,5,VDD*%
%TO.N,+3.3V*%
X110700000Y-55208000D03*
%TD*%
D25*
%TO.P,J2,1,DAT2*%
%TO.N,unconnected-(J2-DAT2-Pad1)*%
X107300000Y-74000000D03*
%TO.P,J2,2,CD/DAT3*%
%TO.N,/CS*%
X106200000Y-74000000D03*
%TO.P,J2,3,CMD*%
%TO.N,/MOSI*%
X105100000Y-74000000D03*
%TO.P,J2,4,VDD*%
%TO.N,+3.3V*%
X104000000Y-74000000D03*
%TO.P,J2,5,CLK*%
%TO.N,/SCK*%
X102900000Y-74000000D03*
%TO.P,J2,6,VSS*%
%TO.N,GND*%
X101800000Y-74000000D03*
%TO.P,J2,7,DAT0*%
%TO.N,/MISO*%
X100700000Y-74000000D03*
D26*
%TO.P,J2,8,DAT1*%
%TO.N,unconnected-(J2-DAT1-Pad8)*%
X99650000Y-74000000D03*
D27*
%TO.P,J2,9,SW-1*%
%TO.N,GND*%
X109935000Y-67850000D03*
%TO.P,J2,10,SW-2*%
%TO.N,Net-(J2-SW-2)*%
X109935000Y-64150000D03*
D28*
%TO.P,J2,G1,GND*%
%TO.N,GND*%
X109760000Y-73875000D03*
D29*
%TO.P,J2,G2,GND*%
X98440000Y-73650000D03*
D30*
%TO.P,J2,G3,GND*%
X100465000Y-63175000D03*
%TO.P,J2,G4,GND*%
X106435000Y-63175000D03*
%TD*%
D31*
%TO.P,C10,1*%
%TO.N,+3.3V*%
X122500000Y-54750000D03*
%TO.P,C10,2*%
%TO.N,GNDA*%
X120775000Y-54750000D03*
%TD*%
D32*
%TO.P,J3,1,CPVDD*%
%TO.N,+3.3V*%
X125600000Y-48600000D03*
%TO.P,J3,2,CAPP*%
%TO.N,Net-(J3-CAPP)*%
X125600000Y-49250000D03*
%TO.P,J3,3,CPGND*%
%TO.N,GNDA*%
X125600000Y-49900000D03*
%TO.P,J3,4,CAPM*%
%TO.N,Net-(J3-CAPM)*%
X125600000Y-50550000D03*
%TO.P,J3,5,VNEG*%
%TO.N,Net-(J3-VNEG)*%
X125600000Y-51200000D03*
%TO.P,J3,6,OUTL*%
%TO.N,Net-(J3-OUTL)*%
X125600000Y-51850000D03*
%TO.P,J3,7,OUTR*%
%TO.N,Net-(J3-OUTR)*%
X125600000Y-52500000D03*
%TO.P,J3,8,AVDD*%
%TO.N,+3.3V*%
X125600000Y-53150000D03*
%TO.P,J3,9,AGND*%
%TO.N,GNDA*%
X125600000Y-53800000D03*
%TO.P,J3,10,DEMP*%
%TO.N,GND*%
X125600000Y-54450000D03*
%TO.P,J3,11,FLT*%
X131325000Y-54450000D03*
%TO.P,J3,12,SCK*%
%TO.N,/I2S MCLK*%
X131325000Y-53800000D03*
%TO.P,J3,13,BCK*%
%TO.N,/I2S BCLK*%
X131325000Y-53150000D03*
%TO.P,J3,14,DIN*%
%TO.N,/I2S SDOUT*%
X131325000Y-52500000D03*
%TO.P,J3,15,LRCK*%
%TO.N,/I2S LRCLK*%
X131325000Y-51850000D03*
%TO.P,J3,16,FMT*%
%TO.N,GND*%
X131325000Y-51200000D03*
%TO.P,J3,17,XSMT*%
%TO.N,+3.3V*%
X131325000Y-50550000D03*
%TO.P,J3,18,LDOO*%
%TO.N,Net-(J3-LDOO)*%
X131325000Y-49900000D03*
%TO.P,J3,19,DGND*%
%TO.N,GND*%
X131325000Y-49250000D03*
%TO.P,J3,20,DVDD*%
%TO.N,+3.3V*%
X131325000Y-48600000D03*
%TD*%
D15*
%TO.P,C14,1*%
%TO.N,+3.3V*%
X110737500Y-56800000D03*
%TO.P,C14,2*%
%TO.N,GND*%
X112462500Y-56800000D03*
%TD*%
D33*
%TO.P,SW1,1*%
%TO.N,/VDDH*%
X125900000Y-70350000D03*
%TO.P,SW1,2*%
%TO.N,Net-(J5-Pad1)*%
X128400000Y-70350000D03*
%TO.P,SW1,3*%
%TO.N,unconnected-(SW1-Pad3)*%
X130900000Y-70350000D03*
%TD*%
D17*
%TO.P,S2,1*%
%TO.N,unconnected-(S2-Pad1)*%
X91625000Y-54250000D03*
%TO.P,S2,2*%
%TO.N,/SWITCH 2*%
X91625000Y-58750000D03*
%TO.P,S2,3*%
%TO.N,GND*%
X99575000Y-54250000D03*
%TO.P,S2,4*%
%TO.N,unconnected-(S2-Pad4)*%
X99575000Y-58750000D03*
%TD*%
%TO.P,S1,1*%
%TO.N,unconnected-(S1-Pad1)*%
X91725000Y-47150000D03*
%TO.P,S1,2*%
%TO.N,/SWITCH 1*%
X91725000Y-51650000D03*
%TO.P,S1,3*%
%TO.N,GND*%
X99675000Y-47150000D03*
%TO.P,S1,4*%
%TO.N,unconnected-(S1-Pad4)*%
X99675000Y-51650000D03*
%TD*%
D10*
%TO.P,R6,1*%
%TO.N,+3.3V*%
X95800000Y-60887500D03*
%TO.P,R6,2*%
%TO.N,Net-(D4-A)*%
X95800000Y-62712500D03*
%TD*%
D34*
%TO.P,J5,1,1*%
%TO.N,Net-(J5-Pad1)*%
X93150000Y-42700000D03*
D35*
%TO.P,J5,2,2*%
%TO.N,GND*%
X93150000Y-44700000D03*
%TD*%
D36*
%TO.N,VDD*%
X91750000Y-49250000D03*
D37*
X110275000Y-44600000D03*
D36*
X101100000Y-60000000D03*
X119300000Y-50500000D03*
%TO.N,GND*%
X131275000Y-41850000D03*
X101600000Y-41900000D03*
X106400000Y-63200000D03*
X94000000Y-55250000D03*
X98440000Y-73650000D03*
D37*
X116660000Y-46500000D03*
X99830000Y-48930000D03*
D36*
X117500000Y-57000000D03*
D37*
X103640000Y-61570000D03*
D36*
X120852000Y-48474866D03*
X131325000Y-54450000D03*
X122457358Y-49415179D03*
D37*
X103540000Y-58190000D03*
D36*
X107650000Y-41400000D03*
D37*
X100465000Y-63175000D03*
D36*
X101675000Y-72500000D03*
X124210000Y-51720000D03*
X126857187Y-54675920D03*
X99575000Y-54250000D03*
X131660000Y-51200000D03*
D37*
X113275000Y-43400000D03*
X116490000Y-44690000D03*
D36*
X131275000Y-49250000D03*
X119300000Y-49200000D03*
X91500000Y-56750000D03*
X103947800Y-67850000D03*
X113788798Y-54500000D03*
X101800000Y-74000000D03*
X127670000Y-61000000D03*
X109935000Y-67850000D03*
X115961091Y-54961091D03*
X95900000Y-67775000D03*
%TO.N,GNDA*%
X128500000Y-42000000D03*
X120937500Y-46700000D03*
X126000000Y-53775000D03*
X128500000Y-45000000D03*
X122250000Y-48200000D03*
X125188173Y-49874999D03*
D37*
X121730000Y-44873000D03*
D36*
X120850000Y-52000000D03*
X123613173Y-55035000D03*
D37*
X126998914Y-49452192D03*
D36*
%TO.N,+3.3V*%
X122707659Y-52000000D03*
X104000000Y-74000000D03*
X130262500Y-47800000D03*
X126892704Y-45782659D03*
X119252538Y-58195487D03*
X95800000Y-60887500D03*
X101000000Y-58000000D03*
X122707659Y-54750000D03*
X124280000Y-53395000D03*
X131750000Y-50525000D03*
X119750000Y-53500000D03*
D37*
X122770000Y-43720000D03*
D36*
X106500000Y-54500000D03*
X131552305Y-48625000D03*
%TO.N,/LEFT CHANNEL*%
X117000000Y-69500000D03*
%TO.N,/RIGHT CHANNEL*%
X122157659Y-58342341D03*
X120400000Y-62762500D03*
X121500000Y-59450000D03*
%TO.N,+1V8*%
X96250000Y-58250000D03*
X96400000Y-53400000D03*
%TO.N,Net-(U2-VREG)*%
X93750000Y-51000000D03*
X93712500Y-53256038D03*
D37*
%TO.N,/VDDH*%
X116275000Y-48200000D03*
D36*
X125900000Y-70350000D03*
X116200000Y-52200000D03*
%TO.N,/LED 1*%
X106499000Y-47100000D03*
X101750000Y-47100000D03*
%TO.N,/SWDIO*%
X119775000Y-42500000D03*
X125500000Y-46500000D03*
%TO.N,/SW0*%
X122949000Y-50449000D03*
X129050000Y-52750000D03*
%TO.N,/MOSI*%
X106500000Y-53000000D03*
X106400000Y-58500000D03*
%TO.N,/SCK*%
X108500000Y-71100000D03*
X107400000Y-55500000D03*
X108800000Y-49400000D03*
X103000000Y-71100000D03*
X112600000Y-60800000D03*
X111600000Y-68000000D03*
%TO.N,/MISO*%
X107000000Y-57600000D03*
X113500000Y-52300000D03*
%TO.N,/CS*%
X111775000Y-50600000D03*
X108000000Y-58000000D03*
%TO.N,/PDM DATA*%
X110275000Y-50600000D03*
%TO.N,/PDM CLOCK*%
X107213911Y-53063908D03*
%TO.N,/SDA*%
X104025000Y-42600000D03*
X91000000Y-55500000D03*
X94500000Y-50250000D03*
X100500000Y-42250000D03*
X93750000Y-47000000D03*
X94375000Y-49125000D03*
X98000000Y-43500000D03*
%TO.N,/SW DETECT*%
X115000000Y-66000000D03*
X118575000Y-52347183D03*
X115500000Y-69000000D03*
X121000000Y-51000000D03*
X115000000Y-52500000D03*
X118500000Y-59000000D03*
X119684373Y-41881603D03*
%TO.N,/SCL*%
X98200000Y-50337500D03*
X104000000Y-43750000D03*
X101500000Y-46000000D03*
X97000000Y-49000000D03*
X94500000Y-47000000D03*
X91500000Y-56099997D03*
X101750000Y-43750000D03*
%TO.N,/SWITCH 1*%
X111775000Y-49400000D03*
X101200000Y-48800000D03*
%TO.N,/SWITCH 2*%
X106499000Y-49500000D03*
X101200000Y-49500000D03*
%TO.N,/I2S SDOUT*%
X129499415Y-42998000D03*
X119250000Y-45500000D03*
X120968870Y-45374000D03*
X127750000Y-42750000D03*
X124000000Y-43150000D03*
X114750000Y-45750000D03*
%TO.N,/I2S LRCLK*%
X119530000Y-40650000D03*
X114775000Y-44600000D03*
%TO.N,/I2S BCLK*%
X116250000Y-56250000D03*
X119000000Y-54500000D03*
%TO.N,/I2S MCLK*%
X117000000Y-53500000D03*
X122700000Y-51058204D03*
X114750000Y-47000000D03*
X117000000Y-52201000D03*
X118750000Y-51250000D03*
X131325000Y-53800000D03*
%TO.N,/INT*%
X108750000Y-48250000D03*
%TO.N,/IMU RESETN*%
X91750000Y-50000000D03*
D38*
X92100000Y-53200000D03*
D36*
X107250000Y-48250000D03*
%TO.N,Net-(J2-SW-2)*%
X105287500Y-72500000D03*
%TO.N,Net-(J3-CAPP)*%
X126362500Y-47750000D03*
%TO.N,Net-(J3-CAPM)*%
X124637500Y-47750000D03*
%TO.N,Net-(J3-VNEG)*%
X123871240Y-48705577D03*
%TO.N,Net-(J3-LDOO)*%
X130162500Y-51500000D03*
%TO.N,Net-(J3-OUTL)*%
X126500000Y-42000000D03*
X129000000Y-49500000D03*
X126775117Y-50204845D03*
%TO.N,Net-(J3-OUTR)*%
X127250016Y-50670020D03*
%TO.N,Net-(J5-Pad1)*%
X106300000Y-46100000D03*
%TD*%
D39*
%TO.N,VDD*%
X119647942Y-56798000D02*
X119997885Y-56798000D01*
D40*
X89899000Y-61587990D02*
X90061010Y-61750000D01*
D39*
X120702000Y-57801000D02*
X121301000Y-57801000D01*
X121301000Y-57801000D02*
X121557351Y-58057351D01*
X117825029Y-54481211D02*
X119627000Y-56283182D01*
D40*
X120525000Y-49750000D02*
X120775000Y-49500000D01*
D39*
X122783659Y-58083043D02*
X122783659Y-58601639D01*
X119627000Y-56283182D02*
X119627000Y-56777058D01*
X122783659Y-58601639D02*
X122683659Y-58701639D01*
X122416957Y-57716341D02*
X122783659Y-58083043D01*
X122683659Y-58701639D02*
X122683659Y-59010217D01*
D40*
X99011500Y-60499000D02*
X99812500Y-61300000D01*
X119300000Y-49950000D02*
X119500000Y-49750000D01*
D39*
X119627000Y-56777058D02*
X119647942Y-56798000D01*
X117825029Y-50499971D02*
X117825029Y-54481211D01*
X123599000Y-60099000D02*
X124048942Y-60099000D01*
D40*
X91410190Y-49250000D02*
X89899000Y-50761190D01*
X119300000Y-50500000D02*
X118225000Y-50500000D01*
X91750000Y-49250000D02*
X91410190Y-49250000D01*
D39*
X120702000Y-57502115D02*
X120702000Y-57801000D01*
X122596938Y-59096938D02*
X123599000Y-60099000D01*
X121898361Y-57716341D02*
X122416957Y-57716341D01*
D40*
X119500000Y-49750000D02*
X120525000Y-49750000D01*
X99812500Y-61287500D02*
X101100000Y-60000000D01*
X97497510Y-60499000D02*
X99011500Y-60499000D01*
X90061010Y-61750000D02*
X96246510Y-61750000D01*
X119300000Y-50500000D02*
X119300000Y-49950000D01*
D39*
X124949942Y-61000000D02*
X126400000Y-61000000D01*
X118025000Y-50300000D02*
X117825029Y-50499971D01*
D40*
X89899000Y-50761190D02*
X89899000Y-61587990D01*
D39*
X119997885Y-56798000D02*
X120702000Y-57502115D01*
D40*
X99812500Y-61300000D02*
X99812500Y-61287500D01*
D39*
X122683659Y-59010217D02*
X122596938Y-59096938D01*
D40*
X118225000Y-50500000D02*
X118025000Y-50300000D01*
D39*
X121557351Y-58057351D02*
X121898361Y-57716341D01*
D40*
X96246510Y-61750000D02*
X97497510Y-60499000D01*
D39*
X124048942Y-60099000D02*
X124949942Y-61000000D01*
D40*
%TO.N,GND*%
X93150000Y-44700000D02*
X95600000Y-47150000D01*
X112462500Y-56800000D02*
X117300000Y-56800000D01*
X131480000Y-62028700D02*
X131480000Y-61000000D01*
X117300000Y-56800000D02*
X117500000Y-57000000D01*
X132297215Y-71470000D02*
X132390000Y-71470000D01*
X108775000Y-43400000D02*
X108775000Y-42525000D01*
D41*
X101600000Y-42600000D02*
X101600000Y-41900000D01*
D40*
X101675000Y-72500000D02*
X101675000Y-70122800D01*
X115961091Y-54961091D02*
X117500000Y-56500000D01*
X111760298Y-52471500D02*
X111537500Y-52471500D01*
X91500000Y-56750000D02*
X92500000Y-56750000D01*
X110275000Y-43400000D02*
X110275000Y-41775000D01*
X108775000Y-42525000D02*
X107650000Y-41400000D01*
X127670000Y-62610000D02*
X127670000Y-61000000D01*
X120400000Y-72162500D02*
X120400000Y-70440000D01*
X114436000Y-65474000D02*
X115434000Y-65474000D01*
X123810000Y-53770000D02*
X123754000Y-53714000D01*
X127930000Y-62870000D02*
X127670000Y-62610000D01*
X127970000Y-62870000D02*
X127930000Y-62870000D01*
X120025134Y-48474866D02*
X120852000Y-48474866D01*
X130508700Y-63000000D02*
X131480000Y-62028700D01*
X111775000Y-43400000D02*
X113275000Y-43400000D01*
X95900000Y-67775000D02*
X99770000Y-63905000D01*
X123754000Y-53714000D02*
X123754000Y-52689444D01*
X109935000Y-67850000D02*
X110335000Y-67450000D01*
X123754000Y-52689444D02*
X124210000Y-52233444D01*
X111775000Y-41775000D02*
X112150000Y-41400000D01*
X95600000Y-47150000D02*
X99675000Y-47150000D01*
X99675000Y-43825000D02*
X99675000Y-47150000D01*
X113788798Y-54500000D02*
X111760298Y-52471500D01*
X113275000Y-42525000D02*
X114400000Y-41400000D01*
X120400000Y-72162500D02*
X122138500Y-73901000D01*
X119300000Y-49200000D02*
X118025000Y-49200000D01*
X125600000Y-54450000D02*
X124490000Y-54450000D01*
X116490000Y-45030000D02*
X116660000Y-45200000D01*
X113275000Y-43400000D02*
X113275000Y-42525000D01*
X110275000Y-41775000D02*
X109900000Y-41400000D01*
X128411313Y-63311313D02*
X127970000Y-62870000D01*
X100250000Y-43250000D02*
X99675000Y-43825000D01*
X111775000Y-43400000D02*
X111775000Y-41775000D01*
X110335000Y-67450000D02*
X111330000Y-67450000D01*
X99830000Y-47305000D02*
X99675000Y-47150000D01*
X101675000Y-70122800D02*
X103947800Y-67850000D01*
X132390000Y-65710000D02*
X129991313Y-63311313D01*
X92500000Y-56750000D02*
X94000000Y-55250000D01*
X103540000Y-61470000D02*
X103640000Y-61570000D01*
X122138500Y-73901000D02*
X129866215Y-73901000D01*
X126631267Y-54450000D02*
X126857187Y-54675920D01*
X99830000Y-48930000D02*
X99830000Y-47305000D01*
X129500000Y-63000000D02*
X130508700Y-63000000D01*
X132390000Y-71470000D02*
X132390000Y-65710000D01*
X116490000Y-44690000D02*
X116490000Y-45030000D01*
X119300000Y-49200000D02*
X120025134Y-48474866D01*
X108775000Y-43400000D02*
X110275000Y-43400000D01*
X117500000Y-56500000D02*
X117500000Y-57000000D01*
X124210000Y-52233444D02*
X124210000Y-51720000D01*
X110275000Y-43400000D02*
X111775000Y-43400000D01*
X120400000Y-70440000D02*
X115434000Y-65474000D01*
X100950000Y-43250000D02*
X100250000Y-43250000D01*
X116660000Y-45200000D02*
X116660000Y-46500000D01*
X99770000Y-63905000D02*
X99770000Y-63175000D01*
X109760000Y-73875000D02*
X118687500Y-73875000D01*
X101600000Y-42600000D02*
X100950000Y-43250000D01*
X129991313Y-63311313D02*
X128411313Y-63311313D01*
X128940000Y-61000000D02*
X128940000Y-62440000D01*
X127670000Y-61000000D02*
X128940000Y-61000000D01*
X124490000Y-54450000D02*
X123810000Y-53770000D01*
X128940000Y-62440000D02*
X129500000Y-63000000D01*
X103540000Y-58190000D02*
X103540000Y-61470000D01*
X129866215Y-73901000D02*
X132297215Y-71470000D01*
X113150000Y-66760000D02*
X114436000Y-65474000D01*
X112020000Y-66760000D02*
X113150000Y-66760000D01*
X125600000Y-54450000D02*
X126631267Y-54450000D01*
X118687500Y-73875000D02*
X120400000Y-72162500D01*
X111330000Y-67450000D02*
X112020000Y-66760000D01*
%TO.N,GNDA*%
X123613173Y-55035000D02*
X123613173Y-55386827D01*
X126787499Y-49450000D02*
X126337499Y-49900000D01*
X122250000Y-48012500D02*
X120937500Y-46700000D01*
X123250000Y-55750000D02*
X121775000Y-55750000D01*
X120775000Y-52000000D02*
X120850000Y-52000000D01*
X121775000Y-55750000D02*
X120775000Y-54750000D01*
X126998914Y-49452192D02*
X126944354Y-49452192D01*
X120237500Y-54750000D02*
X119224000Y-53736500D01*
X125600000Y-49900000D02*
X125213174Y-49900000D01*
X126944354Y-49452192D02*
X126942162Y-49450000D01*
X123613173Y-55386827D02*
X123250000Y-55750000D01*
X120500000Y-52000000D02*
X120775000Y-52000000D01*
X121730000Y-44873000D02*
X121730000Y-45907500D01*
X125975000Y-53800000D02*
X126000000Y-53775000D01*
X119224000Y-53276000D02*
X120500000Y-52000000D01*
X119224000Y-53736500D02*
X119224000Y-53276000D01*
X121730000Y-45907500D02*
X120937500Y-46700000D01*
X120775000Y-54750000D02*
X120237500Y-54750000D01*
X126942162Y-49450000D02*
X126787499Y-49450000D01*
X128500000Y-45000000D02*
X128500000Y-42000000D01*
X122250000Y-48200000D02*
X122250000Y-48012500D01*
X125213174Y-49900000D02*
X125188173Y-49874999D01*
X126337499Y-49900000D02*
X125600000Y-49900000D01*
X125600000Y-53800000D02*
X125975000Y-53800000D01*
%TO.N,+3.3V*%
X124525000Y-53150000D02*
X125600000Y-53150000D01*
X101000000Y-58000000D02*
X101000000Y-57958563D01*
X131725000Y-50550000D02*
X131750000Y-50525000D01*
X131087500Y-48625000D02*
X130262500Y-47800000D01*
X95800000Y-60887500D02*
X95800000Y-60400000D01*
X125600000Y-47580000D02*
X125956000Y-47224000D01*
X127050000Y-47290000D02*
X127622000Y-47862000D01*
X131325000Y-48600000D02*
X131527305Y-48600000D01*
X127622000Y-49808145D02*
X127622000Y-49279895D01*
X126891704Y-45783659D02*
X126716341Y-45783659D01*
X127622000Y-47862000D02*
X127622000Y-49279895D01*
X127572000Y-49858145D02*
X127622000Y-49808145D01*
X92287500Y-60900000D02*
X92300000Y-60887500D01*
X127776016Y-50295513D02*
X127572000Y-50091497D01*
X119252538Y-58195487D02*
X119500000Y-58442949D01*
X110700000Y-55208000D02*
X110908000Y-55000000D01*
X111500000Y-55000000D02*
X112114000Y-54386000D01*
X127572000Y-50091497D02*
X127572000Y-49858145D01*
X126892704Y-45782659D02*
X125268659Y-45782659D01*
X125600000Y-47580000D02*
X124760000Y-46740000D01*
X110737500Y-55245500D02*
X110700000Y-55208000D01*
X124760000Y-46740000D02*
X124760000Y-46291318D01*
X122500000Y-52000000D02*
X122500000Y-54542341D01*
X124280000Y-53395000D02*
X124525000Y-53150000D01*
X114687500Y-60750000D02*
X110737500Y-56800000D01*
X100774000Y-57774000D02*
X101000000Y-58000000D01*
X95800000Y-60400000D02*
X98426000Y-57774000D01*
X92300000Y-60887500D02*
X94000000Y-60887500D01*
X125268659Y-45782659D02*
X123206000Y-43720000D01*
X122500000Y-54542341D02*
X122707659Y-54750000D01*
X127776016Y-51711483D02*
X127776016Y-50295513D01*
X106602000Y-54500000D02*
X107051000Y-54949000D01*
X126337499Y-53150000D02*
X127776016Y-51711483D01*
X125600000Y-48600000D02*
X125600000Y-47580000D01*
X121250000Y-53500000D02*
X122500000Y-54750000D01*
X117764616Y-60750000D02*
X114687500Y-60750000D01*
X119750000Y-53500000D02*
X121250000Y-53500000D01*
X119500000Y-59014616D02*
X117764616Y-60750000D01*
X124760000Y-46291318D02*
X125268659Y-45782659D01*
X125600000Y-53150000D02*
X126337499Y-53150000D01*
X119500000Y-58442949D02*
X119500000Y-59014616D01*
X112114000Y-54386000D02*
X112375000Y-54386000D01*
X126984000Y-47224000D02*
X127050000Y-47290000D01*
X125956000Y-47224000D02*
X126984000Y-47224000D01*
X108886500Y-54949000D02*
X110737500Y-56800000D01*
X131552305Y-48625000D02*
X131087500Y-48625000D01*
X123206000Y-43720000D02*
X122770000Y-43720000D01*
X95800000Y-60887500D02*
X94000000Y-60887500D01*
X126892704Y-45782659D02*
X126891704Y-45783659D01*
X106500000Y-54500000D02*
X106602000Y-54500000D01*
X90700000Y-60900000D02*
X92287500Y-60900000D01*
X107051000Y-54949000D02*
X108886500Y-54949000D01*
X98426000Y-57774000D02*
X100774000Y-57774000D01*
X131325000Y-50550000D02*
X131725000Y-50550000D01*
X110737500Y-56800000D02*
X110737500Y-55245500D01*
X110908000Y-55000000D02*
X111500000Y-55000000D01*
X131527305Y-48600000D02*
X131552305Y-48625000D01*
%TO.N,/LEFT CHANNEL*%
X116000000Y-69500000D02*
X115337500Y-70162500D01*
X117000000Y-69500000D02*
X116000000Y-69500000D01*
X115337500Y-70162500D02*
X113000000Y-70162500D01*
%TO.N,/RIGHT CHANNEL*%
X121500000Y-59450000D02*
X122157659Y-58792341D01*
X122157659Y-58792341D02*
X122157659Y-58342341D01*
D39*
%TO.N,+1V8*%
X96250000Y-53550000D02*
X96400000Y-53400000D01*
X96250000Y-58250000D02*
X96250000Y-53550000D01*
D40*
%TO.N,Net-(U2-VREG)*%
X93750000Y-53218538D02*
X93750000Y-51000000D01*
X93712500Y-53256038D02*
X93750000Y-53218538D01*
D39*
%TO.N,/VDDH*%
X125900000Y-70350000D02*
X125900000Y-69200000D01*
X120700000Y-60700000D02*
X120700000Y-58700000D01*
X119748943Y-57399000D02*
X119399000Y-57399000D01*
X119026000Y-57026000D02*
X119026000Y-56532124D01*
X120700000Y-58700000D02*
X120101000Y-58101000D01*
X119026000Y-56532124D02*
X117038091Y-54544215D01*
X125400000Y-68700000D02*
X125400000Y-62300000D01*
X120101000Y-57751057D02*
X119748943Y-57399000D01*
X116377967Y-53884091D02*
X116200000Y-53706124D01*
X119399000Y-57399000D02*
X119026000Y-57026000D01*
X117038091Y-54544215D02*
X117038091Y-54514983D01*
X117038091Y-54514983D02*
X116407199Y-53884091D01*
X125900000Y-69200000D02*
X125400000Y-68700000D01*
X120101000Y-58101000D02*
X120101000Y-57751057D01*
X125400000Y-62300000D02*
X123800000Y-60700000D01*
X123800000Y-60700000D02*
X120700000Y-60700000D01*
X116407199Y-53884091D02*
X116377967Y-53884091D01*
X116200000Y-53706124D02*
X116200000Y-52200000D01*
D40*
%TO.N,Net-(D1-A)*%
X90675000Y-62700000D02*
X90700000Y-62725000D01*
X88626000Y-70700000D02*
X88626000Y-62700000D01*
X90300000Y-70750000D02*
X88676000Y-70750000D01*
X88676000Y-70750000D02*
X88626000Y-70700000D01*
X88626000Y-62700000D02*
X90675000Y-62700000D01*
%TO.N,/LED 1*%
X90300000Y-72100000D02*
X90300000Y-72500000D01*
X101849000Y-47100000D02*
X101849000Y-51735570D01*
X96924380Y-68700000D02*
X96600000Y-68700000D01*
X100900000Y-64724380D02*
X96924380Y-68700000D01*
X101750000Y-47100000D02*
X101675000Y-47100000D01*
X96600000Y-71224380D02*
X96175380Y-71649000D01*
X100900000Y-64700000D02*
X100900000Y-64724380D01*
X101843285Y-64043285D02*
X101186570Y-64700000D01*
X90751000Y-71649000D02*
X90300000Y-72100000D01*
X96600000Y-68700000D02*
X96600000Y-71224380D01*
X107175000Y-47100000D02*
X107275000Y-47000000D01*
X101750000Y-47100000D02*
X101849000Y-47100000D01*
X101849000Y-51735570D02*
X101843285Y-51741285D01*
X101186570Y-64700000D02*
X100900000Y-64700000D01*
X106499000Y-47100000D02*
X107175000Y-47100000D01*
X101843285Y-51741285D02*
X101843285Y-64043285D01*
X96175380Y-71649000D02*
X90751000Y-71649000D01*
%TO.N,Net-(D2-A)*%
X92300000Y-63600000D02*
X92300000Y-62712500D01*
X89077000Y-69577000D02*
X89077000Y-63600000D01*
X89077000Y-63600000D02*
X92300000Y-63600000D01*
X92000000Y-69800000D02*
X89300000Y-69800000D01*
X92000000Y-70750000D02*
X92000000Y-69800000D01*
X89300000Y-69800000D02*
X89077000Y-69577000D01*
%TO.N,/LED 2*%
X105076000Y-46324000D02*
X106400000Y-45000000D01*
X98100000Y-71751000D02*
X98100000Y-69700000D01*
X96951000Y-73686810D02*
X96951000Y-72900000D01*
X92351000Y-73951000D02*
X96686810Y-73951000D01*
X92000000Y-72500000D02*
X92000000Y-73600000D01*
X106400000Y-45000000D02*
X106475000Y-45000000D01*
X106475000Y-45000000D02*
X107275000Y-45800000D01*
X104410000Y-50951000D02*
X105076000Y-50951000D01*
X92000000Y-73600000D02*
X92351000Y-73951000D01*
X104410000Y-59310000D02*
X104410000Y-50951000D01*
X98100000Y-69700000D02*
X104600000Y-63200000D01*
X105076000Y-50951000D02*
X105076000Y-46324000D01*
X104600000Y-59500000D02*
X104410000Y-59310000D01*
X96686810Y-73951000D02*
X96951000Y-73686810D01*
X96951000Y-72900000D02*
X98100000Y-71751000D01*
X104600000Y-63200000D02*
X104600000Y-59500000D01*
%TO.N,Net-(D3-A)*%
X93800000Y-70000000D02*
X94500000Y-69300000D01*
X94500000Y-63212500D02*
X94000000Y-62712500D01*
X93800000Y-70750000D02*
X93800000Y-70000000D01*
X94500000Y-69300000D02*
X94500000Y-63212500D01*
%TO.N,/LED 3*%
X93800000Y-72500000D02*
X93800000Y-73200000D01*
X94100000Y-73500000D02*
X96500000Y-73500000D01*
X96500000Y-72600000D02*
X97600000Y-71500000D01*
X93800000Y-73200000D02*
X94100000Y-73500000D01*
X97600000Y-69700000D02*
X97649000Y-69651000D01*
X106600000Y-43925000D02*
X107275000Y-44600000D01*
X106049000Y-42811810D02*
X106600000Y-43362810D01*
X97649000Y-69651000D02*
X97649000Y-69513190D01*
X106049000Y-41300000D02*
X106049000Y-42811810D01*
X106600000Y-43362810D02*
X106600000Y-43925000D01*
X102751000Y-64411190D02*
X102751000Y-41300000D01*
X97649000Y-69513190D02*
X102751000Y-64411190D01*
X102751000Y-41300000D02*
X106049000Y-41300000D01*
X96500000Y-73500000D02*
X96500000Y-72600000D01*
X97600000Y-71500000D02*
X97600000Y-69700000D01*
%TO.N,/LED 4*%
X96049000Y-72413190D02*
X97100000Y-71362190D01*
X101900000Y-40700000D02*
X106500000Y-40700000D01*
X96049000Y-72451000D02*
X96049000Y-72413190D01*
X95600000Y-72500000D02*
X96000000Y-72500000D01*
X101900000Y-41062190D02*
X101900000Y-40700000D01*
X102300000Y-64224380D02*
X102300000Y-41462190D01*
X102300000Y-41462190D02*
X101900000Y-41062190D01*
X97273380Y-69251000D02*
X102300000Y-64224380D01*
X96000000Y-72500000D02*
X96049000Y-72451000D01*
X97100000Y-69300000D02*
X97149000Y-69251000D01*
X97149000Y-69251000D02*
X97273380Y-69251000D01*
X106500000Y-42625000D02*
X107275000Y-43400000D01*
X106500000Y-40700000D02*
X106500000Y-42625000D01*
X97100000Y-71362190D02*
X97100000Y-69300000D01*
%TO.N,Net-(D4-A)*%
X95087500Y-62712500D02*
X95800000Y-62712500D01*
X94951000Y-62849000D02*
X95087500Y-62712500D01*
X95600000Y-70300000D02*
X94951000Y-69651000D01*
X95600000Y-70750000D02*
X95600000Y-70300000D01*
X94951000Y-69651000D02*
X94951000Y-62849000D01*
%TO.N,Net-(D5-A)*%
X96100000Y-63800000D02*
X96800000Y-63100000D01*
X95900000Y-63900000D02*
X95800000Y-63800000D01*
X96800000Y-63100000D02*
X96800000Y-62950000D01*
X96800000Y-62950000D02*
X97987500Y-61762500D01*
X95800000Y-63800000D02*
X96100000Y-63800000D01*
X95900000Y-66025000D02*
X95900000Y-63900000D01*
X97987500Y-61762500D02*
X97987500Y-61300000D01*
%TO.N,/SWDIO*%
X118125000Y-42500000D02*
X118025000Y-42600000D01*
X128048000Y-53165042D02*
X128048000Y-52334958D01*
X128038000Y-54066380D02*
X128049000Y-54055380D01*
X128049000Y-54055380D02*
X128049000Y-53166042D01*
X126400000Y-56936000D02*
X126975700Y-56360300D01*
X128049000Y-53166042D02*
X128048000Y-53165042D01*
X128184000Y-50065686D02*
X128184000Y-50030331D01*
X128048000Y-49894331D02*
X128048000Y-49105668D01*
X127612190Y-46500000D02*
X125500000Y-46500000D01*
X128074000Y-46887810D02*
X128000000Y-46887810D01*
X128074000Y-49079668D02*
X128074000Y-46887810D01*
X127649190Y-55213000D02*
X127794700Y-55067490D01*
X128048000Y-52334958D02*
X128514000Y-51868958D01*
X128514000Y-50395686D02*
X128184000Y-50065686D01*
X119775000Y-42500000D02*
X118125000Y-42500000D01*
X128000000Y-46887810D02*
X127612190Y-46500000D01*
X128048000Y-49105668D02*
X128074000Y-49079668D01*
X126975700Y-55213000D02*
X127649190Y-55213000D01*
X128184000Y-50030331D02*
X128048000Y-49894331D01*
X126975700Y-56360300D02*
X126975700Y-55213000D01*
X127794700Y-55067490D02*
X127794700Y-55026190D01*
X127794700Y-55026190D02*
X128038000Y-54782890D01*
X128514000Y-51868958D02*
X128514000Y-50395686D01*
X128038000Y-54782890D02*
X128038000Y-54066380D01*
%TO.N,/SWCLK*%
X128500000Y-54242190D02*
X128500000Y-52979232D01*
X128500000Y-46002000D02*
X128084958Y-46002000D01*
X128245700Y-55254300D02*
X128245700Y-55213000D01*
X119076000Y-43534000D02*
X118910000Y-43700000D01*
X128499000Y-52978232D02*
X128499000Y-52521768D01*
X124526000Y-43226454D02*
X124526000Y-43367877D01*
X128245700Y-55213000D02*
X128287000Y-55213000D01*
X124217877Y-43676000D02*
X123782123Y-43676000D01*
X128610000Y-49889232D02*
X128610000Y-49853877D01*
X128489000Y-55011000D02*
X128489000Y-54253190D01*
X128610000Y-49853877D02*
X128474000Y-49717877D01*
X128940000Y-50219232D02*
X128610000Y-49889232D01*
X124692454Y-43060000D02*
X124526000Y-43226454D01*
X128474000Y-49717877D02*
X128474000Y-49282123D01*
X126060000Y-43060000D02*
X124692454Y-43060000D01*
X128287000Y-55213000D02*
X128489000Y-55011000D01*
X119440000Y-43060000D02*
X119076000Y-43424000D01*
X123474000Y-43367877D02*
X123474000Y-43060000D01*
X118910000Y-43700000D02*
X118025000Y-43700000D01*
X119076000Y-43424000D02*
X119076000Y-43534000D01*
X123474000Y-43060000D02*
X119440000Y-43060000D01*
X127498000Y-45415042D02*
X127498000Y-44584958D01*
X128499000Y-52521768D02*
X128940000Y-52080768D01*
X128517677Y-49238445D02*
X128500000Y-49220768D01*
X128000000Y-56606000D02*
X128000000Y-55500000D01*
X128940000Y-52080768D02*
X128940000Y-50219232D01*
X128500000Y-49220768D02*
X128500000Y-46002000D01*
X128084958Y-46002000D02*
X127498000Y-45415042D01*
X127670000Y-56936000D02*
X128000000Y-56606000D01*
X124526000Y-43367877D02*
X124217877Y-43676000D01*
X127498000Y-44584958D02*
X127541479Y-44541479D01*
X128500000Y-52979232D02*
X128499000Y-52978232D01*
X123782123Y-43676000D02*
X123474000Y-43367877D01*
X127541479Y-44541479D02*
X126060000Y-43060000D01*
X128489000Y-54253190D02*
X128500000Y-54242190D01*
X128474000Y-49282123D02*
X128517677Y-49238445D01*
X128000000Y-55500000D02*
X128245700Y-55254300D01*
%TO.N,/SW0*%
X121637500Y-49978490D02*
X121637500Y-48137500D01*
X129050000Y-52750000D02*
X129050000Y-54330000D01*
X121500000Y-48000000D02*
X121458268Y-48000000D01*
X122108010Y-50449000D02*
X121637500Y-49978490D01*
X122949000Y-50449000D02*
X122108010Y-50449000D01*
X121637500Y-48137500D02*
X121500000Y-48000000D01*
X128940000Y-54440000D02*
X128940000Y-56936000D01*
X120458268Y-47000000D02*
X118025000Y-47000000D01*
X129050000Y-54330000D02*
X128940000Y-54440000D01*
X121458268Y-48000000D02*
X120458268Y-47000000D01*
%TO.N,/RESET*%
X123325000Y-44825000D02*
X123325000Y-46350000D01*
X123250000Y-53920000D02*
X123250000Y-52590990D01*
X123250000Y-51409010D02*
X123250000Y-50927232D01*
X123500000Y-50220768D02*
X123310111Y-50030879D01*
X123321240Y-48078760D02*
X123325000Y-48075000D01*
X123363500Y-49977490D02*
X123363500Y-49022510D01*
X119076000Y-44126000D02*
X119086455Y-44126000D01*
X130904300Y-58659000D02*
X124696810Y-58659000D01*
X123363500Y-49022510D02*
X123321240Y-48980250D01*
X123250000Y-50927232D02*
X123500000Y-50677232D01*
X119502000Y-43710454D02*
X119502000Y-43600454D01*
X119076000Y-44351000D02*
X119076000Y-44126000D01*
X123500000Y-50677232D02*
X123500000Y-50220768D01*
X123250000Y-52590990D02*
X123363500Y-52477490D01*
X123321240Y-48980250D02*
X123321240Y-48078760D01*
X122521057Y-44321000D02*
X122821000Y-44321000D01*
X122169000Y-43968943D02*
X122521057Y-44321000D01*
X119502000Y-43600454D02*
X119532454Y-43570000D01*
X124250000Y-54920000D02*
X123250000Y-53920000D01*
X119532454Y-43570000D02*
X122070000Y-43570000D01*
X131480000Y-58083300D02*
X130904300Y-58659000D01*
X123325000Y-48075000D02*
X123325000Y-46350000D01*
X118025000Y-44800000D02*
X118474000Y-44351000D01*
X124696810Y-58659000D02*
X124250000Y-58212190D01*
X118474000Y-44351000D02*
X119076000Y-44351000D01*
X124250000Y-58212190D02*
X124250000Y-54920000D01*
X119086455Y-44126000D02*
X119502000Y-43710454D01*
X122070000Y-43570000D02*
X122169000Y-43669000D01*
X123363500Y-52477490D02*
X123363500Y-51522510D01*
X122169000Y-43669000D02*
X122169000Y-43968943D01*
X122821000Y-44321000D02*
X123325000Y-44825000D01*
X123310111Y-50030879D02*
X123363500Y-49977490D01*
X123363500Y-51522510D02*
X123250000Y-51409010D01*
X131480000Y-56936000D02*
X131480000Y-58083300D01*
%TO.N,/MOSI*%
X104500000Y-68500000D02*
X104500000Y-73124000D01*
X106400000Y-58500000D02*
X108200000Y-60300000D01*
X104751000Y-73651000D02*
X105100000Y-74000000D01*
X104500000Y-73124000D02*
X104751000Y-73124000D01*
X107100000Y-50775000D02*
X107275000Y-50600000D01*
X108200000Y-64800000D02*
X104500000Y-68500000D01*
X107100000Y-52400000D02*
X107100000Y-50775000D01*
X104751000Y-73124000D02*
X104751000Y-73651000D01*
X108200000Y-60300000D02*
X108200000Y-64800000D01*
X106500000Y-53000000D02*
X107100000Y-52400000D01*
%TO.N,/SCK*%
X107400000Y-55500000D02*
X112600000Y-60700000D01*
X103000000Y-71100000D02*
X102900000Y-71200000D01*
X108775000Y-49400000D02*
X108800000Y-49400000D01*
X108500000Y-71100000D02*
X111600000Y-68000000D01*
X102900000Y-71200000D02*
X102900000Y-74000000D01*
X112600000Y-60700000D02*
X112600000Y-60800000D01*
%TO.N,/MISO*%
X105849000Y-58888810D02*
X105849000Y-58271768D01*
X106520768Y-57600000D02*
X107000000Y-57600000D01*
X113600000Y-52200000D02*
X113600000Y-50925000D01*
X105051000Y-59686810D02*
X105849000Y-58888810D01*
X105051000Y-63849000D02*
X105051000Y-59686810D01*
X100700000Y-68200000D02*
X105051000Y-63849000D01*
X100700000Y-74000000D02*
X100700000Y-68200000D01*
X113600000Y-50925000D02*
X113275000Y-50600000D01*
X105849000Y-58271768D02*
X106520768Y-57600000D01*
X113500000Y-52300000D02*
X113600000Y-52200000D01*
%TO.N,/CS*%
X107249000Y-70913190D02*
X107249000Y-71286810D01*
X110500000Y-63324000D02*
X110861000Y-63324000D01*
X109824000Y-68676000D02*
X108500000Y-70000000D01*
X108171768Y-70649000D02*
X107513190Y-70649000D01*
X110861000Y-63324000D02*
X110861000Y-64976000D01*
X108500000Y-70000000D02*
X108500000Y-70462190D01*
X108000000Y-58000000D02*
X110500000Y-60500000D01*
X107481095Y-71518905D02*
X106200000Y-72800000D01*
X108271768Y-70549000D02*
X108171768Y-70649000D01*
X107513190Y-70649000D02*
X107249000Y-70913190D01*
X110500000Y-67024000D02*
X109009000Y-67024000D01*
X110500000Y-64976000D02*
X110500000Y-67024000D01*
X109009000Y-67024000D02*
X109009000Y-68676000D01*
X110861000Y-64976000D02*
X110500000Y-64976000D01*
X106200000Y-72800000D02*
X106200000Y-74000000D01*
X107249000Y-71286810D02*
X107481095Y-71518905D01*
X109009000Y-68676000D02*
X109824000Y-68676000D01*
X110500000Y-60500000D02*
X110500000Y-63324000D01*
X108500000Y-70462190D02*
X108413190Y-70549000D01*
X108413190Y-70549000D02*
X108271768Y-70549000D01*
%TO.N,/PDM DATA*%
X114339798Y-54271768D02*
X114339798Y-54728232D01*
X110275000Y-50600000D02*
X110668030Y-50600000D01*
X110668030Y-50600000D02*
X114339798Y-54271768D01*
X114339798Y-54728232D02*
X113860030Y-55208000D01*
X113860030Y-55208000D02*
X112375000Y-55208000D01*
%TO.N,/PDM CLOCK*%
X107213911Y-53063908D02*
X109377908Y-53063908D01*
X110700000Y-54386000D02*
X109377908Y-53063908D01*
X109377908Y-53063908D02*
X108775000Y-52461000D01*
X108775000Y-52461000D02*
X108775000Y-50600000D01*
%TO.N,/SDA*%
X98000000Y-43500000D02*
X98138190Y-43638190D01*
X94250000Y-49000000D02*
X94375000Y-49125000D01*
X99111810Y-43638190D02*
X100500000Y-42250000D01*
X94250000Y-48250000D02*
X94250000Y-49000000D01*
X93750000Y-47750000D02*
X94250000Y-48250000D01*
X98138190Y-43638190D02*
X99111810Y-43638190D01*
X91000000Y-55500000D02*
X92332958Y-55500000D01*
X93750000Y-47000000D02*
X93750000Y-47750000D01*
X92332958Y-55500000D02*
X94500000Y-53332958D01*
X94500000Y-53332958D02*
X94500000Y-50250000D01*
%TO.N,/SW DETECT*%
X116512091Y-54762091D02*
X116512091Y-54732859D01*
X115500000Y-66500000D02*
X115500000Y-69000000D01*
X119911500Y-51522510D02*
X119911500Y-51950690D01*
X115000000Y-53250000D02*
X115000000Y-52500000D01*
X119911500Y-51950690D02*
X119515007Y-52347183D01*
X116160091Y-54410091D02*
X115000000Y-53250000D01*
X116675000Y-41500000D02*
X114775000Y-43400000D01*
X116512091Y-54732859D02*
X116189323Y-54410091D01*
X121000000Y-51000000D02*
X120801000Y-51199000D01*
X115000000Y-66000000D02*
X115500000Y-66500000D01*
X118500000Y-59000000D02*
X118500000Y-56750000D01*
X116189323Y-54410091D02*
X116160091Y-54410091D01*
X119684373Y-41881603D02*
X119302770Y-41500000D01*
X119515007Y-52347183D02*
X118575000Y-52347183D01*
X120801000Y-51199000D02*
X120235010Y-51199000D01*
X118500000Y-56750000D02*
X116512091Y-54762091D01*
X119302770Y-41500000D02*
X116675000Y-41500000D01*
X120235010Y-51199000D02*
X119911500Y-51522510D01*
%TO.N,/SCL*%
X91500000Y-56099997D02*
X91599997Y-56000000D01*
X95690000Y-54330000D02*
X95690000Y-53366123D01*
X92647546Y-56000000D02*
X93474000Y-55173546D01*
X93474000Y-55173546D02*
X93474000Y-55032123D01*
X93782123Y-54724000D02*
X95296000Y-54724000D01*
X101750000Y-43750000D02*
X101750000Y-45750000D01*
X97980000Y-52840000D02*
X98250000Y-52570000D01*
X95296000Y-54724000D02*
X95690000Y-54330000D01*
X104025000Y-43725000D02*
X104000000Y-43750000D01*
X94500000Y-47000000D02*
X96500000Y-49000000D01*
X98250000Y-52570000D02*
X98200000Y-52520000D01*
X101750000Y-45750000D02*
X101500000Y-46000000D01*
X104025000Y-43700000D02*
X104025000Y-43725000D01*
X96500000Y-49000000D02*
X97000000Y-49000000D01*
X96216123Y-52840000D02*
X97980000Y-52840000D01*
X91599997Y-56000000D02*
X92647546Y-56000000D01*
X93474000Y-55032123D02*
X93782123Y-54724000D01*
X95690000Y-53366123D02*
X96216123Y-52840000D01*
X98200000Y-52520000D02*
X98200000Y-50337500D01*
%TO.N,/SWITCH 1*%
X93949000Y-50051000D02*
X93551000Y-50449000D01*
X101051000Y-48949000D02*
X100971768Y-48949000D01*
X93551000Y-50449000D02*
X93521768Y-50449000D01*
X100649000Y-49351000D02*
X100301000Y-49699000D01*
X94271768Y-49699000D02*
X93949000Y-50021768D01*
X92350000Y-51650000D02*
X91725000Y-51650000D01*
X93199000Y-50771768D02*
X93199000Y-50801000D01*
X93199000Y-50801000D02*
X92350000Y-51650000D01*
X100971768Y-48949000D02*
X100649000Y-49271768D01*
X100649000Y-49271768D02*
X100649000Y-49351000D01*
X100301000Y-49699000D02*
X94271768Y-49699000D01*
X93521768Y-50449000D02*
X93199000Y-50771768D01*
X93949000Y-50021768D02*
X93949000Y-50051000D01*
X101200000Y-48800000D02*
X101051000Y-48949000D01*
%TO.N,/SWITCH 2*%
X96562190Y-59000000D02*
X98239190Y-57323000D01*
X96250000Y-59000000D02*
X96562190Y-59000000D01*
X100677000Y-57323000D02*
X100800000Y-57200000D01*
X106499000Y-49500000D02*
X107175000Y-49500000D01*
X91875000Y-59000000D02*
X96250000Y-59000000D01*
X101000000Y-57200000D02*
X101000000Y-49700000D01*
X107175000Y-49500000D02*
X107275000Y-49400000D01*
X91625000Y-58750000D02*
X91875000Y-59000000D01*
X100800000Y-57200000D02*
X101000000Y-57200000D01*
X98239190Y-57323000D02*
X100677000Y-57323000D01*
X101000000Y-49700000D02*
X101200000Y-49500000D01*
%TO.N,/I2S SDOUT*%
X129750000Y-43250000D02*
X129499415Y-42999415D01*
X120968870Y-45374000D02*
X120842870Y-45500000D01*
X130587501Y-52500000D02*
X130250000Y-52162499D01*
X114775000Y-45800000D02*
X114775000Y-45775000D01*
X125701000Y-41449000D02*
X126728232Y-41449000D01*
X130250000Y-52051000D02*
X129801000Y-52051000D01*
X129611500Y-51861500D02*
X129611500Y-49888500D01*
X129711500Y-43288500D02*
X129750000Y-43250000D01*
X114775000Y-45775000D02*
X114750000Y-45750000D01*
X126728232Y-41449000D02*
X127750000Y-42470768D01*
X127750000Y-42470768D02*
X127750000Y-42750000D01*
X129711500Y-49211500D02*
X129711500Y-43288500D01*
X129611500Y-49888500D02*
X130000000Y-49500000D01*
X129499415Y-42999415D02*
X129499415Y-42998000D01*
X120842870Y-45500000D02*
X119250000Y-45500000D01*
X131325000Y-52500000D02*
X130587501Y-52500000D01*
X129801000Y-52051000D02*
X129611500Y-51861500D01*
X130000000Y-49500000D02*
X129711500Y-49211500D01*
X124000000Y-43150000D02*
X125701000Y-41449000D01*
X130250000Y-52162499D02*
X130250000Y-52051000D01*
%TO.N,/I2S LRCLK*%
X132388500Y-45109268D02*
X132388500Y-51479226D01*
X119530000Y-40650000D02*
X119729997Y-40849997D01*
X132017726Y-51850000D02*
X131325000Y-51850000D01*
X132388500Y-51479226D02*
X132017726Y-51850000D01*
X131325000Y-51850000D02*
X132024000Y-51850000D01*
X119729997Y-40849997D02*
X128129229Y-40849997D01*
X128129229Y-40849997D02*
X132388500Y-45109268D01*
%TO.N,/I2S BCLK*%
X132062499Y-53150000D02*
X132388500Y-53476001D01*
X115750000Y-55750000D02*
X115500000Y-55750000D01*
X132388500Y-53476001D02*
X132388500Y-58611500D01*
X124510000Y-59110000D02*
X123309659Y-57909659D01*
X115410091Y-54297901D02*
X114449000Y-53336810D01*
X123309659Y-57909659D02*
X123309659Y-57865167D01*
X116250000Y-56250000D02*
X115750000Y-55750000D01*
X131890000Y-59110000D02*
X124510000Y-59110000D01*
X115410091Y-55660091D02*
X115410091Y-54297901D01*
X114449000Y-50926000D02*
X114775000Y-50600000D01*
X121645492Y-56201000D02*
X120701000Y-56201000D01*
X120701000Y-56201000D02*
X119000000Y-54500000D01*
X115500000Y-55750000D02*
X115410091Y-55660091D01*
X114449000Y-53336810D02*
X114449000Y-50926000D01*
X132388500Y-58611500D02*
X131890000Y-59110000D01*
X131325000Y-53150000D02*
X132062499Y-53150000D01*
X123309659Y-57865167D02*
X121645492Y-56201000D01*
%TO.N,/I2S MCLK*%
X119546200Y-51250000D02*
X118750000Y-51250000D01*
X117000000Y-52201000D02*
X117000000Y-53500000D01*
X121837436Y-51058204D02*
X121228232Y-50449000D01*
X122700000Y-51058204D02*
X121837436Y-51058204D01*
X114775000Y-47000000D02*
X114750000Y-47000000D01*
X120347200Y-50449000D02*
X119546200Y-51250000D01*
X121228232Y-50449000D02*
X120347200Y-50449000D01*
%TO.N,/IMU RESETN*%
X90624000Y-52626000D02*
X91198000Y-53200000D01*
X91750000Y-50000000D02*
X91298000Y-50000000D01*
X90624000Y-50674000D02*
X90624000Y-52626000D01*
X107275000Y-48225000D02*
X107250000Y-48250000D01*
X107275000Y-48200000D02*
X107275000Y-48225000D01*
X91298000Y-50000000D02*
X90624000Y-50674000D01*
X91198000Y-53200000D02*
X92100000Y-53200000D01*
%TO.N,Net-(J2-SW-2)*%
X108000000Y-66085000D02*
X109935000Y-64150000D01*
X106449000Y-70000000D02*
X108000000Y-70000000D01*
X105287500Y-72500000D02*
X105650000Y-72137500D01*
X105949000Y-70449000D02*
X106000000Y-70449000D01*
X108000000Y-70000000D02*
X108000000Y-66085000D01*
X105650000Y-72137500D02*
X105650000Y-70748000D01*
X106000000Y-70449000D02*
X106449000Y-70000000D01*
X105650000Y-70748000D02*
X105949000Y-70449000D01*
%TO.N,Net-(J3-CAPP)*%
X126663500Y-48923999D02*
X126663500Y-48051000D01*
X126663500Y-48051000D02*
X126362500Y-47750000D01*
X125600000Y-49250000D02*
X126337499Y-49250000D01*
X126337499Y-49250000D02*
X126663500Y-48923999D01*
%TO.N,Net-(J3-CAPM)*%
X124536500Y-47851000D02*
X124637500Y-47750000D01*
X124862501Y-50550000D02*
X124536500Y-50223999D01*
X125600000Y-50550000D02*
X124862501Y-50550000D01*
X124536500Y-50223999D02*
X124536500Y-47851000D01*
%TO.N,Net-(J3-VNEG)*%
X124150000Y-50490000D02*
X124510000Y-50850000D01*
X124150000Y-50439954D02*
X124150000Y-50490000D01*
X124512501Y-50850000D02*
X124862501Y-51200000D01*
X124510000Y-50850000D02*
X124512501Y-50850000D01*
X124110500Y-48944837D02*
X124110500Y-50400454D01*
X124110500Y-50400454D02*
X124150000Y-50439954D01*
X124862501Y-51200000D02*
X125600000Y-51200000D01*
X123871240Y-48705577D02*
X124110500Y-48944837D01*
%TO.N,Net-(J3-LDOO)*%
X130632274Y-49900000D02*
X131325000Y-49900000D01*
X130162500Y-51500000D02*
X130162500Y-50369774D01*
X130162500Y-50369774D02*
X130632274Y-49900000D01*
%TO.N,Net-(J3-OUTL)*%
X126500000Y-51642726D02*
X126500000Y-51687499D01*
X128049000Y-44299000D02*
X126500000Y-42750000D01*
X126775117Y-50204845D02*
X126766393Y-50204845D01*
X126500000Y-42750000D02*
X126500000Y-42000000D01*
X127949000Y-44771768D02*
X128049000Y-44671768D01*
X126663500Y-50920774D02*
X126663500Y-51479226D01*
X128049000Y-44671768D02*
X128049000Y-44299000D01*
X126740774Y-50179226D02*
X126663500Y-50179226D01*
X126663500Y-50270774D02*
X126663500Y-50829226D01*
X126617726Y-50875000D02*
X126663500Y-50920774D01*
X126766393Y-50204845D02*
X126740774Y-50179226D01*
X127949000Y-45228232D02*
X127949000Y-44771768D01*
X126663500Y-50829226D02*
X126617726Y-50875000D01*
X126500000Y-51687499D02*
X126337499Y-51850000D01*
X126617726Y-50225000D02*
X126663500Y-50270774D01*
X126663500Y-51479226D02*
X126500000Y-51642726D01*
X128271768Y-45551000D02*
X127949000Y-45228232D01*
X129000000Y-45279232D02*
X128728232Y-45551000D01*
X126663500Y-50179226D02*
X126617726Y-50225000D01*
X129000000Y-49500000D02*
X129000000Y-45279232D01*
X128728232Y-45551000D02*
X128271768Y-45551000D01*
X126337499Y-51850000D02*
X125600000Y-51850000D01*
%TO.N,Net-(J3-OUTR)*%
X127250016Y-50670020D02*
X127213500Y-50706536D01*
X127213500Y-50706536D02*
X127213500Y-51623999D01*
X127213500Y-51623999D02*
X126337499Y-52500000D01*
X126337499Y-52500000D02*
X125600000Y-52500000D01*
D39*
%TO.N,Net-(J5-Pad1)*%
X106380000Y-46499000D02*
X106250057Y-46499000D01*
X105899000Y-52751057D02*
X105899000Y-53248943D01*
X115399000Y-64601392D02*
X116161108Y-65363500D01*
X106250057Y-48899000D02*
X105898000Y-49251057D01*
X124000000Y-72000000D02*
X128200000Y-72000000D01*
X120300000Y-69300000D02*
X124000000Y-69300000D01*
X116363500Y-65363500D02*
X120300000Y-69300000D01*
X106251057Y-53601000D02*
X106380000Y-53601000D01*
X106251057Y-52399000D02*
X105899000Y-52751057D01*
X112426000Y-61426000D02*
X115399000Y-64399000D01*
X106380000Y-55380000D02*
X111974000Y-60974000D01*
X106250057Y-46499000D02*
X105898000Y-46851057D01*
X105899000Y-54251057D02*
X105899000Y-54748943D01*
X106380000Y-48899000D02*
X106250057Y-48899000D01*
X106380000Y-52399000D02*
X106251057Y-52399000D01*
X106250057Y-47701000D02*
X106380000Y-47701000D01*
X112340702Y-61426000D02*
X112426000Y-61426000D01*
X105898000Y-49251057D02*
X105898000Y-49748943D01*
X106380000Y-53899000D02*
X106251057Y-53899000D01*
X116161108Y-65363500D02*
X116363500Y-65363500D01*
X124000000Y-69300000D02*
X124000000Y-72000000D01*
X105898000Y-47348943D02*
X106250057Y-47701000D01*
X106300000Y-46100000D02*
X106380000Y-46180000D01*
X105898000Y-49748943D02*
X106250057Y-50101000D01*
X111974000Y-60974000D02*
X111974000Y-61059298D01*
X105899000Y-53248943D02*
X106251057Y-53601000D01*
X111974000Y-61059298D02*
X112340702Y-61426000D01*
X106380000Y-53601000D02*
X106380000Y-53899000D01*
X106380000Y-47701000D02*
X106380000Y-48899000D01*
X105898000Y-46851057D02*
X105898000Y-47348943D01*
X128400000Y-71800000D02*
X128400000Y-70350000D01*
X106380000Y-46180000D02*
X106380000Y-46499000D01*
X128200000Y-72000000D02*
X128400000Y-71800000D01*
X106251057Y-53899000D02*
X105899000Y-54251057D01*
X106380000Y-55101000D02*
X106380000Y-55380000D01*
X106380000Y-50101000D02*
X106380000Y-52399000D01*
X115399000Y-64399000D02*
X115399000Y-64601392D01*
X106250057Y-50101000D02*
X106380000Y-50101000D01*
X106251057Y-55101000D02*
X106380000Y-55101000D01*
X105899000Y-54748943D02*
X106251057Y-55101000D01*
D40*
%TO.N,unconnected-(U1-P0.11-Pad11)*%
X118225000Y-48300000D02*
X118025000Y-48100000D01*
%TD*%
%TA.AperFunction,Conductor*%
%TO.N,GND*%
G36*
X132668834Y-59318269D02*
G01*
X132724767Y-59360141D01*
X132749184Y-59425605D01*
X132749500Y-59434451D01*
X132749500Y-74465500D01*
X132729815Y-74532539D01*
X132677011Y-74578294D01*
X132625500Y-74589500D01*
X111159000Y-74589500D01*
X111091961Y-74569815D01*
X111046206Y-74517011D01*
X111035000Y-74465500D01*
X111035000Y-74125000D01*
X108485000Y-74125000D01*
X108485000Y-74465500D01*
X108482449Y-74474185D01*
X108483738Y-74483147D01*
X108472759Y-74507187D01*
X108465315Y-74532539D01*
X108458474Y-74538466D01*
X108454713Y-74546703D01*
X108432478Y-74560992D01*
X108412511Y-74578294D01*
X108401996Y-74580581D01*
X108395935Y-74584477D01*
X108361000Y-74589500D01*
X108349500Y-74589500D01*
X108282461Y-74569815D01*
X108236706Y-74517011D01*
X108225500Y-74465500D01*
X108225499Y-73402129D01*
X108225498Y-73402123D01*
X108224442Y-73392303D01*
X108219091Y-73342517D01*
X108207091Y-73310344D01*
X108168797Y-73207671D01*
X108168793Y-73207664D01*
X108127239Y-73152155D01*
X108485000Y-73152155D01*
X108485000Y-73625000D01*
X109510000Y-73625000D01*
X110010000Y-73625000D01*
X111035000Y-73625000D01*
X111035000Y-73310344D01*
X118500000Y-73310344D01*
X118506401Y-73369872D01*
X118506403Y-73369879D01*
X118556645Y-73504586D01*
X118556649Y-73504593D01*
X118642809Y-73619687D01*
X118642812Y-73619690D01*
X118757906Y-73705850D01*
X118757913Y-73705854D01*
X118892620Y-73756096D01*
X118892627Y-73756098D01*
X118952155Y-73762499D01*
X118952172Y-73762500D01*
X120150000Y-73762500D01*
X120650000Y-73762500D01*
X121847828Y-73762500D01*
X121847844Y-73762499D01*
X121907372Y-73756098D01*
X121907379Y-73756096D01*
X122042086Y-73705854D01*
X122042093Y-73705850D01*
X122157187Y-73619690D01*
X122157190Y-73619687D01*
X122243350Y-73504593D01*
X122243354Y-73504586D01*
X122293596Y-73369879D01*
X122293598Y-73369872D01*
X122299999Y-73310344D01*
X122300000Y-73310327D01*
X122300000Y-72412500D01*
X120650000Y-72412500D01*
X120650000Y-73762500D01*
X120150000Y-73762500D01*
X120150000Y-72412500D01*
X118500000Y-72412500D01*
X118500000Y-73310344D01*
X111035000Y-73310344D01*
X111035000Y-73152172D01*
X111034999Y-73152155D01*
X111028598Y-73092627D01*
X111028596Y-73092620D01*
X110978354Y-72957913D01*
X110978350Y-72957906D01*
X110892190Y-72842812D01*
X110892187Y-72842809D01*
X110777093Y-72756649D01*
X110777086Y-72756645D01*
X110642379Y-72706403D01*
X110642372Y-72706401D01*
X110582844Y-72700000D01*
X110010000Y-72700000D01*
X110010000Y-73625000D01*
X109510000Y-73625000D01*
X109510000Y-72700000D01*
X108937155Y-72700000D01*
X108877627Y-72706401D01*
X108877620Y-72706403D01*
X108742913Y-72756645D01*
X108742906Y-72756649D01*
X108627812Y-72842809D01*
X108627809Y-72842812D01*
X108541649Y-72957906D01*
X108541645Y-72957913D01*
X108491403Y-73092620D01*
X108491401Y-73092627D01*
X108485000Y-73152155D01*
X108127239Y-73152155D01*
X108082547Y-73092455D01*
X108082544Y-73092452D01*
X107967335Y-73006206D01*
X107967328Y-73006202D01*
X107832482Y-72955908D01*
X107832483Y-72955908D01*
X107772883Y-72949501D01*
X107772881Y-72949500D01*
X107772873Y-72949500D01*
X107772865Y-72949500D01*
X107234451Y-72949500D01*
X107167412Y-72929815D01*
X107121657Y-72877011D01*
X107111713Y-72807853D01*
X107140738Y-72744297D01*
X107146770Y-72737819D01*
X107611133Y-72273457D01*
X107784092Y-72100498D01*
X107966952Y-71917638D01*
X107980950Y-71896689D01*
X108035407Y-71815191D01*
X108036689Y-71812093D01*
X108041790Y-71804354D01*
X108064282Y-71785311D01*
X108084929Y-71764290D01*
X108090643Y-71762992D01*
X108095115Y-71759207D01*
X108124325Y-71755347D01*
X108153065Y-71748824D01*
X108160560Y-71750559D01*
X108164382Y-71750055D01*
X108170196Y-71752791D01*
X108192784Y-71758021D01*
X108288380Y-71797619D01*
X108288384Y-71797619D01*
X108288385Y-71797620D01*
X108428542Y-71825500D01*
X108428545Y-71825500D01*
X108571457Y-71825500D01*
X108677761Y-71804354D01*
X108711620Y-71797619D01*
X108843653Y-71742929D01*
X108962479Y-71663532D01*
X109063532Y-71562479D01*
X109142929Y-71443653D01*
X109197619Y-71311620D01*
X109197621Y-71311605D01*
X109199334Y-71305963D01*
X109230313Y-71254275D01*
X110887821Y-69596767D01*
X110949142Y-69563284D01*
X111018834Y-69568268D01*
X111074767Y-69610140D01*
X111099184Y-69675604D01*
X111099500Y-69684450D01*
X111099500Y-71310370D01*
X111099501Y-71310376D01*
X111105908Y-71369983D01*
X111156202Y-71504828D01*
X111156206Y-71504835D01*
X111242452Y-71620044D01*
X111242455Y-71620047D01*
X111357664Y-71706293D01*
X111357671Y-71706297D01*
X111492517Y-71756591D01*
X111492516Y-71756591D01*
X111499444Y-71757335D01*
X111552127Y-71763000D01*
X114447872Y-71762999D01*
X114507483Y-71756591D01*
X114642331Y-71706296D01*
X114757546Y-71620046D01*
X114843796Y-71504831D01*
X114894091Y-71369983D01*
X114900500Y-71310373D01*
X114900500Y-70912000D01*
X114920185Y-70844961D01*
X114972989Y-70799206D01*
X115024500Y-70788000D01*
X115399107Y-70788000D01*
X115459529Y-70775981D01*
X115519952Y-70763963D01*
X115526945Y-70761066D01*
X115537585Y-70758717D01*
X115561988Y-70760386D01*
X115586310Y-70757766D01*
X115596228Y-70762728D01*
X115607292Y-70763485D01*
X115626919Y-70778083D01*
X115648796Y-70789028D01*
X115654456Y-70798563D01*
X115663355Y-70805182D01*
X115671975Y-70828075D01*
X115684461Y-70849109D01*
X115684812Y-70862168D01*
X115687976Y-70870570D01*
X115685366Y-70882749D01*
X115685938Y-70903990D01*
X115674500Y-70961497D01*
X115674500Y-71163507D01*
X115713907Y-71361619D01*
X115713909Y-71361627D01*
X115791212Y-71548252D01*
X115791217Y-71548262D01*
X115903441Y-71716218D01*
X116046281Y-71859058D01*
X116214237Y-71971282D01*
X116214241Y-71971284D01*
X116214244Y-71971286D01*
X116400873Y-72048591D01*
X116598992Y-72087999D01*
X116598996Y-72088000D01*
X116598997Y-72088000D01*
X116801004Y-72088000D01*
X116801005Y-72087999D01*
X116999127Y-72048591D01*
X117185756Y-71971286D01*
X117353718Y-71859058D01*
X117496558Y-71716218D01*
X117575119Y-71598642D01*
X117608782Y-71548262D01*
X117608782Y-71548261D01*
X117608786Y-71548256D01*
X117686091Y-71361627D01*
X117725500Y-71163503D01*
X117725500Y-71014655D01*
X118500000Y-71014655D01*
X118500000Y-71912500D01*
X120150000Y-71912500D01*
X120650000Y-71912500D01*
X122300000Y-71912500D01*
X122300000Y-71014672D01*
X122299999Y-71014655D01*
X122293598Y-70955127D01*
X122293596Y-70955120D01*
X122243354Y-70820413D01*
X122243350Y-70820406D01*
X122157190Y-70705312D01*
X122157187Y-70705309D01*
X122042093Y-70619149D01*
X122042086Y-70619145D01*
X121907379Y-70568903D01*
X121907372Y-70568901D01*
X121847844Y-70562500D01*
X120650000Y-70562500D01*
X120650000Y-71912500D01*
X120150000Y-71912500D01*
X120150000Y-70562500D01*
X118952155Y-70562500D01*
X118892627Y-70568901D01*
X118892620Y-70568903D01*
X118757913Y-70619145D01*
X118757906Y-70619149D01*
X118642812Y-70705309D01*
X118642809Y-70705312D01*
X118556649Y-70820406D01*
X118556645Y-70820413D01*
X118506403Y-70955120D01*
X118506401Y-70955127D01*
X118500000Y-71014655D01*
X117725500Y-71014655D01*
X117725500Y-70961497D01*
X117686091Y-70763373D01*
X117608786Y-70576744D01*
X117608784Y-70576741D01*
X117608782Y-70576737D01*
X117496558Y-70408781D01*
X117382786Y-70295009D01*
X117349301Y-70233686D01*
X117354285Y-70163994D01*
X117396157Y-70108061D01*
X117401566Y-70104232D01*
X117462479Y-70063532D01*
X117563532Y-69962479D01*
X117642929Y-69843653D01*
X117697619Y-69711620D01*
X117716330Y-69617555D01*
X117725500Y-69571457D01*
X117725500Y-69428542D01*
X117697620Y-69288385D01*
X117697619Y-69288384D01*
X117697619Y-69288380D01*
X117642929Y-69156347D01*
X117642928Y-69156346D01*
X117642925Y-69156340D01*
X117563532Y-69037521D01*
X117563529Y-69037517D01*
X117462482Y-68936470D01*
X117462478Y-68936467D01*
X117343659Y-68857074D01*
X117343650Y-68857069D01*
X117211620Y-68802381D01*
X117211614Y-68802379D01*
X117071457Y-68774500D01*
X117071455Y-68774500D01*
X116928545Y-68774500D01*
X116928543Y-68774500D01*
X116788385Y-68802379D01*
X116788379Y-68802381D01*
X116656348Y-68857070D01*
X116651139Y-68859855D01*
X116592680Y-68874500D01*
X116315708Y-68874500D01*
X116296789Y-68868944D01*
X116277080Y-68868330D01*
X116263952Y-68859302D01*
X116248669Y-68854815D01*
X116235757Y-68839914D01*
X116219509Y-68828741D01*
X116209079Y-68809126D01*
X116202914Y-68802011D01*
X116201362Y-68798470D01*
X116198060Y-68790600D01*
X116197619Y-68788380D01*
X116142929Y-68656347D01*
X116139732Y-68651563D01*
X116135154Y-68640649D01*
X116133241Y-68623584D01*
X116125500Y-68592679D01*
X116125500Y-66438397D01*
X116125500Y-66438394D01*
X116125236Y-66437068D01*
X116125299Y-66436358D01*
X116124903Y-66432331D01*
X116125666Y-66432255D01*
X116131459Y-66367479D01*
X116174318Y-66312299D01*
X116240206Y-66289049D01*
X116308204Y-66305112D01*
X116334533Y-66325190D01*
X119853453Y-69844111D01*
X119853454Y-69844112D01*
X119968192Y-69920777D01*
X120070472Y-69963142D01*
X120095672Y-69973580D01*
X120095676Y-69973580D01*
X120095677Y-69973581D01*
X120231003Y-70000500D01*
X120231006Y-70000500D01*
X120231007Y-70000500D01*
X123175500Y-70000500D01*
X123242539Y-70020185D01*
X123288294Y-70072989D01*
X123299500Y-70124500D01*
X123299500Y-72068993D01*
X123299500Y-72068995D01*
X123299499Y-72068995D01*
X123326418Y-72204322D01*
X123326421Y-72204332D01*
X123379221Y-72331804D01*
X123379228Y-72331817D01*
X123455885Y-72446541D01*
X123455888Y-72446545D01*
X123553454Y-72544111D01*
X123553458Y-72544114D01*
X123668182Y-72620771D01*
X123668195Y-72620778D01*
X123795667Y-72673578D01*
X123795672Y-72673580D01*
X123795676Y-72673580D01*
X123795677Y-72673581D01*
X123931004Y-72700500D01*
X123931007Y-72700500D01*
X124068993Y-72700500D01*
X124248744Y-72700500D01*
X124315783Y-72720185D01*
X124361538Y-72772989D01*
X124371482Y-72842147D01*
X124363305Y-72871952D01*
X124350461Y-72902959D01*
X124350458Y-72902969D01*
X124324500Y-73033466D01*
X124324500Y-73033469D01*
X124324500Y-73166531D01*
X124324500Y-73166533D01*
X124324499Y-73166533D01*
X124350458Y-73297030D01*
X124350461Y-73297040D01*
X124401376Y-73419961D01*
X124401386Y-73419979D01*
X124475301Y-73530601D01*
X124475307Y-73530609D01*
X124569390Y-73624692D01*
X124569398Y-73624698D01*
X124680020Y-73698613D01*
X124680023Y-73698614D01*
X124680031Y-73698620D01*
X124680037Y-73698622D01*
X124680038Y-73698623D01*
X124800253Y-73748417D01*
X124802964Y-73749540D01*
X124802968Y-73749540D01*
X124802969Y-73749541D01*
X124933466Y-73775500D01*
X124933469Y-73775500D01*
X125066533Y-73775500D01*
X125164078Y-73756096D01*
X125197036Y-73749540D01*
X125319969Y-73698620D01*
X125430606Y-73624695D01*
X125524695Y-73530606D01*
X125598620Y-73419969D01*
X125649540Y-73297036D01*
X125667316Y-73207672D01*
X125675500Y-73166533D01*
X131124499Y-73166533D01*
X131150458Y-73297030D01*
X131150461Y-73297040D01*
X131201376Y-73419961D01*
X131201386Y-73419979D01*
X131275301Y-73530601D01*
X131275307Y-73530609D01*
X131369390Y-73624692D01*
X131369398Y-73624698D01*
X131480020Y-73698613D01*
X131480023Y-73698614D01*
X131480031Y-73698620D01*
X131480037Y-73698622D01*
X131480038Y-73698623D01*
X131600253Y-73748417D01*
X131602964Y-73749540D01*
X131602968Y-73749540D01*
X131602969Y-73749541D01*
X131733466Y-73775500D01*
X131733469Y-73775500D01*
X131866533Y-73775500D01*
X131964078Y-73756096D01*
X131997036Y-73749540D01*
X132119969Y-73698620D01*
X132230606Y-73624695D01*
X132324695Y-73530606D01*
X132398620Y-73419969D01*
X132449540Y-73297036D01*
X132467316Y-73207672D01*
X132475500Y-73166533D01*
X132475500Y-73033466D01*
X132449541Y-72902969D01*
X132449540Y-72902968D01*
X132449540Y-72902964D01*
X132424763Y-72843147D01*
X132398623Y-72780038D01*
X132398622Y-72780037D01*
X132398620Y-72780031D01*
X132374743Y-72744297D01*
X132324698Y-72669398D01*
X132324692Y-72669390D01*
X132230609Y-72575307D01*
X132230601Y-72575301D01*
X132119979Y-72501386D01*
X132119972Y-72501382D01*
X132119969Y-72501380D01*
X132119965Y-72501378D01*
X132119961Y-72501376D01*
X131997040Y-72450461D01*
X131997030Y-72450458D01*
X131866533Y-72424500D01*
X131866531Y-72424500D01*
X131733469Y-72424500D01*
X131733467Y-72424500D01*
X131602969Y-72450458D01*
X131602959Y-72450461D01*
X131480038Y-72501376D01*
X131480020Y-72501386D01*
X131369398Y-72575301D01*
X131369390Y-72575307D01*
X131275307Y-72669390D01*
X131275301Y-72669398D01*
X131201386Y-72780020D01*
X131201376Y-72780038D01*
X131150461Y-72902959D01*
X131150458Y-72902969D01*
X131124500Y-73033466D01*
X131124500Y-73033469D01*
X131124500Y-73166531D01*
X131124500Y-73166533D01*
X131124499Y-73166533D01*
X125675500Y-73166533D01*
X125675500Y-73041917D01*
X125675500Y-73033469D01*
X125649540Y-72902964D01*
X125632909Y-72862812D01*
X125630620Y-72853187D01*
X125631945Y-72827779D01*
X125629226Y-72802482D01*
X125633736Y-72793472D01*
X125634261Y-72783412D01*
X125649112Y-72762754D01*
X125660502Y-72740003D01*
X125669166Y-72734862D01*
X125675047Y-72726683D01*
X125698710Y-72717333D01*
X125720591Y-72704352D01*
X125736684Y-72702330D01*
X125740029Y-72701009D01*
X125742818Y-72701559D01*
X125751256Y-72700500D01*
X128268996Y-72700500D01*
X128360040Y-72682389D01*
X128404328Y-72673580D01*
X128468069Y-72647177D01*
X128531807Y-72620777D01*
X128531808Y-72620776D01*
X128531811Y-72620775D01*
X128646543Y-72544114D01*
X128944114Y-72246543D01*
X129009011Y-72149417D01*
X129062622Y-72104612D01*
X129098860Y-72095018D01*
X129107483Y-72094091D01*
X129123814Y-72088000D01*
X129242331Y-72043796D01*
X129357546Y-71957546D01*
X129403104Y-71896689D01*
X129443795Y-71842333D01*
X129443797Y-71842328D01*
X129444699Y-71839910D01*
X129494091Y-71707483D01*
X129500500Y-71647873D01*
X129500499Y-69052135D01*
X129799500Y-69052135D01*
X129799500Y-71647870D01*
X129799501Y-71647876D01*
X129805908Y-71707483D01*
X129856202Y-71842328D01*
X129856205Y-71842333D01*
X129942452Y-71957544D01*
X129942455Y-71957547D01*
X130057664Y-72043793D01*
X130057671Y-72043797D01*
X130192517Y-72094091D01*
X130192516Y-72094091D01*
X130199444Y-72094835D01*
X130252127Y-72100500D01*
X131547872Y-72100499D01*
X131607483Y-72094091D01*
X131742331Y-72043796D01*
X131857546Y-71957546D01*
X131903104Y-71896689D01*
X131943795Y-71842333D01*
X131943797Y-71842328D01*
X131944699Y-71839910D01*
X131994091Y-71707483D01*
X132000500Y-71647873D01*
X132000499Y-69052128D01*
X131994091Y-68992517D01*
X131992983Y-68989547D01*
X131943797Y-68857671D01*
X131943793Y-68857664D01*
X131857547Y-68742455D01*
X131857544Y-68742452D01*
X131742335Y-68656206D01*
X131742328Y-68656202D01*
X131607482Y-68605908D01*
X131607483Y-68605908D01*
X131547883Y-68599501D01*
X131547881Y-68599500D01*
X131547873Y-68599500D01*
X131547864Y-68599500D01*
X130252129Y-68599500D01*
X130252123Y-68599501D01*
X130192516Y-68605908D01*
X130057671Y-68656202D01*
X130057664Y-68656206D01*
X129942455Y-68742452D01*
X129942452Y-68742455D01*
X129856206Y-68857664D01*
X129856202Y-68857671D01*
X129805908Y-68992517D01*
X129801070Y-69037521D01*
X129799501Y-69052123D01*
X129799500Y-69052135D01*
X129500499Y-69052135D01*
X129500499Y-69052128D01*
X129494091Y-68992517D01*
X129492983Y-68989547D01*
X129443797Y-68857671D01*
X129443793Y-68857664D01*
X129357547Y-68742455D01*
X129357544Y-68742452D01*
X129242335Y-68656206D01*
X129242328Y-68656202D01*
X129107482Y-68605908D01*
X129107483Y-68605908D01*
X129047883Y-68599501D01*
X129047881Y-68599500D01*
X129047873Y-68599500D01*
X129047864Y-68599500D01*
X127752129Y-68599500D01*
X127752123Y-68599501D01*
X127692516Y-68605908D01*
X127557671Y-68656202D01*
X127557664Y-68656206D01*
X127442455Y-68742452D01*
X127442452Y-68742455D01*
X127356206Y-68857664D01*
X127356202Y-68857671D01*
X127305908Y-68992517D01*
X127301070Y-69037521D01*
X127299500Y-69052127D01*
X127299500Y-70163994D01*
X127299501Y-71175500D01*
X127296950Y-71184185D01*
X127298239Y-71193147D01*
X127287260Y-71217187D01*
X127279816Y-71242539D01*
X127272975Y-71248466D01*
X127269214Y-71256703D01*
X127246981Y-71270990D01*
X127227013Y-71288294D01*
X127216497Y-71290581D01*
X127210436Y-71294477D01*
X127175501Y-71299500D01*
X127124500Y-71299500D01*
X127057461Y-71279815D01*
X127011706Y-71227011D01*
X127000500Y-71175500D01*
X127000499Y-69052129D01*
X127000498Y-69052123D01*
X127000497Y-69052116D01*
X126994091Y-68992517D01*
X126992983Y-68989547D01*
X126943797Y-68857671D01*
X126943793Y-68857664D01*
X126857547Y-68742455D01*
X126857544Y-68742452D01*
X126742335Y-68656206D01*
X126742328Y-68656202D01*
X126607482Y-68605908D01*
X126607483Y-68605908D01*
X126547883Y-68599501D01*
X126547881Y-68599500D01*
X126547873Y-68599500D01*
X126547865Y-68599500D01*
X126341519Y-68599500D01*
X126312078Y-68590855D01*
X126282092Y-68584332D01*
X126277076Y-68580577D01*
X126274480Y-68579815D01*
X126253838Y-68563181D01*
X126136819Y-68446162D01*
X126103334Y-68384839D01*
X126100500Y-68358481D01*
X126100500Y-65599616D01*
X127524500Y-65599616D01*
X127524500Y-65800383D01*
X127555907Y-65998680D01*
X127617949Y-66189626D01*
X127696429Y-66343650D01*
X127709095Y-66368508D01*
X127827103Y-66530932D01*
X127969068Y-66672897D01*
X128131492Y-66790905D01*
X128180169Y-66815707D01*
X128310373Y-66882050D01*
X128310375Y-66882050D01*
X128310378Y-66882052D01*
X128501320Y-66944093D01*
X128699616Y-66975500D01*
X128699617Y-66975500D01*
X128900383Y-66975500D01*
X128900384Y-66975500D01*
X129098680Y-66944093D01*
X129289622Y-66882052D01*
X129468508Y-66790905D01*
X129630932Y-66672897D01*
X129772897Y-66530932D01*
X129890905Y-66368508D01*
X129982052Y-66189622D01*
X130044093Y-65998680D01*
X130075500Y-65800384D01*
X130075500Y-65599616D01*
X130044093Y-65401320D01*
X129982052Y-65210378D01*
X129982050Y-65210375D01*
X129982050Y-65210373D01*
X129894022Y-65037610D01*
X129890905Y-65031492D01*
X129772897Y-64869068D01*
X129630932Y-64727103D01*
X129468508Y-64609095D01*
X129405966Y-64577228D01*
X129289626Y-64517949D01*
X129098680Y-64455907D01*
X128900384Y-64424500D01*
X128699616Y-64424500D01*
X128693328Y-64425496D01*
X128501319Y-64455907D01*
X128310373Y-64517949D01*
X128131491Y-64609095D01*
X128057298Y-64663000D01*
X127969068Y-64727103D01*
X127969066Y-64727105D01*
X127969065Y-64727105D01*
X127827105Y-64869065D01*
X127827105Y-64869066D01*
X127827103Y-64869068D01*
X127780509Y-64933199D01*
X127709095Y-65031491D01*
X127617949Y-65210373D01*
X127555907Y-65401319D01*
X127524500Y-65599616D01*
X126100500Y-65599616D01*
X126100500Y-63021499D01*
X126120185Y-62954460D01*
X126172989Y-62908705D01*
X126224500Y-62897499D01*
X126816171Y-62897499D01*
X126816172Y-62897499D01*
X126875783Y-62891091D01*
X126992383Y-62847601D01*
X127062072Y-62842618D01*
X127079048Y-62847602D01*
X127194323Y-62890597D01*
X127194327Y-62890598D01*
X127253855Y-62896999D01*
X127253872Y-62897000D01*
X127420000Y-62897000D01*
X127920000Y-62897000D01*
X128086128Y-62897000D01*
X128086144Y-62896999D01*
X128145672Y-62890598D01*
X128145676Y-62890597D01*
X128261666Y-62847335D01*
X128331357Y-62842351D01*
X128348334Y-62847335D01*
X128464323Y-62890597D01*
X128464327Y-62890598D01*
X128523855Y-62896999D01*
X128523872Y-62897000D01*
X128690000Y-62897000D01*
X128690000Y-61250000D01*
X127920000Y-61250000D01*
X127920000Y-62897000D01*
X127420000Y-62897000D01*
X127420000Y-61124000D01*
X127439685Y-61056961D01*
X127492489Y-61011206D01*
X127544000Y-61000000D01*
X127670000Y-61000000D01*
X127670000Y-60874000D01*
X127689685Y-60806961D01*
X127742489Y-60761206D01*
X127794000Y-60750000D01*
X128816000Y-60750000D01*
X128883039Y-60769685D01*
X128928794Y-60822489D01*
X128940000Y-60874000D01*
X128940000Y-61000000D01*
X129066000Y-61000000D01*
X129133039Y-61019685D01*
X129178794Y-61072489D01*
X129190000Y-61124000D01*
X129190000Y-62897000D01*
X129356128Y-62897000D01*
X129356144Y-62896999D01*
X129415672Y-62890598D01*
X129415676Y-62890597D01*
X129530950Y-62847602D01*
X129600641Y-62842618D01*
X129617617Y-62847602D01*
X129734217Y-62891091D01*
X129734216Y-62891091D01*
X129741144Y-62891835D01*
X129793827Y-62897500D01*
X130626172Y-62897499D01*
X130685783Y-62891091D01*
X130802383Y-62847601D01*
X130872072Y-62842618D01*
X130889048Y-62847602D01*
X131004323Y-62890597D01*
X131004327Y-62890598D01*
X131063855Y-62896999D01*
X131063872Y-62897000D01*
X131230000Y-62897000D01*
X131730000Y-62897000D01*
X131896128Y-62897000D01*
X131896144Y-62896999D01*
X131955672Y-62890598D01*
X131955679Y-62890596D01*
X132090386Y-62840354D01*
X132090393Y-62840350D01*
X132205487Y-62754190D01*
X132205490Y-62754187D01*
X132291650Y-62639093D01*
X132291654Y-62639086D01*
X132341896Y-62504379D01*
X132341898Y-62504372D01*
X132348299Y-62444844D01*
X132348300Y-62444827D01*
X132348300Y-61250000D01*
X131730000Y-61250000D01*
X131730000Y-62897000D01*
X131230000Y-62897000D01*
X131230000Y-61124000D01*
X131249685Y-61056961D01*
X131302489Y-61011206D01*
X131354000Y-61000000D01*
X131480000Y-61000000D01*
X131480000Y-60874000D01*
X131499685Y-60806961D01*
X131552489Y-60761206D01*
X131604000Y-60750000D01*
X132348300Y-60750000D01*
X132348300Y-59587653D01*
X132356926Y-59558276D01*
X132362879Y-59530772D01*
X132362838Y-59530752D01*
X132362841Y-59530746D01*
X132362903Y-59530658D01*
X132363406Y-59528339D01*
X132367210Y-59523251D01*
X132367985Y-59520614D01*
X132384528Y-59500062D01*
X132384999Y-59499589D01*
X132385983Y-59498605D01*
X132385986Y-59498604D01*
X132386058Y-59498532D01*
X132386061Y-59498527D01*
X132537822Y-59346767D01*
X132599142Y-59313285D01*
X132668834Y-59318269D01*
G37*
%TD.AperFunction*%
%TA.AperFunction,Conductor*%
G36*
X106362239Y-59362675D02*
G01*
X106406586Y-59391176D01*
X107538181Y-60522771D01*
X107571666Y-60584094D01*
X107574500Y-60610452D01*
X107574500Y-61877184D01*
X107554815Y-61944223D01*
X107502011Y-61989978D01*
X107437259Y-62000475D01*
X107432844Y-62000000D01*
X106685000Y-62000000D01*
X106685000Y-64350000D01*
X107432828Y-64350000D01*
X107432841Y-64349999D01*
X107437243Y-64349526D01*
X107452649Y-64352305D01*
X107468147Y-64350077D01*
X107486330Y-64358381D01*
X107506003Y-64361930D01*
X107517461Y-64372598D01*
X107531703Y-64379102D01*
X107542510Y-64395918D01*
X107557141Y-64409540D01*
X107561518Y-64425496D01*
X107569477Y-64437880D01*
X107574500Y-64472815D01*
X107574500Y-64489547D01*
X107554815Y-64556586D01*
X107538181Y-64577228D01*
X105826360Y-66289049D01*
X104101270Y-68014139D01*
X104101267Y-68014142D01*
X104064909Y-68050500D01*
X104014142Y-68101266D01*
X104000497Y-68121688D01*
X103984460Y-68145689D01*
X103966282Y-68172894D01*
X103945684Y-68203720D01*
X103916367Y-68274499D01*
X103916368Y-68274500D01*
X103906380Y-68298613D01*
X103906379Y-68298616D01*
X103902440Y-68308127D01*
X103898537Y-68317549D01*
X103877456Y-68423535D01*
X103877090Y-68425371D01*
X103877079Y-68425422D01*
X103874500Y-68438389D01*
X103874500Y-70694549D01*
X103854815Y-70761588D01*
X103802011Y-70807343D01*
X103732853Y-70817287D01*
X103669297Y-70788262D01*
X103647319Y-70760739D01*
X103646314Y-70761412D01*
X103563532Y-70637521D01*
X103563529Y-70637517D01*
X103462482Y-70536470D01*
X103462478Y-70536467D01*
X103343659Y-70457074D01*
X103343650Y-70457069D01*
X103211620Y-70402381D01*
X103211614Y-70402379D01*
X103071457Y-70374500D01*
X103071455Y-70374500D01*
X102928545Y-70374500D01*
X102928543Y-70374500D01*
X102788385Y-70402379D01*
X102788379Y-70402381D01*
X102656349Y-70457069D01*
X102656340Y-70457074D01*
X102537521Y-70536467D01*
X102537517Y-70536470D01*
X102436470Y-70637517D01*
X102436467Y-70637521D01*
X102357074Y-70756340D01*
X102357069Y-70756349D01*
X102302381Y-70888379D01*
X102302379Y-70888385D01*
X102274500Y-71028542D01*
X102274500Y-72826000D01*
X102254815Y-72893039D01*
X102202011Y-72938794D01*
X102150500Y-72950000D01*
X102050000Y-72950000D01*
X102050000Y-73141598D01*
X102034832Y-73201026D01*
X102031202Y-73207672D01*
X101980910Y-73342513D01*
X101980909Y-73342517D01*
X101974500Y-73402127D01*
X101974500Y-73876002D01*
X101971950Y-73884686D01*
X101973239Y-73893647D01*
X101962261Y-73917683D01*
X101954817Y-73943039D01*
X101947974Y-73948967D01*
X101944214Y-73957203D01*
X101921982Y-73971489D01*
X101902013Y-73988794D01*
X101891497Y-73991081D01*
X101885436Y-73994977D01*
X101850501Y-74000000D01*
X101749500Y-74000000D01*
X101682461Y-73980315D01*
X101636706Y-73927511D01*
X101625500Y-73876000D01*
X101625499Y-73402129D01*
X101625498Y-73402123D01*
X101624442Y-73392303D01*
X101619091Y-73342517D01*
X101607091Y-73310344D01*
X101568797Y-73207672D01*
X101568796Y-73207669D01*
X101568793Y-73207665D01*
X101565168Y-73201026D01*
X101550000Y-73141598D01*
X101550000Y-72950000D01*
X101449500Y-72950000D01*
X101382461Y-72930315D01*
X101336706Y-72877511D01*
X101325500Y-72826000D01*
X101325500Y-68510451D01*
X101345185Y-68443412D01*
X101361814Y-68422775D01*
X105398271Y-64386317D01*
X105459592Y-64352834D01*
X105485950Y-64350000D01*
X106185000Y-64350000D01*
X106185000Y-62000000D01*
X105800500Y-62000000D01*
X105733461Y-61980315D01*
X105687706Y-61927511D01*
X105676500Y-61876000D01*
X105676500Y-59997262D01*
X105696185Y-59930223D01*
X105712819Y-59909581D01*
X106231224Y-59391176D01*
X106292547Y-59357691D01*
X106362239Y-59362675D01*
G37*
%TD.AperFunction*%
%TA.AperFunction,Conductor*%
G36*
X96093039Y-67794685D02*
G01*
X96138794Y-67847489D01*
X96150000Y-67899000D01*
X96150000Y-68214046D01*
X96130315Y-68281085D01*
X96117910Y-68296478D01*
X96118007Y-68296557D01*
X96114141Y-68301267D01*
X96045692Y-68403707D01*
X96045687Y-68403716D01*
X95998538Y-68517545D01*
X95998535Y-68517555D01*
X95974500Y-68638389D01*
X95974500Y-69490547D01*
X95968261Y-69511792D01*
X95966682Y-69533881D01*
X95958609Y-69544664D01*
X95954815Y-69557586D01*
X95938081Y-69572085D01*
X95924810Y-69589814D01*
X95912189Y-69594521D01*
X95902011Y-69603341D01*
X95880093Y-69606492D01*
X95859346Y-69614231D01*
X95846185Y-69611368D01*
X95832853Y-69613285D01*
X95812709Y-69604085D01*
X95791073Y-69599379D01*
X95773347Y-69586110D01*
X95769297Y-69584260D01*
X95762819Y-69578228D01*
X95612819Y-69428228D01*
X95579334Y-69366905D01*
X95576500Y-69340547D01*
X95576500Y-68923998D01*
X95596185Y-68856959D01*
X95616617Y-68839254D01*
X95613682Y-68836319D01*
X95650000Y-68799999D01*
X95650000Y-67899000D01*
X95669685Y-67831961D01*
X95722489Y-67786206D01*
X95774000Y-67775000D01*
X96026000Y-67775000D01*
X96093039Y-67794685D01*
G37*
%TD.AperFunction*%
%TA.AperFunction,Conductor*%
G36*
X111330703Y-61365354D02*
G01*
X111352603Y-61390177D01*
X111353223Y-61391106D01*
X111353225Y-61391109D01*
X111397560Y-61457461D01*
X111429887Y-61505843D01*
X111894156Y-61970112D01*
X111894159Y-61970114D01*
X112008891Y-62046775D01*
X112008897Y-62046777D01*
X112008898Y-62046778D01*
X112066724Y-62070730D01*
X112106953Y-62097610D01*
X114676562Y-64667219D01*
X114710047Y-64728542D01*
X114710498Y-64730708D01*
X114725418Y-64805714D01*
X114725420Y-64805722D01*
X114778222Y-64933199D01*
X114854887Y-65047937D01*
X114892041Y-65085091D01*
X114925526Y-65146414D01*
X114920542Y-65216106D01*
X114878670Y-65272039D01*
X114828554Y-65294389D01*
X114788382Y-65302380D01*
X114788379Y-65302381D01*
X114656349Y-65357069D01*
X114656340Y-65357074D01*
X114537521Y-65436467D01*
X114537517Y-65436470D01*
X114436470Y-65537517D01*
X114436467Y-65537521D01*
X114357074Y-65656340D01*
X114357069Y-65656349D01*
X114302381Y-65788379D01*
X114302379Y-65788385D01*
X114274500Y-65928542D01*
X114274500Y-65928545D01*
X114274500Y-66071455D01*
X114274500Y-66071457D01*
X114274499Y-66071457D01*
X114302379Y-66211614D01*
X114302381Y-66211620D01*
X114357069Y-66343650D01*
X114357074Y-66343659D01*
X114436467Y-66462478D01*
X114436470Y-66462482D01*
X114537517Y-66563529D01*
X114537521Y-66563532D01*
X114656340Y-66642925D01*
X114656346Y-66642928D01*
X114656347Y-66642929D01*
X114765848Y-66688286D01*
X114794008Y-66699950D01*
X114793348Y-66701542D01*
X114844921Y-66735328D01*
X114873388Y-66799136D01*
X114874500Y-66815707D01*
X114874500Y-68544783D01*
X114854815Y-68611822D01*
X114802011Y-68657577D01*
X114732853Y-68667521D01*
X114676189Y-68644050D01*
X114642331Y-68618704D01*
X114642328Y-68618702D01*
X114507482Y-68568408D01*
X114507483Y-68568408D01*
X114447883Y-68562001D01*
X114447881Y-68562000D01*
X114447873Y-68562000D01*
X114447865Y-68562000D01*
X112329022Y-68562000D01*
X112261983Y-68542315D01*
X112216228Y-68489511D01*
X112206284Y-68420353D01*
X112225921Y-68369108D01*
X112242924Y-68343661D01*
X112242925Y-68343658D01*
X112242929Y-68343653D01*
X112297619Y-68211620D01*
X112324887Y-68074537D01*
X112325500Y-68071457D01*
X112325500Y-67928542D01*
X112297620Y-67788385D01*
X112297619Y-67788384D01*
X112297619Y-67788380D01*
X112242929Y-67656347D01*
X112242928Y-67656346D01*
X112242925Y-67656340D01*
X112163532Y-67537521D01*
X112163529Y-67537517D01*
X112062482Y-67436470D01*
X112062478Y-67436467D01*
X111943659Y-67357074D01*
X111943650Y-67357069D01*
X111811620Y-67302381D01*
X111811614Y-67302379D01*
X111671457Y-67274500D01*
X111671455Y-67274500D01*
X111528545Y-67274500D01*
X111528543Y-67274500D01*
X111388385Y-67302379D01*
X111388375Y-67302382D01*
X111269167Y-67351760D01*
X111199698Y-67359229D01*
X111137219Y-67327954D01*
X111101567Y-67267865D01*
X111102812Y-67212930D01*
X111100275Y-67212426D01*
X111125499Y-67085610D01*
X111125500Y-67085607D01*
X111125500Y-65617829D01*
X111145185Y-65550790D01*
X111180610Y-65514727D01*
X111231718Y-65480576D01*
X111259733Y-65461858D01*
X111346858Y-65374733D01*
X111415311Y-65272286D01*
X111462463Y-65158452D01*
X111486500Y-65037606D01*
X111486500Y-63262394D01*
X111462463Y-63141548D01*
X111424020Y-63048739D01*
X111415312Y-63027716D01*
X111415307Y-63027707D01*
X111346858Y-62925267D01*
X111346855Y-62925263D01*
X111259736Y-62838144D01*
X111259728Y-62838138D01*
X111180610Y-62785273D01*
X111135804Y-62731661D01*
X111125500Y-62682171D01*
X111125500Y-61459067D01*
X111145185Y-61392028D01*
X111197989Y-61346273D01*
X111267147Y-61336329D01*
X111330703Y-61365354D01*
G37*
%TD.AperFunction*%
%TA.AperFunction,Conductor*%
G36*
X98943334Y-61977870D02*
G01*
X98987681Y-62006371D01*
X99067410Y-62086100D01*
X99100895Y-62147423D01*
X99095911Y-62217115D01*
X99079000Y-62248086D01*
X99071650Y-62257905D01*
X99071645Y-62257913D01*
X99021403Y-62392620D01*
X99021401Y-62392627D01*
X99015000Y-62452155D01*
X99015000Y-62925000D01*
X100341000Y-62925000D01*
X100408039Y-62944685D01*
X100453794Y-62997489D01*
X100465000Y-63049000D01*
X100465000Y-63301000D01*
X100445315Y-63368039D01*
X100392511Y-63413794D01*
X100341000Y-63425000D01*
X99015000Y-63425000D01*
X99015000Y-63897844D01*
X99021401Y-63957372D01*
X99021403Y-63957379D01*
X99071645Y-64092086D01*
X99071649Y-64092093D01*
X99157809Y-64207187D01*
X99157812Y-64207190D01*
X99272906Y-64293350D01*
X99272913Y-64293354D01*
X99407620Y-64343596D01*
X99407627Y-64343598D01*
X99467155Y-64349999D01*
X99467172Y-64350000D01*
X100090426Y-64350000D01*
X100157465Y-64369685D01*
X100203220Y-64422489D01*
X100213164Y-64491647D01*
X100184139Y-64555203D01*
X100178107Y-64561681D01*
X97086680Y-67653108D01*
X97025357Y-67686593D01*
X96955665Y-67681609D01*
X96899732Y-67639737D01*
X96875315Y-67574273D01*
X96874999Y-67565427D01*
X96874999Y-67438360D01*
X96874998Y-67438345D01*
X96864680Y-67337347D01*
X96810453Y-67173699D01*
X96810448Y-67173688D01*
X96719947Y-67026965D01*
X96719944Y-67026961D01*
X96681017Y-66988034D01*
X96647532Y-66926711D01*
X96652516Y-66857019D01*
X96681016Y-66812673D01*
X96720340Y-66773350D01*
X96810908Y-66626516D01*
X96865174Y-66462753D01*
X96875500Y-66361677D01*
X96875499Y-65688324D01*
X96866437Y-65599616D01*
X96865174Y-65587247D01*
X96841143Y-65514727D01*
X96810908Y-65423484D01*
X96720340Y-65276650D01*
X96598350Y-65154660D01*
X96591604Y-65150499D01*
X96584400Y-65146055D01*
X96537677Y-65094105D01*
X96525500Y-65040518D01*
X96525500Y-64310453D01*
X96534142Y-64281020D01*
X96540665Y-64251031D01*
X96544422Y-64246011D01*
X96545185Y-64243414D01*
X96561815Y-64222776D01*
X96585858Y-64198733D01*
X96585859Y-64198730D01*
X97285857Y-63498734D01*
X97292379Y-63488974D01*
X97336228Y-63423350D01*
X97354307Y-63396292D01*
X97354307Y-63396291D01*
X97354311Y-63396286D01*
X97401463Y-63282452D01*
X97406372Y-63257770D01*
X97438755Y-63195862D01*
X97440252Y-63194337D01*
X98339548Y-62295041D01*
X98388222Y-62265018D01*
X98551516Y-62210908D01*
X98698350Y-62120340D01*
X98812319Y-62006371D01*
X98873642Y-61972886D01*
X98943334Y-61977870D01*
G37*
%TD.AperFunction*%
%TA.AperFunction,Conductor*%
G36*
X103673894Y-53565233D02*
G01*
X103698256Y-53565814D01*
X103707520Y-53572084D01*
X103718481Y-53574317D01*
X103735936Y-53591316D01*
X103756119Y-53604976D01*
X103760522Y-53615260D01*
X103768536Y-53623064D01*
X103774030Y-53646803D01*
X103783623Y-53669205D01*
X103784500Y-53683926D01*
X103784500Y-59248393D01*
X103784500Y-59371607D01*
X103784500Y-59371608D01*
X103784499Y-59371608D01*
X103785879Y-59378544D01*
X103808535Y-59492443D01*
X103808538Y-59492455D01*
X103815279Y-59508730D01*
X103817491Y-59514069D01*
X103855688Y-59606286D01*
X103886540Y-59652458D01*
X103890765Y-59658781D01*
X103890766Y-59658783D01*
X103924140Y-59708731D01*
X103924141Y-59708732D01*
X103924142Y-59708733D01*
X103938180Y-59722771D01*
X103971665Y-59784092D01*
X103974500Y-59810453D01*
X103974500Y-62889548D01*
X103954815Y-62956587D01*
X103938181Y-62977229D01*
X103588181Y-63327229D01*
X103526858Y-63360714D01*
X103457166Y-63355730D01*
X103401233Y-63313858D01*
X103376816Y-63248394D01*
X103376500Y-63239548D01*
X103376500Y-53697500D01*
X103377550Y-53693922D01*
X103376710Y-53690292D01*
X103387318Y-53660657D01*
X103396185Y-53630461D01*
X103399001Y-53628020D01*
X103400258Y-53624510D01*
X103425208Y-53605312D01*
X103448989Y-53584706D01*
X103453540Y-53583512D01*
X103455633Y-53581902D01*
X103469776Y-53579253D01*
X103490018Y-53573944D01*
X103495252Y-53573500D01*
X103593518Y-53573500D01*
X103639046Y-53561300D01*
X103650018Y-53560370D01*
X103673894Y-53565233D01*
G37*
%TD.AperFunction*%
%TA.AperFunction,Conductor*%
G36*
X101216799Y-40656116D02*
G01*
X101262927Y-40708594D01*
X101274500Y-40760903D01*
X101274500Y-41123801D01*
X101286471Y-41183982D01*
X101286471Y-41183983D01*
X101291042Y-41206961D01*
X101298537Y-41244642D01*
X101302542Y-41254311D01*
X101302542Y-41254312D01*
X101345685Y-41358471D01*
X101345688Y-41358476D01*
X101365011Y-41387394D01*
X101414142Y-41460923D01*
X101501267Y-41548048D01*
X101501269Y-41548049D01*
X101511860Y-41558640D01*
X101638181Y-41684961D01*
X101671666Y-41746284D01*
X101674500Y-41772642D01*
X101674500Y-42923540D01*
X101654815Y-42990579D01*
X101602011Y-43036334D01*
X101574693Y-43045157D01*
X101538383Y-43052379D01*
X101538381Y-43052380D01*
X101406349Y-43107069D01*
X101406340Y-43107074D01*
X101287521Y-43186467D01*
X101287517Y-43186470D01*
X101186470Y-43287517D01*
X101186467Y-43287521D01*
X101107074Y-43406340D01*
X101107069Y-43406349D01*
X101052381Y-43538379D01*
X101052379Y-43538385D01*
X101024500Y-43678542D01*
X101024500Y-43678545D01*
X101024500Y-43821455D01*
X101024500Y-43821457D01*
X101024499Y-43821457D01*
X101052379Y-43961614D01*
X101052381Y-43961620D01*
X101107068Y-44093648D01*
X101109853Y-44098856D01*
X101124500Y-44157319D01*
X101124500Y-45312070D01*
X101104815Y-45379109D01*
X101069392Y-45415171D01*
X101037523Y-45436465D01*
X101037517Y-45436470D01*
X100936470Y-45537517D01*
X100936467Y-45537521D01*
X100857074Y-45656340D01*
X100857069Y-45656349D01*
X100802381Y-45788379D01*
X100802379Y-45788385D01*
X100773513Y-45933503D01*
X100741128Y-45995414D01*
X100680412Y-46029988D01*
X100610642Y-46026247D01*
X100608563Y-46025493D01*
X100557380Y-46006403D01*
X100557372Y-46006401D01*
X100497844Y-46000000D01*
X99925000Y-46000000D01*
X99925000Y-48300000D01*
X100436253Y-48300000D01*
X100467774Y-48309255D01*
X100499599Y-48317402D01*
X100501131Y-48319050D01*
X100503292Y-48319685D01*
X100524796Y-48344502D01*
X100547175Y-48368571D01*
X100547573Y-48370788D01*
X100549047Y-48372489D01*
X100553722Y-48405004D01*
X100559533Y-48437339D01*
X100558789Y-48440244D01*
X100558991Y-48441647D01*
X100550783Y-48471525D01*
X100550384Y-48472490D01*
X100523537Y-48512639D01*
X100502083Y-48534094D01*
X100485910Y-48550267D01*
X100485907Y-48550270D01*
X100250270Y-48785907D01*
X100250267Y-48785910D01*
X100206704Y-48829472D01*
X100163142Y-48873034D01*
X100136952Y-48912230D01*
X100136945Y-48912240D01*
X100134959Y-48915214D01*
X100094688Y-48975482D01*
X100082502Y-49004899D01*
X100078144Y-49012318D01*
X100058694Y-49030581D01*
X100041952Y-49051357D01*
X100033614Y-49054131D01*
X100027210Y-49060146D01*
X100000974Y-49064995D01*
X99975658Y-49073421D01*
X99971233Y-49073500D01*
X97849500Y-49073500D01*
X97782461Y-49053815D01*
X97736706Y-49001011D01*
X97725500Y-48949500D01*
X97725500Y-48928542D01*
X97697620Y-48788385D01*
X97697619Y-48788384D01*
X97697619Y-48788380D01*
X97642929Y-48656347D01*
X97642928Y-48656346D01*
X97642925Y-48656340D01*
X97563532Y-48537521D01*
X97563529Y-48537517D01*
X97462482Y-48436470D01*
X97462478Y-48436467D01*
X97343659Y-48357074D01*
X97343650Y-48357069D01*
X97211620Y-48302381D01*
X97211614Y-48302379D01*
X97071457Y-48274500D01*
X97071455Y-48274500D01*
X96928545Y-48274500D01*
X96928543Y-48274500D01*
X96788385Y-48302379D01*
X96782553Y-48304149D01*
X96781784Y-48301615D01*
X96723697Y-48307835D01*
X96661232Y-48276533D01*
X96658086Y-48273496D01*
X96232434Y-47847844D01*
X98400000Y-47847844D01*
X98406401Y-47907372D01*
X98406403Y-47907379D01*
X98456645Y-48042086D01*
X98456649Y-48042093D01*
X98542809Y-48157187D01*
X98542812Y-48157190D01*
X98657906Y-48243350D01*
X98657913Y-48243354D01*
X98792620Y-48293596D01*
X98792627Y-48293598D01*
X98852155Y-48299999D01*
X98852172Y-48300000D01*
X99425000Y-48300000D01*
X99425000Y-47400000D01*
X98400000Y-47400000D01*
X98400000Y-47847844D01*
X96232434Y-47847844D01*
X95230315Y-46845725D01*
X95199335Y-46794038D01*
X95197620Y-46788386D01*
X95197619Y-46788380D01*
X95142929Y-46656347D01*
X95142928Y-46656346D01*
X95142925Y-46656340D01*
X95063532Y-46537521D01*
X95063529Y-46537517D01*
X94978167Y-46452155D01*
X98400000Y-46452155D01*
X98400000Y-46900000D01*
X99425000Y-46900000D01*
X99425000Y-46000000D01*
X98852155Y-46000000D01*
X98792627Y-46006401D01*
X98792620Y-46006403D01*
X98657913Y-46056645D01*
X98657906Y-46056649D01*
X98542812Y-46142809D01*
X98542809Y-46142812D01*
X98456649Y-46257906D01*
X98456645Y-46257913D01*
X98406403Y-46392620D01*
X98406401Y-46392627D01*
X98400000Y-46452155D01*
X94978167Y-46452155D01*
X94962482Y-46436470D01*
X94962478Y-46436467D01*
X94843659Y-46357074D01*
X94843650Y-46357069D01*
X94711620Y-46302381D01*
X94711614Y-46302379D01*
X94571457Y-46274500D01*
X94571455Y-46274500D01*
X94428545Y-46274500D01*
X94428543Y-46274500D01*
X94288385Y-46302379D01*
X94288375Y-46302382D01*
X94172452Y-46350399D01*
X94102983Y-46357868D01*
X94077548Y-46350399D01*
X93961624Y-46302382D01*
X93961614Y-46302379D01*
X93821457Y-46274500D01*
X93821455Y-46274500D01*
X93678545Y-46274500D01*
X93678543Y-46274500D01*
X93538385Y-46302379D01*
X93538379Y-46302381D01*
X93406349Y-46357069D01*
X93406340Y-46357074D01*
X93287521Y-46436467D01*
X93210107Y-46513881D01*
X93148783Y-46547365D01*
X93079092Y-46542381D01*
X93023158Y-46500509D01*
X92999136Y-46439451D01*
X92998815Y-46436468D01*
X92994091Y-46392517D01*
X92988682Y-46378016D01*
X92943797Y-46257671D01*
X92943793Y-46257664D01*
X92857547Y-46142455D01*
X92857544Y-46142452D01*
X92742335Y-46056206D01*
X92742328Y-46056202D01*
X92607482Y-46005908D01*
X92607483Y-46005908D01*
X92547883Y-45999501D01*
X92547881Y-45999500D01*
X92547873Y-45999500D01*
X92547864Y-45999500D01*
X90902129Y-45999500D01*
X90902123Y-45999501D01*
X90842516Y-46005908D01*
X90707671Y-46056202D01*
X90707664Y-46056206D01*
X90592455Y-46142452D01*
X90592452Y-46142455D01*
X90506206Y-46257664D01*
X90506202Y-46257671D01*
X90455908Y-46392517D01*
X90449501Y-46452116D01*
X90449500Y-46452135D01*
X90449500Y-47847870D01*
X90449501Y-47847876D01*
X90455908Y-47907483D01*
X90506202Y-48042328D01*
X90506206Y-48042335D01*
X90592452Y-48157544D01*
X90592455Y-48157547D01*
X90707664Y-48243793D01*
X90707671Y-48243797D01*
X90842517Y-48294091D01*
X90842516Y-48294091D01*
X90849444Y-48294835D01*
X90902127Y-48300500D01*
X91545680Y-48300499D01*
X91612717Y-48320183D01*
X91658472Y-48372987D01*
X91668416Y-48442146D01*
X91639391Y-48505702D01*
X91589155Y-48540627D01*
X91579728Y-48544156D01*
X91538380Y-48552381D01*
X91406347Y-48607071D01*
X91399546Y-48611615D01*
X91386157Y-48616628D01*
X91369167Y-48617864D01*
X91354413Y-48621560D01*
X91354644Y-48623903D01*
X91348578Y-48624500D01*
X91239145Y-48646268D01*
X91235323Y-48647028D01*
X91227739Y-48648536D01*
X91227737Y-48648537D01*
X91113906Y-48695687D01*
X91013167Y-48763000D01*
X91013154Y-48763009D01*
X91011456Y-48764142D01*
X91011453Y-48764145D01*
X90239692Y-49535907D01*
X89500269Y-50275330D01*
X89500267Y-50275332D01*
X89456746Y-50318853D01*
X89413142Y-50362456D01*
X89396479Y-50387395D01*
X89344689Y-50464902D01*
X89344685Y-50464909D01*
X89318857Y-50527266D01*
X89297538Y-50578734D01*
X89297535Y-50578746D01*
X89287397Y-50629713D01*
X89287398Y-50629714D01*
X89277168Y-50681148D01*
X89273848Y-50697839D01*
X89273840Y-50697876D01*
X89273500Y-50699579D01*
X89273500Y-61649597D01*
X89279392Y-61679224D01*
X89297534Y-61770434D01*
X89297536Y-61770438D01*
X89297537Y-61770442D01*
X89303922Y-61785857D01*
X89303922Y-61785858D01*
X89344685Y-61884271D01*
X89347557Y-61889643D01*
X89345729Y-61890619D01*
X89363784Y-61948297D01*
X89345294Y-62015676D01*
X89293311Y-62062361D01*
X89239804Y-62074500D01*
X88624500Y-62074500D01*
X88557461Y-62054815D01*
X88511706Y-62002011D01*
X88500500Y-61950500D01*
X88500500Y-41998135D01*
X91995500Y-41998135D01*
X91995500Y-43401870D01*
X91995501Y-43401876D01*
X92001908Y-43461483D01*
X92052202Y-43596328D01*
X92052206Y-43596335D01*
X92138452Y-43711544D01*
X92138455Y-43711547D01*
X92253664Y-43797793D01*
X92253671Y-43797797D01*
X92297640Y-43814196D01*
X92388517Y-43848091D01*
X92448127Y-43854500D01*
X92606693Y-43854499D01*
X92673730Y-43874183D01*
X92694372Y-43890818D01*
X93103554Y-44300000D01*
X93097339Y-44300000D01*
X92995606Y-44327259D01*
X92904394Y-44379920D01*
X92829920Y-44454394D01*
X92777259Y-44545606D01*
X92750000Y-44647339D01*
X92750000Y-44653553D01*
X92175049Y-44078602D01*
X92175048Y-44078603D01*
X92163018Y-44095161D01*
X92163012Y-44095170D01*
X92080548Y-44257015D01*
X92024415Y-44429774D01*
X91996000Y-44609178D01*
X91996000Y-44790821D01*
X92024415Y-44970225D01*
X92080548Y-45142984D01*
X92163012Y-45304830D01*
X92163014Y-45304834D01*
X92175048Y-45321395D01*
X92175049Y-45321396D01*
X92750000Y-44746445D01*
X92750000Y-44752661D01*
X92777259Y-44854394D01*
X92829920Y-44945606D01*
X92904394Y-45020080D01*
X92995606Y-45072741D01*
X93097339Y-45100000D01*
X93103554Y-45100000D01*
X92528602Y-45674949D01*
X92528603Y-45674950D01*
X92545165Y-45686985D01*
X92545179Y-45686993D01*
X92707012Y-45769450D01*
X92879774Y-45825584D01*
X93059179Y-45854000D01*
X93240821Y-45854000D01*
X93420225Y-45825584D01*
X93592984Y-45769451D01*
X93754831Y-45686986D01*
X93771396Y-45674949D01*
X93196447Y-45100000D01*
X93202661Y-45100000D01*
X93304394Y-45072741D01*
X93395606Y-45020080D01*
X93470080Y-44945606D01*
X93522741Y-44854394D01*
X93550000Y-44752661D01*
X93550000Y-44746446D01*
X94124949Y-45321395D01*
X94136986Y-45304831D01*
X94219451Y-45142984D01*
X94275584Y-44970225D01*
X94304000Y-44790821D01*
X94304000Y-44609178D01*
X94275584Y-44429774D01*
X94219450Y-44257012D01*
X94136993Y-44095179D01*
X94136985Y-44095165D01*
X94124950Y-44078603D01*
X94124949Y-44078602D01*
X93550000Y-44653552D01*
X93550000Y-44647339D01*
X93522741Y-44545606D01*
X93470080Y-44454394D01*
X93395606Y-44379920D01*
X93304394Y-44327259D01*
X93202661Y-44300000D01*
X93196447Y-44300000D01*
X93605627Y-43890818D01*
X93666950Y-43857333D01*
X93693306Y-43854499D01*
X93851872Y-43854499D01*
X93911483Y-43848091D01*
X94046331Y-43797796D01*
X94161546Y-43711546D01*
X94247796Y-43596331D01*
X94257073Y-43571457D01*
X97274499Y-43571457D01*
X97302379Y-43711614D01*
X97302381Y-43711620D01*
X97357069Y-43843650D01*
X97357074Y-43843659D01*
X97436467Y-43962478D01*
X97436470Y-43962482D01*
X97537517Y-44063529D01*
X97537521Y-44063532D01*
X97656340Y-44142925D01*
X97656349Y-44142930D01*
X97663833Y-44146030D01*
X97788380Y-44197619D01*
X97903167Y-44220451D01*
X97913918Y-44223095D01*
X97920276Y-44224963D01*
X97955738Y-44239653D01*
X97995184Y-44247499D01*
X98076581Y-44263689D01*
X98076582Y-44263690D01*
X98076583Y-44263690D01*
X99173418Y-44263690D01*
X99173418Y-44263689D01*
X99254816Y-44247499D01*
X99294262Y-44239653D01*
X99333169Y-44223537D01*
X99408096Y-44192502D01*
X99477288Y-44146268D01*
X99510543Y-44124048D01*
X99597668Y-44036923D01*
X99597669Y-44036921D01*
X99604735Y-44029855D01*
X99604738Y-44029851D01*
X100654275Y-42980313D01*
X100705963Y-42949334D01*
X100711605Y-42947621D01*
X100711620Y-42947619D01*
X100843653Y-42892929D01*
X100962479Y-42813532D01*
X101063532Y-42712479D01*
X101142929Y-42593653D01*
X101197619Y-42461620D01*
X101215896Y-42369737D01*
X101225500Y-42321457D01*
X101225500Y-42178542D01*
X101197620Y-42038385D01*
X101197619Y-42038384D01*
X101197619Y-42038380D01*
X101155318Y-41936258D01*
X101142930Y-41906349D01*
X101142925Y-41906340D01*
X101063532Y-41787521D01*
X101063529Y-41787517D01*
X100962482Y-41686470D01*
X100962478Y-41686467D01*
X100843659Y-41607074D01*
X100843650Y-41607069D01*
X100711620Y-41552381D01*
X100711614Y-41552379D01*
X100571457Y-41524500D01*
X100571455Y-41524500D01*
X100428545Y-41524500D01*
X100428543Y-41524500D01*
X100288385Y-41552379D01*
X100288379Y-41552381D01*
X100156349Y-41607069D01*
X100156340Y-41607074D01*
X100037521Y-41686467D01*
X100037517Y-41686470D01*
X99936470Y-41787517D01*
X99936467Y-41787521D01*
X99857074Y-41906340D01*
X99857069Y-41906349D01*
X99802379Y-42038383D01*
X99800663Y-42044042D01*
X99769685Y-42095723D01*
X98889039Y-42976371D01*
X98862111Y-42991074D01*
X98836293Y-43007667D01*
X98830092Y-43008558D01*
X98827716Y-43009856D01*
X98801358Y-43012690D01*
X98590063Y-43012690D01*
X98523024Y-42993005D01*
X98502381Y-42976370D01*
X98462482Y-42936470D01*
X98462478Y-42936467D01*
X98343659Y-42857074D01*
X98343650Y-42857069D01*
X98211620Y-42802381D01*
X98211614Y-42802379D01*
X98071457Y-42774500D01*
X98071455Y-42774500D01*
X97928545Y-42774500D01*
X97928543Y-42774500D01*
X97788385Y-42802379D01*
X97788379Y-42802381D01*
X97656349Y-42857069D01*
X97656340Y-42857074D01*
X97537521Y-42936467D01*
X97537517Y-42936470D01*
X97436470Y-43037517D01*
X97436467Y-43037521D01*
X97357074Y-43156340D01*
X97357069Y-43156349D01*
X97302381Y-43288379D01*
X97302379Y-43288385D01*
X97274500Y-43428542D01*
X97274500Y-43428545D01*
X97274500Y-43571455D01*
X97274500Y-43571457D01*
X97274499Y-43571457D01*
X94257073Y-43571457D01*
X94298091Y-43461483D01*
X94298380Y-43458795D01*
X94303713Y-43409197D01*
X94304057Y-43405993D01*
X94304500Y-43401873D01*
X94304499Y-41998128D01*
X94298091Y-41938517D01*
X94286092Y-41906347D01*
X94247797Y-41803671D01*
X94247793Y-41803664D01*
X94161547Y-41688455D01*
X94161544Y-41688452D01*
X94046335Y-41602206D01*
X94046328Y-41602202D01*
X93911482Y-41551908D01*
X93911483Y-41551908D01*
X93851883Y-41545501D01*
X93851881Y-41545500D01*
X93851873Y-41545500D01*
X93851864Y-41545500D01*
X92448129Y-41545500D01*
X92448123Y-41545501D01*
X92388516Y-41551908D01*
X92253671Y-41602202D01*
X92253664Y-41602206D01*
X92138455Y-41688452D01*
X92138452Y-41688455D01*
X92052206Y-41803664D01*
X92052202Y-41803671D01*
X92001908Y-41938517D01*
X91995501Y-41998116D01*
X91995501Y-41998123D01*
X91995500Y-41998135D01*
X88500500Y-41998135D01*
X88500500Y-40849581D01*
X88520185Y-40782542D01*
X88572989Y-40736787D01*
X88623616Y-40725585D01*
X101149626Y-40636907D01*
X101216799Y-40656116D01*
G37*
%TD.AperFunction*%
%TA.AperFunction,Conductor*%
G36*
X114703925Y-55351208D02*
G01*
X114759858Y-55393080D01*
X114784275Y-55458544D01*
X114784591Y-55467390D01*
X114784591Y-55721698D01*
X114785348Y-55725505D01*
X114785347Y-55725505D01*
X114798548Y-55791870D01*
X114805445Y-55826545D01*
X114807193Y-55835329D01*
X114808628Y-55842543D01*
X114855776Y-55956371D01*
X114855783Y-55956383D01*
X114884120Y-55998793D01*
X114884124Y-55998798D01*
X114888453Y-56005276D01*
X114924233Y-56058824D01*
X115011358Y-56145949D01*
X115011359Y-56145950D01*
X115059112Y-56193703D01*
X115101268Y-56235859D01*
X115203710Y-56304309D01*
X115203711Y-56304309D01*
X115203715Y-56304312D01*
X115254868Y-56325500D01*
X115317548Y-56351463D01*
X115337597Y-56355451D01*
X115381757Y-56364235D01*
X115438392Y-56375501D01*
X115444454Y-56376098D01*
X115444225Y-56378417D01*
X115501331Y-56395186D01*
X115547086Y-56447990D01*
X115550769Y-56457728D01*
X115607069Y-56593650D01*
X115607074Y-56593659D01*
X115686467Y-56712478D01*
X115686470Y-56712482D01*
X115724307Y-56750319D01*
X115757792Y-56811642D01*
X115752808Y-56881334D01*
X115710936Y-56937267D01*
X115645472Y-56961684D01*
X115636626Y-56962000D01*
X114502129Y-56962000D01*
X114502123Y-56962001D01*
X114442516Y-56968408D01*
X114307671Y-57018702D01*
X114307664Y-57018706D01*
X114192455Y-57104952D01*
X114192452Y-57104955D01*
X114106206Y-57220164D01*
X114106202Y-57220171D01*
X114055908Y-57355017D01*
X114049501Y-57414616D01*
X114049500Y-57414635D01*
X114049500Y-58928047D01*
X114029815Y-58995086D01*
X113977011Y-59040841D01*
X113907853Y-59050785D01*
X113844297Y-59021760D01*
X113837819Y-59015728D01*
X113385623Y-58563532D01*
X112801494Y-57979404D01*
X112768010Y-57918082D01*
X112772994Y-57848390D01*
X112814866Y-57792457D01*
X112876576Y-57768366D01*
X112912651Y-57764681D01*
X113076300Y-57710453D01*
X113076311Y-57710448D01*
X113223034Y-57619947D01*
X113223038Y-57619944D01*
X113344944Y-57498038D01*
X113344947Y-57498034D01*
X113435448Y-57351311D01*
X113435453Y-57351300D01*
X113489680Y-57187652D01*
X113499999Y-57086654D01*
X113500000Y-57086641D01*
X113500000Y-57050000D01*
X112586500Y-57050000D01*
X112519461Y-57030315D01*
X112473706Y-56977511D01*
X112462500Y-56926000D01*
X112462500Y-56674000D01*
X112482185Y-56606961D01*
X112534989Y-56561206D01*
X112586500Y-56550000D01*
X113499999Y-56550000D01*
X113499999Y-56513360D01*
X113499998Y-56513345D01*
X113489680Y-56412347D01*
X113435453Y-56248699D01*
X113435448Y-56248688D01*
X113344947Y-56101965D01*
X113344944Y-56101961D01*
X113288164Y-56045181D01*
X113254679Y-55983858D01*
X113259663Y-55914166D01*
X113301535Y-55858233D01*
X113366999Y-55833816D01*
X113375845Y-55833500D01*
X113921637Y-55833500D01*
X113982059Y-55821481D01*
X114042482Y-55809463D01*
X114084955Y-55791870D01*
X114156316Y-55762312D01*
X114216982Y-55721775D01*
X114258763Y-55693858D01*
X114345888Y-55606733D01*
X114345888Y-55606731D01*
X114356096Y-55596524D01*
X114356097Y-55596521D01*
X114572911Y-55379708D01*
X114634233Y-55346224D01*
X114703925Y-55351208D01*
G37*
%TD.AperFunction*%
%TA.AperFunction,Conductor*%
G36*
X95470899Y-55347034D02*
G01*
X95526077Y-55389896D01*
X95549322Y-55455785D01*
X95549500Y-55462424D01*
X95549500Y-58040651D01*
X95548515Y-58050643D01*
X95548629Y-58055320D01*
X95548058Y-58060111D01*
X95524500Y-58178545D01*
X95524500Y-58257857D01*
X95523629Y-58265169D01*
X95512667Y-58290796D01*
X95504815Y-58317539D01*
X95499117Y-58322475D01*
X95496152Y-58329409D01*
X95473072Y-58345044D01*
X95452011Y-58363294D01*
X95444549Y-58364366D01*
X95438307Y-58368596D01*
X95400500Y-58374500D01*
X93024499Y-58374500D01*
X92957460Y-58354815D01*
X92911705Y-58302011D01*
X92900499Y-58250500D01*
X92900499Y-58052129D01*
X92900498Y-58052123D01*
X92898496Y-58033500D01*
X92894091Y-57992517D01*
X92888612Y-57977828D01*
X92843797Y-57857671D01*
X92843793Y-57857664D01*
X92757547Y-57742455D01*
X92757544Y-57742452D01*
X92642335Y-57656206D01*
X92642328Y-57656202D01*
X92507482Y-57605908D01*
X92507483Y-57605908D01*
X92447883Y-57599501D01*
X92447881Y-57599500D01*
X92447873Y-57599500D01*
X92447864Y-57599500D01*
X90802129Y-57599500D01*
X90802123Y-57599501D01*
X90742514Y-57605909D01*
X90691832Y-57624812D01*
X90622140Y-57629796D01*
X90560817Y-57596310D01*
X90527333Y-57534986D01*
X90524500Y-57508630D01*
X90524500Y-56273895D01*
X90533741Y-56242420D01*
X90541859Y-56210620D01*
X90543539Y-56209055D01*
X90544185Y-56206856D01*
X90568965Y-56185383D01*
X90592997Y-56163010D01*
X90595256Y-56162602D01*
X90596989Y-56161101D01*
X90629463Y-56156431D01*
X90661757Y-56150606D01*
X90664719Y-56151362D01*
X90666147Y-56151157D01*
X90695953Y-56159334D01*
X90700218Y-56161101D01*
X90717694Y-56168340D01*
X90772096Y-56212182D01*
X90791856Y-56258708D01*
X90802379Y-56311611D01*
X90802381Y-56311617D01*
X90857069Y-56443647D01*
X90857074Y-56443656D01*
X90936467Y-56562475D01*
X90936470Y-56562479D01*
X91037517Y-56663526D01*
X91037521Y-56663529D01*
X91156340Y-56742922D01*
X91156346Y-56742925D01*
X91156347Y-56742926D01*
X91288380Y-56797616D01*
X91288384Y-56797616D01*
X91288385Y-56797617D01*
X91428542Y-56825497D01*
X91428545Y-56825497D01*
X91571457Y-56825497D01*
X91665751Y-56806739D01*
X91711620Y-56797616D01*
X91843653Y-56742926D01*
X91962479Y-56663529D01*
X91962482Y-56663526D01*
X91964190Y-56661819D01*
X91965304Y-56661210D01*
X91967189Y-56659664D01*
X91967482Y-56660021D01*
X92025513Y-56628334D01*
X92051871Y-56625500D01*
X92709154Y-56625500D01*
X92709154Y-56625499D01*
X92810843Y-56605273D01*
X92829998Y-56601463D01*
X92883125Y-56579457D01*
X92943832Y-56554312D01*
X93005173Y-56513324D01*
X93046279Y-56485858D01*
X93133404Y-56398733D01*
X93133404Y-56398731D01*
X93143612Y-56388524D01*
X93143613Y-56388521D01*
X93959857Y-55572280D01*
X93959875Y-55572252D01*
X93960437Y-55571414D01*
X94028307Y-55469838D01*
X94028307Y-55469837D01*
X94028311Y-55469832D01*
X94046448Y-55426046D01*
X94090290Y-55371643D01*
X94156584Y-55349579D01*
X94161009Y-55349500D01*
X95357607Y-55349500D01*
X95401309Y-55340807D01*
X95470899Y-55347034D01*
G37*
%TD.AperFunction*%
%TA.AperFunction,Conductor*%
G36*
X100317539Y-52820184D02*
G01*
X100363294Y-52872988D01*
X100374500Y-52924499D01*
X100374500Y-52976000D01*
X100354815Y-53043039D01*
X100302011Y-53088794D01*
X100250500Y-53100000D01*
X99825000Y-53100000D01*
X99825000Y-55400000D01*
X100250500Y-55400000D01*
X100317539Y-55419685D01*
X100363294Y-55472489D01*
X100374500Y-55524000D01*
X100374500Y-56573500D01*
X100354815Y-56640539D01*
X100302011Y-56686294D01*
X100250500Y-56697500D01*
X98177582Y-56697500D01*
X98127820Y-56707398D01*
X98127815Y-56707399D01*
X98124473Y-56708064D01*
X98056738Y-56721537D01*
X98038704Y-56729007D01*
X98030598Y-56732364D01*
X98030592Y-56732366D01*
X97942908Y-56768685D01*
X97942904Y-56768687D01*
X97899612Y-56797616D01*
X97899610Y-56797617D01*
X97840458Y-56837140D01*
X97817719Y-56859880D01*
X97753332Y-56924267D01*
X97162181Y-57515418D01*
X97100858Y-57548903D01*
X97031166Y-57543919D01*
X96975233Y-57502047D01*
X96950816Y-57436583D01*
X96950500Y-57427737D01*
X96950500Y-54947844D01*
X98300000Y-54947844D01*
X98306401Y-55007372D01*
X98306403Y-55007379D01*
X98356645Y-55142086D01*
X98356649Y-55142093D01*
X98442809Y-55257187D01*
X98442812Y-55257190D01*
X98557906Y-55343350D01*
X98557913Y-55343354D01*
X98692620Y-55393596D01*
X98692627Y-55393598D01*
X98752155Y-55399999D01*
X98752172Y-55400000D01*
X99325000Y-55400000D01*
X99325000Y-54500000D01*
X98300000Y-54500000D01*
X98300000Y-54947844D01*
X96950500Y-54947844D01*
X96950500Y-53919598D01*
X96970185Y-53852559D01*
X96971398Y-53850707D01*
X97042925Y-53743659D01*
X97042925Y-53743658D01*
X97042929Y-53743653D01*
X97097619Y-53611620D01*
X97098941Y-53604976D01*
X97106832Y-53565307D01*
X97139218Y-53503397D01*
X97199934Y-53468823D01*
X97228449Y-53465500D01*
X98041608Y-53465500D01*
X98041608Y-53465499D01*
X98111704Y-53451557D01*
X98151812Y-53443579D01*
X98198014Y-53447714D01*
X98221399Y-53449807D01*
X98221403Y-53449808D01*
X98254120Y-53475225D01*
X98276577Y-53492669D01*
X98276577Y-53492670D01*
X98276579Y-53492672D01*
X98287083Y-53522450D01*
X98299822Y-53558559D01*
X98300000Y-53565197D01*
X98300000Y-54000000D01*
X99325000Y-54000000D01*
X99325000Y-53100000D01*
X98880137Y-53100000D01*
X98870992Y-53097314D01*
X98861547Y-53098599D01*
X98838007Y-53087629D01*
X98813098Y-53080315D01*
X98806857Y-53073113D01*
X98798216Y-53069086D01*
X98784344Y-53047131D01*
X98767343Y-53027511D01*
X98765986Y-53018077D01*
X98760895Y-53010019D01*
X98761094Y-52984054D01*
X98757399Y-52958353D01*
X98761373Y-52947821D01*
X98761432Y-52940151D01*
X98775551Y-52910250D01*
X98776340Y-52908160D01*
X98776679Y-52907640D01*
X98804312Y-52866286D01*
X98805357Y-52863762D01*
X98810000Y-52856659D01*
X98832579Y-52837396D01*
X98853368Y-52816220D01*
X98859170Y-52814710D01*
X98863154Y-52811312D01*
X98882171Y-52808726D01*
X98913793Y-52800499D01*
X100250500Y-52800499D01*
X100317539Y-52820184D01*
G37*
%TD.AperFunction*%
%TA.AperFunction,Conductor*%
G36*
X117128178Y-56279941D02*
G01*
X117174607Y-56309197D01*
X117654616Y-56789206D01*
X117688101Y-56850529D01*
X117683117Y-56920221D01*
X117641245Y-56976154D01*
X117575781Y-57000571D01*
X117523603Y-56993069D01*
X117457485Y-56968409D01*
X117457483Y-56968408D01*
X117397883Y-56962001D01*
X117397881Y-56962000D01*
X117397873Y-56962000D01*
X117397865Y-56962000D01*
X116863374Y-56962000D01*
X116796335Y-56942315D01*
X116750580Y-56889511D01*
X116740636Y-56820353D01*
X116769661Y-56756797D01*
X116775693Y-56750319D01*
X116813529Y-56712482D01*
X116813532Y-56712479D01*
X116892929Y-56593653D01*
X116947619Y-56461620D01*
X116965309Y-56372686D01*
X116997693Y-56310776D01*
X117058409Y-56276202D01*
X117128178Y-56279941D01*
G37*
%TD.AperFunction*%
%TA.AperFunction,Conductor*%
G36*
X127342834Y-53131768D02*
G01*
X127398767Y-53173640D01*
X127423184Y-53239104D01*
X127423500Y-53247950D01*
X127423500Y-53937258D01*
X127421118Y-53961447D01*
X127415491Y-53989739D01*
X127415489Y-53989746D01*
X127412500Y-54004769D01*
X127412500Y-54463500D01*
X127392815Y-54530539D01*
X127340011Y-54576294D01*
X127288500Y-54587500D01*
X126914089Y-54587500D01*
X126793255Y-54611535D01*
X126793245Y-54611538D01*
X126785566Y-54614719D01*
X126723177Y-54640561D01*
X126715001Y-54642187D01*
X126710661Y-54644977D01*
X126675726Y-54650000D01*
X126611803Y-54650000D01*
X126544764Y-54630315D01*
X126499009Y-54577511D01*
X126489065Y-54508353D01*
X126518090Y-54444797D01*
X126536316Y-54427624D01*
X126540339Y-54424536D01*
X126540341Y-54424536D01*
X126665782Y-54328282D01*
X126681090Y-54308332D01*
X126688625Y-54298513D01*
X126745053Y-54257310D01*
X126787000Y-54250000D01*
X126829510Y-54250000D01*
X126829511Y-54249998D01*
X126822058Y-54193377D01*
X126822054Y-54193365D01*
X126813663Y-54173106D01*
X126806194Y-54103637D01*
X126813664Y-54078199D01*
X126814108Y-54077128D01*
X126822544Y-54056762D01*
X126838000Y-53939361D01*
X126837999Y-53660640D01*
X126831258Y-53609436D01*
X126842023Y-53540402D01*
X126866513Y-53505574D01*
X127211820Y-53160268D01*
X127273142Y-53126784D01*
X127342834Y-53131768D01*
G37*
%TD.AperFunction*%
%TA.AperFunction,Conductor*%
G36*
X124194203Y-51416738D02*
G01*
X124200681Y-51422770D01*
X124333482Y-51555571D01*
X124366967Y-51616894D01*
X124368740Y-51659436D01*
X124362000Y-51710636D01*
X124362000Y-51989363D01*
X124377453Y-52106753D01*
X124377457Y-52106765D01*
X124386066Y-52127550D01*
X124393533Y-52197019D01*
X124386066Y-52222450D01*
X124377457Y-52243234D01*
X124377455Y-52243239D01*
X124362001Y-52360629D01*
X124362000Y-52360645D01*
X124362000Y-52457625D01*
X124357989Y-52471282D01*
X124358828Y-52485491D01*
X124348341Y-52504138D01*
X124342315Y-52524664D01*
X124330896Y-52535163D01*
X124324582Y-52546392D01*
X124303745Y-52560127D01*
X124296066Y-52567189D01*
X124290868Y-52569943D01*
X124228714Y-52595689D01*
X124176653Y-52630474D01*
X124171066Y-52633436D01*
X124142775Y-52639222D01*
X124115213Y-52647852D01*
X124108963Y-52646137D01*
X124102614Y-52647436D01*
X124075681Y-52637007D01*
X124047833Y-52629367D01*
X124043502Y-52624546D01*
X124037459Y-52622206D01*
X124020438Y-52598869D01*
X124001143Y-52577388D01*
X123999504Y-52570166D01*
X123996287Y-52565755D01*
X123995508Y-52552554D01*
X123989000Y-52523872D01*
X123989000Y-51510451D01*
X124008685Y-51443412D01*
X124061489Y-51397657D01*
X124130647Y-51387713D01*
X124194203Y-51416738D01*
G37*
%TD.AperFunction*%
%TA.AperFunction,Conductor*%
G36*
X120214855Y-47645185D02*
G01*
X120235497Y-47661819D01*
X120886497Y-48312819D01*
X120919982Y-48374142D01*
X120914998Y-48443834D01*
X120873126Y-48499767D01*
X120807662Y-48524184D01*
X120798816Y-48524500D01*
X120425830Y-48524500D01*
X120425812Y-48524501D01*
X120324747Y-48534825D01*
X120160984Y-48589092D01*
X120160981Y-48589093D01*
X120014148Y-48679661D01*
X119892161Y-48801648D01*
X119801593Y-48948481D01*
X119801591Y-48948486D01*
X119771431Y-49039504D01*
X119731658Y-49096949D01*
X119667142Y-49123772D01*
X119653725Y-49124500D01*
X119438393Y-49124500D01*
X119423188Y-49127524D01*
X119353597Y-49121295D01*
X119298420Y-49078430D01*
X119275178Y-49012540D01*
X119275000Y-49005906D01*
X119275000Y-48802172D01*
X119274999Y-48802155D01*
X119268598Y-48742627D01*
X119250479Y-48694048D01*
X119245495Y-48624356D01*
X119250476Y-48607391D01*
X119269091Y-48557483D01*
X119275500Y-48497873D01*
X119275499Y-47749499D01*
X119295183Y-47682461D01*
X119347987Y-47636706D01*
X119399499Y-47625500D01*
X120147816Y-47625500D01*
X120214855Y-47645185D01*
G37*
%TD.AperFunction*%
%TA.AperFunction,Conductor*%
G36*
X116693834Y-42468268D02*
G01*
X116749767Y-42510140D01*
X116774184Y-42575604D01*
X116774500Y-42584450D01*
X116774500Y-42997870D01*
X116774501Y-42997876D01*
X116780908Y-43057482D01*
X116792552Y-43088701D01*
X116794087Y-43092817D01*
X116799253Y-43106666D01*
X116804237Y-43176358D01*
X116799253Y-43193331D01*
X116780909Y-43242514D01*
X116780908Y-43242516D01*
X116776070Y-43287521D01*
X116774501Y-43302123D01*
X116774500Y-43302135D01*
X116774500Y-44097870D01*
X116774501Y-44097876D01*
X116780908Y-44157482D01*
X116793969Y-44192500D01*
X116799252Y-44206665D01*
X116799253Y-44206666D01*
X116804237Y-44276358D01*
X116799253Y-44293331D01*
X116780909Y-44342514D01*
X116780908Y-44342516D01*
X116774824Y-44399110D01*
X116774501Y-44402123D01*
X116774500Y-44402135D01*
X116774500Y-45197870D01*
X116774501Y-45197876D01*
X116780908Y-45257482D01*
X116792929Y-45289711D01*
X116798569Y-45304834D01*
X116799253Y-45306666D01*
X116804237Y-45376358D01*
X116799253Y-45393331D01*
X116780909Y-45442514D01*
X116780908Y-45442516D01*
X116774501Y-45502116D01*
X116774500Y-45502135D01*
X116774500Y-46297870D01*
X116774501Y-46297876D01*
X116780908Y-46357482D01*
X116799253Y-46406666D01*
X116804237Y-46476358D01*
X116799253Y-46493331D01*
X116780909Y-46542514D01*
X116780908Y-46542516D01*
X116774501Y-46602116D01*
X116774500Y-46602135D01*
X116774500Y-47354865D01*
X116754815Y-47421904D01*
X116702011Y-47467659D01*
X116632853Y-47477603D01*
X116603048Y-47469427D01*
X116574212Y-47457483D01*
X116508497Y-47430263D01*
X116508494Y-47430262D01*
X116508491Y-47430261D01*
X116353845Y-47399500D01*
X116353842Y-47399500D01*
X116196158Y-47399500D01*
X116196155Y-47399500D01*
X116041510Y-47430261D01*
X116041498Y-47430264D01*
X115895827Y-47490602D01*
X115895814Y-47490609D01*
X115764711Y-47578210D01*
X115764707Y-47578213D01*
X115653213Y-47689707D01*
X115628102Y-47727289D01*
X115604786Y-47746773D01*
X115583029Y-47767981D01*
X115578239Y-47768958D01*
X115574489Y-47772093D01*
X115544346Y-47775878D01*
X115514571Y-47781958D01*
X115510012Y-47780191D01*
X115505164Y-47780800D01*
X115477760Y-47767688D01*
X115449425Y-47756705D01*
X115445065Y-47752045D01*
X115442137Y-47750645D01*
X115424790Y-47731431D01*
X115423292Y-47729376D01*
X115396789Y-47689711D01*
X115387921Y-47680843D01*
X115382230Y-47673034D01*
X115373572Y-47648883D01*
X115361276Y-47626368D01*
X115361978Y-47616538D01*
X115358653Y-47607262D01*
X115364426Y-47582263D01*
X115366255Y-47556676D01*
X115372627Y-47546760D01*
X115374377Y-47539185D01*
X115382725Y-47531047D01*
X115392999Y-47515060D01*
X115392924Y-47514999D01*
X115393454Y-47514351D01*
X115394766Y-47512312D01*
X115396789Y-47510289D01*
X115484394Y-47379179D01*
X115544737Y-47233497D01*
X115575500Y-47078842D01*
X115575500Y-46921158D01*
X115575500Y-46921155D01*
X115575499Y-46921153D01*
X115550214Y-46794038D01*
X115544737Y-46766503D01*
X115499110Y-46656349D01*
X115484397Y-46620827D01*
X115484390Y-46620814D01*
X115396789Y-46489711D01*
X115394766Y-46487688D01*
X115394043Y-46486365D01*
X115392924Y-46485001D01*
X115393182Y-46484788D01*
X115361276Y-46426368D01*
X115366255Y-46356676D01*
X115392999Y-46315060D01*
X115392924Y-46314999D01*
X115393454Y-46314351D01*
X115394766Y-46312312D01*
X115396789Y-46310289D01*
X115484394Y-46179179D01*
X115544737Y-46033497D01*
X115575500Y-45878842D01*
X115575500Y-45721158D01*
X115575500Y-45721155D01*
X115575499Y-45721153D01*
X115568703Y-45686986D01*
X115544737Y-45566503D01*
X115544735Y-45566498D01*
X115484397Y-45420827D01*
X115484390Y-45420814D01*
X115396789Y-45289711D01*
X115394766Y-45287688D01*
X115394043Y-45286365D01*
X115392924Y-45285001D01*
X115393182Y-45284788D01*
X115361276Y-45226368D01*
X115366255Y-45156676D01*
X115392999Y-45115060D01*
X115392924Y-45114999D01*
X115393454Y-45114351D01*
X115394766Y-45112312D01*
X115396789Y-45110289D01*
X115484394Y-44979179D01*
X115544737Y-44833497D01*
X115575500Y-44678842D01*
X115575500Y-44521158D01*
X115575500Y-44521155D01*
X115575499Y-44521153D01*
X115557322Y-44429774D01*
X115544737Y-44366503D01*
X115534801Y-44342514D01*
X115484397Y-44220827D01*
X115484390Y-44220814D01*
X115396789Y-44089711D01*
X115394766Y-44087688D01*
X115394043Y-44086365D01*
X115392924Y-44085001D01*
X115393182Y-44084788D01*
X115361276Y-44026368D01*
X115366255Y-43956676D01*
X115392999Y-43915060D01*
X115392924Y-43914999D01*
X115393454Y-43914351D01*
X115394766Y-43912312D01*
X115396789Y-43910289D01*
X115484394Y-43779179D01*
X115486029Y-43775233D01*
X115492674Y-43759190D01*
X115544737Y-43633497D01*
X115566858Y-43522282D01*
X115599240Y-43460375D01*
X115600735Y-43458853D01*
X116562821Y-42496767D01*
X116624142Y-42463284D01*
X116693834Y-42468268D01*
G37*
%TD.AperFunction*%
%TA.AperFunction,Conductor*%
G36*
X111084425Y-42539918D02*
G01*
X111099312Y-42549485D01*
X111157910Y-42593352D01*
X111157913Y-42593354D01*
X111236946Y-42622831D01*
X111264774Y-42616778D01*
X111334466Y-42621762D01*
X111378815Y-42650263D01*
X111775000Y-43046446D01*
X111775001Y-43046446D01*
X112168152Y-42653295D01*
X112229475Y-42619810D01*
X112299167Y-42624794D01*
X112335064Y-42647864D01*
X112340219Y-42650000D01*
X112709781Y-42650000D01*
X112721127Y-42645299D01*
X112767805Y-42619810D01*
X112837496Y-42624792D01*
X112881848Y-42653294D01*
X113274999Y-43046445D01*
X113668151Y-42653294D01*
X113729474Y-42619809D01*
X113799165Y-42624793D01*
X113835065Y-42647865D01*
X113840219Y-42650000D01*
X114093559Y-42650000D01*
X114106796Y-42653886D01*
X114120562Y-42652976D01*
X114139660Y-42663537D01*
X114160598Y-42669685D01*
X114169631Y-42680110D01*
X114181706Y-42686787D01*
X114192063Y-42705998D01*
X114206353Y-42722489D01*
X114208316Y-42736143D01*
X114214864Y-42748288D01*
X114213191Y-42770046D01*
X114216297Y-42791647D01*
X114210454Y-42805647D01*
X114209508Y-42817952D01*
X114197687Y-42836237D01*
X114192429Y-42848838D01*
X114187274Y-42855647D01*
X114153211Y-42889711D01*
X114090883Y-42982991D01*
X114088676Y-42985907D01*
X114063415Y-43004607D01*
X114039296Y-43024765D01*
X114035552Y-43025235D01*
X114032520Y-43027480D01*
X114001155Y-43029555D01*
X113998685Y-43029865D01*
X113628553Y-43399999D01*
X113628553Y-43400001D01*
X113995455Y-43766903D01*
X114002583Y-43765589D01*
X114018292Y-43772025D01*
X114035203Y-43773538D01*
X114049954Y-43784997D01*
X114067237Y-43792078D01*
X114087543Y-43814196D01*
X114090381Y-43816401D01*
X114091386Y-43817816D01*
X114092186Y-43818959D01*
X114153211Y-43910289D01*
X114162914Y-43919992D01*
X114169141Y-43928887D01*
X114176974Y-43952122D01*
X114188725Y-43973642D01*
X114187938Y-43984643D01*
X114191462Y-43995096D01*
X114185490Y-44018875D01*
X114183741Y-44043334D01*
X114176530Y-44054553D01*
X114174444Y-44062861D01*
X114166250Y-44070548D01*
X114157001Y-44084939D01*
X114157076Y-44085001D01*
X114156552Y-44085639D01*
X114155240Y-44087681D01*
X114153213Y-44089707D01*
X114128102Y-44127289D01*
X114074489Y-44172093D01*
X114005164Y-44180800D01*
X113942137Y-44150645D01*
X113921898Y-44127289D01*
X113908643Y-44107452D01*
X113896789Y-44089711D01*
X113896788Y-44089710D01*
X113896786Y-44089707D01*
X113785292Y-43978213D01*
X113785288Y-43978210D01*
X113654185Y-43890609D01*
X113654172Y-43890602D01*
X113508501Y-43830264D01*
X113508491Y-43830261D01*
X113361649Y-43801052D01*
X113361644Y-43801052D01*
X113353842Y-43799500D01*
X113196158Y-43799500D01*
X113188356Y-43801052D01*
X113188350Y-43801052D01*
X113041508Y-43830261D01*
X113041498Y-43830264D01*
X112895827Y-43890602D01*
X112895814Y-43890609D01*
X112764711Y-43978210D01*
X112764707Y-43978213D01*
X112653213Y-44089707D01*
X112628102Y-44127289D01*
X112602104Y-44149014D01*
X112576512Y-44171191D01*
X112575372Y-44171354D01*
X112574489Y-44172093D01*
X112540892Y-44176312D01*
X112507354Y-44181135D01*
X112506306Y-44180656D01*
X112505164Y-44180800D01*
X112474599Y-44166176D01*
X112443798Y-44152110D01*
X112442774Y-44150950D01*
X112442137Y-44150645D01*
X112441276Y-44149252D01*
X112421898Y-44127289D01*
X112408643Y-44107452D01*
X112396789Y-44089711D01*
X112396788Y-44089710D01*
X112396786Y-44089707D01*
X112285292Y-43978213D01*
X112285288Y-43978210D01*
X112154185Y-43890609D01*
X112154172Y-43890602D01*
X112008501Y-43830264D01*
X112008491Y-43830261D01*
X111861649Y-43801052D01*
X111861644Y-43801052D01*
X111853842Y-43799500D01*
X111696158Y-43799500D01*
X111688356Y-43801052D01*
X111688350Y-43801052D01*
X111541508Y-43830261D01*
X111541498Y-43830264D01*
X111395827Y-43890602D01*
X111395814Y-43890609D01*
X111264711Y-43978210D01*
X111264707Y-43978213D01*
X111153213Y-44089707D01*
X111128102Y-44127289D01*
X111102104Y-44149014D01*
X111076512Y-44171191D01*
X111075372Y-44171354D01*
X111074489Y-44172093D01*
X111040892Y-44176312D01*
X111007354Y-44181135D01*
X111006306Y-44180656D01*
X111005164Y-44180800D01*
X110974599Y-44166176D01*
X110943798Y-44152110D01*
X110942774Y-44150950D01*
X110942137Y-44150645D01*
X110941276Y-44149252D01*
X110921898Y-44127289D01*
X110908643Y-44107452D01*
X110896789Y-44089711D01*
X110896788Y-44089710D01*
X110896786Y-44089707D01*
X110785292Y-43978213D01*
X110785288Y-43978210D01*
X110654185Y-43890609D01*
X110654172Y-43890602D01*
X110508501Y-43830264D01*
X110508491Y-43830261D01*
X110361649Y-43801052D01*
X110361644Y-43801052D01*
X110353842Y-43799500D01*
X110196158Y-43799500D01*
X110188356Y-43801052D01*
X110188350Y-43801052D01*
X110041508Y-43830261D01*
X110041498Y-43830264D01*
X109895827Y-43890602D01*
X109895814Y-43890609D01*
X109764711Y-43978210D01*
X109764707Y-43978213D01*
X109653213Y-44089707D01*
X109628102Y-44127289D01*
X109602104Y-44149014D01*
X109576512Y-44171191D01*
X109575372Y-44171354D01*
X109574489Y-44172093D01*
X109540892Y-44176312D01*
X109507354Y-44181135D01*
X109506306Y-44180656D01*
X109505164Y-44180800D01*
X109474599Y-44166176D01*
X109443798Y-44152110D01*
X109442774Y-44150950D01*
X109442137Y-44150645D01*
X109441276Y-44149252D01*
X109421898Y-44127289D01*
X109408643Y-44107452D01*
X109396789Y-44089711D01*
X109396788Y-44089710D01*
X109396786Y-44089707D01*
X109285292Y-43978213D01*
X109285288Y-43978210D01*
X109154185Y-43890609D01*
X109154172Y-43890602D01*
X109008501Y-43830264D01*
X109008491Y-43830261D01*
X108861649Y-43801052D01*
X108861644Y-43801052D01*
X108853842Y-43799500D01*
X108696158Y-43799500D01*
X108688356Y-43801052D01*
X108688350Y-43801052D01*
X108541508Y-43830261D01*
X108541498Y-43830264D01*
X108395827Y-43890602D01*
X108395814Y-43890609D01*
X108264711Y-43978210D01*
X108264707Y-43978213D01*
X108153213Y-44089707D01*
X108128102Y-44127289D01*
X108104786Y-44146773D01*
X108083029Y-44167981D01*
X108078239Y-44168958D01*
X108074489Y-44172093D01*
X108044346Y-44175878D01*
X108014571Y-44181958D01*
X108010012Y-44180191D01*
X108005164Y-44180800D01*
X107977760Y-44167688D01*
X107949425Y-44156705D01*
X107945065Y-44152045D01*
X107942137Y-44150645D01*
X107924790Y-44131431D01*
X107923292Y-44129376D01*
X107896789Y-44089711D01*
X107887921Y-44080843D01*
X107882230Y-44073034D01*
X107873572Y-44048883D01*
X107861276Y-44026368D01*
X107861978Y-44016538D01*
X107858653Y-44007262D01*
X107864426Y-43982263D01*
X107866255Y-43956676D01*
X107872627Y-43946760D01*
X107874377Y-43939185D01*
X107882725Y-43931047D01*
X107892999Y-43915060D01*
X107892924Y-43914999D01*
X107893454Y-43914351D01*
X107894766Y-43912312D01*
X107896789Y-43910289D01*
X107957093Y-43820038D01*
X108010705Y-43775233D01*
X108051314Y-43770132D01*
X108421446Y-43400001D01*
X108421446Y-43399999D01*
X109128553Y-43399999D01*
X109128553Y-43400000D01*
X109490845Y-43762292D01*
X109500808Y-43760311D01*
X109534849Y-43760311D01*
X109542645Y-43759190D01*
X109545100Y-43760311D01*
X109549191Y-43760311D01*
X109559154Y-43762292D01*
X109921446Y-43400001D01*
X109921446Y-43399999D01*
X110628553Y-43399999D01*
X110628553Y-43400000D01*
X110990845Y-43762292D01*
X111000808Y-43760311D01*
X111034849Y-43760311D01*
X111042645Y-43759190D01*
X111045100Y-43760311D01*
X111049191Y-43760311D01*
X111059154Y-43762292D01*
X111421446Y-43400001D01*
X111421446Y-43399999D01*
X112128553Y-43399999D01*
X112128553Y-43400000D01*
X112490845Y-43762292D01*
X112500808Y-43760311D01*
X112534849Y-43760311D01*
X112542645Y-43759190D01*
X112545100Y-43760311D01*
X112549191Y-43760311D01*
X112559154Y-43762292D01*
X112921446Y-43400001D01*
X112921446Y-43399999D01*
X112559153Y-43037705D01*
X112549190Y-43039687D01*
X112500809Y-43039688D01*
X112490845Y-43037706D01*
X112128553Y-43399999D01*
X111421446Y-43399999D01*
X111059153Y-43037705D01*
X111049190Y-43039687D01*
X111000809Y-43039688D01*
X110990845Y-43037706D01*
X110628553Y-43399999D01*
X109921446Y-43399999D01*
X109559153Y-43037705D01*
X109549190Y-43039687D01*
X109500809Y-43039688D01*
X109490845Y-43037706D01*
X109128553Y-43399999D01*
X108421446Y-43399999D01*
X108055472Y-43034024D01*
X108052007Y-43034798D01*
X108033950Y-43028172D01*
X108014792Y-43026458D01*
X108001216Y-43016162D01*
X107986414Y-43010731D01*
X107966498Y-42989831D01*
X107961324Y-42985907D01*
X107959116Y-42982991D01*
X107896789Y-42889711D01*
X107862725Y-42855647D01*
X107857571Y-42848838D01*
X107848091Y-42823828D01*
X107835275Y-42800358D01*
X107835897Y-42791659D01*
X107832806Y-42783505D01*
X107838351Y-42757344D01*
X107840259Y-42730666D01*
X107845485Y-42723683D01*
X107847294Y-42715154D01*
X107866103Y-42696143D01*
X107882131Y-42674733D01*
X107890301Y-42671685D01*
X107896435Y-42665486D01*
X107922537Y-42659662D01*
X107947595Y-42650316D01*
X107956441Y-42650000D01*
X108209781Y-42650000D01*
X108221127Y-42645299D01*
X108267805Y-42619810D01*
X108337496Y-42624792D01*
X108381848Y-42653294D01*
X108774999Y-43046445D01*
X109168151Y-42653294D01*
X109229474Y-42619809D01*
X109299165Y-42624793D01*
X109335065Y-42647865D01*
X109340219Y-42650000D01*
X109709781Y-42650000D01*
X109721130Y-42645298D01*
X109767804Y-42619811D01*
X109837495Y-42624793D01*
X109881847Y-42653295D01*
X110275000Y-43046446D01*
X110275001Y-43046446D01*
X110671183Y-42650263D01*
X110732506Y-42616778D01*
X110785224Y-42616778D01*
X110813052Y-42622832D01*
X110892086Y-42593354D01*
X110892089Y-42593352D01*
X110950688Y-42549485D01*
X111016152Y-42525067D01*
X111084425Y-42539918D01*
G37*
%TD.AperFunction*%
%TA.AperFunction,Conductor*%
G36*
X132691799Y-40433290D02*
G01*
X132737927Y-40485768D01*
X132749500Y-40538077D01*
X132749500Y-40957381D01*
X132729815Y-41024420D01*
X132677011Y-41070175D01*
X132607853Y-41080119D01*
X132544297Y-41051094D01*
X132509318Y-41000714D01*
X132493354Y-40957913D01*
X132493350Y-40957906D01*
X132407190Y-40842812D01*
X132407187Y-40842809D01*
X132292093Y-40756649D01*
X132292086Y-40756645D01*
X132157379Y-40706403D01*
X132157372Y-40706401D01*
X132097844Y-40700000D01*
X131525000Y-40700000D01*
X131525000Y-41726000D01*
X131505315Y-41793039D01*
X131452511Y-41838794D01*
X131401000Y-41850000D01*
X131149000Y-41850000D01*
X131081961Y-41830315D01*
X131036206Y-41777511D01*
X131025000Y-41726000D01*
X131025000Y-40700000D01*
X130452155Y-40700000D01*
X130392627Y-40706401D01*
X130392620Y-40706403D01*
X130257913Y-40756645D01*
X130257906Y-40756649D01*
X130142812Y-40842809D01*
X130142809Y-40842812D01*
X130056649Y-40957906D01*
X130056645Y-40957913D01*
X130006403Y-41092620D01*
X130006401Y-41092627D01*
X130000000Y-41152155D01*
X130000000Y-41536816D01*
X129980315Y-41603855D01*
X129927511Y-41649610D01*
X129858353Y-41659554D01*
X129794797Y-41630529D01*
X129788319Y-41624497D01*
X128815928Y-40652106D01*
X128782443Y-40590783D01*
X128787427Y-40521091D01*
X128829299Y-40465158D01*
X128894763Y-40440741D01*
X128902685Y-40440429D01*
X132624623Y-40414080D01*
X132691799Y-40433290D01*
G37*
%TD.AperFunction*%
%TA.AperFunction,Conductor*%
G36*
X118686983Y-40514908D02*
G01*
X118694527Y-40513596D01*
X118720108Y-40524380D01*
X118746799Y-40532013D01*
X118751853Y-40537763D01*
X118758909Y-40540738D01*
X118774597Y-40563638D01*
X118792927Y-40584491D01*
X118794855Y-40593208D01*
X118798397Y-40598378D01*
X118804446Y-40633150D01*
X118804500Y-40634983D01*
X118804500Y-40721455D01*
X118807488Y-40736479D01*
X118807794Y-40746850D01*
X118790091Y-40814440D01*
X118738657Y-40861729D01*
X118683848Y-40874500D01*
X116736607Y-40874500D01*
X116613393Y-40874500D01*
X116593404Y-40878476D01*
X116573414Y-40882452D01*
X116573413Y-40882451D01*
X116492555Y-40898535D01*
X116492548Y-40898537D01*
X116469992Y-40907880D01*
X116378716Y-40945687D01*
X116378710Y-40945690D01*
X116366289Y-40953989D01*
X116366275Y-40953999D01*
X116360785Y-40957669D01*
X116276267Y-41014142D01*
X116189142Y-41101267D01*
X116189139Y-41101270D01*
X116185213Y-41105195D01*
X116185207Y-41105201D01*
X115676728Y-41613681D01*
X115615405Y-41647166D01*
X115589047Y-41650000D01*
X107774000Y-41650000D01*
X107706961Y-41630315D01*
X107661206Y-41577511D01*
X107650000Y-41526000D01*
X107650000Y-41274000D01*
X107669685Y-41206961D01*
X107722489Y-41161206D01*
X107774000Y-41150000D01*
X115650000Y-41150000D01*
X115650000Y-40657377D01*
X115669685Y-40590338D01*
X115722489Y-40544583D01*
X115773120Y-40533380D01*
X118679624Y-40512803D01*
X118686983Y-40514908D01*
G37*
%TD.AperFunction*%
%TD*%
M02*
