%TF.GenerationSoftware,KiCad,Pcbnew,9.0.7*%
%TF.CreationDate,2026-05-11T11:53:41+08:00*%
%TF.ProjectId,OpenGUT,4f70656e-4755-4542-9e6b-696361645f70,rev?*%
%TF.SameCoordinates,Original*%
%TF.FileFunction,Soldermask,Bot*%
%TF.FilePolarity,Negative*%
%FSLAX46Y46*%
G04 Gerber Fmt 4.6, Leading zero omitted, Abs format (unit mm)*
G04 Created by KiCad (PCBNEW 9.0.7) date 2026-05-11 11:53:41*
%MOMM*%
%LPD*%
G01*
G04 APERTURE LIST*
G04 Aperture macros list*
%AMRoundRect*
0 Rectangle with rounded corners*
0 $1 Rounding radius*
0 $2 $3 $4 $5 $6 $7 $8 $9 X,Y pos of 4 corners*
0 Add a 4 corners polygon primitive as box body*
4,1,4,$2,$3,$4,$5,$6,$7,$8,$9,$2,$3,0*
0 Add four circle primitives for the rounded corners*
1,1,$1+$1,$2,$3*
1,1,$1+$1,$4,$5*
1,1,$1+$1,$6,$7*
1,1,$1+$1,$8,$9*
0 Add four rect primitives between the rounded corners*
20,1,$1+$1,$2,$3,$4,$5,0*
20,1,$1+$1,$4,$5,$6,$7,0*
20,1,$1+$1,$6,$7,$8,$9,0*
20,1,$1+$1,$8,$9,$2,$3,0*%
%AMFreePoly0*
4,1,64,0.031751,0.146088,0.079639,0.146088,0.235856,0.115014,0.383010,0.054061,0.515445,-0.034429,0.628071,-0.147055,0.716561,-0.279490,0.777514,-0.426644,0.808588,-0.582861,0.808588,-0.742139,0.777514,-0.898356,0.716561,-1.045510,0.628071,-1.177945,0.515445,-1.290571,0.383010,-1.379061,0.235856,-1.440014,0.079639,-1.471088,-0.079639,-1.471088,-0.235856,-1.440014,-0.383010,-1.379061,
-0.515445,-1.290571,-0.628071,-1.177945,-0.716561,-1.045510,-0.777514,-0.898356,-0.808588,-0.742139,-0.808588,-0.595028,-0.512500,-0.595028,-0.512500,-0.729972,-0.477574,-0.860317,-0.410102,-0.977182,-0.314682,-1.072602,-0.197817,-1.140074,-0.067472,-1.175000,0.067472,-1.175000,0.197817,-1.140074,0.314682,-1.072602,0.410102,-0.977182,0.477574,-0.860317,0.512500,-0.729972,0.512500,-0.595028,
0.477574,-0.464683,0.410102,-0.347818,0.314682,-0.252398,0.197817,-0.184926,0.067472,-0.150000,-0.067472,-0.150000,-0.197817,-0.184926,-0.314682,-0.252398,-0.410102,-0.347818,-0.477574,-0.464683,-0.512500,-0.595028,-0.808588,-0.595028,-0.808588,-0.582861,-0.777514,-0.426644,-0.716561,-0.279490,-0.628071,-0.147055,-0.515445,-0.034429,-0.383010,0.054061,-0.235856,0.115014,-0.079639,0.146088,
-0.031751,0.146088,-0.029264,0.147118,0.029264,0.147118,0.031751,0.146088,0.031751,0.146088,$1*%
G04 Aperture macros list end*
%ADD10C,0.010000*%
%ADD11C,2.200000*%
%ADD12C,1.700000*%
%ADD13C,0.500000*%
%ADD14C,1.000000*%
%ADD15RoundRect,0.237500X0.250000X0.237500X-0.250000X0.237500X-0.250000X-0.237500X0.250000X-0.237500X0*%
%ADD16RoundRect,0.237500X0.300000X0.237500X-0.300000X0.237500X-0.300000X-0.237500X0.300000X-0.237500X0*%
%ADD17RoundRect,0.237500X-0.250000X-0.237500X0.250000X-0.237500X0.250000X0.237500X-0.250000X0.237500X0*%
%ADD18RoundRect,0.050000X-0.406400X-0.152400X0.406400X-0.152400X0.406400X0.152400X-0.406400X0.152400X0*%
%ADD19RoundRect,0.050000X-0.901700X-1.701800X0.901700X-1.701800X0.901700X1.701800X-0.901700X1.701800X0*%
%ADD20RoundRect,0.237500X0.237500X-0.300000X0.237500X0.300000X-0.237500X0.300000X-0.237500X-0.300000X0*%
%ADD21R,0.725000X0.522000*%
%ADD22FreePoly0,0.000000*%
%ADD23RoundRect,0.237500X-0.300000X-0.237500X0.300000X-0.237500X0.300000X0.237500X-0.300000X0.237500X0*%
%ADD24RoundRect,0.102000X-0.654000X0.654000X-0.654000X-0.654000X0.654000X-0.654000X0.654000X0.654000X0*%
%ADD25C,1.512000*%
G04 APERTURE END LIST*
D10*
%TO.C,U2*%
X90725000Y-52875000D02*
X90150000Y-52875000D01*
X90150000Y-52525000D01*
X90725000Y-52525000D01*
X90725000Y-52875000D01*
G36*
X90725000Y-52875000D02*
G01*
X90150000Y-52875000D01*
X90150000Y-52525000D01*
X90725000Y-52525000D01*
X90725000Y-52875000D01*
G37*
X90725000Y-53375000D02*
X90150000Y-53375000D01*
X90150000Y-53025000D01*
X90725000Y-53025000D01*
X90725000Y-53375000D01*
G36*
X90725000Y-53375000D02*
G01*
X90150000Y-53375000D01*
X90150000Y-53025000D01*
X90725000Y-53025000D01*
X90725000Y-53375000D01*
G37*
X90725000Y-53875000D02*
X90150000Y-53875000D01*
X90150000Y-53525000D01*
X90725000Y-53525000D01*
X90725000Y-53875000D01*
G36*
X90725000Y-53875000D02*
G01*
X90150000Y-53875000D01*
X90150000Y-53525000D01*
X90725000Y-53525000D01*
X90725000Y-53875000D01*
G37*
X90725000Y-54375000D02*
X90150000Y-54375000D01*
X90150000Y-54025000D01*
X90725000Y-54025000D01*
X90725000Y-54375000D01*
G36*
X90725000Y-54375000D02*
G01*
X90150000Y-54375000D01*
X90150000Y-54025000D01*
X90725000Y-54025000D01*
X90725000Y-54375000D01*
G37*
X91275000Y-52825000D02*
X90925000Y-52825000D01*
X90925000Y-52250000D01*
X91275000Y-52250000D01*
X91275000Y-52825000D01*
G36*
X91275000Y-52825000D02*
G01*
X90925000Y-52825000D01*
X90925000Y-52250000D01*
X91275000Y-52250000D01*
X91275000Y-52825000D01*
G37*
X91275000Y-53375000D02*
X90925000Y-53375000D01*
X90925000Y-53025000D01*
X91275000Y-53025000D01*
X91275000Y-53375000D01*
G36*
X91275000Y-53375000D02*
G01*
X90925000Y-53375000D01*
X90925000Y-53025000D01*
X91275000Y-53025000D01*
X91275000Y-53375000D01*
G37*
X91275000Y-53875000D02*
X90925000Y-53875000D01*
X90925000Y-53525000D01*
X91275000Y-53525000D01*
X91275000Y-53875000D01*
G36*
X91275000Y-53875000D02*
G01*
X90925000Y-53875000D01*
X90925000Y-53525000D01*
X91275000Y-53525000D01*
X91275000Y-53875000D01*
G37*
X91275000Y-54650000D02*
X90925000Y-54650000D01*
X90925000Y-54075000D01*
X91275000Y-54075000D01*
X91275000Y-54650000D01*
G36*
X91275000Y-54650000D02*
G01*
X90925000Y-54650000D01*
X90925000Y-54075000D01*
X91275000Y-54075000D01*
X91275000Y-54650000D01*
G37*
X91775000Y-52825000D02*
X91425000Y-52825000D01*
X91425000Y-52250000D01*
X91775000Y-52250000D01*
X91775000Y-52825000D01*
G36*
X91775000Y-52825000D02*
G01*
X91425000Y-52825000D01*
X91425000Y-52250000D01*
X91775000Y-52250000D01*
X91775000Y-52825000D01*
G37*
X91775000Y-53375000D02*
X91425000Y-53375000D01*
X91425000Y-53025000D01*
X91775000Y-53025000D01*
X91775000Y-53375000D01*
G36*
X91775000Y-53375000D02*
G01*
X91425000Y-53375000D01*
X91425000Y-53025000D01*
X91775000Y-53025000D01*
X91775000Y-53375000D01*
G37*
X91775000Y-53875000D02*
X91425000Y-53875000D01*
X91425000Y-53525000D01*
X91775000Y-53525000D01*
X91775000Y-53875000D01*
G36*
X91775000Y-53875000D02*
G01*
X91425000Y-53875000D01*
X91425000Y-53525000D01*
X91775000Y-53525000D01*
X91775000Y-53875000D01*
G37*
X91775000Y-54650000D02*
X91425000Y-54650000D01*
X91425000Y-54075000D01*
X91775000Y-54075000D01*
X91775000Y-54650000D01*
G36*
X91775000Y-54650000D02*
G01*
X91425000Y-54650000D01*
X91425000Y-54075000D01*
X91775000Y-54075000D01*
X91775000Y-54650000D01*
G37*
X92275000Y-52825000D02*
X91925000Y-52825000D01*
X91925000Y-52250000D01*
X92275000Y-52250000D01*
X92275000Y-52825000D01*
G36*
X92275000Y-52825000D02*
G01*
X91925000Y-52825000D01*
X91925000Y-52250000D01*
X92275000Y-52250000D01*
X92275000Y-52825000D01*
G37*
X92275000Y-53375000D02*
X91925000Y-53375000D01*
X91925000Y-53025000D01*
X92275000Y-53025000D01*
X92275000Y-53375000D01*
G36*
X92275000Y-53375000D02*
G01*
X91925000Y-53375000D01*
X91925000Y-53025000D01*
X92275000Y-53025000D01*
X92275000Y-53375000D01*
G37*
X92275000Y-53875000D02*
X91925000Y-53875000D01*
X91925000Y-53525000D01*
X92275000Y-53525000D01*
X92275000Y-53875000D01*
G36*
X92275000Y-53875000D02*
G01*
X91925000Y-53875000D01*
X91925000Y-53525000D01*
X92275000Y-53525000D01*
X92275000Y-53875000D01*
G37*
X92275000Y-54650000D02*
X91925000Y-54650000D01*
X91925000Y-54075000D01*
X92275000Y-54075000D01*
X92275000Y-54650000D01*
G36*
X92275000Y-54650000D02*
G01*
X91925000Y-54650000D01*
X91925000Y-54075000D01*
X92275000Y-54075000D01*
X92275000Y-54650000D01*
G37*
X93050000Y-52875000D02*
X92475000Y-52875000D01*
X92475000Y-52525000D01*
X93050000Y-52525000D01*
X93050000Y-52875000D01*
G36*
X93050000Y-52875000D02*
G01*
X92475000Y-52875000D01*
X92475000Y-52525000D01*
X93050000Y-52525000D01*
X93050000Y-52875000D01*
G37*
X93050000Y-53375000D02*
X92475000Y-53375000D01*
X92475000Y-53025000D01*
X93050000Y-53025000D01*
X93050000Y-53375000D01*
G36*
X93050000Y-53375000D02*
G01*
X92475000Y-53375000D01*
X92475000Y-53025000D01*
X93050000Y-53025000D01*
X93050000Y-53375000D01*
G37*
X93050000Y-53875000D02*
X92475000Y-53875000D01*
X92475000Y-53525000D01*
X93050000Y-53525000D01*
X93050000Y-53875000D01*
G36*
X93050000Y-53875000D02*
G01*
X92475000Y-53875000D01*
X92475000Y-53525000D01*
X93050000Y-53525000D01*
X93050000Y-53875000D01*
G37*
X93050000Y-54375000D02*
X92475000Y-54375000D01*
X92475000Y-54025000D01*
X93050000Y-54025000D01*
X93050000Y-54375000D01*
G36*
X93050000Y-54375000D02*
G01*
X92475000Y-54375000D01*
X92475000Y-54025000D01*
X93050000Y-54025000D01*
X93050000Y-54375000D01*
G37*
%TD*%
D11*
%TO.C,REF\u002A\u002A*%
X91400000Y-33400000D03*
%TD*%
D12*
%TO.C,J1*%
X116700000Y-71062500D03*
X116700000Y-64062500D03*
%TD*%
D11*
%TO.C,REF\u002A\u002A*%
X91800000Y-67200000D03*
%TD*%
D13*
%TO.C,MK1*%
X111537500Y-53134000D03*
%TD*%
D11*
%TO.C,REF\u002A\u002A*%
X128800000Y-65700000D03*
%TD*%
%TO.C,REF\u002A\u002A*%
X129800000Y-32900000D03*
%TD*%
D14*
%TO.C,SW1*%
X125000000Y-73100000D03*
X131800000Y-73100000D03*
%TD*%
D15*
%TO.C,R2*%
X126500000Y-42000000D03*
X124675000Y-42000000D03*
%TD*%
D16*
%TO.C,C24*%
X124762500Y-60000000D03*
X123037500Y-60000000D03*
%TD*%
D17*
%TO.C,R10*%
X98200000Y-50337500D03*
X100025000Y-50337500D03*
%TD*%
D16*
%TO.C,C18*%
X99975000Y-53437500D03*
X98250000Y-53437500D03*
%TD*%
D15*
%TO.C,R7*%
X122662500Y-42000000D03*
X120837500Y-42000000D03*
%TD*%
D18*
%TO.C,U4*%
X102397800Y-69125000D03*
X102397800Y-68600000D03*
X102397800Y-68100000D03*
X102397800Y-67575000D03*
X102397800Y-67050000D03*
X102397800Y-66525000D03*
X105497800Y-66525000D03*
X105497800Y-67050000D03*
X105497800Y-67575000D03*
X105522800Y-68100000D03*
X105522800Y-68600000D03*
X105522800Y-69125000D03*
D19*
X103947800Y-67750000D03*
%TD*%
D16*
%TO.C,C4*%
X130225000Y-42000000D03*
X128500000Y-42000000D03*
%TD*%
%TO.C,C12*%
X126862500Y-54700000D03*
X125137500Y-54700000D03*
%TD*%
D20*
%TO.C,C26*%
X107110000Y-69102500D03*
X107110000Y-67377500D03*
%TD*%
D17*
%TO.C,R8*%
X94575000Y-50300000D03*
X96400000Y-50300000D03*
%TD*%
D16*
%TO.C,C9*%
X126962500Y-51700000D03*
X125237500Y-51700000D03*
%TD*%
%TO.C,C6*%
X130225000Y-44800000D03*
X128500000Y-44800000D03*
%TD*%
%TO.C,C11*%
X130400000Y-54700000D03*
X128675000Y-54700000D03*
%TD*%
%TO.C,C3*%
X122750000Y-43750000D03*
X121025000Y-43750000D03*
%TD*%
%TO.C,C16*%
X103400000Y-72500000D03*
X101675000Y-72500000D03*
%TD*%
D13*
%TO.C,MK2*%
X103537500Y-53148000D03*
D21*
X102700000Y-55222000D03*
X102700000Y-54400000D03*
D22*
X103537500Y-52485500D03*
D21*
X104375000Y-54400000D03*
X104375000Y-55222000D03*
%TD*%
D15*
%TO.C,R9*%
X107112500Y-72500000D03*
X105287500Y-72500000D03*
%TD*%
D16*
%TO.C,C27*%
X100914700Y-68550000D03*
X99189700Y-68550000D03*
%TD*%
%TO.C,C8*%
X130462500Y-51700000D03*
X128737500Y-51700000D03*
%TD*%
D23*
%TO.C,C19*%
X94900000Y-56400000D03*
X96625000Y-56400000D03*
%TD*%
D20*
%TO.C,C23*%
X131000000Y-58862500D03*
X131000000Y-57137500D03*
%TD*%
D23*
%TO.C,C17*%
X94675000Y-53400000D03*
X96400000Y-53400000D03*
%TD*%
D18*
%TO.C,U3*%
X126350000Y-59775000D03*
X126350000Y-59250000D03*
X126350000Y-58750000D03*
X126350000Y-58225000D03*
X126350000Y-57700000D03*
X126350000Y-57175000D03*
X129450000Y-57175000D03*
X129450000Y-57700000D03*
X129450000Y-58225000D03*
X129475000Y-58750000D03*
X129475000Y-59250000D03*
X129475000Y-59775000D03*
D19*
X127900000Y-58400000D03*
%TD*%
D23*
%TO.C,C21*%
X116337500Y-48300000D03*
X118062500Y-48300000D03*
%TD*%
%TO.C,C20*%
X98437500Y-56400000D03*
X100162500Y-56400000D03*
%TD*%
D15*
%TO.C,R4*%
X126512500Y-44800000D03*
X124687500Y-44800000D03*
%TD*%
D24*
%TO.C,J5*%
X93150000Y-42700000D03*
D25*
X93150000Y-44700000D03*
%TD*%
D16*
%TO.C,C7*%
X122662500Y-46700000D03*
X120937500Y-46700000D03*
%TD*%
%TO.C,C25*%
X100914700Y-66950000D03*
X99189700Y-66950000D03*
%TD*%
%TO.C,C2*%
X130262500Y-47800000D03*
X128537500Y-47800000D03*
%TD*%
%TO.C,C22*%
X124862500Y-57100000D03*
X123137500Y-57100000D03*
%TD*%
%TO.C,C5*%
X126362500Y-47750000D03*
X124637500Y-47750000D03*
%TD*%
D23*
%TO.C,C15*%
X102637500Y-56800000D03*
X104362500Y-56800000D03*
%TD*%
M02*
