%TF.GenerationSoftware,KiCad,Pcbnew,9.0.7*%
%TF.CreationDate,2026-05-11T11:53:41+08:00*%
%TF.ProjectId,OpenGUT,4f70656e-4755-4542-9e6b-696361645f70,rev?*%
%TF.SameCoordinates,Original*%
%TF.FileFunction,Paste,Top*%
%TF.FilePolarity,Positive*%
%FSLAX46Y46*%
G04 Gerber Fmt 4.6, Leading zero omitted, Abs format (unit mm)*
G04 Created by KiCad (PCBNEW 9.0.7) date 2026-05-11 11:53:41*
%MOMM*%
%LPD*%
G01*
G04 APERTURE LIST*
G04 Aperture macros list*
%AMRoundRect*
0 Rectangle with rounded corners*
0 $1 Rounding radius*
0 $2 $3 $4 $5 $6 $7 $8 $9 X,Y pos of 4 corners*
0 Add a 4 corners polygon primitive as box body*
4,1,4,$2,$3,$4,$5,$6,$7,$8,$9,$2,$3,0*
0 Add four circle primitives for the rounded corners*
1,1,$1+$1,$2,$3*
1,1,$1+$1,$4,$5*
1,1,$1+$1,$6,$7*
1,1,$1+$1,$8,$9*
0 Add four rect primitives between the rounded corners*
20,1,$1+$1,$2,$3,$4,$5,0*
20,1,$1+$1,$4,$5,$6,$7,0*
20,1,$1+$1,$6,$7,$8,$9,0*
20,1,$1+$1,$8,$9,$2,$3,0*%
G04 Aperture macros list end*
%ADD10C,0.300000*%
%ADD11RoundRect,0.237500X-0.237500X0.250000X-0.237500X-0.250000X0.237500X-0.250000X0.237500X0.250000X0*%
%ADD12RoundRect,0.237500X0.237500X-0.287500X0.237500X0.287500X-0.237500X0.287500X-0.237500X-0.287500X0*%
%ADD13R,2.800000X2.200000*%
%ADD14R,2.800000X2.800000*%
%ADD15R,2.800000X2.600000*%
%ADD16RoundRect,0.237500X-0.300000X-0.237500X0.300000X-0.237500X0.300000X0.237500X-0.300000X0.237500X0*%
%ADD17RoundRect,0.237500X0.250000X0.237500X-0.250000X0.237500X-0.250000X-0.237500X0.250000X-0.237500X0*%
%ADD18R,1.550000X1.300000*%
%ADD19R,0.736600X2.794000*%
%ADD20R,1.500000X0.700000*%
%ADD21C,0.600000*%
%ADD22R,1.500000X1.500000*%
%ADD23R,0.600000X0.600000*%
%ADD24R,0.725000X0.522000*%
%ADD25R,0.850000X1.100000*%
%ADD26R,0.750000X1.100000*%
%ADD27R,1.200000X1.000000*%
%ADD28R,1.550000X1.350000*%
%ADD29R,1.170000X1.800000*%
%ADD30R,1.900000X1.350000*%
%ADD31RoundRect,0.237500X0.300000X0.237500X-0.300000X0.237500X-0.300000X-0.237500X0.300000X-0.237500X0*%
%ADD32RoundRect,0.100000X-0.637500X-0.100000X0.637500X-0.100000X0.637500X0.100000X-0.637500X0.100000X0*%
%ADD33R,1.200000X2.500000*%
G04 APERTURE END LIST*
D10*
%TO.C,MK1*%
X110937500Y-52854000D02*
G75*
G02*
X111266261Y-52529989I600001J-280001D01*
G01*
X111257500Y-53734000D02*
G75*
G02*
X110933701Y-53405710I280000J600000D01*
G01*
X111817500Y-52534000D02*
G75*
G02*
X112141511Y-52862761I-280000J-600000D01*
G01*
X112137500Y-53414000D02*
G75*
G02*
X111808739Y-53738011I-600000J280000D01*
G01*
%TD*%
D11*
%TO.C,R5*%
X94000000Y-60887500D03*
X94000000Y-62712500D03*
%TD*%
D12*
%TO.C,D3*%
X93800000Y-72500000D03*
X93800000Y-70750000D03*
%TD*%
D13*
%TO.C,J1*%
X120400000Y-72162500D03*
D14*
X120400000Y-62762500D03*
D13*
X113000000Y-70162500D03*
D15*
X115950000Y-58762500D03*
%TD*%
D12*
%TO.C,D2*%
X92000000Y-72500000D03*
X92000000Y-70750000D03*
%TD*%
D16*
%TO.C,C1*%
X120775000Y-49500000D03*
X122500000Y-49500000D03*
%TD*%
D17*
%TO.C,R11*%
X99812500Y-61300000D03*
X97987500Y-61300000D03*
%TD*%
D12*
%TO.C,D4*%
X95600000Y-72500000D03*
X95600000Y-70750000D03*
%TD*%
%TO.C,D1*%
X90300000Y-72500000D03*
X90300000Y-70750000D03*
%TD*%
D11*
%TO.C,R1*%
X90700000Y-60900000D03*
X90700000Y-62725000D03*
%TD*%
D18*
%TO.C,S3*%
X123325000Y-41850000D03*
X123325000Y-46350000D03*
X131275000Y-41850000D03*
X131275000Y-46350000D03*
%TD*%
D19*
%TO.C,J4*%
X126400000Y-61000000D03*
X126400000Y-56936000D03*
X127670000Y-61000000D03*
X127670000Y-56936000D03*
X128940000Y-61000000D03*
X128940000Y-56936000D03*
X130210000Y-61000000D03*
X130210000Y-56936000D03*
X131480000Y-61000000D03*
X131480000Y-56936000D03*
%TD*%
D16*
%TO.C,C13*%
X120775000Y-52000000D03*
X122500000Y-52000000D03*
%TD*%
D20*
%TO.C,U1*%
X104025000Y-42600000D03*
X104025000Y-43700000D03*
X104025000Y-44800000D03*
X104025000Y-45900000D03*
X104025000Y-47000000D03*
X104025000Y-48100000D03*
X104025000Y-49200000D03*
X104025000Y-50300000D03*
X118025000Y-50300000D03*
X118025000Y-49200000D03*
X118025000Y-48100000D03*
X118025000Y-47000000D03*
X118025000Y-45900000D03*
X118025000Y-44800000D03*
X118025000Y-43700000D03*
X118025000Y-42600000D03*
D21*
X108775000Y-43400000D03*
X108775000Y-44600000D03*
X108775000Y-45800000D03*
X108775000Y-47000000D03*
X108775000Y-48200000D03*
X108775000Y-49400000D03*
X108775000Y-50600000D03*
X110275000Y-43400000D03*
X110275000Y-44600000D03*
X110275000Y-45800000D03*
X110275000Y-47000000D03*
X110275000Y-48200000D03*
X110275000Y-49400000D03*
X110275000Y-50600000D03*
X111775000Y-43400000D03*
X111775000Y-44600000D03*
X111775000Y-45800000D03*
X111775000Y-47000000D03*
X111775000Y-48200000D03*
X111775000Y-49400000D03*
X111775000Y-50600000D03*
X113275000Y-43400000D03*
X113275000Y-44600000D03*
X113275000Y-45800000D03*
X113275000Y-47000000D03*
X113275000Y-48200000D03*
X113275000Y-49400000D03*
X113275000Y-50600000D03*
X114775000Y-43400000D03*
X114775000Y-44600000D03*
X114775000Y-45800000D03*
X114775000Y-47000000D03*
X114775000Y-48200000D03*
X114775000Y-49400000D03*
X114775000Y-50600000D03*
D22*
X107650000Y-41400000D03*
X109900000Y-41400000D03*
X112150000Y-41400000D03*
X114400000Y-41400000D03*
D21*
X116275000Y-48200000D03*
X116275000Y-49400000D03*
D23*
X116275000Y-50600000D03*
D21*
X107275000Y-43400000D03*
X107275000Y-44600000D03*
X107275000Y-45800000D03*
X107275000Y-47000000D03*
X107275000Y-48200000D03*
X107275000Y-49400000D03*
X107275000Y-50600000D03*
%TD*%
D11*
%TO.C,R3*%
X92300000Y-60887500D03*
X92300000Y-62712500D03*
%TD*%
D12*
%TO.C,D5*%
X95900000Y-67775000D03*
X95900000Y-66025000D03*
%TD*%
D24*
%TO.C,MK1*%
X112375000Y-55208000D03*
X112375000Y-54386000D03*
X110700000Y-54386000D03*
X110700000Y-55208000D03*
%TD*%
D25*
%TO.C,J2*%
X107300000Y-74000000D03*
X106200000Y-74000000D03*
X105100000Y-74000000D03*
X104000000Y-74000000D03*
X102900000Y-74000000D03*
X101800000Y-74000000D03*
X100700000Y-74000000D03*
D26*
X99650000Y-74000000D03*
D27*
X109935000Y-67850000D03*
X109935000Y-64150000D03*
D28*
X109760000Y-73875000D03*
D29*
X98440000Y-73650000D03*
D30*
X100465000Y-63175000D03*
X106435000Y-63175000D03*
%TD*%
D31*
%TO.C,C10*%
X122500000Y-54750000D03*
X120775000Y-54750000D03*
%TD*%
D32*
%TO.C,J3*%
X125600000Y-48600000D03*
X125600000Y-49250000D03*
X125600000Y-49900000D03*
X125600000Y-50550000D03*
X125600000Y-51200000D03*
X125600000Y-51850000D03*
X125600000Y-52500000D03*
X125600000Y-53150000D03*
X125600000Y-53800000D03*
X125600000Y-54450000D03*
X131325000Y-54450000D03*
X131325000Y-53800000D03*
X131325000Y-53150000D03*
X131325000Y-52500000D03*
X131325000Y-51850000D03*
X131325000Y-51200000D03*
X131325000Y-50550000D03*
X131325000Y-49900000D03*
X131325000Y-49250000D03*
X131325000Y-48600000D03*
%TD*%
D16*
%TO.C,C14*%
X110737500Y-56800000D03*
X112462500Y-56800000D03*
%TD*%
D33*
%TO.C,SW1*%
X125900000Y-70350000D03*
X128400000Y-70350000D03*
X130900000Y-70350000D03*
%TD*%
D18*
%TO.C,S2*%
X91625000Y-54250000D03*
X91625000Y-58750000D03*
X99575000Y-54250000D03*
X99575000Y-58750000D03*
%TD*%
%TO.C,S1*%
X91725000Y-47150000D03*
X91725000Y-51650000D03*
X99675000Y-47150000D03*
X99675000Y-51650000D03*
%TD*%
D11*
%TO.C,R6*%
X95800000Y-60887500D03*
X95800000Y-62712500D03*
%TD*%
M02*
