%TF.GenerationSoftware,KiCad,Pcbnew,9.0.7*%
%TF.CreationDate,2026-05-11T11:53:41+08:00*%
%TF.ProjectId,OpenGUT,4f70656e-4755-4542-9e6b-696361645f70,rev?*%
%TF.SameCoordinates,Original*%
%TF.FileFunction,Legend,Bot*%
%TF.FilePolarity,Positive*%
%FSLAX46Y46*%
G04 Gerber Fmt 4.6, Leading zero omitted, Abs format (unit mm)*
G04 Created by KiCad (PCBNEW 9.0.7) date 2026-05-11 11:53:41*
%MOMM*%
%LPD*%
G01*
G04 APERTURE LIST*
%ADD10C,0.150000*%
%ADD11C,0.100000*%
%ADD12C,0.120000*%
%ADD13C,0.152400*%
%ADD14C,0.127000*%
%ADD15C,0.200000*%
%ADD16R,0.812800X0.304800*%
G04 APERTURE END LIST*
D10*
X125754166Y-41024819D02*
X126087499Y-40548628D01*
X126325594Y-41024819D02*
X126325594Y-40024819D01*
X126325594Y-40024819D02*
X125944642Y-40024819D01*
X125944642Y-40024819D02*
X125849404Y-40072438D01*
X125849404Y-40072438D02*
X125801785Y-40120057D01*
X125801785Y-40120057D02*
X125754166Y-40215295D01*
X125754166Y-40215295D02*
X125754166Y-40358152D01*
X125754166Y-40358152D02*
X125801785Y-40453390D01*
X125801785Y-40453390D02*
X125849404Y-40501009D01*
X125849404Y-40501009D02*
X125944642Y-40548628D01*
X125944642Y-40548628D02*
X126325594Y-40548628D01*
X125373213Y-40120057D02*
X125325594Y-40072438D01*
X125325594Y-40072438D02*
X125230356Y-40024819D01*
X125230356Y-40024819D02*
X124992261Y-40024819D01*
X124992261Y-40024819D02*
X124897023Y-40072438D01*
X124897023Y-40072438D02*
X124849404Y-40120057D01*
X124849404Y-40120057D02*
X124801785Y-40215295D01*
X124801785Y-40215295D02*
X124801785Y-40310533D01*
X124801785Y-40310533D02*
X124849404Y-40453390D01*
X124849404Y-40453390D02*
X125420832Y-41024819D01*
X125420832Y-41024819D02*
X124801785Y-41024819D01*
X124542857Y-61859580D02*
X124590476Y-61907200D01*
X124590476Y-61907200D02*
X124733333Y-61954819D01*
X124733333Y-61954819D02*
X124828571Y-61954819D01*
X124828571Y-61954819D02*
X124971428Y-61907200D01*
X124971428Y-61907200D02*
X125066666Y-61811961D01*
X125066666Y-61811961D02*
X125114285Y-61716723D01*
X125114285Y-61716723D02*
X125161904Y-61526247D01*
X125161904Y-61526247D02*
X125161904Y-61383390D01*
X125161904Y-61383390D02*
X125114285Y-61192914D01*
X125114285Y-61192914D02*
X125066666Y-61097676D01*
X125066666Y-61097676D02*
X124971428Y-61002438D01*
X124971428Y-61002438D02*
X124828571Y-60954819D01*
X124828571Y-60954819D02*
X124733333Y-60954819D01*
X124733333Y-60954819D02*
X124590476Y-61002438D01*
X124590476Y-61002438D02*
X124542857Y-61050057D01*
X124161904Y-61050057D02*
X124114285Y-61002438D01*
X124114285Y-61002438D02*
X124019047Y-60954819D01*
X124019047Y-60954819D02*
X123780952Y-60954819D01*
X123780952Y-60954819D02*
X123685714Y-61002438D01*
X123685714Y-61002438D02*
X123638095Y-61050057D01*
X123638095Y-61050057D02*
X123590476Y-61145295D01*
X123590476Y-61145295D02*
X123590476Y-61240533D01*
X123590476Y-61240533D02*
X123638095Y-61383390D01*
X123638095Y-61383390D02*
X124209523Y-61954819D01*
X124209523Y-61954819D02*
X123590476Y-61954819D01*
X122733333Y-61288152D02*
X122733333Y-61954819D01*
X122971428Y-60907200D02*
X123209523Y-61621485D01*
X123209523Y-61621485D02*
X122590476Y-61621485D01*
X99755357Y-52392319D02*
X100088690Y-51916128D01*
X100326785Y-52392319D02*
X100326785Y-51392319D01*
X100326785Y-51392319D02*
X99945833Y-51392319D01*
X99945833Y-51392319D02*
X99850595Y-51439938D01*
X99850595Y-51439938D02*
X99802976Y-51487557D01*
X99802976Y-51487557D02*
X99755357Y-51582795D01*
X99755357Y-51582795D02*
X99755357Y-51725652D01*
X99755357Y-51725652D02*
X99802976Y-51820890D01*
X99802976Y-51820890D02*
X99850595Y-51868509D01*
X99850595Y-51868509D02*
X99945833Y-51916128D01*
X99945833Y-51916128D02*
X100326785Y-51916128D01*
X98802976Y-52392319D02*
X99374404Y-52392319D01*
X99088690Y-52392319D02*
X99088690Y-51392319D01*
X99088690Y-51392319D02*
X99183928Y-51535176D01*
X99183928Y-51535176D02*
X99279166Y-51630414D01*
X99279166Y-51630414D02*
X99374404Y-51678033D01*
X98183928Y-51392319D02*
X98088690Y-51392319D01*
X98088690Y-51392319D02*
X97993452Y-51439938D01*
X97993452Y-51439938D02*
X97945833Y-51487557D01*
X97945833Y-51487557D02*
X97898214Y-51582795D01*
X97898214Y-51582795D02*
X97850595Y-51773271D01*
X97850595Y-51773271D02*
X97850595Y-52011366D01*
X97850595Y-52011366D02*
X97898214Y-52201842D01*
X97898214Y-52201842D02*
X97945833Y-52297080D01*
X97945833Y-52297080D02*
X97993452Y-52344700D01*
X97993452Y-52344700D02*
X98088690Y-52392319D01*
X98088690Y-52392319D02*
X98183928Y-52392319D01*
X98183928Y-52392319D02*
X98279166Y-52344700D01*
X98279166Y-52344700D02*
X98326785Y-52297080D01*
X98326785Y-52297080D02*
X98374404Y-52201842D01*
X98374404Y-52201842D02*
X98422023Y-52011366D01*
X98422023Y-52011366D02*
X98422023Y-51773271D01*
X98422023Y-51773271D02*
X98374404Y-51582795D01*
X98374404Y-51582795D02*
X98326785Y-51487557D01*
X98326785Y-51487557D02*
X98279166Y-51439938D01*
X98279166Y-51439938D02*
X98183928Y-51392319D01*
X99842857Y-55259580D02*
X99890476Y-55307200D01*
X99890476Y-55307200D02*
X100033333Y-55354819D01*
X100033333Y-55354819D02*
X100128571Y-55354819D01*
X100128571Y-55354819D02*
X100271428Y-55307200D01*
X100271428Y-55307200D02*
X100366666Y-55211961D01*
X100366666Y-55211961D02*
X100414285Y-55116723D01*
X100414285Y-55116723D02*
X100461904Y-54926247D01*
X100461904Y-54926247D02*
X100461904Y-54783390D01*
X100461904Y-54783390D02*
X100414285Y-54592914D01*
X100414285Y-54592914D02*
X100366666Y-54497676D01*
X100366666Y-54497676D02*
X100271428Y-54402438D01*
X100271428Y-54402438D02*
X100128571Y-54354819D01*
X100128571Y-54354819D02*
X100033333Y-54354819D01*
X100033333Y-54354819D02*
X99890476Y-54402438D01*
X99890476Y-54402438D02*
X99842857Y-54450057D01*
X98890476Y-55354819D02*
X99461904Y-55354819D01*
X99176190Y-55354819D02*
X99176190Y-54354819D01*
X99176190Y-54354819D02*
X99271428Y-54497676D01*
X99271428Y-54497676D02*
X99366666Y-54592914D01*
X99366666Y-54592914D02*
X99461904Y-54640533D01*
X98319047Y-54783390D02*
X98414285Y-54735771D01*
X98414285Y-54735771D02*
X98461904Y-54688152D01*
X98461904Y-54688152D02*
X98509523Y-54592914D01*
X98509523Y-54592914D02*
X98509523Y-54545295D01*
X98509523Y-54545295D02*
X98461904Y-54450057D01*
X98461904Y-54450057D02*
X98414285Y-54402438D01*
X98414285Y-54402438D02*
X98319047Y-54354819D01*
X98319047Y-54354819D02*
X98128571Y-54354819D01*
X98128571Y-54354819D02*
X98033333Y-54402438D01*
X98033333Y-54402438D02*
X97985714Y-54450057D01*
X97985714Y-54450057D02*
X97938095Y-54545295D01*
X97938095Y-54545295D02*
X97938095Y-54592914D01*
X97938095Y-54592914D02*
X97985714Y-54688152D01*
X97985714Y-54688152D02*
X98033333Y-54735771D01*
X98033333Y-54735771D02*
X98128571Y-54783390D01*
X98128571Y-54783390D02*
X98319047Y-54783390D01*
X98319047Y-54783390D02*
X98414285Y-54831009D01*
X98414285Y-54831009D02*
X98461904Y-54878628D01*
X98461904Y-54878628D02*
X98509523Y-54973866D01*
X98509523Y-54973866D02*
X98509523Y-55164342D01*
X98509523Y-55164342D02*
X98461904Y-55259580D01*
X98461904Y-55259580D02*
X98414285Y-55307200D01*
X98414285Y-55307200D02*
X98319047Y-55354819D01*
X98319047Y-55354819D02*
X98128571Y-55354819D01*
X98128571Y-55354819D02*
X98033333Y-55307200D01*
X98033333Y-55307200D02*
X97985714Y-55259580D01*
X97985714Y-55259580D02*
X97938095Y-55164342D01*
X97938095Y-55164342D02*
X97938095Y-54973866D01*
X97938095Y-54973866D02*
X97985714Y-54878628D01*
X97985714Y-54878628D02*
X98033333Y-54831009D01*
X98033333Y-54831009D02*
X98128571Y-54783390D01*
X121816666Y-40804819D02*
X122149999Y-40328628D01*
X122388094Y-40804819D02*
X122388094Y-39804819D01*
X122388094Y-39804819D02*
X122007142Y-39804819D01*
X122007142Y-39804819D02*
X121911904Y-39852438D01*
X121911904Y-39852438D02*
X121864285Y-39900057D01*
X121864285Y-39900057D02*
X121816666Y-39995295D01*
X121816666Y-39995295D02*
X121816666Y-40138152D01*
X121816666Y-40138152D02*
X121864285Y-40233390D01*
X121864285Y-40233390D02*
X121911904Y-40281009D01*
X121911904Y-40281009D02*
X122007142Y-40328628D01*
X122007142Y-40328628D02*
X122388094Y-40328628D01*
X121483332Y-39804819D02*
X120816666Y-39804819D01*
X120816666Y-39804819D02*
X121245237Y-40804819D01*
X105238094Y-64354819D02*
X104619047Y-64354819D01*
X104619047Y-64354819D02*
X104952380Y-64735771D01*
X104952380Y-64735771D02*
X104809523Y-64735771D01*
X104809523Y-64735771D02*
X104714285Y-64783390D01*
X104714285Y-64783390D02*
X104666666Y-64831009D01*
X104666666Y-64831009D02*
X104619047Y-64926247D01*
X104619047Y-64926247D02*
X104619047Y-65164342D01*
X104619047Y-65164342D02*
X104666666Y-65259580D01*
X104666666Y-65259580D02*
X104714285Y-65307200D01*
X104714285Y-65307200D02*
X104809523Y-65354819D01*
X104809523Y-65354819D02*
X105095237Y-65354819D01*
X105095237Y-65354819D02*
X105190475Y-65307200D01*
X105190475Y-65307200D02*
X105238094Y-65259580D01*
X104333332Y-64354819D02*
X103999999Y-65354819D01*
X103999999Y-65354819D02*
X103666666Y-64354819D01*
X103428570Y-64354819D02*
X102809523Y-64354819D01*
X102809523Y-64354819D02*
X103142856Y-64735771D01*
X103142856Y-64735771D02*
X102999999Y-64735771D01*
X102999999Y-64735771D02*
X102904761Y-64783390D01*
X102904761Y-64783390D02*
X102857142Y-64831009D01*
X102857142Y-64831009D02*
X102809523Y-64926247D01*
X102809523Y-64926247D02*
X102809523Y-65164342D01*
X102809523Y-65164342D02*
X102857142Y-65259580D01*
X102857142Y-65259580D02*
X102904761Y-65307200D01*
X102904761Y-65307200D02*
X102999999Y-65354819D01*
X102999999Y-65354819D02*
X103285713Y-65354819D01*
X103285713Y-65354819D02*
X103380951Y-65307200D01*
X103380951Y-65307200D02*
X103428570Y-65259580D01*
X129529166Y-40929580D02*
X129576785Y-40977200D01*
X129576785Y-40977200D02*
X129719642Y-41024819D01*
X129719642Y-41024819D02*
X129814880Y-41024819D01*
X129814880Y-41024819D02*
X129957737Y-40977200D01*
X129957737Y-40977200D02*
X130052975Y-40881961D01*
X130052975Y-40881961D02*
X130100594Y-40786723D01*
X130100594Y-40786723D02*
X130148213Y-40596247D01*
X130148213Y-40596247D02*
X130148213Y-40453390D01*
X130148213Y-40453390D02*
X130100594Y-40262914D01*
X130100594Y-40262914D02*
X130052975Y-40167676D01*
X130052975Y-40167676D02*
X129957737Y-40072438D01*
X129957737Y-40072438D02*
X129814880Y-40024819D01*
X129814880Y-40024819D02*
X129719642Y-40024819D01*
X129719642Y-40024819D02*
X129576785Y-40072438D01*
X129576785Y-40072438D02*
X129529166Y-40120057D01*
X128672023Y-40358152D02*
X128672023Y-41024819D01*
X128910118Y-39977200D02*
X129148213Y-40691485D01*
X129148213Y-40691485D02*
X128529166Y-40691485D01*
X126642857Y-53629580D02*
X126690476Y-53677200D01*
X126690476Y-53677200D02*
X126833333Y-53724819D01*
X126833333Y-53724819D02*
X126928571Y-53724819D01*
X126928571Y-53724819D02*
X127071428Y-53677200D01*
X127071428Y-53677200D02*
X127166666Y-53581961D01*
X127166666Y-53581961D02*
X127214285Y-53486723D01*
X127214285Y-53486723D02*
X127261904Y-53296247D01*
X127261904Y-53296247D02*
X127261904Y-53153390D01*
X127261904Y-53153390D02*
X127214285Y-52962914D01*
X127214285Y-52962914D02*
X127166666Y-52867676D01*
X127166666Y-52867676D02*
X127071428Y-52772438D01*
X127071428Y-52772438D02*
X126928571Y-52724819D01*
X126928571Y-52724819D02*
X126833333Y-52724819D01*
X126833333Y-52724819D02*
X126690476Y-52772438D01*
X126690476Y-52772438D02*
X126642857Y-52820057D01*
X125690476Y-53724819D02*
X126261904Y-53724819D01*
X125976190Y-53724819D02*
X125976190Y-52724819D01*
X125976190Y-52724819D02*
X126071428Y-52867676D01*
X126071428Y-52867676D02*
X126166666Y-52962914D01*
X126166666Y-52962914D02*
X126261904Y-53010533D01*
X125309523Y-52820057D02*
X125261904Y-52772438D01*
X125261904Y-52772438D02*
X125166666Y-52724819D01*
X125166666Y-52724819D02*
X124928571Y-52724819D01*
X124928571Y-52724819D02*
X124833333Y-52772438D01*
X124833333Y-52772438D02*
X124785714Y-52820057D01*
X124785714Y-52820057D02*
X124738095Y-52915295D01*
X124738095Y-52915295D02*
X124738095Y-53010533D01*
X124738095Y-53010533D02*
X124785714Y-53153390D01*
X124785714Y-53153390D02*
X125357142Y-53724819D01*
X125357142Y-53724819D02*
X124738095Y-53724819D01*
X108352857Y-66099580D02*
X108400476Y-66147200D01*
X108400476Y-66147200D02*
X108543333Y-66194819D01*
X108543333Y-66194819D02*
X108638571Y-66194819D01*
X108638571Y-66194819D02*
X108781428Y-66147200D01*
X108781428Y-66147200D02*
X108876666Y-66051961D01*
X108876666Y-66051961D02*
X108924285Y-65956723D01*
X108924285Y-65956723D02*
X108971904Y-65766247D01*
X108971904Y-65766247D02*
X108971904Y-65623390D01*
X108971904Y-65623390D02*
X108924285Y-65432914D01*
X108924285Y-65432914D02*
X108876666Y-65337676D01*
X108876666Y-65337676D02*
X108781428Y-65242438D01*
X108781428Y-65242438D02*
X108638571Y-65194819D01*
X108638571Y-65194819D02*
X108543333Y-65194819D01*
X108543333Y-65194819D02*
X108400476Y-65242438D01*
X108400476Y-65242438D02*
X108352857Y-65290057D01*
X107971904Y-65290057D02*
X107924285Y-65242438D01*
X107924285Y-65242438D02*
X107829047Y-65194819D01*
X107829047Y-65194819D02*
X107590952Y-65194819D01*
X107590952Y-65194819D02*
X107495714Y-65242438D01*
X107495714Y-65242438D02*
X107448095Y-65290057D01*
X107448095Y-65290057D02*
X107400476Y-65385295D01*
X107400476Y-65385295D02*
X107400476Y-65480533D01*
X107400476Y-65480533D02*
X107448095Y-65623390D01*
X107448095Y-65623390D02*
X108019523Y-66194819D01*
X108019523Y-66194819D02*
X107400476Y-66194819D01*
X106543333Y-65194819D02*
X106733809Y-65194819D01*
X106733809Y-65194819D02*
X106829047Y-65242438D01*
X106829047Y-65242438D02*
X106876666Y-65290057D01*
X106876666Y-65290057D02*
X106971904Y-65432914D01*
X106971904Y-65432914D02*
X107019523Y-65623390D01*
X107019523Y-65623390D02*
X107019523Y-66004342D01*
X107019523Y-66004342D02*
X106971904Y-66099580D01*
X106971904Y-66099580D02*
X106924285Y-66147200D01*
X106924285Y-66147200D02*
X106829047Y-66194819D01*
X106829047Y-66194819D02*
X106638571Y-66194819D01*
X106638571Y-66194819D02*
X106543333Y-66147200D01*
X106543333Y-66147200D02*
X106495714Y-66099580D01*
X106495714Y-66099580D02*
X106448095Y-66004342D01*
X106448095Y-66004342D02*
X106448095Y-65766247D01*
X106448095Y-65766247D02*
X106495714Y-65671009D01*
X106495714Y-65671009D02*
X106543333Y-65623390D01*
X106543333Y-65623390D02*
X106638571Y-65575771D01*
X106638571Y-65575771D02*
X106829047Y-65575771D01*
X106829047Y-65575771D02*
X106924285Y-65623390D01*
X106924285Y-65623390D02*
X106971904Y-65671009D01*
X106971904Y-65671009D02*
X107019523Y-65766247D01*
X95654166Y-52254819D02*
X95987499Y-51778628D01*
X96225594Y-52254819D02*
X96225594Y-51254819D01*
X96225594Y-51254819D02*
X95844642Y-51254819D01*
X95844642Y-51254819D02*
X95749404Y-51302438D01*
X95749404Y-51302438D02*
X95701785Y-51350057D01*
X95701785Y-51350057D02*
X95654166Y-51445295D01*
X95654166Y-51445295D02*
X95654166Y-51588152D01*
X95654166Y-51588152D02*
X95701785Y-51683390D01*
X95701785Y-51683390D02*
X95749404Y-51731009D01*
X95749404Y-51731009D02*
X95844642Y-51778628D01*
X95844642Y-51778628D02*
X96225594Y-51778628D01*
X95082737Y-51683390D02*
X95177975Y-51635771D01*
X95177975Y-51635771D02*
X95225594Y-51588152D01*
X95225594Y-51588152D02*
X95273213Y-51492914D01*
X95273213Y-51492914D02*
X95273213Y-51445295D01*
X95273213Y-51445295D02*
X95225594Y-51350057D01*
X95225594Y-51350057D02*
X95177975Y-51302438D01*
X95177975Y-51302438D02*
X95082737Y-51254819D01*
X95082737Y-51254819D02*
X94892261Y-51254819D01*
X94892261Y-51254819D02*
X94797023Y-51302438D01*
X94797023Y-51302438D02*
X94749404Y-51350057D01*
X94749404Y-51350057D02*
X94701785Y-51445295D01*
X94701785Y-51445295D02*
X94701785Y-51492914D01*
X94701785Y-51492914D02*
X94749404Y-51588152D01*
X94749404Y-51588152D02*
X94797023Y-51635771D01*
X94797023Y-51635771D02*
X94892261Y-51683390D01*
X94892261Y-51683390D02*
X95082737Y-51683390D01*
X95082737Y-51683390D02*
X95177975Y-51731009D01*
X95177975Y-51731009D02*
X95225594Y-51778628D01*
X95225594Y-51778628D02*
X95273213Y-51873866D01*
X95273213Y-51873866D02*
X95273213Y-52064342D01*
X95273213Y-52064342D02*
X95225594Y-52159580D01*
X95225594Y-52159580D02*
X95177975Y-52207200D01*
X95177975Y-52207200D02*
X95082737Y-52254819D01*
X95082737Y-52254819D02*
X94892261Y-52254819D01*
X94892261Y-52254819D02*
X94797023Y-52207200D01*
X94797023Y-52207200D02*
X94749404Y-52159580D01*
X94749404Y-52159580D02*
X94701785Y-52064342D01*
X94701785Y-52064342D02*
X94701785Y-51873866D01*
X94701785Y-51873866D02*
X94749404Y-51778628D01*
X94749404Y-51778628D02*
X94797023Y-51731009D01*
X94797023Y-51731009D02*
X94892261Y-51683390D01*
X126266666Y-50629580D02*
X126314285Y-50677200D01*
X126314285Y-50677200D02*
X126457142Y-50724819D01*
X126457142Y-50724819D02*
X126552380Y-50724819D01*
X126552380Y-50724819D02*
X126695237Y-50677200D01*
X126695237Y-50677200D02*
X126790475Y-50581961D01*
X126790475Y-50581961D02*
X126838094Y-50486723D01*
X126838094Y-50486723D02*
X126885713Y-50296247D01*
X126885713Y-50296247D02*
X126885713Y-50153390D01*
X126885713Y-50153390D02*
X126838094Y-49962914D01*
X126838094Y-49962914D02*
X126790475Y-49867676D01*
X126790475Y-49867676D02*
X126695237Y-49772438D01*
X126695237Y-49772438D02*
X126552380Y-49724819D01*
X126552380Y-49724819D02*
X126457142Y-49724819D01*
X126457142Y-49724819D02*
X126314285Y-49772438D01*
X126314285Y-49772438D02*
X126266666Y-49820057D01*
X125790475Y-50724819D02*
X125599999Y-50724819D01*
X125599999Y-50724819D02*
X125504761Y-50677200D01*
X125504761Y-50677200D02*
X125457142Y-50629580D01*
X125457142Y-50629580D02*
X125361904Y-50486723D01*
X125361904Y-50486723D02*
X125314285Y-50296247D01*
X125314285Y-50296247D02*
X125314285Y-49915295D01*
X125314285Y-49915295D02*
X125361904Y-49820057D01*
X125361904Y-49820057D02*
X125409523Y-49772438D01*
X125409523Y-49772438D02*
X125504761Y-49724819D01*
X125504761Y-49724819D02*
X125695237Y-49724819D01*
X125695237Y-49724819D02*
X125790475Y-49772438D01*
X125790475Y-49772438D02*
X125838094Y-49820057D01*
X125838094Y-49820057D02*
X125885713Y-49915295D01*
X125885713Y-49915295D02*
X125885713Y-50153390D01*
X125885713Y-50153390D02*
X125838094Y-50248628D01*
X125838094Y-50248628D02*
X125790475Y-50296247D01*
X125790475Y-50296247D02*
X125695237Y-50343866D01*
X125695237Y-50343866D02*
X125504761Y-50343866D01*
X125504761Y-50343866D02*
X125409523Y-50296247D01*
X125409523Y-50296247D02*
X125361904Y-50248628D01*
X125361904Y-50248628D02*
X125314285Y-50153390D01*
X129529166Y-43859580D02*
X129576785Y-43907200D01*
X129576785Y-43907200D02*
X129719642Y-43954819D01*
X129719642Y-43954819D02*
X129814880Y-43954819D01*
X129814880Y-43954819D02*
X129957737Y-43907200D01*
X129957737Y-43907200D02*
X130052975Y-43811961D01*
X130052975Y-43811961D02*
X130100594Y-43716723D01*
X130100594Y-43716723D02*
X130148213Y-43526247D01*
X130148213Y-43526247D02*
X130148213Y-43383390D01*
X130148213Y-43383390D02*
X130100594Y-43192914D01*
X130100594Y-43192914D02*
X130052975Y-43097676D01*
X130052975Y-43097676D02*
X129957737Y-43002438D01*
X129957737Y-43002438D02*
X129814880Y-42954819D01*
X129814880Y-42954819D02*
X129719642Y-42954819D01*
X129719642Y-42954819D02*
X129576785Y-43002438D01*
X129576785Y-43002438D02*
X129529166Y-43050057D01*
X128672023Y-42954819D02*
X128862499Y-42954819D01*
X128862499Y-42954819D02*
X128957737Y-43002438D01*
X128957737Y-43002438D02*
X129005356Y-43050057D01*
X129005356Y-43050057D02*
X129100594Y-43192914D01*
X129100594Y-43192914D02*
X129148213Y-43383390D01*
X129148213Y-43383390D02*
X129148213Y-43764342D01*
X129148213Y-43764342D02*
X129100594Y-43859580D01*
X129100594Y-43859580D02*
X129052975Y-43907200D01*
X129052975Y-43907200D02*
X128957737Y-43954819D01*
X128957737Y-43954819D02*
X128767261Y-43954819D01*
X128767261Y-43954819D02*
X128672023Y-43907200D01*
X128672023Y-43907200D02*
X128624404Y-43859580D01*
X128624404Y-43859580D02*
X128576785Y-43764342D01*
X128576785Y-43764342D02*
X128576785Y-43526247D01*
X128576785Y-43526247D02*
X128624404Y-43431009D01*
X128624404Y-43431009D02*
X128672023Y-43383390D01*
X128672023Y-43383390D02*
X128767261Y-43335771D01*
X128767261Y-43335771D02*
X128957737Y-43335771D01*
X128957737Y-43335771D02*
X129052975Y-43383390D01*
X129052975Y-43383390D02*
X129100594Y-43431009D01*
X129100594Y-43431009D02*
X129148213Y-43526247D01*
X130180357Y-53629580D02*
X130227976Y-53677200D01*
X130227976Y-53677200D02*
X130370833Y-53724819D01*
X130370833Y-53724819D02*
X130466071Y-53724819D01*
X130466071Y-53724819D02*
X130608928Y-53677200D01*
X130608928Y-53677200D02*
X130704166Y-53581961D01*
X130704166Y-53581961D02*
X130751785Y-53486723D01*
X130751785Y-53486723D02*
X130799404Y-53296247D01*
X130799404Y-53296247D02*
X130799404Y-53153390D01*
X130799404Y-53153390D02*
X130751785Y-52962914D01*
X130751785Y-52962914D02*
X130704166Y-52867676D01*
X130704166Y-52867676D02*
X130608928Y-52772438D01*
X130608928Y-52772438D02*
X130466071Y-52724819D01*
X130466071Y-52724819D02*
X130370833Y-52724819D01*
X130370833Y-52724819D02*
X130227976Y-52772438D01*
X130227976Y-52772438D02*
X130180357Y-52820057D01*
X129227976Y-53724819D02*
X129799404Y-53724819D01*
X129513690Y-53724819D02*
X129513690Y-52724819D01*
X129513690Y-52724819D02*
X129608928Y-52867676D01*
X129608928Y-52867676D02*
X129704166Y-52962914D01*
X129704166Y-52962914D02*
X129799404Y-53010533D01*
X128275595Y-53724819D02*
X128847023Y-53724819D01*
X128561309Y-53724819D02*
X128561309Y-52724819D01*
X128561309Y-52724819D02*
X128656547Y-52867676D01*
X128656547Y-52867676D02*
X128751785Y-52962914D01*
X128751785Y-52962914D02*
X128847023Y-53010533D01*
X122054166Y-45609580D02*
X122101785Y-45657200D01*
X122101785Y-45657200D02*
X122244642Y-45704819D01*
X122244642Y-45704819D02*
X122339880Y-45704819D01*
X122339880Y-45704819D02*
X122482737Y-45657200D01*
X122482737Y-45657200D02*
X122577975Y-45561961D01*
X122577975Y-45561961D02*
X122625594Y-45466723D01*
X122625594Y-45466723D02*
X122673213Y-45276247D01*
X122673213Y-45276247D02*
X122673213Y-45133390D01*
X122673213Y-45133390D02*
X122625594Y-44942914D01*
X122625594Y-44942914D02*
X122577975Y-44847676D01*
X122577975Y-44847676D02*
X122482737Y-44752438D01*
X122482737Y-44752438D02*
X122339880Y-44704819D01*
X122339880Y-44704819D02*
X122244642Y-44704819D01*
X122244642Y-44704819D02*
X122101785Y-44752438D01*
X122101785Y-44752438D02*
X122054166Y-44800057D01*
X121720832Y-44704819D02*
X121101785Y-44704819D01*
X121101785Y-44704819D02*
X121435118Y-45085771D01*
X121435118Y-45085771D02*
X121292261Y-45085771D01*
X121292261Y-45085771D02*
X121197023Y-45133390D01*
X121197023Y-45133390D02*
X121149404Y-45181009D01*
X121149404Y-45181009D02*
X121101785Y-45276247D01*
X121101785Y-45276247D02*
X121101785Y-45514342D01*
X121101785Y-45514342D02*
X121149404Y-45609580D01*
X121149404Y-45609580D02*
X121197023Y-45657200D01*
X121197023Y-45657200D02*
X121292261Y-45704819D01*
X121292261Y-45704819D02*
X121577975Y-45704819D01*
X121577975Y-45704819D02*
X121673213Y-45657200D01*
X121673213Y-45657200D02*
X121720832Y-45609580D01*
X92845237Y-51654819D02*
X92845237Y-50654819D01*
X92369047Y-51654819D02*
X92369047Y-50654819D01*
X92369047Y-50654819D02*
X92035714Y-51369104D01*
X92035714Y-51369104D02*
X91702381Y-50654819D01*
X91702381Y-50654819D02*
X91702381Y-51654819D01*
X91226190Y-50654819D02*
X91226190Y-51464342D01*
X91226190Y-51464342D02*
X91178571Y-51559580D01*
X91178571Y-51559580D02*
X91130952Y-51607200D01*
X91130952Y-51607200D02*
X91035714Y-51654819D01*
X91035714Y-51654819D02*
X90845238Y-51654819D01*
X90845238Y-51654819D02*
X90750000Y-51607200D01*
X90750000Y-51607200D02*
X90702381Y-51559580D01*
X90702381Y-51559580D02*
X90654762Y-51464342D01*
X90654762Y-51464342D02*
X90654762Y-50654819D01*
X103342857Y-71459580D02*
X103390476Y-71507200D01*
X103390476Y-71507200D02*
X103533333Y-71554819D01*
X103533333Y-71554819D02*
X103628571Y-71554819D01*
X103628571Y-71554819D02*
X103771428Y-71507200D01*
X103771428Y-71507200D02*
X103866666Y-71411961D01*
X103866666Y-71411961D02*
X103914285Y-71316723D01*
X103914285Y-71316723D02*
X103961904Y-71126247D01*
X103961904Y-71126247D02*
X103961904Y-70983390D01*
X103961904Y-70983390D02*
X103914285Y-70792914D01*
X103914285Y-70792914D02*
X103866666Y-70697676D01*
X103866666Y-70697676D02*
X103771428Y-70602438D01*
X103771428Y-70602438D02*
X103628571Y-70554819D01*
X103628571Y-70554819D02*
X103533333Y-70554819D01*
X103533333Y-70554819D02*
X103390476Y-70602438D01*
X103390476Y-70602438D02*
X103342857Y-70650057D01*
X102390476Y-71554819D02*
X102961904Y-71554819D01*
X102676190Y-71554819D02*
X102676190Y-70554819D01*
X102676190Y-70554819D02*
X102771428Y-70697676D01*
X102771428Y-70697676D02*
X102866666Y-70792914D01*
X102866666Y-70792914D02*
X102961904Y-70840533D01*
X101533333Y-70554819D02*
X101723809Y-70554819D01*
X101723809Y-70554819D02*
X101819047Y-70602438D01*
X101819047Y-70602438D02*
X101866666Y-70650057D01*
X101866666Y-70650057D02*
X101961904Y-70792914D01*
X101961904Y-70792914D02*
X102009523Y-70983390D01*
X102009523Y-70983390D02*
X102009523Y-71364342D01*
X102009523Y-71364342D02*
X101961904Y-71459580D01*
X101961904Y-71459580D02*
X101914285Y-71507200D01*
X101914285Y-71507200D02*
X101819047Y-71554819D01*
X101819047Y-71554819D02*
X101628571Y-71554819D01*
X101628571Y-71554819D02*
X101533333Y-71507200D01*
X101533333Y-71507200D02*
X101485714Y-71459580D01*
X101485714Y-71459580D02*
X101438095Y-71364342D01*
X101438095Y-71364342D02*
X101438095Y-71126247D01*
X101438095Y-71126247D02*
X101485714Y-71031009D01*
X101485714Y-71031009D02*
X101533333Y-70983390D01*
X101533333Y-70983390D02*
X101628571Y-70935771D01*
X101628571Y-70935771D02*
X101819047Y-70935771D01*
X101819047Y-70935771D02*
X101914285Y-70983390D01*
X101914285Y-70983390D02*
X101961904Y-71031009D01*
X101961904Y-71031009D02*
X102009523Y-71126247D01*
X111195237Y-51269104D02*
X110719047Y-51269104D01*
X111290475Y-51554819D02*
X110957142Y-50554819D01*
X110957142Y-50554819D02*
X110623809Y-51554819D01*
X110290475Y-51554819D02*
X110290475Y-50554819D01*
X110290475Y-50554819D02*
X109957142Y-51269104D01*
X109957142Y-51269104D02*
X109623809Y-50554819D01*
X109623809Y-50554819D02*
X109623809Y-51554819D01*
X108814285Y-51031009D02*
X108671428Y-51078628D01*
X108671428Y-51078628D02*
X108623809Y-51126247D01*
X108623809Y-51126247D02*
X108576190Y-51221485D01*
X108576190Y-51221485D02*
X108576190Y-51364342D01*
X108576190Y-51364342D02*
X108623809Y-51459580D01*
X108623809Y-51459580D02*
X108671428Y-51507200D01*
X108671428Y-51507200D02*
X108766666Y-51554819D01*
X108766666Y-51554819D02*
X109147618Y-51554819D01*
X109147618Y-51554819D02*
X109147618Y-50554819D01*
X109147618Y-50554819D02*
X108814285Y-50554819D01*
X108814285Y-50554819D02*
X108719047Y-50602438D01*
X108719047Y-50602438D02*
X108671428Y-50650057D01*
X108671428Y-50650057D02*
X108623809Y-50745295D01*
X108623809Y-50745295D02*
X108623809Y-50840533D01*
X108623809Y-50840533D02*
X108671428Y-50935771D01*
X108671428Y-50935771D02*
X108719047Y-50983390D01*
X108719047Y-50983390D02*
X108814285Y-51031009D01*
X108814285Y-51031009D02*
X109147618Y-51031009D01*
X108147618Y-51554819D02*
X108147618Y-50554819D01*
X107671428Y-51031009D02*
X107338095Y-51031009D01*
X107195238Y-51554819D02*
X107671428Y-51554819D01*
X107671428Y-51554819D02*
X107671428Y-50554819D01*
X107671428Y-50554819D02*
X107195238Y-50554819D01*
X106766666Y-51554819D02*
X106766666Y-50554819D01*
X106766666Y-50554819D02*
X106195238Y-51554819D01*
X106195238Y-51554819D02*
X106195238Y-50554819D01*
X105861904Y-50554819D02*
X105290476Y-50554819D01*
X105576190Y-51554819D02*
X105576190Y-50554819D01*
X104195237Y-51554819D02*
X104195237Y-50554819D01*
X104195237Y-50554819D02*
X103861904Y-51269104D01*
X103861904Y-51269104D02*
X103528571Y-50554819D01*
X103528571Y-50554819D02*
X103528571Y-51554819D01*
X103052380Y-51554819D02*
X103052380Y-50554819D01*
X102004762Y-51459580D02*
X102052381Y-51507200D01*
X102052381Y-51507200D02*
X102195238Y-51554819D01*
X102195238Y-51554819D02*
X102290476Y-51554819D01*
X102290476Y-51554819D02*
X102433333Y-51507200D01*
X102433333Y-51507200D02*
X102528571Y-51411961D01*
X102528571Y-51411961D02*
X102576190Y-51316723D01*
X102576190Y-51316723D02*
X102623809Y-51126247D01*
X102623809Y-51126247D02*
X102623809Y-50983390D01*
X102623809Y-50983390D02*
X102576190Y-50792914D01*
X102576190Y-50792914D02*
X102528571Y-50697676D01*
X102528571Y-50697676D02*
X102433333Y-50602438D01*
X102433333Y-50602438D02*
X102290476Y-50554819D01*
X102290476Y-50554819D02*
X102195238Y-50554819D01*
X102195238Y-50554819D02*
X102052381Y-50602438D01*
X102052381Y-50602438D02*
X102004762Y-50650057D01*
X106366666Y-71524819D02*
X106699999Y-71048628D01*
X106938094Y-71524819D02*
X106938094Y-70524819D01*
X106938094Y-70524819D02*
X106557142Y-70524819D01*
X106557142Y-70524819D02*
X106461904Y-70572438D01*
X106461904Y-70572438D02*
X106414285Y-70620057D01*
X106414285Y-70620057D02*
X106366666Y-70715295D01*
X106366666Y-70715295D02*
X106366666Y-70858152D01*
X106366666Y-70858152D02*
X106414285Y-70953390D01*
X106414285Y-70953390D02*
X106461904Y-71001009D01*
X106461904Y-71001009D02*
X106557142Y-71048628D01*
X106557142Y-71048628D02*
X106938094Y-71048628D01*
X105890475Y-71524819D02*
X105699999Y-71524819D01*
X105699999Y-71524819D02*
X105604761Y-71477200D01*
X105604761Y-71477200D02*
X105557142Y-71429580D01*
X105557142Y-71429580D02*
X105461904Y-71286723D01*
X105461904Y-71286723D02*
X105414285Y-71096247D01*
X105414285Y-71096247D02*
X105414285Y-70715295D01*
X105414285Y-70715295D02*
X105461904Y-70620057D01*
X105461904Y-70620057D02*
X105509523Y-70572438D01*
X105509523Y-70572438D02*
X105604761Y-70524819D01*
X105604761Y-70524819D02*
X105795237Y-70524819D01*
X105795237Y-70524819D02*
X105890475Y-70572438D01*
X105890475Y-70572438D02*
X105938094Y-70620057D01*
X105938094Y-70620057D02*
X105985713Y-70715295D01*
X105985713Y-70715295D02*
X105985713Y-70953390D01*
X105985713Y-70953390D02*
X105938094Y-71048628D01*
X105938094Y-71048628D02*
X105890475Y-71096247D01*
X105890475Y-71096247D02*
X105795237Y-71143866D01*
X105795237Y-71143866D02*
X105604761Y-71143866D01*
X105604761Y-71143866D02*
X105509523Y-71096247D01*
X105509523Y-71096247D02*
X105461904Y-71048628D01*
X105461904Y-71048628D02*
X105414285Y-70953390D01*
X100842857Y-70359580D02*
X100890476Y-70407200D01*
X100890476Y-70407200D02*
X101033333Y-70454819D01*
X101033333Y-70454819D02*
X101128571Y-70454819D01*
X101128571Y-70454819D02*
X101271428Y-70407200D01*
X101271428Y-70407200D02*
X101366666Y-70311961D01*
X101366666Y-70311961D02*
X101414285Y-70216723D01*
X101414285Y-70216723D02*
X101461904Y-70026247D01*
X101461904Y-70026247D02*
X101461904Y-69883390D01*
X101461904Y-69883390D02*
X101414285Y-69692914D01*
X101414285Y-69692914D02*
X101366666Y-69597676D01*
X101366666Y-69597676D02*
X101271428Y-69502438D01*
X101271428Y-69502438D02*
X101128571Y-69454819D01*
X101128571Y-69454819D02*
X101033333Y-69454819D01*
X101033333Y-69454819D02*
X100890476Y-69502438D01*
X100890476Y-69502438D02*
X100842857Y-69550057D01*
X100461904Y-69550057D02*
X100414285Y-69502438D01*
X100414285Y-69502438D02*
X100319047Y-69454819D01*
X100319047Y-69454819D02*
X100080952Y-69454819D01*
X100080952Y-69454819D02*
X99985714Y-69502438D01*
X99985714Y-69502438D02*
X99938095Y-69550057D01*
X99938095Y-69550057D02*
X99890476Y-69645295D01*
X99890476Y-69645295D02*
X99890476Y-69740533D01*
X99890476Y-69740533D02*
X99938095Y-69883390D01*
X99938095Y-69883390D02*
X100509523Y-70454819D01*
X100509523Y-70454819D02*
X99890476Y-70454819D01*
X99557142Y-69454819D02*
X98890476Y-69454819D01*
X98890476Y-69454819D02*
X99319047Y-70454819D01*
X129766666Y-50629580D02*
X129814285Y-50677200D01*
X129814285Y-50677200D02*
X129957142Y-50724819D01*
X129957142Y-50724819D02*
X130052380Y-50724819D01*
X130052380Y-50724819D02*
X130195237Y-50677200D01*
X130195237Y-50677200D02*
X130290475Y-50581961D01*
X130290475Y-50581961D02*
X130338094Y-50486723D01*
X130338094Y-50486723D02*
X130385713Y-50296247D01*
X130385713Y-50296247D02*
X130385713Y-50153390D01*
X130385713Y-50153390D02*
X130338094Y-49962914D01*
X130338094Y-49962914D02*
X130290475Y-49867676D01*
X130290475Y-49867676D02*
X130195237Y-49772438D01*
X130195237Y-49772438D02*
X130052380Y-49724819D01*
X130052380Y-49724819D02*
X129957142Y-49724819D01*
X129957142Y-49724819D02*
X129814285Y-49772438D01*
X129814285Y-49772438D02*
X129766666Y-49820057D01*
X129195237Y-50153390D02*
X129290475Y-50105771D01*
X129290475Y-50105771D02*
X129338094Y-50058152D01*
X129338094Y-50058152D02*
X129385713Y-49962914D01*
X129385713Y-49962914D02*
X129385713Y-49915295D01*
X129385713Y-49915295D02*
X129338094Y-49820057D01*
X129338094Y-49820057D02*
X129290475Y-49772438D01*
X129290475Y-49772438D02*
X129195237Y-49724819D01*
X129195237Y-49724819D02*
X129004761Y-49724819D01*
X129004761Y-49724819D02*
X128909523Y-49772438D01*
X128909523Y-49772438D02*
X128861904Y-49820057D01*
X128861904Y-49820057D02*
X128814285Y-49915295D01*
X128814285Y-49915295D02*
X128814285Y-49962914D01*
X128814285Y-49962914D02*
X128861904Y-50058152D01*
X128861904Y-50058152D02*
X128909523Y-50105771D01*
X128909523Y-50105771D02*
X129004761Y-50153390D01*
X129004761Y-50153390D02*
X129195237Y-50153390D01*
X129195237Y-50153390D02*
X129290475Y-50201009D01*
X129290475Y-50201009D02*
X129338094Y-50248628D01*
X129338094Y-50248628D02*
X129385713Y-50343866D01*
X129385713Y-50343866D02*
X129385713Y-50534342D01*
X129385713Y-50534342D02*
X129338094Y-50629580D01*
X129338094Y-50629580D02*
X129290475Y-50677200D01*
X129290475Y-50677200D02*
X129195237Y-50724819D01*
X129195237Y-50724819D02*
X129004761Y-50724819D01*
X129004761Y-50724819D02*
X128909523Y-50677200D01*
X128909523Y-50677200D02*
X128861904Y-50629580D01*
X128861904Y-50629580D02*
X128814285Y-50534342D01*
X128814285Y-50534342D02*
X128814285Y-50343866D01*
X128814285Y-50343866D02*
X128861904Y-50248628D01*
X128861904Y-50248628D02*
X128909523Y-50201009D01*
X128909523Y-50201009D02*
X129004761Y-50153390D01*
X96367857Y-58259580D02*
X96415476Y-58307200D01*
X96415476Y-58307200D02*
X96558333Y-58354819D01*
X96558333Y-58354819D02*
X96653571Y-58354819D01*
X96653571Y-58354819D02*
X96796428Y-58307200D01*
X96796428Y-58307200D02*
X96891666Y-58211961D01*
X96891666Y-58211961D02*
X96939285Y-58116723D01*
X96939285Y-58116723D02*
X96986904Y-57926247D01*
X96986904Y-57926247D02*
X96986904Y-57783390D01*
X96986904Y-57783390D02*
X96939285Y-57592914D01*
X96939285Y-57592914D02*
X96891666Y-57497676D01*
X96891666Y-57497676D02*
X96796428Y-57402438D01*
X96796428Y-57402438D02*
X96653571Y-57354819D01*
X96653571Y-57354819D02*
X96558333Y-57354819D01*
X96558333Y-57354819D02*
X96415476Y-57402438D01*
X96415476Y-57402438D02*
X96367857Y-57450057D01*
X95415476Y-58354819D02*
X95986904Y-58354819D01*
X95701190Y-58354819D02*
X95701190Y-57354819D01*
X95701190Y-57354819D02*
X95796428Y-57497676D01*
X95796428Y-57497676D02*
X95891666Y-57592914D01*
X95891666Y-57592914D02*
X95986904Y-57640533D01*
X94939285Y-58354819D02*
X94748809Y-58354819D01*
X94748809Y-58354819D02*
X94653571Y-58307200D01*
X94653571Y-58307200D02*
X94605952Y-58259580D01*
X94605952Y-58259580D02*
X94510714Y-58116723D01*
X94510714Y-58116723D02*
X94463095Y-57926247D01*
X94463095Y-57926247D02*
X94463095Y-57545295D01*
X94463095Y-57545295D02*
X94510714Y-57450057D01*
X94510714Y-57450057D02*
X94558333Y-57402438D01*
X94558333Y-57402438D02*
X94653571Y-57354819D01*
X94653571Y-57354819D02*
X94844047Y-57354819D01*
X94844047Y-57354819D02*
X94939285Y-57402438D01*
X94939285Y-57402438D02*
X94986904Y-57450057D01*
X94986904Y-57450057D02*
X95034523Y-57545295D01*
X95034523Y-57545295D02*
X95034523Y-57783390D01*
X95034523Y-57783390D02*
X94986904Y-57878628D01*
X94986904Y-57878628D02*
X94939285Y-57926247D01*
X94939285Y-57926247D02*
X94844047Y-57973866D01*
X94844047Y-57973866D02*
X94653571Y-57973866D01*
X94653571Y-57973866D02*
X94558333Y-57926247D01*
X94558333Y-57926247D02*
X94510714Y-57878628D01*
X94510714Y-57878628D02*
X94463095Y-57783390D01*
X132042857Y-60859580D02*
X132090476Y-60907200D01*
X132090476Y-60907200D02*
X132233333Y-60954819D01*
X132233333Y-60954819D02*
X132328571Y-60954819D01*
X132328571Y-60954819D02*
X132471428Y-60907200D01*
X132471428Y-60907200D02*
X132566666Y-60811961D01*
X132566666Y-60811961D02*
X132614285Y-60716723D01*
X132614285Y-60716723D02*
X132661904Y-60526247D01*
X132661904Y-60526247D02*
X132661904Y-60383390D01*
X132661904Y-60383390D02*
X132614285Y-60192914D01*
X132614285Y-60192914D02*
X132566666Y-60097676D01*
X132566666Y-60097676D02*
X132471428Y-60002438D01*
X132471428Y-60002438D02*
X132328571Y-59954819D01*
X132328571Y-59954819D02*
X132233333Y-59954819D01*
X132233333Y-59954819D02*
X132090476Y-60002438D01*
X132090476Y-60002438D02*
X132042857Y-60050057D01*
X131661904Y-60050057D02*
X131614285Y-60002438D01*
X131614285Y-60002438D02*
X131519047Y-59954819D01*
X131519047Y-59954819D02*
X131280952Y-59954819D01*
X131280952Y-59954819D02*
X131185714Y-60002438D01*
X131185714Y-60002438D02*
X131138095Y-60050057D01*
X131138095Y-60050057D02*
X131090476Y-60145295D01*
X131090476Y-60145295D02*
X131090476Y-60240533D01*
X131090476Y-60240533D02*
X131138095Y-60383390D01*
X131138095Y-60383390D02*
X131709523Y-60954819D01*
X131709523Y-60954819D02*
X131090476Y-60954819D01*
X130757142Y-59954819D02*
X130138095Y-59954819D01*
X130138095Y-59954819D02*
X130471428Y-60335771D01*
X130471428Y-60335771D02*
X130328571Y-60335771D01*
X130328571Y-60335771D02*
X130233333Y-60383390D01*
X130233333Y-60383390D02*
X130185714Y-60431009D01*
X130185714Y-60431009D02*
X130138095Y-60526247D01*
X130138095Y-60526247D02*
X130138095Y-60764342D01*
X130138095Y-60764342D02*
X130185714Y-60859580D01*
X130185714Y-60859580D02*
X130233333Y-60907200D01*
X130233333Y-60907200D02*
X130328571Y-60954819D01*
X130328571Y-60954819D02*
X130614285Y-60954819D01*
X130614285Y-60954819D02*
X130709523Y-60907200D01*
X130709523Y-60907200D02*
X130757142Y-60859580D01*
X96180357Y-55189580D02*
X96227976Y-55237200D01*
X96227976Y-55237200D02*
X96370833Y-55284819D01*
X96370833Y-55284819D02*
X96466071Y-55284819D01*
X96466071Y-55284819D02*
X96608928Y-55237200D01*
X96608928Y-55237200D02*
X96704166Y-55141961D01*
X96704166Y-55141961D02*
X96751785Y-55046723D01*
X96751785Y-55046723D02*
X96799404Y-54856247D01*
X96799404Y-54856247D02*
X96799404Y-54713390D01*
X96799404Y-54713390D02*
X96751785Y-54522914D01*
X96751785Y-54522914D02*
X96704166Y-54427676D01*
X96704166Y-54427676D02*
X96608928Y-54332438D01*
X96608928Y-54332438D02*
X96466071Y-54284819D01*
X96466071Y-54284819D02*
X96370833Y-54284819D01*
X96370833Y-54284819D02*
X96227976Y-54332438D01*
X96227976Y-54332438D02*
X96180357Y-54380057D01*
X95227976Y-55284819D02*
X95799404Y-55284819D01*
X95513690Y-55284819D02*
X95513690Y-54284819D01*
X95513690Y-54284819D02*
X95608928Y-54427676D01*
X95608928Y-54427676D02*
X95704166Y-54522914D01*
X95704166Y-54522914D02*
X95799404Y-54570533D01*
X94894642Y-54284819D02*
X94227976Y-54284819D01*
X94227976Y-54284819D02*
X94656547Y-55284819D01*
X128719047Y-61954819D02*
X129290475Y-61954819D01*
X129004761Y-61954819D02*
X129004761Y-60954819D01*
X129004761Y-60954819D02*
X129099999Y-61097676D01*
X129099999Y-61097676D02*
X129195237Y-61192914D01*
X129195237Y-61192914D02*
X129290475Y-61240533D01*
X128433332Y-60954819D02*
X128099999Y-61954819D01*
X128099999Y-61954819D02*
X127766666Y-60954819D01*
X127290475Y-61383390D02*
X127385713Y-61335771D01*
X127385713Y-61335771D02*
X127433332Y-61288152D01*
X127433332Y-61288152D02*
X127480951Y-61192914D01*
X127480951Y-61192914D02*
X127480951Y-61145295D01*
X127480951Y-61145295D02*
X127433332Y-61050057D01*
X127433332Y-61050057D02*
X127385713Y-61002438D01*
X127385713Y-61002438D02*
X127290475Y-60954819D01*
X127290475Y-60954819D02*
X127099999Y-60954819D01*
X127099999Y-60954819D02*
X127004761Y-61002438D01*
X127004761Y-61002438D02*
X126957142Y-61050057D01*
X126957142Y-61050057D02*
X126909523Y-61145295D01*
X126909523Y-61145295D02*
X126909523Y-61192914D01*
X126909523Y-61192914D02*
X126957142Y-61288152D01*
X126957142Y-61288152D02*
X127004761Y-61335771D01*
X127004761Y-61335771D02*
X127099999Y-61383390D01*
X127099999Y-61383390D02*
X127290475Y-61383390D01*
X127290475Y-61383390D02*
X127385713Y-61431009D01*
X127385713Y-61431009D02*
X127433332Y-61478628D01*
X127433332Y-61478628D02*
X127480951Y-61573866D01*
X127480951Y-61573866D02*
X127480951Y-61764342D01*
X127480951Y-61764342D02*
X127433332Y-61859580D01*
X127433332Y-61859580D02*
X127385713Y-61907200D01*
X127385713Y-61907200D02*
X127290475Y-61954819D01*
X127290475Y-61954819D02*
X127099999Y-61954819D01*
X127099999Y-61954819D02*
X127004761Y-61907200D01*
X127004761Y-61907200D02*
X126957142Y-61859580D01*
X126957142Y-61859580D02*
X126909523Y-61764342D01*
X126909523Y-61764342D02*
X126909523Y-61573866D01*
X126909523Y-61573866D02*
X126957142Y-61478628D01*
X126957142Y-61478628D02*
X127004761Y-61431009D01*
X127004761Y-61431009D02*
X127099999Y-61383390D01*
X117842857Y-50159580D02*
X117890476Y-50207200D01*
X117890476Y-50207200D02*
X118033333Y-50254819D01*
X118033333Y-50254819D02*
X118128571Y-50254819D01*
X118128571Y-50254819D02*
X118271428Y-50207200D01*
X118271428Y-50207200D02*
X118366666Y-50111961D01*
X118366666Y-50111961D02*
X118414285Y-50016723D01*
X118414285Y-50016723D02*
X118461904Y-49826247D01*
X118461904Y-49826247D02*
X118461904Y-49683390D01*
X118461904Y-49683390D02*
X118414285Y-49492914D01*
X118414285Y-49492914D02*
X118366666Y-49397676D01*
X118366666Y-49397676D02*
X118271428Y-49302438D01*
X118271428Y-49302438D02*
X118128571Y-49254819D01*
X118128571Y-49254819D02*
X118033333Y-49254819D01*
X118033333Y-49254819D02*
X117890476Y-49302438D01*
X117890476Y-49302438D02*
X117842857Y-49350057D01*
X117461904Y-49350057D02*
X117414285Y-49302438D01*
X117414285Y-49302438D02*
X117319047Y-49254819D01*
X117319047Y-49254819D02*
X117080952Y-49254819D01*
X117080952Y-49254819D02*
X116985714Y-49302438D01*
X116985714Y-49302438D02*
X116938095Y-49350057D01*
X116938095Y-49350057D02*
X116890476Y-49445295D01*
X116890476Y-49445295D02*
X116890476Y-49540533D01*
X116890476Y-49540533D02*
X116938095Y-49683390D01*
X116938095Y-49683390D02*
X117509523Y-50254819D01*
X117509523Y-50254819D02*
X116890476Y-50254819D01*
X115938095Y-50254819D02*
X116509523Y-50254819D01*
X116223809Y-50254819D02*
X116223809Y-49254819D01*
X116223809Y-49254819D02*
X116319047Y-49397676D01*
X116319047Y-49397676D02*
X116414285Y-49492914D01*
X116414285Y-49492914D02*
X116509523Y-49540533D01*
X100042857Y-58359580D02*
X100090476Y-58407200D01*
X100090476Y-58407200D02*
X100233333Y-58454819D01*
X100233333Y-58454819D02*
X100328571Y-58454819D01*
X100328571Y-58454819D02*
X100471428Y-58407200D01*
X100471428Y-58407200D02*
X100566666Y-58311961D01*
X100566666Y-58311961D02*
X100614285Y-58216723D01*
X100614285Y-58216723D02*
X100661904Y-58026247D01*
X100661904Y-58026247D02*
X100661904Y-57883390D01*
X100661904Y-57883390D02*
X100614285Y-57692914D01*
X100614285Y-57692914D02*
X100566666Y-57597676D01*
X100566666Y-57597676D02*
X100471428Y-57502438D01*
X100471428Y-57502438D02*
X100328571Y-57454819D01*
X100328571Y-57454819D02*
X100233333Y-57454819D01*
X100233333Y-57454819D02*
X100090476Y-57502438D01*
X100090476Y-57502438D02*
X100042857Y-57550057D01*
X99661904Y-57550057D02*
X99614285Y-57502438D01*
X99614285Y-57502438D02*
X99519047Y-57454819D01*
X99519047Y-57454819D02*
X99280952Y-57454819D01*
X99280952Y-57454819D02*
X99185714Y-57502438D01*
X99185714Y-57502438D02*
X99138095Y-57550057D01*
X99138095Y-57550057D02*
X99090476Y-57645295D01*
X99090476Y-57645295D02*
X99090476Y-57740533D01*
X99090476Y-57740533D02*
X99138095Y-57883390D01*
X99138095Y-57883390D02*
X99709523Y-58454819D01*
X99709523Y-58454819D02*
X99090476Y-58454819D01*
X98471428Y-57454819D02*
X98376190Y-57454819D01*
X98376190Y-57454819D02*
X98280952Y-57502438D01*
X98280952Y-57502438D02*
X98233333Y-57550057D01*
X98233333Y-57550057D02*
X98185714Y-57645295D01*
X98185714Y-57645295D02*
X98138095Y-57835771D01*
X98138095Y-57835771D02*
X98138095Y-58073866D01*
X98138095Y-58073866D02*
X98185714Y-58264342D01*
X98185714Y-58264342D02*
X98233333Y-58359580D01*
X98233333Y-58359580D02*
X98280952Y-58407200D01*
X98280952Y-58407200D02*
X98376190Y-58454819D01*
X98376190Y-58454819D02*
X98471428Y-58454819D01*
X98471428Y-58454819D02*
X98566666Y-58407200D01*
X98566666Y-58407200D02*
X98614285Y-58359580D01*
X98614285Y-58359580D02*
X98661904Y-58264342D01*
X98661904Y-58264342D02*
X98709523Y-58073866D01*
X98709523Y-58073866D02*
X98709523Y-57835771D01*
X98709523Y-57835771D02*
X98661904Y-57645295D01*
X98661904Y-57645295D02*
X98614285Y-57550057D01*
X98614285Y-57550057D02*
X98566666Y-57502438D01*
X98566666Y-57502438D02*
X98471428Y-57454819D01*
X125766666Y-43954819D02*
X126099999Y-43478628D01*
X126338094Y-43954819D02*
X126338094Y-42954819D01*
X126338094Y-42954819D02*
X125957142Y-42954819D01*
X125957142Y-42954819D02*
X125861904Y-43002438D01*
X125861904Y-43002438D02*
X125814285Y-43050057D01*
X125814285Y-43050057D02*
X125766666Y-43145295D01*
X125766666Y-43145295D02*
X125766666Y-43288152D01*
X125766666Y-43288152D02*
X125814285Y-43383390D01*
X125814285Y-43383390D02*
X125861904Y-43431009D01*
X125861904Y-43431009D02*
X125957142Y-43478628D01*
X125957142Y-43478628D02*
X126338094Y-43478628D01*
X124909523Y-43288152D02*
X124909523Y-43954819D01*
X125147618Y-42907200D02*
X125385713Y-43621485D01*
X125385713Y-43621485D02*
X124766666Y-43621485D01*
X96637380Y-39614488D02*
X96455952Y-39674964D01*
X96455952Y-39674964D02*
X96395475Y-39735440D01*
X96395475Y-39735440D02*
X96334999Y-39856392D01*
X96334999Y-39856392D02*
X96334999Y-40037821D01*
X96334999Y-40037821D02*
X96395475Y-40158773D01*
X96395475Y-40158773D02*
X96455952Y-40219250D01*
X96455952Y-40219250D02*
X96576904Y-40279726D01*
X96576904Y-40279726D02*
X97060714Y-40279726D01*
X97060714Y-40279726D02*
X97060714Y-39009726D01*
X97060714Y-39009726D02*
X96637380Y-39009726D01*
X96637380Y-39009726D02*
X96516428Y-39070202D01*
X96516428Y-39070202D02*
X96455952Y-39130678D01*
X96455952Y-39130678D02*
X96395475Y-39251630D01*
X96395475Y-39251630D02*
X96395475Y-39372583D01*
X96395475Y-39372583D02*
X96455952Y-39493535D01*
X96455952Y-39493535D02*
X96516428Y-39554011D01*
X96516428Y-39554011D02*
X96637380Y-39614488D01*
X96637380Y-39614488D02*
X97060714Y-39614488D01*
X95851190Y-39916869D02*
X95246428Y-39916869D01*
X95972142Y-40279726D02*
X95548809Y-39009726D01*
X95548809Y-39009726D02*
X95125475Y-40279726D01*
X94883571Y-39009726D02*
X94157857Y-39009726D01*
X94520714Y-40279726D02*
X94520714Y-39009726D01*
D11*
X91241466Y-42303884D02*
X91241466Y-43065789D01*
X91622419Y-42684836D02*
X90860514Y-42684836D01*
D10*
X121966666Y-48559580D02*
X122014285Y-48607200D01*
X122014285Y-48607200D02*
X122157142Y-48654819D01*
X122157142Y-48654819D02*
X122252380Y-48654819D01*
X122252380Y-48654819D02*
X122395237Y-48607200D01*
X122395237Y-48607200D02*
X122490475Y-48511961D01*
X122490475Y-48511961D02*
X122538094Y-48416723D01*
X122538094Y-48416723D02*
X122585713Y-48226247D01*
X122585713Y-48226247D02*
X122585713Y-48083390D01*
X122585713Y-48083390D02*
X122538094Y-47892914D01*
X122538094Y-47892914D02*
X122490475Y-47797676D01*
X122490475Y-47797676D02*
X122395237Y-47702438D01*
X122395237Y-47702438D02*
X122252380Y-47654819D01*
X122252380Y-47654819D02*
X122157142Y-47654819D01*
X122157142Y-47654819D02*
X122014285Y-47702438D01*
X122014285Y-47702438D02*
X121966666Y-47750057D01*
X121633332Y-47654819D02*
X120966666Y-47654819D01*
X120966666Y-47654819D02*
X121395237Y-48654819D01*
X100795057Y-65909580D02*
X100842676Y-65957200D01*
X100842676Y-65957200D02*
X100985533Y-66004819D01*
X100985533Y-66004819D02*
X101080771Y-66004819D01*
X101080771Y-66004819D02*
X101223628Y-65957200D01*
X101223628Y-65957200D02*
X101318866Y-65861961D01*
X101318866Y-65861961D02*
X101366485Y-65766723D01*
X101366485Y-65766723D02*
X101414104Y-65576247D01*
X101414104Y-65576247D02*
X101414104Y-65433390D01*
X101414104Y-65433390D02*
X101366485Y-65242914D01*
X101366485Y-65242914D02*
X101318866Y-65147676D01*
X101318866Y-65147676D02*
X101223628Y-65052438D01*
X101223628Y-65052438D02*
X101080771Y-65004819D01*
X101080771Y-65004819D02*
X100985533Y-65004819D01*
X100985533Y-65004819D02*
X100842676Y-65052438D01*
X100842676Y-65052438D02*
X100795057Y-65100057D01*
X100414104Y-65100057D02*
X100366485Y-65052438D01*
X100366485Y-65052438D02*
X100271247Y-65004819D01*
X100271247Y-65004819D02*
X100033152Y-65004819D01*
X100033152Y-65004819D02*
X99937914Y-65052438D01*
X99937914Y-65052438D02*
X99890295Y-65100057D01*
X99890295Y-65100057D02*
X99842676Y-65195295D01*
X99842676Y-65195295D02*
X99842676Y-65290533D01*
X99842676Y-65290533D02*
X99890295Y-65433390D01*
X99890295Y-65433390D02*
X100461723Y-66004819D01*
X100461723Y-66004819D02*
X99842676Y-66004819D01*
X98937914Y-65004819D02*
X99414104Y-65004819D01*
X99414104Y-65004819D02*
X99461723Y-65481009D01*
X99461723Y-65481009D02*
X99414104Y-65433390D01*
X99414104Y-65433390D02*
X99318866Y-65385771D01*
X99318866Y-65385771D02*
X99080771Y-65385771D01*
X99080771Y-65385771D02*
X98985533Y-65433390D01*
X98985533Y-65433390D02*
X98937914Y-65481009D01*
X98937914Y-65481009D02*
X98890295Y-65576247D01*
X98890295Y-65576247D02*
X98890295Y-65814342D01*
X98890295Y-65814342D02*
X98937914Y-65909580D01*
X98937914Y-65909580D02*
X98985533Y-65957200D01*
X98985533Y-65957200D02*
X99080771Y-66004819D01*
X99080771Y-66004819D02*
X99318866Y-66004819D01*
X99318866Y-66004819D02*
X99414104Y-65957200D01*
X99414104Y-65957200D02*
X99461723Y-65909580D01*
X129566666Y-46729580D02*
X129614285Y-46777200D01*
X129614285Y-46777200D02*
X129757142Y-46824819D01*
X129757142Y-46824819D02*
X129852380Y-46824819D01*
X129852380Y-46824819D02*
X129995237Y-46777200D01*
X129995237Y-46777200D02*
X130090475Y-46681961D01*
X130090475Y-46681961D02*
X130138094Y-46586723D01*
X130138094Y-46586723D02*
X130185713Y-46396247D01*
X130185713Y-46396247D02*
X130185713Y-46253390D01*
X130185713Y-46253390D02*
X130138094Y-46062914D01*
X130138094Y-46062914D02*
X130090475Y-45967676D01*
X130090475Y-45967676D02*
X129995237Y-45872438D01*
X129995237Y-45872438D02*
X129852380Y-45824819D01*
X129852380Y-45824819D02*
X129757142Y-45824819D01*
X129757142Y-45824819D02*
X129614285Y-45872438D01*
X129614285Y-45872438D02*
X129566666Y-45920057D01*
X129185713Y-45920057D02*
X129138094Y-45872438D01*
X129138094Y-45872438D02*
X129042856Y-45824819D01*
X129042856Y-45824819D02*
X128804761Y-45824819D01*
X128804761Y-45824819D02*
X128709523Y-45872438D01*
X128709523Y-45872438D02*
X128661904Y-45920057D01*
X128661904Y-45920057D02*
X128614285Y-46015295D01*
X128614285Y-46015295D02*
X128614285Y-46110533D01*
X128614285Y-46110533D02*
X128661904Y-46253390D01*
X128661904Y-46253390D02*
X129233332Y-46824819D01*
X129233332Y-46824819D02*
X128614285Y-46824819D01*
X124842857Y-58959580D02*
X124890476Y-59007200D01*
X124890476Y-59007200D02*
X125033333Y-59054819D01*
X125033333Y-59054819D02*
X125128571Y-59054819D01*
X125128571Y-59054819D02*
X125271428Y-59007200D01*
X125271428Y-59007200D02*
X125366666Y-58911961D01*
X125366666Y-58911961D02*
X125414285Y-58816723D01*
X125414285Y-58816723D02*
X125461904Y-58626247D01*
X125461904Y-58626247D02*
X125461904Y-58483390D01*
X125461904Y-58483390D02*
X125414285Y-58292914D01*
X125414285Y-58292914D02*
X125366666Y-58197676D01*
X125366666Y-58197676D02*
X125271428Y-58102438D01*
X125271428Y-58102438D02*
X125128571Y-58054819D01*
X125128571Y-58054819D02*
X125033333Y-58054819D01*
X125033333Y-58054819D02*
X124890476Y-58102438D01*
X124890476Y-58102438D02*
X124842857Y-58150057D01*
X124461904Y-58150057D02*
X124414285Y-58102438D01*
X124414285Y-58102438D02*
X124319047Y-58054819D01*
X124319047Y-58054819D02*
X124080952Y-58054819D01*
X124080952Y-58054819D02*
X123985714Y-58102438D01*
X123985714Y-58102438D02*
X123938095Y-58150057D01*
X123938095Y-58150057D02*
X123890476Y-58245295D01*
X123890476Y-58245295D02*
X123890476Y-58340533D01*
X123890476Y-58340533D02*
X123938095Y-58483390D01*
X123938095Y-58483390D02*
X124509523Y-59054819D01*
X124509523Y-59054819D02*
X123890476Y-59054819D01*
X123509523Y-58150057D02*
X123461904Y-58102438D01*
X123461904Y-58102438D02*
X123366666Y-58054819D01*
X123366666Y-58054819D02*
X123128571Y-58054819D01*
X123128571Y-58054819D02*
X123033333Y-58102438D01*
X123033333Y-58102438D02*
X122985714Y-58150057D01*
X122985714Y-58150057D02*
X122938095Y-58245295D01*
X122938095Y-58245295D02*
X122938095Y-58340533D01*
X122938095Y-58340533D02*
X122985714Y-58483390D01*
X122985714Y-58483390D02*
X123557142Y-59054819D01*
X123557142Y-59054819D02*
X122938095Y-59054819D01*
X125666666Y-46609580D02*
X125714285Y-46657200D01*
X125714285Y-46657200D02*
X125857142Y-46704819D01*
X125857142Y-46704819D02*
X125952380Y-46704819D01*
X125952380Y-46704819D02*
X126095237Y-46657200D01*
X126095237Y-46657200D02*
X126190475Y-46561961D01*
X126190475Y-46561961D02*
X126238094Y-46466723D01*
X126238094Y-46466723D02*
X126285713Y-46276247D01*
X126285713Y-46276247D02*
X126285713Y-46133390D01*
X126285713Y-46133390D02*
X126238094Y-45942914D01*
X126238094Y-45942914D02*
X126190475Y-45847676D01*
X126190475Y-45847676D02*
X126095237Y-45752438D01*
X126095237Y-45752438D02*
X125952380Y-45704819D01*
X125952380Y-45704819D02*
X125857142Y-45704819D01*
X125857142Y-45704819D02*
X125714285Y-45752438D01*
X125714285Y-45752438D02*
X125666666Y-45800057D01*
X124761904Y-45704819D02*
X125238094Y-45704819D01*
X125238094Y-45704819D02*
X125285713Y-46181009D01*
X125285713Y-46181009D02*
X125238094Y-46133390D01*
X125238094Y-46133390D02*
X125142856Y-46085771D01*
X125142856Y-46085771D02*
X124904761Y-46085771D01*
X124904761Y-46085771D02*
X124809523Y-46133390D01*
X124809523Y-46133390D02*
X124761904Y-46181009D01*
X124761904Y-46181009D02*
X124714285Y-46276247D01*
X124714285Y-46276247D02*
X124714285Y-46514342D01*
X124714285Y-46514342D02*
X124761904Y-46609580D01*
X124761904Y-46609580D02*
X124809523Y-46657200D01*
X124809523Y-46657200D02*
X124904761Y-46704819D01*
X124904761Y-46704819D02*
X125142856Y-46704819D01*
X125142856Y-46704819D02*
X125238094Y-46657200D01*
X125238094Y-46657200D02*
X125285713Y-46609580D01*
X104342857Y-58659580D02*
X104390476Y-58707200D01*
X104390476Y-58707200D02*
X104533333Y-58754819D01*
X104533333Y-58754819D02*
X104628571Y-58754819D01*
X104628571Y-58754819D02*
X104771428Y-58707200D01*
X104771428Y-58707200D02*
X104866666Y-58611961D01*
X104866666Y-58611961D02*
X104914285Y-58516723D01*
X104914285Y-58516723D02*
X104961904Y-58326247D01*
X104961904Y-58326247D02*
X104961904Y-58183390D01*
X104961904Y-58183390D02*
X104914285Y-57992914D01*
X104914285Y-57992914D02*
X104866666Y-57897676D01*
X104866666Y-57897676D02*
X104771428Y-57802438D01*
X104771428Y-57802438D02*
X104628571Y-57754819D01*
X104628571Y-57754819D02*
X104533333Y-57754819D01*
X104533333Y-57754819D02*
X104390476Y-57802438D01*
X104390476Y-57802438D02*
X104342857Y-57850057D01*
X103390476Y-58754819D02*
X103961904Y-58754819D01*
X103676190Y-58754819D02*
X103676190Y-57754819D01*
X103676190Y-57754819D02*
X103771428Y-57897676D01*
X103771428Y-57897676D02*
X103866666Y-57992914D01*
X103866666Y-57992914D02*
X103961904Y-58040533D01*
X102485714Y-57754819D02*
X102961904Y-57754819D01*
X102961904Y-57754819D02*
X103009523Y-58231009D01*
X103009523Y-58231009D02*
X102961904Y-58183390D01*
X102961904Y-58183390D02*
X102866666Y-58135771D01*
X102866666Y-58135771D02*
X102628571Y-58135771D01*
X102628571Y-58135771D02*
X102533333Y-58183390D01*
X102533333Y-58183390D02*
X102485714Y-58231009D01*
X102485714Y-58231009D02*
X102438095Y-58326247D01*
X102438095Y-58326247D02*
X102438095Y-58564342D01*
X102438095Y-58564342D02*
X102485714Y-58659580D01*
X102485714Y-58659580D02*
X102533333Y-58707200D01*
X102533333Y-58707200D02*
X102628571Y-58754819D01*
X102628571Y-58754819D02*
X102866666Y-58754819D01*
X102866666Y-58754819D02*
X102961904Y-58707200D01*
X102961904Y-58707200D02*
X103009523Y-58659580D01*
D12*
%TO.C,R2*%
X125842224Y-41477500D02*
X125332776Y-41477500D01*
X125842224Y-42522500D02*
X125332776Y-42522500D01*
%TO.C,C24*%
X124046267Y-59490000D02*
X123753733Y-59490000D01*
X124046267Y-60510000D02*
X123753733Y-60510000D01*
%TO.C,R10*%
X98857776Y-49815000D02*
X99367224Y-49815000D01*
X98857776Y-50860000D02*
X99367224Y-50860000D01*
%TO.C,C18*%
X99258767Y-52927500D02*
X98966233Y-52927500D01*
X99258767Y-53947500D02*
X98966233Y-53947500D01*
%TO.C,R7*%
X122004724Y-41477500D02*
X121495276Y-41477500D01*
X122004724Y-42522500D02*
X121495276Y-42522500D01*
D13*
%TO.C,U4*%
X102271400Y-65665600D02*
X105624200Y-65665600D01*
X102271400Y-66122800D02*
X102271400Y-65665600D01*
X102271400Y-70034400D02*
X102271400Y-69577200D01*
X105624200Y-65665600D02*
X105624200Y-66122800D01*
X105624200Y-69577200D02*
X105624200Y-70034400D01*
X105624200Y-70034400D02*
X102271400Y-70034400D01*
D12*
%TO.C,C4*%
X129508767Y-41490000D02*
X129216233Y-41490000D01*
X129508767Y-42510000D02*
X129216233Y-42510000D01*
%TO.C,C12*%
X126146267Y-54190000D02*
X125853733Y-54190000D01*
X126146267Y-55210000D02*
X125853733Y-55210000D01*
%TO.C,C26*%
X106600000Y-68386267D02*
X106600000Y-68093733D01*
X107620000Y-68386267D02*
X107620000Y-68093733D01*
%TO.C,R8*%
X95232776Y-49777500D02*
X95742224Y-49777500D01*
X95232776Y-50822500D02*
X95742224Y-50822500D01*
%TO.C,C9*%
X126246267Y-51190000D02*
X125953733Y-51190000D01*
X126246267Y-52210000D02*
X125953733Y-52210000D01*
%TO.C,C6*%
X129508767Y-44290000D02*
X129216233Y-44290000D01*
X129508767Y-45310000D02*
X129216233Y-45310000D01*
%TO.C,C11*%
X129683767Y-54190000D02*
X129391233Y-54190000D01*
X129683767Y-55210000D02*
X129391233Y-55210000D01*
%TO.C,C3*%
X122033767Y-43240000D02*
X121741233Y-43240000D01*
X122033767Y-44260000D02*
X121741233Y-44260000D01*
D14*
%TO.C,U2*%
X90100000Y-52200000D02*
X90100000Y-52260000D01*
X90100000Y-54640000D02*
X90100000Y-54700000D01*
X90100000Y-54700000D02*
X90660000Y-54700000D01*
X90660000Y-52200000D02*
X90100000Y-52200000D01*
X92540000Y-54700000D02*
X93100000Y-54700000D01*
X93100000Y-52200000D02*
X92540000Y-52200000D01*
X93100000Y-52260000D02*
X93100000Y-52200000D01*
X93100000Y-54700000D02*
X93100000Y-54640000D01*
D15*
X89700000Y-54200000D02*
G75*
G02*
X89500000Y-54200000I-100000J0D01*
G01*
X89500000Y-54200000D02*
G75*
G02*
X89700000Y-54200000I100000J0D01*
G01*
D12*
%TO.C,C16*%
X102683767Y-71990000D02*
X102391233Y-71990000D01*
X102683767Y-73010000D02*
X102391233Y-73010000D01*
%TO.C,MK2*%
X102097500Y-52058000D02*
X102097500Y-55478000D01*
X102397500Y-55778000D02*
X104977500Y-55778000D01*
X104977500Y-52058000D02*
X102097500Y-52058000D01*
X104977500Y-55778000D02*
X104977500Y-52058000D01*
X102097500Y-56058000D02*
X101817500Y-55778000D01*
X102097500Y-55778000D01*
X102097500Y-56058000D01*
G36*
X102097500Y-56058000D02*
G01*
X101817500Y-55778000D01*
X102097500Y-55778000D01*
X102097500Y-56058000D01*
G37*
%TO.C,R9*%
X106454724Y-71977500D02*
X105945276Y-71977500D01*
X106454724Y-73022500D02*
X105945276Y-73022500D01*
%TO.C,C27*%
X100198467Y-68040000D02*
X99905933Y-68040000D01*
X100198467Y-69060000D02*
X99905933Y-69060000D01*
%TO.C,C8*%
X129746267Y-51190000D02*
X129453733Y-51190000D01*
X129746267Y-52210000D02*
X129453733Y-52210000D01*
%TO.C,C19*%
X95616233Y-55890000D02*
X95908767Y-55890000D01*
X95616233Y-56910000D02*
X95908767Y-56910000D01*
%TO.C,C23*%
X130490000Y-58146267D02*
X130490000Y-57853733D01*
X131510000Y-58146267D02*
X131510000Y-57853733D01*
%TO.C,C17*%
X95391233Y-52890000D02*
X95683767Y-52890000D01*
X95391233Y-53910000D02*
X95683767Y-53910000D01*
D13*
%TO.C,U3*%
X126223600Y-56315600D02*
X129576400Y-56315600D01*
X126223600Y-56772800D02*
X126223600Y-56315600D01*
X126223600Y-60684400D02*
X126223600Y-60227200D01*
X129576400Y-56315600D02*
X129576400Y-56772800D01*
X129576400Y-60227200D02*
X129576400Y-60684400D01*
X129576400Y-60684400D02*
X126223600Y-60684400D01*
D12*
%TO.C,C21*%
X117053733Y-47790000D02*
X117346267Y-47790000D01*
X117053733Y-48810000D02*
X117346267Y-48810000D01*
%TO.C,C20*%
X99153733Y-55890000D02*
X99446267Y-55890000D01*
X99153733Y-56910000D02*
X99446267Y-56910000D01*
%TO.C,R4*%
X125854724Y-44277500D02*
X125345276Y-44277500D01*
X125854724Y-45322500D02*
X125345276Y-45322500D01*
D14*
%TO.C,J5*%
X91800000Y-40750000D02*
X91800000Y-46650000D01*
X91800000Y-46650000D02*
X99400000Y-46650000D01*
X99400000Y-40750000D02*
X91800000Y-40750000D01*
X99400000Y-46650000D02*
X99400000Y-40750000D01*
D12*
%TO.C,C7*%
X121946267Y-46190000D02*
X121653733Y-46190000D01*
X121946267Y-47210000D02*
X121653733Y-47210000D01*
%TO.C,C25*%
X100198467Y-66440000D02*
X99905933Y-66440000D01*
X100198467Y-67460000D02*
X99905933Y-67460000D01*
%TO.C,C2*%
X129546267Y-47290000D02*
X129253733Y-47290000D01*
X129546267Y-48310000D02*
X129253733Y-48310000D01*
%TO.C,C22*%
X124146267Y-56590000D02*
X123853733Y-56590000D01*
X124146267Y-57610000D02*
X123853733Y-57610000D01*
%TO.C,C5*%
X125646267Y-47240000D02*
X125353733Y-47240000D01*
X125646267Y-48260000D02*
X125353733Y-48260000D01*
%TO.C,C15*%
X103353733Y-56290000D02*
X103646267Y-56290000D01*
X103353733Y-57310000D02*
X103646267Y-57310000D01*
%TD*%
D16*
%TO.C,U4*%
X102397800Y-69125000D03*
%TD*%
%TO.C,U3*%
X126350000Y-59775000D03*
%TD*%
M02*
